<?xml version="1.0" encoding="utf-8" standalone="no"?>
<!DOCTYPE svg PUBLIC "-//W3C//DTD SVG 1.1//EN"
  "http://www.w3.org/Graphics/SVG/1.1/DTD/svg11.dtd">
<!-- Created with matplotlib (https://matplotlib.org/) -->
<svg height="288pt" version="1.1" viewBox="0 0 432 288" width="432pt" xmlns="http://www.w3.org/2000/svg" xmlns:xlink="http://www.w3.org/1999/xlink">
 <metadata>
  <rdf:RDF xmlns:cc="http://creativecommons.org/ns#" xmlns:dc="http://purl.org/dc/elements/1.1/" xmlns:rdf="http://www.w3.org/1999/02/22-rdf-syntax-ns#">
   <cc:Work>
    <dc:type rdf:resource="http://purl.org/dc/dcmitype/StillImage"/>
    <dc:date>2021-04-29T15:22:29.406510</dc:date>
    <dc:format>image/svg+xml</dc:format>
    <dc:creator>
     <cc:Agent>
      <dc:title>Matplotlib v3.3.1, https://matplotlib.org/</dc:title>
     </cc:Agent>
    </dc:creator>
   </cc:Work>
  </rdf:RDF>
 </metadata>
 <defs>
  <style type="text/css">*{stroke-linecap:butt;stroke-linejoin:round;}</style>
 </defs>
 <g id="figure_1">
  <g id="patch_1">
   <path d="M 0 288 
L 432 288 
L 432 0 
L 0 0 
z
" style="fill:none;"/>
  </g>
  <g id="axes_1">
   <g id="patch_2">
    <path d="M 54 252 
L 388.8 252 
L 388.8 34.56 
L 54 34.56 
z
" style="fill:none;"/>
   </g>
   <g id="patch_3">
    <path clip-path="url(#p283a82a0d0)" d="M 56.48 164.275544 
L 59.786667 164.275544 
L 59.786667 242.116364 
L 56.48 242.116364 
z
" style="fill:#1f77b4;"/>
   </g>
   <g id="patch_4">
    <path clip-path="url(#p283a82a0d0)" d="M 60.613333 164.275544 
L 63.92 164.275544 
L 63.92 238.883198 
L 60.613333 238.883198 
z
" style="fill:#1f77b4;"/>
   </g>
   <g id="patch_5">
    <path clip-path="url(#p283a82a0d0)" d="M 64.746667 164.275544 
L 68.053333 164.275544 
L 68.053333 218.030737 
L 64.746667 218.030737 
z
" style="fill:#1f77b4;"/>
   </g>
   <g id="patch_6">
    <path clip-path="url(#p283a82a0d0)" d="M 68.88 164.275544 
L 72.186667 164.275544 
L 72.186667 209.754859 
L 68.88 209.754859 
z
" style="fill:#1f77b4;"/>
   </g>
   <g id="patch_7">
    <path clip-path="url(#p283a82a0d0)" d="M 73.013333 164.275544 
L 76.32 164.275544 
L 76.32 196.222431 
L 73.013333 196.222431 
z
" style="fill:#1f77b4;"/>
   </g>
   <g id="patch_8">
    <path clip-path="url(#p283a82a0d0)" d="M 77.146667 164.275544 
L 80.453333 164.275544 
L 80.453333 193.090161 
L 77.146667 193.090161 
z
" style="fill:#1f77b4;"/>
   </g>
   <g id="patch_9">
    <path clip-path="url(#p283a82a0d0)" d="M 81.28 164.275544 
L 84.586667 164.275544 
L 84.586667 189.36324 
L 81.28 189.36324 
z
" style="fill:#1f77b4;"/>
   </g>
   <g id="patch_10">
    <path clip-path="url(#p283a82a0d0)" d="M 85.413333 164.275544 
L 88.72 164.275544 
L 88.72 188.26017 
L 85.413333 188.26017 
z
" style="fill:#1f77b4;"/>
   </g>
   <g id="patch_11">
    <path clip-path="url(#p283a82a0d0)" d="M 89.546667 164.275544 
L 92.853333 164.275544 
L 92.853333 186.664915 
L 89.546667 186.664915 
z
" style="fill:#1f77b4;"/>
   </g>
   <g id="patch_12">
    <path clip-path="url(#p283a82a0d0)" d="M 93.68 164.275544 
L 96.986667 164.275544 
L 96.986667 186.118014 
L 93.68 186.118014 
z
" style="fill:#1f77b4;"/>
   </g>
   <g id="patch_13">
    <path clip-path="url(#p283a82a0d0)" d="M 97.813333 164.275544 
L 101.12 164.275544 
L 101.12 184.889668 
L 97.813333 184.889668 
z
" style="fill:#1f77b4;"/>
   </g>
   <g id="patch_14">
    <path clip-path="url(#p283a82a0d0)" d="M 101.946667 164.275544 
L 105.253333 164.275544 
L 105.253333 184.077318 
L 101.946667 184.077318 
z
" style="fill:#1f77b4;"/>
   </g>
   <g id="patch_15">
    <path clip-path="url(#p283a82a0d0)" d="M 106.08 164.275544 
L 109.386667 164.275544 
L 109.386667 180.941537 
L 106.08 180.941537 
z
" style="fill:#1f77b4;"/>
   </g>
   <g id="patch_16">
    <path clip-path="url(#p283a82a0d0)" d="M 110.213333 164.275544 
L 113.52 164.275544 
L 113.52 178.895365 
L 110.213333 178.895365 
z
" style="fill:#1f77b4;"/>
   </g>
   <g id="patch_17">
    <path clip-path="url(#p283a82a0d0)" d="M 114.346667 164.275544 
L 117.653333 164.275544 
L 117.653333 176.32963 
L 114.346667 176.32963 
z
" style="fill:#1f77b4;"/>
   </g>
   <g id="patch_18">
    <path clip-path="url(#p283a82a0d0)" d="M 118.48 164.275544 
L 121.786667 164.275544 
L 121.786667 176.088241 
L 118.48 176.088241 
z
" style="fill:#1f77b4;"/>
   </g>
   <g id="patch_19">
    <path clip-path="url(#p283a82a0d0)" d="M 122.613333 164.275544 
L 125.92 164.275544 
L 125.92 173.270058 
L 122.613333 173.270058 
z
" style="fill:#1f77b4;"/>
   </g>
   <g id="patch_20">
    <path clip-path="url(#p283a82a0d0)" d="M 126.746667 164.275544 
L 130.053333 164.275544 
L 130.053333 173.025443 
L 126.746667 173.025443 
z
" style="fill:#1f77b4;"/>
   </g>
   <g id="patch_21">
    <path clip-path="url(#p283a82a0d0)" d="M 130.88 164.275544 
L 134.186667 164.275544 
L 134.186667 170.92308 
L 130.88 170.92308 
z
" style="fill:#1f77b4;"/>
   </g>
   <g id="patch_22">
    <path clip-path="url(#p283a82a0d0)" d="M 135.013333 164.275544 
L 138.32 164.275544 
L 138.32 169.897834 
L 135.013333 169.897834 
z
" style="fill:#1f77b4;"/>
   </g>
   <g id="patch_23">
    <path clip-path="url(#p283a82a0d0)" d="M 139.146667 164.275544 
L 142.453333 164.275544 
L 142.453333 169.002479 
L 139.146667 169.002479 
z
" style="fill:#1f77b4;"/>
   </g>
   <g id="patch_24">
    <path clip-path="url(#p283a82a0d0)" d="M 143.28 164.275544 
L 146.586667 164.275544 
L 146.586667 168.406521 
L 143.28 168.406521 
z
" style="fill:#1f77b4;"/>
   </g>
   <g id="patch_25">
    <path clip-path="url(#p283a82a0d0)" d="M 147.413333 164.275544 
L 150.72 164.275544 
L 150.72 168.172758 
L 147.413333 168.172758 
z
" style="fill:#1f77b4;"/>
   </g>
   <g id="patch_26">
    <path clip-path="url(#p283a82a0d0)" d="M 151.546667 164.275544 
L 154.853333 164.275544 
L 154.853333 167.733354 
L 151.546667 167.733354 
z
" style="fill:#1f77b4;"/>
   </g>
   <g id="patch_27">
    <path clip-path="url(#p283a82a0d0)" d="M 155.68 164.275544 
L 158.986667 164.275544 
L 158.986667 167.69114 
L 155.68 167.69114 
z
" style="fill:#1f77b4;"/>
   </g>
   <g id="patch_28">
    <path clip-path="url(#p283a82a0d0)" d="M 159.813333 164.275544 
L 163.12 164.275544 
L 163.12 166.849126 
L 159.813333 166.849126 
z
" style="fill:#1f77b4;"/>
   </g>
   <g id="patch_29">
    <path clip-path="url(#p283a82a0d0)" d="M 163.946667 164.275544 
L 167.253333 164.275544 
L 167.253333 166.829412 
L 163.946667 166.829412 
z
" style="fill:#1f77b4;"/>
   </g>
   <g id="patch_30">
    <path clip-path="url(#p283a82a0d0)" d="M 168.08 164.275544 
L 171.386667 164.275544 
L 171.386667 166.635576 
L 168.08 166.635576 
z
" style="fill:#1f77b4;"/>
   </g>
   <g id="patch_31">
    <path clip-path="url(#p283a82a0d0)" d="M 172.213333 164.275544 
L 175.52 164.275544 
L 175.52 166.626897 
L 172.213333 166.626897 
z
" style="fill:#1f77b4;"/>
   </g>
   <g id="patch_32">
    <path clip-path="url(#p283a82a0d0)" d="M 176.346667 164.275544 
L 179.653333 164.275544 
L 179.653333 166.314832 
L 176.346667 166.314832 
z
" style="fill:#1f77b4;"/>
   </g>
   <g id="patch_33">
    <path clip-path="url(#p283a82a0d0)" d="M 180.48 164.275544 
L 183.786667 164.275544 
L 183.786667 166.11081 
L 180.48 166.11081 
z
" style="fill:#1f77b4;"/>
   </g>
   <g id="patch_34">
    <path clip-path="url(#p283a82a0d0)" d="M 184.613333 164.275544 
L 187.92 164.275544 
L 187.92 165.85963 
L 184.613333 165.85963 
z
" style="fill:#1f77b4;"/>
   </g>
   <g id="patch_35">
    <path clip-path="url(#p283a82a0d0)" d="M 188.746667 164.275544 
L 192.053333 164.275544 
L 192.053333 165.275947 
L 188.746667 165.275947 
z
" style="fill:#1f77b4;"/>
   </g>
   <g id="patch_36">
    <path clip-path="url(#p283a82a0d0)" d="M 192.88 164.275544 
L 196.186667 164.275544 
L 196.186667 165.080567 
L 192.88 165.080567 
z
" style="fill:#1f77b4;"/>
   </g>
   <g id="patch_37">
    <path clip-path="url(#p283a82a0d0)" d="M 197.013333 164.275544 
L 200.32 164.275544 
L 200.32 164.843787 
L 197.013333 164.843787 
z
" style="fill:#1f77b4;"/>
   </g>
   <g id="patch_38">
    <path clip-path="url(#p283a82a0d0)" d="M 201.146667 164.275544 
L 204.453333 164.275544 
L 204.453333 164.588254 
L 201.146667 164.588254 
z
" style="fill:#1f77b4;"/>
   </g>
   <g id="patch_39">
    <path clip-path="url(#p283a82a0d0)" d="M 205.28 164.275544 
L 208.586667 164.275544 
L 208.586667 163.884104 
L 205.28 163.884104 
z
" style="fill:#1f77b4;"/>
   </g>
   <g id="patch_40">
    <path clip-path="url(#p283a82a0d0)" d="M 209.413333 164.275544 
L 212.72 164.275544 
L 212.72 162.686734 
L 209.413333 162.686734 
z
" style="fill:#1f77b4;"/>
   </g>
   <g id="patch_41">
    <path clip-path="url(#p283a82a0d0)" d="M 213.546667 164.275544 
L 216.853333 164.275544 
L 216.853333 162.495459 
L 213.546667 162.495459 
z
" style="fill:#1f77b4;"/>
   </g>
   <g id="patch_42">
    <path clip-path="url(#p283a82a0d0)" d="M 217.68 164.275544 
L 220.986667 164.275544 
L 220.986667 162.392101 
L 217.68 162.392101 
z
" style="fill:#1f77b4;"/>
   </g>
   <g id="patch_43">
    <path clip-path="url(#p283a82a0d0)" d="M 221.813333 164.275544 
L 225.12 164.275544 
L 225.12 162.321527 
L 221.813333 162.321527 
z
" style="fill:#1f77b4;"/>
   </g>
   <g id="patch_44">
    <path clip-path="url(#p283a82a0d0)" d="M 225.946667 164.275544 
L 229.253333 164.275544 
L 229.253333 162.254105 
L 225.946667 162.254105 
z
" style="fill:#1f77b4;"/>
   </g>
   <g id="patch_45">
    <path clip-path="url(#p283a82a0d0)" d="M 230.08 164.275544 
L 233.386667 164.275544 
L 233.386667 161.947532 
L 230.08 161.947532 
z
" style="fill:#1f77b4;"/>
   </g>
   <g id="patch_46">
    <path clip-path="url(#p283a82a0d0)" d="M 234.213333 164.275544 
L 237.52 164.275544 
L 237.52 161.196248 
L 234.213333 161.196248 
z
" style="fill:#1f77b4;"/>
   </g>
   <g id="patch_47">
    <path clip-path="url(#p283a82a0d0)" d="M 238.346667 164.275544 
L 241.653333 164.275544 
L 241.653333 161.117554 
L 238.346667 161.117554 
z
" style="fill:#1f77b4;"/>
   </g>
   <g id="patch_48">
    <path clip-path="url(#p283a82a0d0)" d="M 242.48 164.275544 
L 245.786667 164.275544 
L 245.786667 161.063077 
L 242.48 161.063077 
z
" style="fill:#1f77b4;"/>
   </g>
   <g id="patch_49">
    <path clip-path="url(#p283a82a0d0)" d="M 246.613333 164.275544 
L 249.92 164.275544 
L 249.92 160.066576 
L 246.613333 160.066576 
z
" style="fill:#1f77b4;"/>
   </g>
   <g id="patch_50">
    <path clip-path="url(#p283a82a0d0)" d="M 250.746667 164.275544 
L 254.053333 164.275544 
L 254.053333 159.999925 
L 250.746667 159.999925 
z
" style="fill:#1f77b4;"/>
   </g>
   <g id="patch_51">
    <path clip-path="url(#p283a82a0d0)" d="M 254.88 164.275544 
L 258.186667 164.275544 
L 258.186667 159.891616 
L 254.88 159.891616 
z
" style="fill:#1f77b4;"/>
   </g>
   <g id="patch_52">
    <path clip-path="url(#p283a82a0d0)" d="M 259.013333 164.275544 
L 262.32 164.275544 
L 262.32 159.786086 
L 259.013333 159.786086 
z
" style="fill:#1f77b4;"/>
   </g>
   <g id="patch_53">
    <path clip-path="url(#p283a82a0d0)" d="M 263.146667 164.275544 
L 266.453333 164.275544 
L 266.453333 159.778356 
L 263.146667 159.778356 
z
" style="fill:#1f77b4;"/>
   </g>
   <g id="patch_54">
    <path clip-path="url(#p283a82a0d0)" d="M 267.28 164.275544 
L 270.586667 164.275544 
L 270.586667 159.510779 
L 267.28 159.510779 
z
" style="fill:#1f77b4;"/>
   </g>
   <g id="patch_55">
    <path clip-path="url(#p283a82a0d0)" d="M 271.413333 164.275544 
L 274.72 164.275544 
L 274.72 158.471024 
L 271.413333 158.471024 
z
" style="fill:#1f77b4;"/>
   </g>
   <g id="patch_56">
    <path clip-path="url(#p283a82a0d0)" d="M 275.546667 164.275544 
L 278.853333 164.275544 
L 278.853333 157.51737 
L 275.546667 157.51737 
z
" style="fill:#1f77b4;"/>
   </g>
   <g id="patch_57">
    <path clip-path="url(#p283a82a0d0)" d="M 279.68 164.275544 
L 282.986667 164.275544 
L 282.986667 157.45997 
L 279.68 157.45997 
z
" style="fill:#1f77b4;"/>
   </g>
   <g id="patch_58">
    <path clip-path="url(#p283a82a0d0)" d="M 283.813333 164.275544 
L 287.12 164.275544 
L 287.12 156.447864 
L 283.813333 156.447864 
z
" style="fill:#1f77b4;"/>
   </g>
   <g id="patch_59">
    <path clip-path="url(#p283a82a0d0)" d="M 287.946667 164.275544 
L 291.253333 164.275544 
L 291.253333 155.779695 
L 287.946667 155.779695 
z
" style="fill:#1f77b4;"/>
   </g>
   <g id="patch_60">
    <path clip-path="url(#p283a82a0d0)" d="M 292.08 164.275544 
L 295.386667 164.275544 
L 295.386667 155.124331 
L 292.08 155.124331 
z
" style="fill:#1f77b4;"/>
   </g>
   <g id="patch_61">
    <path clip-path="url(#p283a82a0d0)" d="M 296.213333 164.275544 
L 299.52 164.275544 
L 299.52 155.077985 
L 296.213333 155.077985 
z
" style="fill:#1f77b4;"/>
   </g>
   <g id="patch_62">
    <path clip-path="url(#p283a82a0d0)" d="M 300.346667 164.275544 
L 303.653333 164.275544 
L 303.653333 154.532852 
L 300.346667 154.532852 
z
" style="fill:#1f77b4;"/>
   </g>
   <g id="patch_63">
    <path clip-path="url(#p283a82a0d0)" d="M 304.48 164.275544 
L 307.786667 164.275544 
L 307.786667 153.90173 
L 304.48 153.90173 
z
" style="fill:#1f77b4;"/>
   </g>
   <g id="patch_64">
    <path clip-path="url(#p283a82a0d0)" d="M 308.613333 164.275544 
L 311.92 164.275544 
L 311.92 152.078253 
L 308.613333 152.078253 
z
" style="fill:#1f77b4;"/>
   </g>
   <g id="patch_65">
    <path clip-path="url(#p283a82a0d0)" d="M 312.746667 164.275544 
L 316.053333 164.275544 
L 316.053333 150.906486 
L 312.746667 150.906486 
z
" style="fill:#1f77b4;"/>
   </g>
   <g id="patch_66">
    <path clip-path="url(#p283a82a0d0)" d="M 316.88 164.275544 
L 320.186667 164.275544 
L 320.186667 150.483861 
L 316.88 150.483861 
z
" style="fill:#1f77b4;"/>
   </g>
   <g id="patch_67">
    <path clip-path="url(#p283a82a0d0)" d="M 321.013333 164.275544 
L 324.32 164.275544 
L 324.32 150.235148 
L 321.013333 150.235148 
z
" style="fill:#1f77b4;"/>
   </g>
   <g id="patch_68">
    <path clip-path="url(#p283a82a0d0)" d="M 325.146667 164.275544 
L 328.453333 164.275544 
L 328.453333 149.385085 
L 325.146667 149.385085 
z
" style="fill:#1f77b4;"/>
   </g>
   <g id="patch_69">
    <path clip-path="url(#p283a82a0d0)" d="M 329.28 164.275544 
L 332.586667 164.275544 
L 332.586667 146.706773 
L 329.28 146.706773 
z
" style="fill:#1f77b4;"/>
   </g>
   <g id="patch_70">
    <path clip-path="url(#p283a82a0d0)" d="M 333.413333 164.275544 
L 336.72 164.275544 
L 336.72 144.694093 
L 333.413333 144.694093 
z
" style="fill:#1f77b4;"/>
   </g>
   <g id="patch_71">
    <path clip-path="url(#p283a82a0d0)" d="M 337.546667 164.275544 
L 340.853333 164.275544 
L 340.853333 142.340154 
L 337.546667 142.340154 
z
" style="fill:#1f77b4;"/>
   </g>
   <g id="patch_72">
    <path clip-path="url(#p283a82a0d0)" d="M 341.68 164.275544 
L 344.986667 164.275544 
L 344.986667 139.936175 
L 341.68 139.936175 
z
" style="fill:#1f77b4;"/>
   </g>
   <g id="patch_73">
    <path clip-path="url(#p283a82a0d0)" d="M 345.813333 164.275544 
L 349.12 164.275544 
L 349.12 138.345986 
L 345.813333 138.345986 
z
" style="fill:#1f77b4;"/>
   </g>
   <g id="patch_74">
    <path clip-path="url(#p283a82a0d0)" d="M 349.946667 164.275544 
L 353.253333 164.275544 
L 353.253333 138.237057 
L 349.946667 138.237057 
z
" style="fill:#1f77b4;"/>
   </g>
   <g id="patch_75">
    <path clip-path="url(#p283a82a0d0)" d="M 354.08 164.275544 
L 357.386667 164.275544 
L 357.386667 137.335594 
L 354.08 137.335594 
z
" style="fill:#1f77b4;"/>
   </g>
   <g id="patch_76">
    <path clip-path="url(#p283a82a0d0)" d="M 358.213333 164.275544 
L 361.52 164.275544 
L 361.52 134.011258 
L 358.213333 134.011258 
z
" style="fill:#1f77b4;"/>
   </g>
   <g id="patch_77">
    <path clip-path="url(#p283a82a0d0)" d="M 362.346667 164.275544 
L 365.653333 164.275544 
L 365.653333 126.880069 
L 362.346667 126.880069 
z
" style="fill:#1f77b4;"/>
   </g>
   <g id="patch_78">
    <path clip-path="url(#p283a82a0d0)" d="M 366.48 164.275544 
L 369.786667 164.275544 
L 369.786667 122.300186 
L 366.48 122.300186 
z
" style="fill:#1f77b4;"/>
   </g>
   <g id="patch_79">
    <path clip-path="url(#p283a82a0d0)" d="M 370.613333 164.275544 
L 373.92 164.275544 
L 373.92 104.159783 
L 370.613333 104.159783 
z
" style="fill:#1f77b4;"/>
   </g>
   <g id="patch_80">
    <path clip-path="url(#p283a82a0d0)" d="M 374.746667 164.275544 
L 378.053333 164.275544 
L 378.053333 100.337761 
L 374.746667 100.337761 
z
" style="fill:#1f77b4;"/>
   </g>
   <g id="patch_81">
    <path clip-path="url(#p283a82a0d0)" d="M 378.88 164.275544 
L 382.186667 164.275544 
L 382.186667 99.798386 
L 378.88 99.798386 
z
" style="fill:#1f77b4;"/>
   </g>
   <g id="patch_82">
    <path clip-path="url(#p283a82a0d0)" d="M 383.013333 164.275544 
L 386.32 164.275544 
L 386.32 44.443636 
L 383.013333 44.443636 
z
" style="fill:#1f77b4;"/>
   </g>
   <g id="patch_83">
    <path clip-path="url(#p283a82a0d0)" d="M 56.48 164.275544 
L 59.786667 164.275544 
L 59.786667 242.116364 
L 56.48 242.116364 
z
" style="fill:#7f7f7f;"/>
   </g>
   <g id="patch_84">
    <path clip-path="url(#p283a82a0d0)" d="M 60.613333 164.275544 
L 63.92 164.275544 
L 63.92 238.883198 
L 60.613333 238.883198 
z
" style="fill:#7f7f7f;"/>
   </g>
   <g id="patch_85">
    <path clip-path="url(#p283a82a0d0)" d="M 64.746667 164.275544 
L 68.053333 164.275544 
L 68.053333 218.030737 
L 64.746667 218.030737 
z
" style="fill:#7f7f7f;"/>
   </g>
   <g id="patch_86">
    <path clip-path="url(#p283a82a0d0)" d="M 68.88 164.275544 
L 72.186667 164.275544 
L 72.186667 209.754859 
L 68.88 209.754859 
z
" style="fill:#7f7f7f;"/>
   </g>
   <g id="patch_87">
    <path clip-path="url(#p283a82a0d0)" d="M 73.013333 164.275544 
L 76.32 164.275544 
L 76.32 196.222431 
L 73.013333 196.222431 
z
" style="fill:#7f7f7f;"/>
   </g>
   <g id="patch_88">
    <path clip-path="url(#p283a82a0d0)" d="M 77.146667 164.275544 
L 80.453333 164.275544 
L 80.453333 193.090161 
L 77.146667 193.090161 
z
" style="fill:#7f7f7f;"/>
   </g>
   <g id="patch_89">
    <path clip-path="url(#p283a82a0d0)" d="M 81.28 164.275544 
L 84.586667 164.275544 
L 84.586667 189.36324 
L 81.28 189.36324 
z
" style="fill:#7f7f7f;"/>
   </g>
   <g id="patch_90">
    <path clip-path="url(#p283a82a0d0)" d="M 85.413333 164.275544 
L 88.72 164.275544 
L 88.72 188.26017 
L 85.413333 188.26017 
z
" style="fill:#7f7f7f;"/>
   </g>
   <g id="patch_91">
    <path clip-path="url(#p283a82a0d0)" d="M 89.546667 164.275544 
L 92.853333 164.275544 
L 92.853333 186.664915 
L 89.546667 186.664915 
z
" style="fill:#7f7f7f;"/>
   </g>
   <g id="patch_92">
    <path clip-path="url(#p283a82a0d0)" d="M 93.68 164.275544 
L 96.986667 164.275544 
L 96.986667 186.118014 
L 93.68 186.118014 
z
" style="fill:#7f7f7f;"/>
   </g>
   <g id="patch_93">
    <path clip-path="url(#p283a82a0d0)" d="M 97.813333 164.275544 
L 101.12 164.275544 
L 101.12 184.889668 
L 97.813333 184.889668 
z
" style="fill:#7f7f7f;"/>
   </g>
   <g id="patch_94">
    <path clip-path="url(#p283a82a0d0)" d="M 101.946667 164.275544 
L 105.253333 164.275544 
L 105.253333 184.077318 
L 101.946667 184.077318 
z
" style="fill:#7f7f7f;"/>
   </g>
   <g id="patch_95">
    <path clip-path="url(#p283a82a0d0)" d="M 106.08 164.275544 
L 109.386667 164.275544 
L 109.386667 180.941537 
L 106.08 180.941537 
z
" style="fill:#7f7f7f;"/>
   </g>
   <g id="patch_96">
    <path clip-path="url(#p283a82a0d0)" d="M 110.213333 164.275544 
L 113.52 164.275544 
L 113.52 178.895365 
L 110.213333 178.895365 
z
" style="fill:#7f7f7f;"/>
   </g>
   <g id="patch_97">
    <path clip-path="url(#p283a82a0d0)" d="M 114.346667 164.275544 
L 117.653333 164.275544 
L 117.653333 176.32963 
L 114.346667 176.32963 
z
" style="fill:#7f7f7f;"/>
   </g>
   <g id="patch_98">
    <path clip-path="url(#p283a82a0d0)" d="M 118.48 164.275544 
L 121.786667 164.275544 
L 121.786667 176.088241 
L 118.48 176.088241 
z
" style="fill:#7f7f7f;"/>
   </g>
   <g id="patch_99">
    <path clip-path="url(#p283a82a0d0)" d="M 122.613333 164.275544 
L 125.92 164.275544 
L 125.92 173.270058 
L 122.613333 173.270058 
z
" style="fill:#7f7f7f;"/>
   </g>
   <g id="patch_100">
    <path clip-path="url(#p283a82a0d0)" d="M 126.746667 164.275544 
L 130.053333 164.275544 
L 130.053333 173.025443 
L 126.746667 173.025443 
z
" style="fill:#7f7f7f;"/>
   </g>
   <g id="patch_101">
    <path clip-path="url(#p283a82a0d0)" d="M 130.88 164.275544 
L 134.186667 164.275544 
L 134.186667 170.92308 
L 130.88 170.92308 
z
" style="fill:#7f7f7f;"/>
   </g>
   <g id="patch_102">
    <path clip-path="url(#p283a82a0d0)" d="M 135.013333 164.275544 
L 138.32 164.275544 
L 138.32 169.897834 
L 135.013333 169.897834 
z
" style="fill:#7f7f7f;"/>
   </g>
   <g id="patch_103">
    <path clip-path="url(#p283a82a0d0)" d="M 139.146667 164.275544 
L 142.453333 164.275544 
L 142.453333 169.002479 
L 139.146667 169.002479 
z
" style="fill:#7f7f7f;"/>
   </g>
   <g id="patch_104">
    <path clip-path="url(#p283a82a0d0)" d="M 143.28 164.275544 
L 146.586667 164.275544 
L 146.586667 168.406521 
L 143.28 168.406521 
z
" style="fill:#7f7f7f;"/>
   </g>
   <g id="patch_105">
    <path clip-path="url(#p283a82a0d0)" d="M 147.413333 164.275544 
L 150.72 164.275544 
L 150.72 168.172758 
L 147.413333 168.172758 
z
" style="fill:#7f7f7f;"/>
   </g>
   <g id="patch_106">
    <path clip-path="url(#p283a82a0d0)" d="M 151.546667 164.275544 
L 154.853333 164.275544 
L 154.853333 167.733354 
L 151.546667 167.733354 
z
" style="fill:#7f7f7f;"/>
   </g>
   <g id="patch_107">
    <path clip-path="url(#p283a82a0d0)" d="M 155.68 164.275544 
L 158.986667 164.275544 
L 158.986667 167.69114 
L 155.68 167.69114 
z
" style="fill:#7f7f7f;"/>
   </g>
   <g id="patch_108">
    <path clip-path="url(#p283a82a0d0)" d="M 159.813333 164.275544 
L 163.12 164.275544 
L 163.12 166.849126 
L 159.813333 166.849126 
z
" style="fill:#7f7f7f;"/>
   </g>
   <g id="patch_109">
    <path clip-path="url(#p283a82a0d0)" d="M 163.946667 164.275544 
L 167.253333 164.275544 
L 167.253333 166.829412 
L 163.946667 166.829412 
z
" style="fill:#7f7f7f;"/>
   </g>
   <g id="patch_110">
    <path clip-path="url(#p283a82a0d0)" d="M 168.08 164.275544 
L 171.386667 164.275544 
L 171.386667 166.635576 
L 168.08 166.635576 
z
" style="fill:#7f7f7f;"/>
   </g>
   <g id="patch_111">
    <path clip-path="url(#p283a82a0d0)" d="M 172.213333 164.275544 
L 175.52 164.275544 
L 175.52 166.626897 
L 172.213333 166.626897 
z
" style="fill:#7f7f7f;"/>
   </g>
   <g id="patch_112">
    <path clip-path="url(#p283a82a0d0)" d="M 176.346667 164.275544 
L 179.653333 164.275544 
L 179.653333 166.314832 
L 176.346667 166.314832 
z
" style="fill:#7f7f7f;"/>
   </g>
   <g id="patch_113">
    <path clip-path="url(#p283a82a0d0)" d="M 180.48 164.275544 
L 183.786667 164.275544 
L 183.786667 166.11081 
L 180.48 166.11081 
z
" style="fill:#7f7f7f;"/>
   </g>
   <g id="patch_114">
    <path clip-path="url(#p283a82a0d0)" d="M 184.613333 164.275544 
L 187.92 164.275544 
L 187.92 165.85963 
L 184.613333 165.85963 
z
" style="fill:#7f7f7f;"/>
   </g>
   <g id="patch_115">
    <path clip-path="url(#p283a82a0d0)" d="M 188.746667 164.275544 
L 192.053333 164.275544 
L 192.053333 165.275947 
L 188.746667 165.275947 
z
" style="fill:#7f7f7f;"/>
   </g>
   <g id="patch_116">
    <path clip-path="url(#p283a82a0d0)" d="M 192.88 164.275544 
L 196.186667 164.275544 
L 196.186667 165.080567 
L 192.88 165.080567 
z
" style="fill:#7f7f7f;"/>
   </g>
   <g id="patch_117">
    <path clip-path="url(#p283a82a0d0)" d="M 197.013333 164.275544 
L 200.32 164.275544 
L 200.32 164.843787 
L 197.013333 164.843787 
z
" style="fill:#7f7f7f;"/>
   </g>
   <g id="patch_118">
    <path clip-path="url(#p283a82a0d0)" d="M 201.146667 164.275544 
L 204.453333 164.275544 
L 204.453333 164.588254 
L 201.146667 164.588254 
z
" style="fill:#7f7f7f;"/>
   </g>
   <g id="patch_119">
    <path clip-path="url(#p283a82a0d0)" d="M 205.28 164.275544 
L 208.586667 164.275544 
L 208.586667 163.884104 
L 205.28 163.884104 
z
" style="fill:#7f7f7f;"/>
   </g>
   <g id="patch_120">
    <path clip-path="url(#p283a82a0d0)" d="M 209.413333 164.275544 
L 212.72 164.275544 
L 212.72 162.686734 
L 209.413333 162.686734 
z
" style="fill:#7f7f7f;"/>
   </g>
   <g id="patch_121">
    <path clip-path="url(#p283a82a0d0)" d="M 213.546667 164.275544 
L 216.853333 164.275544 
L 216.853333 162.495459 
L 213.546667 162.495459 
z
" style="fill:#7f7f7f;"/>
   </g>
   <g id="patch_122">
    <path clip-path="url(#p283a82a0d0)" d="M 217.68 164.275544 
L 220.986667 164.275544 
L 220.986667 162.392101 
L 217.68 162.392101 
z
" style="fill:#7f7f7f;"/>
   </g>
   <g id="patch_123">
    <path clip-path="url(#p283a82a0d0)" d="M 221.813333 164.275544 
L 225.12 164.275544 
L 225.12 162.321527 
L 221.813333 162.321527 
z
" style="fill:#7f7f7f;"/>
   </g>
   <g id="patch_124">
    <path clip-path="url(#p283a82a0d0)" d="M 225.946667 164.275544 
L 229.253333 164.275544 
L 229.253333 162.254105 
L 225.946667 162.254105 
z
" style="fill:#7f7f7f;"/>
   </g>
   <g id="patch_125">
    <path clip-path="url(#p283a82a0d0)" d="M 230.08 164.275544 
L 233.386667 164.275544 
L 233.386667 161.947532 
L 230.08 161.947532 
z
" style="fill:#7f7f7f;"/>
   </g>
   <g id="patch_126">
    <path clip-path="url(#p283a82a0d0)" d="M 234.213333 164.275544 
L 237.52 164.275544 
L 237.52 161.196248 
L 234.213333 161.196248 
z
" style="fill:#7f7f7f;"/>
   </g>
   <g id="patch_127">
    <path clip-path="url(#p283a82a0d0)" d="M 238.346667 164.275544 
L 241.653333 164.275544 
L 241.653333 161.117554 
L 238.346667 161.117554 
z
" style="fill:#7f7f7f;"/>
   </g>
   <g id="patch_128">
    <path clip-path="url(#p283a82a0d0)" d="M 242.48 164.275544 
L 245.786667 164.275544 
L 245.786667 161.063077 
L 242.48 161.063077 
z
" style="fill:#7f7f7f;"/>
   </g>
   <g id="patch_129">
    <path clip-path="url(#p283a82a0d0)" d="M 246.613333 164.275544 
L 249.92 164.275544 
L 249.92 160.066576 
L 246.613333 160.066576 
z
" style="fill:#7f7f7f;"/>
   </g>
   <g id="patch_130">
    <path clip-path="url(#p283a82a0d0)" d="M 250.746667 164.275544 
L 254.053333 164.275544 
L 254.053333 159.999925 
L 250.746667 159.999925 
z
" style="fill:#7f7f7f;"/>
   </g>
   <g id="patch_131">
    <path clip-path="url(#p283a82a0d0)" d="M 254.88 164.275544 
L 258.186667 164.275544 
L 258.186667 159.891616 
L 254.88 159.891616 
z
" style="fill:#7f7f7f;"/>
   </g>
   <g id="patch_132">
    <path clip-path="url(#p283a82a0d0)" d="M 259.013333 164.275544 
L 262.32 164.275544 
L 262.32 159.786086 
L 259.013333 159.786086 
z
" style="fill:#7f7f7f;"/>
   </g>
   <g id="patch_133">
    <path clip-path="url(#p283a82a0d0)" d="M 263.146667 164.275544 
L 266.453333 164.275544 
L 266.453333 159.778356 
L 263.146667 159.778356 
z
" style="fill:#7f7f7f;"/>
   </g>
   <g id="patch_134">
    <path clip-path="url(#p283a82a0d0)" d="M 267.28 164.275544 
L 270.586667 164.275544 
L 270.586667 159.510779 
L 267.28 159.510779 
z
" style="fill:#7f7f7f;"/>
   </g>
   <g id="patch_135">
    <path clip-path="url(#p283a82a0d0)" d="M 271.413333 164.275544 
L 274.72 164.275544 
L 274.72 158.471024 
L 271.413333 158.471024 
z
" style="fill:#7f7f7f;"/>
   </g>
   <g id="patch_136">
    <path clip-path="url(#p283a82a0d0)" d="M 275.546667 164.275544 
L 278.853333 164.275544 
L 278.853333 157.51737 
L 275.546667 157.51737 
z
" style="fill:#7f7f7f;"/>
   </g>
   <g id="patch_137">
    <path clip-path="url(#p283a82a0d0)" d="M 279.68 164.275544 
L 282.986667 164.275544 
L 282.986667 157.45997 
L 279.68 157.45997 
z
" style="fill:#7f7f7f;"/>
   </g>
   <g id="patch_138">
    <path clip-path="url(#p283a82a0d0)" d="M 283.813333 164.275544 
L 287.12 164.275544 
L 287.12 156.447864 
L 283.813333 156.447864 
z
" style="fill:#7f7f7f;"/>
   </g>
   <g id="patch_139">
    <path clip-path="url(#p283a82a0d0)" d="M 287.946667 164.275544 
L 291.253333 164.275544 
L 291.253333 155.779695 
L 287.946667 155.779695 
z
" style="fill:#7f7f7f;"/>
   </g>
   <g id="patch_140">
    <path clip-path="url(#p283a82a0d0)" d="M 292.08 164.275544 
L 295.386667 164.275544 
L 295.386667 155.124331 
L 292.08 155.124331 
z
" style="fill:#7f7f7f;"/>
   </g>
   <g id="patch_141">
    <path clip-path="url(#p283a82a0d0)" d="M 296.213333 164.275544 
L 299.52 164.275544 
L 299.52 155.077985 
L 296.213333 155.077985 
z
" style="fill:#7f7f7f;"/>
   </g>
   <g id="patch_142">
    <path clip-path="url(#p283a82a0d0)" d="M 300.346667 164.275544 
L 303.653333 164.275544 
L 303.653333 154.532852 
L 300.346667 154.532852 
z
" style="fill:#7f7f7f;"/>
   </g>
   <g id="patch_143">
    <path clip-path="url(#p283a82a0d0)" d="M 304.48 164.275544 
L 307.786667 164.275544 
L 307.786667 153.90173 
L 304.48 153.90173 
z
" style="fill:#7f7f7f;"/>
   </g>
   <g id="patch_144">
    <path clip-path="url(#p283a82a0d0)" d="M 308.613333 164.275544 
L 311.92 164.275544 
L 311.92 152.078253 
L 308.613333 152.078253 
z
" style="fill:#7f7f7f;"/>
   </g>
   <g id="patch_145">
    <path clip-path="url(#p283a82a0d0)" d="M 312.746667 164.275544 
L 316.053333 164.275544 
L 316.053333 150.906486 
L 312.746667 150.906486 
z
" style="fill:#7f7f7f;"/>
   </g>
   <g id="patch_146">
    <path clip-path="url(#p283a82a0d0)" d="M 316.88 164.275544 
L 320.186667 164.275544 
L 320.186667 150.483861 
L 316.88 150.483861 
z
" style="fill:#7f7f7f;"/>
   </g>
   <g id="patch_147">
    <path clip-path="url(#p283a82a0d0)" d="M 321.013333 164.275544 
L 324.32 164.275544 
L 324.32 150.235148 
L 321.013333 150.235148 
z
" style="fill:#7f7f7f;"/>
   </g>
   <g id="patch_148">
    <path clip-path="url(#p283a82a0d0)" d="M 325.146667 164.275544 
L 328.453333 164.275544 
L 328.453333 149.385085 
L 325.146667 149.385085 
z
" style="fill:#7f7f7f;"/>
   </g>
   <g id="patch_149">
    <path clip-path="url(#p283a82a0d0)" d="M 329.28 164.275544 
L 332.586667 164.275544 
L 332.586667 146.706773 
L 329.28 146.706773 
z
" style="fill:#7f7f7f;"/>
   </g>
   <g id="patch_150">
    <path clip-path="url(#p283a82a0d0)" d="M 333.413333 164.275544 
L 336.72 164.275544 
L 336.72 144.694093 
L 333.413333 144.694093 
z
" style="fill:#7f7f7f;"/>
   </g>
   <g id="patch_151">
    <path clip-path="url(#p283a82a0d0)" d="M 337.546667 164.275544 
L 340.853333 164.275544 
L 340.853333 142.340154 
L 337.546667 142.340154 
z
" style="fill:#7f7f7f;"/>
   </g>
   <g id="patch_152">
    <path clip-path="url(#p283a82a0d0)" d="M 341.68 164.275544 
L 344.986667 164.275544 
L 344.986667 139.936175 
L 341.68 139.936175 
z
" style="fill:#7f7f7f;"/>
   </g>
   <g id="patch_153">
    <path clip-path="url(#p283a82a0d0)" d="M 345.813333 164.275544 
L 349.12 164.275544 
L 349.12 138.345986 
L 345.813333 138.345986 
z
" style="fill:#7f7f7f;"/>
   </g>
   <g id="patch_154">
    <path clip-path="url(#p283a82a0d0)" d="M 349.946667 164.275544 
L 353.253333 164.275544 
L 353.253333 138.237057 
L 349.946667 138.237057 
z
" style="fill:#7f7f7f;"/>
   </g>
   <g id="patch_155">
    <path clip-path="url(#p283a82a0d0)" d="M 354.08 164.275544 
L 357.386667 164.275544 
L 357.386667 137.335594 
L 354.08 137.335594 
z
" style="fill:#7f7f7f;"/>
   </g>
   <g id="patch_156">
    <path clip-path="url(#p283a82a0d0)" d="M 358.213333 164.275544 
L 361.52 164.275544 
L 361.52 134.011258 
L 358.213333 134.011258 
z
" style="fill:#7f7f7f;"/>
   </g>
   <g id="patch_157">
    <path clip-path="url(#p283a82a0d0)" d="M 362.346667 164.275544 
L 365.653333 164.275544 
L 365.653333 126.880069 
L 362.346667 126.880069 
z
" style="fill:#7f7f7f;"/>
   </g>
   <g id="patch_158">
    <path clip-path="url(#p283a82a0d0)" d="M 366.48 164.275544 
L 369.786667 164.275544 
L 369.786667 122.300186 
L 366.48 122.300186 
z
" style="fill:#7f7f7f;"/>
   </g>
   <g id="patch_159">
    <path clip-path="url(#p283a82a0d0)" d="M 370.613333 164.275544 
L 373.92 164.275544 
L 373.92 104.159783 
L 370.613333 104.159783 
z
" style="fill:#7f7f7f;"/>
   </g>
   <g id="patch_160">
    <path clip-path="url(#p283a82a0d0)" d="M 374.746667 164.275544 
L 378.053333 164.275544 
L 378.053333 100.337761 
L 374.746667 100.337761 
z
" style="fill:#7f7f7f;"/>
   </g>
   <g id="patch_161">
    <path clip-path="url(#p283a82a0d0)" d="M 378.88 164.275544 
L 382.186667 164.275544 
L 382.186667 99.798386 
L 378.88 99.798386 
z
" style="fill:#7f7f7f;"/>
   </g>
   <g id="patch_162">
    <path clip-path="url(#p283a82a0d0)" d="M 383.013333 164.275544 
L 386.32 164.275544 
L 386.32 44.443636 
L 383.013333 44.443636 
z
" style="fill:#1f77b4;"/>
   </g>
   <g id="matplotlib.axis_1">
    <g id="text_1">
     <!-- iModulons -->
     <g transform="translate(191.007188 265.118125)scale(0.12 -0.12)">
      <defs>
       <path d="M 9.421875 54.6875 
L 18.40625 54.6875 
L 18.40625 0 
L 9.421875 0 
z
M 9.421875 75.984375 
L 18.40625 75.984375 
L 18.40625 64.59375 
L 9.421875 64.59375 
z
" id="DejaVuSans-105"/>
       <path d="M 9.8125 72.90625 
L 24.515625 72.90625 
L 43.109375 23.296875 
L 61.8125 72.90625 
L 76.515625 72.90625 
L 76.515625 0 
L 66.890625 0 
L 66.890625 64.015625 
L 48.09375 14.015625 
L 38.1875 14.015625 
L 19.390625 64.015625 
L 19.390625 0 
L 9.8125 0 
z
" id="DejaVuSans-77"/>
       <path d="M 30.609375 48.390625 
Q 23.390625 48.390625 19.1875 42.75 
Q 14.984375 37.109375 14.984375 27.296875 
Q 14.984375 17.484375 19.15625 11.84375 
Q 23.34375 6.203125 30.609375 6.203125 
Q 37.796875 6.203125 41.984375 11.859375 
Q 46.1875 17.53125 46.1875 27.296875 
Q 46.1875 37.015625 41.984375 42.703125 
Q 37.796875 48.390625 30.609375 48.390625 
z
M 30.609375 56 
Q 42.328125 56 49.015625 48.375 
Q 55.71875 40.765625 55.71875 27.296875 
Q 55.71875 13.875 49.015625 6.21875 
Q 42.328125 -1.421875 30.609375 -1.421875 
Q 18.84375 -1.421875 12.171875 6.21875 
Q 5.515625 13.875 5.515625 27.296875 
Q 5.515625 40.765625 12.171875 48.375 
Q 18.84375 56 30.609375 56 
z
" id="DejaVuSans-111"/>
       <path d="M 45.40625 46.390625 
L 45.40625 75.984375 
L 54.390625 75.984375 
L 54.390625 0 
L 45.40625 0 
L 45.40625 8.203125 
Q 42.578125 3.328125 38.25 0.953125 
Q 33.9375 -1.421875 27.875 -1.421875 
Q 17.96875 -1.421875 11.734375 6.484375 
Q 5.515625 14.40625 5.515625 27.296875 
Q 5.515625 40.1875 11.734375 48.09375 
Q 17.96875 56 27.875 56 
Q 33.9375 56 38.25 53.625 
Q 42.578125 51.265625 45.40625 46.390625 
z
M 14.796875 27.296875 
Q 14.796875 17.390625 18.875 11.75 
Q 22.953125 6.109375 30.078125 6.109375 
Q 37.203125 6.109375 41.296875 11.75 
Q 45.40625 17.390625 45.40625 27.296875 
Q 45.40625 37.203125 41.296875 42.84375 
Q 37.203125 48.484375 30.078125 48.484375 
Q 22.953125 48.484375 18.875 42.84375 
Q 14.796875 37.203125 14.796875 27.296875 
z
" id="DejaVuSans-100"/>
       <path d="M 8.5 21.578125 
L 8.5 54.6875 
L 17.484375 54.6875 
L 17.484375 21.921875 
Q 17.484375 14.15625 20.5 10.265625 
Q 23.53125 6.390625 29.59375 6.390625 
Q 36.859375 6.390625 41.078125 11.03125 
Q 45.3125 15.671875 45.3125 23.6875 
L 45.3125 54.6875 
L 54.296875 54.6875 
L 54.296875 0 
L 45.3125 0 
L 45.3125 8.40625 
Q 42.046875 3.421875 37.71875 1 
Q 33.40625 -1.421875 27.6875 -1.421875 
Q 18.265625 -1.421875 13.375 4.4375 
Q 8.5 10.296875 8.5 21.578125 
z
M 31.109375 56 
z
" id="DejaVuSans-117"/>
       <path d="M 9.421875 75.984375 
L 18.40625 75.984375 
L 18.40625 0 
L 9.421875 0 
z
" id="DejaVuSans-108"/>
       <path d="M 54.890625 33.015625 
L 54.890625 0 
L 45.90625 0 
L 45.90625 32.71875 
Q 45.90625 40.484375 42.875 44.328125 
Q 39.84375 48.1875 33.796875 48.1875 
Q 26.515625 48.1875 22.3125 43.546875 
Q 18.109375 38.921875 18.109375 30.90625 
L 18.109375 0 
L 9.078125 0 
L 9.078125 54.6875 
L 18.109375 54.6875 
L 18.109375 46.1875 
Q 21.34375 51.125 25.703125 53.5625 
Q 30.078125 56 35.796875 56 
Q 45.21875 56 50.046875 50.171875 
Q 54.890625 44.34375 54.890625 33.015625 
z
" id="DejaVuSans-110"/>
       <path d="M 44.28125 53.078125 
L 44.28125 44.578125 
Q 40.484375 46.53125 36.375 47.5 
Q 32.28125 48.484375 27.875 48.484375 
Q 21.1875 48.484375 17.84375 46.4375 
Q 14.5 44.390625 14.5 40.28125 
Q 14.5 37.15625 16.890625 35.375 
Q 19.28125 33.59375 26.515625 31.984375 
L 29.59375 31.296875 
Q 39.15625 29.25 43.1875 25.515625 
Q 47.21875 21.78125 47.21875 15.09375 
Q 47.21875 7.46875 41.1875 3.015625 
Q 35.15625 -1.421875 24.609375 -1.421875 
Q 20.21875 -1.421875 15.453125 -0.5625 
Q 10.6875 0.296875 5.421875 2 
L 5.421875 11.28125 
Q 10.40625 8.6875 15.234375 7.390625 
Q 20.0625 6.109375 24.8125 6.109375 
Q 31.15625 6.109375 34.5625 8.28125 
Q 37.984375 10.453125 37.984375 14.40625 
Q 37.984375 18.0625 35.515625 20.015625 
Q 33.0625 21.96875 24.703125 23.78125 
L 21.578125 24.515625 
Q 13.234375 26.265625 9.515625 29.90625 
Q 5.8125 33.546875 5.8125 39.890625 
Q 5.8125 47.609375 11.28125 51.796875 
Q 16.75 56 26.8125 56 
Q 31.78125 56 36.171875 55.265625 
Q 40.578125 54.546875 44.28125 53.078125 
z
" id="DejaVuSans-115"/>
      </defs>
      <use xlink:href="#DejaVuSans-105"/>
      <use x="27.783203" xlink:href="#DejaVuSans-77"/>
      <use x="114.0625" xlink:href="#DejaVuSans-111"/>
      <use x="175.244141" xlink:href="#DejaVuSans-100"/>
      <use x="238.720703" xlink:href="#DejaVuSans-117"/>
      <use x="302.099609" xlink:href="#DejaVuSans-108"/>
      <use x="329.882812" xlink:href="#DejaVuSans-111"/>
      <use x="391.064453" xlink:href="#DejaVuSans-110"/>
      <use x="454.443359" xlink:href="#DejaVuSans-115"/>
     </g>
    </g>
   </g>
   <g id="matplotlib.axis_2">
    <g id="ytick_1">
     <g id="line2d_1">
      <defs>
       <path d="M 0 0 
L -3.5 0 
" id="mb976900bbf" style="stroke:#000000;stroke-width:0.8;"/>
      </defs>
      <g>
       <use style="stroke:#000000;stroke-width:0.8;" x="54" xlink:href="#mb976900bbf" y="245.659114"/>
      </g>
     </g>
     <g id="text_2">
      <!-- −10 -->
      <g transform="translate(25.895312 249.458333)scale(0.1 -0.1)">
       <defs>
        <path d="M 10.59375 35.5 
L 73.1875 35.5 
L 73.1875 27.203125 
L 10.59375 27.203125 
z
" id="DejaVuSans-8722"/>
        <path d="M 12.40625 8.296875 
L 28.515625 8.296875 
L 28.515625 63.921875 
L 10.984375 60.40625 
L 10.984375 69.390625 
L 28.421875 72.90625 
L 38.28125 72.90625 
L 38.28125 8.296875 
L 54.390625 8.296875 
L 54.390625 0 
L 12.40625 0 
z
" id="DejaVuSans-49"/>
        <path d="M 31.78125 66.40625 
Q 24.171875 66.40625 20.328125 58.90625 
Q 16.5 51.421875 16.5 36.375 
Q 16.5 21.390625 20.328125 13.890625 
Q 24.171875 6.390625 31.78125 6.390625 
Q 39.453125 6.390625 43.28125 13.890625 
Q 47.125 21.390625 47.125 36.375 
Q 47.125 51.421875 43.28125 58.90625 
Q 39.453125 66.40625 31.78125 66.40625 
z
M 31.78125 74.21875 
Q 44.046875 74.21875 50.515625 64.515625 
Q 56.984375 54.828125 56.984375 36.375 
Q 56.984375 17.96875 50.515625 8.265625 
Q 44.046875 -1.421875 31.78125 -1.421875 
Q 19.53125 -1.421875 13.0625 8.265625 
Q 6.59375 17.96875 6.59375 36.375 
Q 6.59375 54.828125 13.0625 64.515625 
Q 19.53125 74.21875 31.78125 74.21875 
z
" id="DejaVuSans-48"/>
       </defs>
       <use xlink:href="#DejaVuSans-8722"/>
       <use x="83.789062" xlink:href="#DejaVuSans-49"/>
       <use x="147.412109" xlink:href="#DejaVuSans-48"/>
      </g>
     </g>
    </g>
    <g id="ytick_2">
     <g id="line2d_2">
      <g>
       <use style="stroke:#000000;stroke-width:0.8;" x="54" xlink:href="#mb976900bbf" y="204.967329"/>
      </g>
     </g>
     <g id="text_3">
      <!-- −5 -->
      <g transform="translate(32.257812 208.766547)scale(0.1 -0.1)">
       <defs>
        <path d="M 10.796875 72.90625 
L 49.515625 72.90625 
L 49.515625 64.59375 
L 19.828125 64.59375 
L 19.828125 46.734375 
Q 21.96875 47.46875 24.109375 47.828125 
Q 26.265625 48.1875 28.421875 48.1875 
Q 40.625 48.1875 47.75 41.5 
Q 54.890625 34.8125 54.890625 23.390625 
Q 54.890625 11.625 47.5625 5.09375 
Q 40.234375 -1.421875 26.90625 -1.421875 
Q 22.3125 -1.421875 17.546875 -0.640625 
Q 12.796875 0.140625 7.71875 1.703125 
L 7.71875 11.625 
Q 12.109375 9.234375 16.796875 8.0625 
Q 21.484375 6.890625 26.703125 6.890625 
Q 35.15625 6.890625 40.078125 11.328125 
Q 45.015625 15.765625 45.015625 23.390625 
Q 45.015625 31 40.078125 35.4375 
Q 35.15625 39.890625 26.703125 39.890625 
Q 22.75 39.890625 18.8125 39.015625 
Q 14.890625 38.140625 10.796875 36.28125 
z
" id="DejaVuSans-53"/>
       </defs>
       <use xlink:href="#DejaVuSans-8722"/>
       <use x="83.789062" xlink:href="#DejaVuSans-53"/>
      </g>
     </g>
    </g>
    <g id="ytick_3">
     <g id="line2d_3">
      <g>
       <use style="stroke:#000000;stroke-width:0.8;" x="54" xlink:href="#mb976900bbf" y="164.275544"/>
      </g>
     </g>
     <g id="text_4">
      <!-- 0 -->
      <g transform="translate(40.6375 168.074762)scale(0.1 -0.1)">
       <use xlink:href="#DejaVuSans-48"/>
      </g>
     </g>
    </g>
    <g id="ytick_4">
     <g id="line2d_4">
      <g>
       <use style="stroke:#000000;stroke-width:0.8;" x="54" xlink:href="#mb976900bbf" y="123.583758"/>
      </g>
     </g>
     <g id="text_5">
      <!-- 5 -->
      <g transform="translate(40.6375 127.382977)scale(0.1 -0.1)">
       <use xlink:href="#DejaVuSans-53"/>
      </g>
     </g>
    </g>
    <g id="ytick_5">
     <g id="line2d_5">
      <g>
       <use style="stroke:#000000;stroke-width:0.8;" x="54" xlink:href="#mb976900bbf" y="82.891973"/>
      </g>
     </g>
     <g id="text_6">
      <!-- 10 -->
      <g transform="translate(34.275 86.691192)scale(0.1 -0.1)">
       <use xlink:href="#DejaVuSans-49"/>
       <use x="63.623047" xlink:href="#DejaVuSans-48"/>
      </g>
     </g>
    </g>
    <g id="ytick_6">
     <g id="line2d_6">
      <g>
       <use style="stroke:#000000;stroke-width:0.8;" x="54" xlink:href="#mb976900bbf" y="42.200188"/>
      </g>
     </g>
     <g id="text_7">
      <!-- 15 -->
      <g transform="translate(34.275 45.999407)scale(0.1 -0.1)">
       <use xlink:href="#DejaVuSans-49"/>
       <use x="63.623047" xlink:href="#DejaVuSans-53"/>
      </g>
     </g>
    </g>
    <g id="text_8">
     <!-- Growth in Pyruvate Activity -->
     <g transform="translate(19.399687 225.332812)rotate(-90)scale(0.12 -0.12)">
      <defs>
       <path d="M 59.515625 10.40625 
L 59.515625 29.984375 
L 43.40625 29.984375 
L 43.40625 38.09375 
L 69.28125 38.09375 
L 69.28125 6.78125 
Q 63.578125 2.734375 56.6875 0.65625 
Q 49.8125 -1.421875 42 -1.421875 
Q 24.90625 -1.421875 15.25 8.5625 
Q 5.609375 18.5625 5.609375 36.375 
Q 5.609375 54.25 15.25 64.234375 
Q 24.90625 74.21875 42 74.21875 
Q 49.125 74.21875 55.546875 72.453125 
Q 61.96875 70.703125 67.390625 67.28125 
L 67.390625 56.78125 
Q 61.921875 61.421875 55.765625 63.765625 
Q 49.609375 66.109375 42.828125 66.109375 
Q 29.4375 66.109375 22.71875 58.640625 
Q 16.015625 51.171875 16.015625 36.375 
Q 16.015625 21.625 22.71875 14.15625 
Q 29.4375 6.6875 42.828125 6.6875 
Q 48.046875 6.6875 52.140625 7.59375 
Q 56.25 8.5 59.515625 10.40625 
z
" id="DejaVuSans-71"/>
       <path d="M 41.109375 46.296875 
Q 39.59375 47.171875 37.8125 47.578125 
Q 36.03125 48 33.890625 48 
Q 26.265625 48 22.1875 43.046875 
Q 18.109375 38.09375 18.109375 28.8125 
L 18.109375 0 
L 9.078125 0 
L 9.078125 54.6875 
L 18.109375 54.6875 
L 18.109375 46.1875 
Q 20.953125 51.171875 25.484375 53.578125 
Q 30.03125 56 36.53125 56 
Q 37.453125 56 38.578125 55.875 
Q 39.703125 55.765625 41.0625 55.515625 
z
" id="DejaVuSans-114"/>
       <path d="M 4.203125 54.6875 
L 13.1875 54.6875 
L 24.421875 12.015625 
L 35.59375 54.6875 
L 46.1875 54.6875 
L 57.421875 12.015625 
L 68.609375 54.6875 
L 77.59375 54.6875 
L 63.28125 0 
L 52.6875 0 
L 40.921875 44.828125 
L 29.109375 0 
L 18.5 0 
z
" id="DejaVuSans-119"/>
       <path d="M 18.3125 70.21875 
L 18.3125 54.6875 
L 36.8125 54.6875 
L 36.8125 47.703125 
L 18.3125 47.703125 
L 18.3125 18.015625 
Q 18.3125 11.328125 20.140625 9.421875 
Q 21.96875 7.515625 27.59375 7.515625 
L 36.8125 7.515625 
L 36.8125 0 
L 27.59375 0 
Q 17.1875 0 13.234375 3.875 
Q 9.28125 7.765625 9.28125 18.015625 
L 9.28125 47.703125 
L 2.6875 47.703125 
L 2.6875 54.6875 
L 9.28125 54.6875 
L 9.28125 70.21875 
z
" id="DejaVuSans-116"/>
       <path d="M 54.890625 33.015625 
L 54.890625 0 
L 45.90625 0 
L 45.90625 32.71875 
Q 45.90625 40.484375 42.875 44.328125 
Q 39.84375 48.1875 33.796875 48.1875 
Q 26.515625 48.1875 22.3125 43.546875 
Q 18.109375 38.921875 18.109375 30.90625 
L 18.109375 0 
L 9.078125 0 
L 9.078125 75.984375 
L 18.109375 75.984375 
L 18.109375 46.1875 
Q 21.34375 51.125 25.703125 53.5625 
Q 30.078125 56 35.796875 56 
Q 45.21875 56 50.046875 50.171875 
Q 54.890625 44.34375 54.890625 33.015625 
z
" id="DejaVuSans-104"/>
       <path id="DejaVuSans-32"/>
       <path d="M 19.671875 64.796875 
L 19.671875 37.40625 
L 32.078125 37.40625 
Q 38.96875 37.40625 42.71875 40.96875 
Q 46.484375 44.53125 46.484375 51.125 
Q 46.484375 57.671875 42.71875 61.234375 
Q 38.96875 64.796875 32.078125 64.796875 
z
M 9.8125 72.90625 
L 32.078125 72.90625 
Q 44.34375 72.90625 50.609375 67.359375 
Q 56.890625 61.8125 56.890625 51.125 
Q 56.890625 40.328125 50.609375 34.8125 
Q 44.34375 29.296875 32.078125 29.296875 
L 19.671875 29.296875 
L 19.671875 0 
L 9.8125 0 
z
" id="DejaVuSans-80"/>
       <path d="M 32.171875 -5.078125 
Q 28.375 -14.84375 24.75 -17.8125 
Q 21.140625 -20.796875 15.09375 -20.796875 
L 7.90625 -20.796875 
L 7.90625 -13.28125 
L 13.1875 -13.28125 
Q 16.890625 -13.28125 18.9375 -11.515625 
Q 21 -9.765625 23.484375 -3.21875 
L 25.09375 0.875 
L 2.984375 54.6875 
L 12.5 54.6875 
L 29.59375 11.921875 
L 46.6875 54.6875 
L 56.203125 54.6875 
z
" id="DejaVuSans-121"/>
       <path d="M 2.984375 54.6875 
L 12.5 54.6875 
L 29.59375 8.796875 
L 46.6875 54.6875 
L 56.203125 54.6875 
L 35.6875 0 
L 23.484375 0 
z
" id="DejaVuSans-118"/>
       <path d="M 34.28125 27.484375 
Q 23.390625 27.484375 19.1875 25 
Q 14.984375 22.515625 14.984375 16.5 
Q 14.984375 11.71875 18.140625 8.90625 
Q 21.296875 6.109375 26.703125 6.109375 
Q 34.1875 6.109375 38.703125 11.40625 
Q 43.21875 16.703125 43.21875 25.484375 
L 43.21875 27.484375 
z
M 52.203125 31.203125 
L 52.203125 0 
L 43.21875 0 
L 43.21875 8.296875 
Q 40.140625 3.328125 35.546875 0.953125 
Q 30.953125 -1.421875 24.3125 -1.421875 
Q 15.921875 -1.421875 10.953125 3.296875 
Q 6 8.015625 6 15.921875 
Q 6 25.140625 12.171875 29.828125 
Q 18.359375 34.515625 30.609375 34.515625 
L 43.21875 34.515625 
L 43.21875 35.40625 
Q 43.21875 41.609375 39.140625 45 
Q 35.0625 48.390625 27.6875 48.390625 
Q 23 48.390625 18.546875 47.265625 
Q 14.109375 46.140625 10.015625 43.890625 
L 10.015625 52.203125 
Q 14.9375 54.109375 19.578125 55.046875 
Q 24.21875 56 28.609375 56 
Q 40.484375 56 46.34375 49.84375 
Q 52.203125 43.703125 52.203125 31.203125 
z
" id="DejaVuSans-97"/>
       <path d="M 56.203125 29.59375 
L 56.203125 25.203125 
L 14.890625 25.203125 
Q 15.484375 15.921875 20.484375 11.0625 
Q 25.484375 6.203125 34.421875 6.203125 
Q 39.59375 6.203125 44.453125 7.46875 
Q 49.3125 8.734375 54.109375 11.28125 
L 54.109375 2.78125 
Q 49.265625 0.734375 44.1875 -0.34375 
Q 39.109375 -1.421875 33.890625 -1.421875 
Q 20.796875 -1.421875 13.15625 6.1875 
Q 5.515625 13.8125 5.515625 26.8125 
Q 5.515625 40.234375 12.765625 48.109375 
Q 20.015625 56 32.328125 56 
Q 43.359375 56 49.78125 48.890625 
Q 56.203125 41.796875 56.203125 29.59375 
z
M 47.21875 32.234375 
Q 47.125 39.59375 43.09375 43.984375 
Q 39.0625 48.390625 32.421875 48.390625 
Q 24.90625 48.390625 20.390625 44.140625 
Q 15.875 39.890625 15.1875 32.171875 
z
" id="DejaVuSans-101"/>
       <path d="M 34.1875 63.1875 
L 20.796875 26.90625 
L 47.609375 26.90625 
z
M 28.609375 72.90625 
L 39.796875 72.90625 
L 67.578125 0 
L 57.328125 0 
L 50.6875 18.703125 
L 17.828125 18.703125 
L 11.1875 0 
L 0.78125 0 
z
" id="DejaVuSans-65"/>
       <path d="M 48.78125 52.59375 
L 48.78125 44.1875 
Q 44.96875 46.296875 41.140625 47.34375 
Q 37.3125 48.390625 33.40625 48.390625 
Q 24.65625 48.390625 19.8125 42.84375 
Q 14.984375 37.3125 14.984375 27.296875 
Q 14.984375 17.28125 19.8125 11.734375 
Q 24.65625 6.203125 33.40625 6.203125 
Q 37.3125 6.203125 41.140625 7.25 
Q 44.96875 8.296875 48.78125 10.40625 
L 48.78125 2.09375 
Q 45.015625 0.34375 40.984375 -0.53125 
Q 36.96875 -1.421875 32.421875 -1.421875 
Q 20.0625 -1.421875 12.78125 6.34375 
Q 5.515625 14.109375 5.515625 27.296875 
Q 5.515625 40.671875 12.859375 48.328125 
Q 20.21875 56 33.015625 56 
Q 37.15625 56 41.109375 55.140625 
Q 45.0625 54.296875 48.78125 52.59375 
z
" id="DejaVuSans-99"/>
      </defs>
      <use xlink:href="#DejaVuSans-71"/>
      <use x="77.490234" xlink:href="#DejaVuSans-114"/>
      <use x="116.353516" xlink:href="#DejaVuSans-111"/>
      <use x="177.535156" xlink:href="#DejaVuSans-119"/>
      <use x="259.322266" xlink:href="#DejaVuSans-116"/>
      <use x="298.53125" xlink:href="#DejaVuSans-104"/>
      <use x="361.910156" xlink:href="#DejaVuSans-32"/>
      <use x="393.697266" xlink:href="#DejaVuSans-105"/>
      <use x="421.480469" xlink:href="#DejaVuSans-110"/>
      <use x="484.859375" xlink:href="#DejaVuSans-32"/>
      <use x="516.646484" xlink:href="#DejaVuSans-80"/>
      <use x="576.949219" xlink:href="#DejaVuSans-121"/>
      <use x="636.128906" xlink:href="#DejaVuSans-114"/>
      <use x="677.242188" xlink:href="#DejaVuSans-117"/>
      <use x="740.621094" xlink:href="#DejaVuSans-118"/>
      <use x="799.800781" xlink:href="#DejaVuSans-97"/>
      <use x="861.080078" xlink:href="#DejaVuSans-116"/>
      <use x="900.289062" xlink:href="#DejaVuSans-101"/>
      <use x="961.8125" xlink:href="#DejaVuSans-32"/>
      <use x="993.599609" xlink:href="#DejaVuSans-65"/>
      <use x="1060.257812" xlink:href="#DejaVuSans-99"/>
      <use x="1115.238281" xlink:href="#DejaVuSans-116"/>
      <use x="1154.447266" xlink:href="#DejaVuSans-105"/>
      <use x="1182.230469" xlink:href="#DejaVuSans-118"/>
      <use x="1241.410156" xlink:href="#DejaVuSans-105"/>
      <use x="1269.193359" xlink:href="#DejaVuSans-116"/>
      <use x="1308.402344" xlink:href="#DejaVuSans-121"/>
     </g>
    </g>
   </g>
   <g id="line2d_7">
    <path clip-path="url(#p283a82a0d0)" d="M 54 164.275544 
L 388.8 164.275544 
" style="fill:none;stroke:#000000;stroke-linecap:square;stroke-width:1.5;"/>
   </g>
   <g id="patch_163">
    <path d="M 54 252 
L 54 34.56 
" style="fill:none;stroke:#000000;stroke-linecap:square;stroke-linejoin:miter;stroke-width:0.8;"/>
   </g>
   <g id="patch_164">
    <path d="M 388.8 252 
L 388.8 34.56 
" style="fill:none;stroke:#000000;stroke-linecap:square;stroke-linejoin:miter;stroke-width:0.8;"/>
   </g>
   <g id="patch_165">
    <path d="M 54 252 
L 388.8 252 
" style="fill:none;stroke:#000000;stroke-linecap:square;stroke-linejoin:miter;stroke-width:0.8;"/>
   </g>
   <g id="patch_166">
    <path d="M 54 34.56 
L 388.8 34.56 
" style="fill:none;stroke:#000000;stroke-linecap:square;stroke-linejoin:miter;stroke-width:0.8;"/>
   </g>
   <g id="text_9">
    <!-- Fumarate Reductase -->
    <g transform="translate(255.869317 45.804529)scale(0.12 -0.12)">
     <defs>
      <path d="M 9.8125 72.90625 
L 51.703125 72.90625 
L 51.703125 64.59375 
L 19.671875 64.59375 
L 19.671875 43.109375 
L 48.578125 43.109375 
L 48.578125 34.8125 
L 19.671875 34.8125 
L 19.671875 0 
L 9.8125 0 
z
" id="DejaVuSans-70"/>
      <path d="M 52 44.1875 
Q 55.375 50.25 60.0625 53.125 
Q 64.75 56 71.09375 56 
Q 79.640625 56 84.28125 50.015625 
Q 88.921875 44.046875 88.921875 33.015625 
L 88.921875 0 
L 79.890625 0 
L 79.890625 32.71875 
Q 79.890625 40.578125 77.09375 44.375 
Q 74.3125 48.1875 68.609375 48.1875 
Q 61.625 48.1875 57.5625 43.546875 
Q 53.515625 38.921875 53.515625 30.90625 
L 53.515625 0 
L 44.484375 0 
L 44.484375 32.71875 
Q 44.484375 40.625 41.703125 44.40625 
Q 38.921875 48.1875 33.109375 48.1875 
Q 26.21875 48.1875 22.15625 43.53125 
Q 18.109375 38.875 18.109375 30.90625 
L 18.109375 0 
L 9.078125 0 
L 9.078125 54.6875 
L 18.109375 54.6875 
L 18.109375 46.1875 
Q 21.1875 51.21875 25.484375 53.609375 
Q 29.78125 56 35.6875 56 
Q 41.65625 56 45.828125 52.96875 
Q 50 49.953125 52 44.1875 
z
" id="DejaVuSans-109"/>
      <path d="M 44.390625 34.1875 
Q 47.5625 33.109375 50.5625 29.59375 
Q 53.5625 26.078125 56.59375 19.921875 
L 66.609375 0 
L 56 0 
L 46.6875 18.703125 
Q 43.0625 26.03125 39.671875 28.421875 
Q 36.28125 30.8125 30.421875 30.8125 
L 19.671875 30.8125 
L 19.671875 0 
L 9.8125 0 
L 9.8125 72.90625 
L 32.078125 72.90625 
Q 44.578125 72.90625 50.734375 67.671875 
Q 56.890625 62.453125 56.890625 51.90625 
Q 56.890625 45.015625 53.6875 40.46875 
Q 50.484375 35.9375 44.390625 34.1875 
z
M 19.671875 64.796875 
L 19.671875 38.921875 
L 32.078125 38.921875 
Q 39.203125 38.921875 42.84375 42.21875 
Q 46.484375 45.515625 46.484375 51.90625 
Q 46.484375 58.296875 42.84375 61.546875 
Q 39.203125 64.796875 32.078125 64.796875 
z
" id="DejaVuSans-82"/>
     </defs>
     <use xlink:href="#DejaVuSans-70"/>
     <use x="52.019531" xlink:href="#DejaVuSans-117"/>
     <use x="115.398438" xlink:href="#DejaVuSans-109"/>
     <use x="212.810547" xlink:href="#DejaVuSans-97"/>
     <use x="274.089844" xlink:href="#DejaVuSans-114"/>
     <use x="315.203125" xlink:href="#DejaVuSans-97"/>
     <use x="376.482422" xlink:href="#DejaVuSans-116"/>
     <use x="415.691406" xlink:href="#DejaVuSans-101"/>
     <use x="477.214844" xlink:href="#DejaVuSans-32"/>
     <use x="509.001953" xlink:href="#DejaVuSans-82"/>
     <use x="573.984375" xlink:href="#DejaVuSans-101"/>
     <use x="635.507812" xlink:href="#DejaVuSans-100"/>
     <use x="698.984375" xlink:href="#DejaVuSans-117"/>
     <use x="762.363281" xlink:href="#DejaVuSans-99"/>
     <use x="817.34375" xlink:href="#DejaVuSans-116"/>
     <use x="856.552734" xlink:href="#DejaVuSans-97"/>
     <use x="917.832031" xlink:href="#DejaVuSans-115"/>
     <use x="969.931641" xlink:href="#DejaVuSans-101"/>
    </g>
   </g>
   <g id="patch_167">
    <path d="M 381.638644 44.362083 
Q 382.151693 44.375901 382.664742 44.389719 
" style="fill:none;opacity:0.8;stroke:#808080;stroke-linecap:round;"/>
   </g>
   <g id="text_10">
    <!-- 6 Hrs Pyruvate Activity -->
    <g transform="translate(152.608125 28.56)scale(0.12 -0.12)">
     <defs>
      <path d="M 33.015625 40.375 
Q 26.375 40.375 22.484375 35.828125 
Q 18.609375 31.296875 18.609375 23.390625 
Q 18.609375 15.53125 22.484375 10.953125 
Q 26.375 6.390625 33.015625 6.390625 
Q 39.65625 6.390625 43.53125 10.953125 
Q 47.40625 15.53125 47.40625 23.390625 
Q 47.40625 31.296875 43.53125 35.828125 
Q 39.65625 40.375 33.015625 40.375 
z
M 52.59375 71.296875 
L 52.59375 62.3125 
Q 48.875 64.0625 45.09375 64.984375 
Q 41.3125 65.921875 37.59375 65.921875 
Q 27.828125 65.921875 22.671875 59.328125 
Q 17.53125 52.734375 16.796875 39.40625 
Q 19.671875 43.65625 24.015625 45.921875 
Q 28.375 48.1875 33.59375 48.1875 
Q 44.578125 48.1875 50.953125 41.515625 
Q 57.328125 34.859375 57.328125 23.390625 
Q 57.328125 12.15625 50.6875 5.359375 
Q 44.046875 -1.421875 33.015625 -1.421875 
Q 20.359375 -1.421875 13.671875 8.265625 
Q 6.984375 17.96875 6.984375 36.375 
Q 6.984375 53.65625 15.1875 63.9375 
Q 23.390625 74.21875 37.203125 74.21875 
Q 40.921875 74.21875 44.703125 73.484375 
Q 48.484375 72.75 52.59375 71.296875 
z
" id="DejaVuSans-54"/>
      <path d="M 9.8125 72.90625 
L 19.671875 72.90625 
L 19.671875 43.015625 
L 55.515625 43.015625 
L 55.515625 72.90625 
L 65.375 72.90625 
L 65.375 0 
L 55.515625 0 
L 55.515625 34.71875 
L 19.671875 34.71875 
L 19.671875 0 
L 9.8125 0 
z
" id="DejaVuSans-72"/>
     </defs>
     <use xlink:href="#DejaVuSans-54"/>
     <use x="63.623047" xlink:href="#DejaVuSans-32"/>
     <use x="95.410156" xlink:href="#DejaVuSans-72"/>
     <use x="170.605469" xlink:href="#DejaVuSans-114"/>
     <use x="211.71875" xlink:href="#DejaVuSans-115"/>
     <use x="263.818359" xlink:href="#DejaVuSans-32"/>
     <use x="295.605469" xlink:href="#DejaVuSans-80"/>
     <use x="355.908203" xlink:href="#DejaVuSans-121"/>
     <use x="415.087891" xlink:href="#DejaVuSans-114"/>
     <use x="456.201172" xlink:href="#DejaVuSans-117"/>
     <use x="519.580078" xlink:href="#DejaVuSans-118"/>
     <use x="578.759766" xlink:href="#DejaVuSans-97"/>
     <use x="640.039062" xlink:href="#DejaVuSans-116"/>
     <use x="679.248047" xlink:href="#DejaVuSans-101"/>
     <use x="740.771484" xlink:href="#DejaVuSans-32"/>
     <use x="772.558594" xlink:href="#DejaVuSans-65"/>
     <use x="839.216797" xlink:href="#DejaVuSans-99"/>
     <use x="894.197266" xlink:href="#DejaVuSans-116"/>
     <use x="933.40625" xlink:href="#DejaVuSans-105"/>
     <use x="961.189453" xlink:href="#DejaVuSans-118"/>
     <use x="1020.369141" xlink:href="#DejaVuSans-105"/>
     <use x="1048.152344" xlink:href="#DejaVuSans-116"/>
     <use x="1087.361328" xlink:href="#DejaVuSans-121"/>
    </g>
   </g>
  </g>
 </g>
 <defs>
  <clipPath id="p283a82a0d0">
   <rect height="217.44" width="334.8" x="54" y="34.56"/>
  </clipPath>
 </defs>
</svg>
