<?xml version="1.0" encoding="utf-8" standalone="no"?>
<!DOCTYPE svg PUBLIC "-//W3C//DTD SVG 1.1//EN"
  "http://www.w3.org/Graphics/SVG/1.1/DTD/svg11.dtd">
<!-- Created with matplotlib (https://matplotlib.org/) -->
<svg height="504pt" version="1.1" viewBox="0 0 1080 504" width="1080pt" xmlns="http://www.w3.org/2000/svg" xmlns:xlink="http://www.w3.org/1999/xlink">
 <metadata>
  <rdf:RDF xmlns:cc="http://creativecommons.org/ns#" xmlns:dc="http://purl.org/dc/elements/1.1/" xmlns:rdf="http://www.w3.org/1999/02/22-rdf-syntax-ns#">
   <cc:Work>
    <dc:type rdf:resource="http://purl.org/dc/dcmitype/StillImage"/>
    <dc:date>2021-04-27T16:41:40.603698</dc:date>
    <dc:format>image/svg+xml</dc:format>
    <dc:creator>
     <cc:Agent>
      <dc:title>Matplotlib v3.3.1, https://matplotlib.org/</dc:title>
     </cc:Agent>
    </dc:creator>
   </cc:Work>
  </rdf:RDF>
 </metadata>
 <defs>
  <style type="text/css">*{stroke-linecap:butt;stroke-linejoin:round;}</style>
 </defs>
 <g id="figure_1">
  <g id="patch_1">
   <path d="M 0 504 
L 1080 504 
L 1080 0 
L 0 0 
z
" style="fill:none;"/>
  </g>
  <g id="axes_1">
   <g id="patch_2">
    <path d="M 135 441 
L 972 441 
L 972 60.48 
L 135 60.48 
z
" style="fill:none;"/>
   </g>
   <g id="patch_3">
    <path clip-path="url(#p09a5fc2729)" d="M 141.2 265.367026 
L 149.466667 265.367026 
L 149.466667 423.703636 
L 141.2 423.703636 
z
" style="fill:#1f77b4;"/>
   </g>
   <g id="patch_4">
    <path clip-path="url(#p09a5fc2729)" d="M 151.533333 265.367026 
L 159.8 265.367026 
L 159.8 409.09265 
L 151.533333 409.09265 
z
" style="fill:#1f77b4;"/>
   </g>
   <g id="patch_5">
    <path clip-path="url(#p09a5fc2729)" d="M 161.866667 265.367026 
L 170.133333 265.367026 
L 170.133333 396.360911 
L 161.866667 396.360911 
z
" style="fill:#1f77b4;"/>
   </g>
   <g id="patch_6">
    <path clip-path="url(#p09a5fc2729)" d="M 172.2 265.367026 
L 180.466667 265.367026 
L 180.466667 383.536422 
L 172.2 383.536422 
z
" style="fill:#1f77b4;"/>
   </g>
   <g id="patch_7">
    <path clip-path="url(#p09a5fc2729)" d="M 182.533333 265.367026 
L 190.8 265.367026 
L 190.8 372.84708 
L 182.533333 372.84708 
z
" style="fill:#1f77b4;"/>
   </g>
   <g id="patch_8">
    <path clip-path="url(#p09a5fc2729)" d="M 192.866667 265.367026 
L 201.133333 265.367026 
L 201.133333 364.484749 
L 192.866667 364.484749 
z
" style="fill:#1f77b4;"/>
   </g>
   <g id="patch_9">
    <path clip-path="url(#p09a5fc2729)" d="M 203.2 265.367026 
L 211.466667 265.367026 
L 211.466667 354.104353 
L 203.2 354.104353 
z
" style="fill:#1f77b4;"/>
   </g>
   <g id="patch_10">
    <path clip-path="url(#p09a5fc2729)" d="M 213.533333 265.367026 
L 221.8 265.367026 
L 221.8 341.515979 
L 213.533333 341.515979 
z
" style="fill:#1f77b4;"/>
   </g>
   <g id="patch_11">
    <path clip-path="url(#p09a5fc2729)" d="M 223.866667 265.367026 
L 232.133333 265.367026 
L 232.133333 341.248481 
L 223.866667 341.248481 
z
" style="fill:#1f77b4;"/>
   </g>
   <g id="patch_12">
    <path clip-path="url(#p09a5fc2729)" d="M 234.2 265.367026 
L 242.466667 265.367026 
L 242.466667 341.112707 
L 234.2 341.112707 
z
" style="fill:#1f77b4;"/>
   </g>
   <g id="patch_13">
    <path clip-path="url(#p09a5fc2729)" d="M 244.533333 265.367026 
L 252.8 265.367026 
L 252.8 338.433773 
L 244.533333 338.433773 
z
" style="fill:#1f77b4;"/>
   </g>
   <g id="patch_14">
    <path clip-path="url(#p09a5fc2729)" d="M 254.866667 265.367026 
L 263.133333 265.367026 
L 263.133333 333.567496 
L 254.866667 333.567496 
z
" style="fill:#1f77b4;"/>
   </g>
   <g id="patch_15">
    <path clip-path="url(#p09a5fc2729)" d="M 265.2 265.367026 
L 273.466667 265.367026 
L 273.466667 320.900233 
L 265.2 320.900233 
z
" style="fill:#1f77b4;"/>
   </g>
   <g id="patch_16">
    <path clip-path="url(#p09a5fc2729)" d="M 275.533333 265.367026 
L 283.8 265.367026 
L 283.8 319.604708 
L 275.533333 319.604708 
z
" style="fill:#1f77b4;"/>
   </g>
   <g id="patch_17">
    <path clip-path="url(#p09a5fc2729)" d="M 285.866667 265.367026 
L 294.133333 265.367026 
L 294.133333 317.228341 
L 285.866667 317.228341 
z
" style="fill:#1f77b4;"/>
   </g>
   <g id="patch_18">
    <path clip-path="url(#p09a5fc2729)" d="M 296.2 265.367026 
L 304.466667 265.367026 
L 304.466667 317.060719 
L 296.2 317.060719 
z
" style="fill:#1f77b4;"/>
   </g>
   <g id="patch_19">
    <path clip-path="url(#p09a5fc2729)" d="M 306.533333 265.367026 
L 314.8 265.367026 
L 314.8 316.987425 
L 306.533333 316.987425 
z
" style="fill:#1f77b4;"/>
   </g>
   <g id="patch_20">
    <path clip-path="url(#p09a5fc2729)" d="M 316.866667 265.367026 
L 325.133333 265.367026 
L 325.133333 315.587717 
L 316.866667 315.587717 
z
" style="fill:#1f77b4;"/>
   </g>
   <g id="patch_21">
    <path clip-path="url(#p09a5fc2729)" d="M 327.2 265.367026 
L 335.466667 265.367026 
L 335.466667 313.629262 
L 327.2 313.629262 
z
" style="fill:#1f77b4;"/>
   </g>
   <g id="patch_22">
    <path clip-path="url(#p09a5fc2729)" d="M 337.533333 265.367026 
L 345.8 265.367026 
L 345.8 312.35876 
L 337.533333 312.35876 
z
" style="fill:#1f77b4;"/>
   </g>
   <g id="patch_23">
    <path clip-path="url(#p09a5fc2729)" d="M 347.866667 265.367026 
L 356.133333 265.367026 
L 356.133333 310.563683 
L 347.866667 310.563683 
z
" style="fill:#1f77b4;"/>
   </g>
   <g id="patch_24">
    <path clip-path="url(#p09a5fc2729)" d="M 358.2 265.367026 
L 366.466667 265.367026 
L 366.466667 308.24663 
L 358.2 308.24663 
z
" style="fill:#1f77b4;"/>
   </g>
   <g id="patch_25">
    <path clip-path="url(#p09a5fc2729)" d="M 368.533333 265.367026 
L 376.8 265.367026 
L 376.8 302.49606 
L 368.533333 302.49606 
z
" style="fill:#1f77b4;"/>
   </g>
   <g id="patch_26">
    <path clip-path="url(#p09a5fc2729)" d="M 378.866667 265.367026 
L 387.133333 265.367026 
L 387.133333 299.968195 
L 378.866667 299.968195 
z
" style="fill:#1f77b4;"/>
   </g>
   <g id="patch_27">
    <path clip-path="url(#p09a5fc2729)" d="M 389.2 265.367026 
L 397.466667 265.367026 
L 397.466667 298.706318 
L 389.2 298.706318 
z
" style="fill:#1f77b4;"/>
   </g>
   <g id="patch_28">
    <path clip-path="url(#p09a5fc2729)" d="M 399.533333 265.367026 
L 407.8 265.367026 
L 407.8 298.700727 
L 399.533333 298.700727 
z
" style="fill:#1f77b4;"/>
   </g>
   <g id="patch_29">
    <path clip-path="url(#p09a5fc2729)" d="M 409.866667 265.367026 
L 418.133333 265.367026 
L 418.133333 298.227768 
L 409.866667 298.227768 
z
" style="fill:#1f77b4;"/>
   </g>
   <g id="patch_30">
    <path clip-path="url(#p09a5fc2729)" d="M 420.2 265.367026 
L 428.466667 265.367026 
L 428.466667 297.347052 
L 420.2 297.347052 
z
" style="fill:#1f77b4;"/>
   </g>
   <g id="patch_31">
    <path clip-path="url(#p09a5fc2729)" d="M 430.533333 265.367026 
L 438.8 265.367026 
L 438.8 295.564368 
L 430.533333 295.564368 
z
" style="fill:#1f77b4;"/>
   </g>
   <g id="patch_32">
    <path clip-path="url(#p09a5fc2729)" d="M 440.866667 265.367026 
L 449.133333 265.367026 
L 449.133333 293.142686 
L 440.866667 293.142686 
z
" style="fill:#1f77b4;"/>
   </g>
   <g id="patch_33">
    <path clip-path="url(#p09a5fc2729)" d="M 451.2 265.367026 
L 459.466667 265.367026 
L 459.466667 286.052816 
L 451.2 286.052816 
z
" style="fill:#1f77b4;"/>
   </g>
   <g id="patch_34">
    <path clip-path="url(#p09a5fc2729)" d="M 461.533333 265.367026 
L 469.8 265.367026 
L 469.8 283.623231 
L 461.533333 283.623231 
z
" style="fill:#1f77b4;"/>
   </g>
   <g id="patch_35">
    <path clip-path="url(#p09a5fc2729)" d="M 471.866667 265.367026 
L 480.133333 265.367026 
L 480.133333 283.334713 
L 471.866667 283.334713 
z
" style="fill:#1f77b4;"/>
   </g>
   <g id="patch_36">
    <path clip-path="url(#p09a5fc2729)" d="M 482.2 265.367026 
L 490.466667 265.367026 
L 490.466667 282.269334 
L 482.2 282.269334 
z
" style="fill:#1f77b4;"/>
   </g>
   <g id="patch_37">
    <path clip-path="url(#p09a5fc2729)" d="M 492.533333 265.367026 
L 500.8 265.367026 
L 500.8 279.490417 
L 492.533333 279.490417 
z
" style="fill:#1f77b4;"/>
   </g>
   <g id="patch_38">
    <path clip-path="url(#p09a5fc2729)" d="M 502.866667 265.367026 
L 511.133333 265.367026 
L 511.133333 278.670638 
L 502.866667 278.670638 
z
" style="fill:#1f77b4;"/>
   </g>
   <g id="patch_39">
    <path clip-path="url(#p09a5fc2729)" d="M 513.2 265.367026 
L 521.466667 265.367026 
L 521.466667 278.441484 
L 513.2 278.441484 
z
" style="fill:#1f77b4;"/>
   </g>
   <g id="patch_40">
    <path clip-path="url(#p09a5fc2729)" d="M 523.533333 265.367026 
L 531.8 265.367026 
L 531.8 278.13324 
L 523.533333 278.13324 
z
" style="fill:#1f77b4;"/>
   </g>
   <g id="patch_41">
    <path clip-path="url(#p09a5fc2729)" d="M 533.866667 265.367026 
L 542.133333 265.367026 
L 542.133333 274.840111 
L 533.866667 274.840111 
z
" style="fill:#1f77b4;"/>
   </g>
   <g id="patch_42">
    <path clip-path="url(#p09a5fc2729)" d="M 544.2 265.367026 
L 552.466667 265.367026 
L 552.466667 273.887246 
L 544.2 273.887246 
z
" style="fill:#1f77b4;"/>
   </g>
   <g id="patch_43">
    <path clip-path="url(#p09a5fc2729)" d="M 554.533333 265.367026 
L 562.8 265.367026 
L 562.8 267.559563 
L 554.533333 267.559563 
z
" style="fill:#1f77b4;"/>
   </g>
   <g id="patch_44">
    <path clip-path="url(#p09a5fc2729)" d="M 564.866667 265.367026 
L 573.133333 265.367026 
L 573.133333 266.29692 
L 564.866667 266.29692 
z
" style="fill:#1f77b4;"/>
   </g>
   <g id="patch_45">
    <path clip-path="url(#p09a5fc2729)" d="M 575.2 265.367026 
L 583.466667 265.367026 
L 583.466667 265.161314 
L 575.2 265.161314 
z
" style="fill:#1f77b4;"/>
   </g>
   <g id="patch_46">
    <path clip-path="url(#p09a5fc2729)" d="M 585.533333 265.367026 
L 593.8 265.367026 
L 593.8 263.512403 
L 585.533333 263.512403 
z
" style="fill:#1f77b4;"/>
   </g>
   <g id="patch_47">
    <path clip-path="url(#p09a5fc2729)" d="M 595.866667 265.367026 
L 604.133333 265.367026 
L 604.133333 262.386586 
L 595.866667 262.386586 
z
" style="fill:#1f77b4;"/>
   </g>
   <g id="patch_48">
    <path clip-path="url(#p09a5fc2729)" d="M 606.2 265.367026 
L 614.466667 265.367026 
L 614.466667 262.202363 
L 606.2 262.202363 
z
" style="fill:#1f77b4;"/>
   </g>
   <g id="patch_49">
    <path clip-path="url(#p09a5fc2729)" d="M 616.533333 265.367026 
L 624.8 265.367026 
L 624.8 260.817316 
L 616.533333 260.817316 
z
" style="fill:#1f77b4;"/>
   </g>
   <g id="patch_50">
    <path clip-path="url(#p09a5fc2729)" d="M 626.866667 265.367026 
L 635.133333 265.367026 
L 635.133333 260.087879 
L 626.866667 260.087879 
z
" style="fill:#1f77b4;"/>
   </g>
   <g id="patch_51">
    <path clip-path="url(#p09a5fc2729)" d="M 637.2 265.367026 
L 645.466667 265.367026 
L 645.466667 257.658279 
L 637.2 257.658279 
z
" style="fill:#1f77b4;"/>
   </g>
   <g id="patch_52">
    <path clip-path="url(#p09a5fc2729)" d="M 647.533333 265.367026 
L 655.8 265.367026 
L 655.8 253.214239 
L 647.533333 253.214239 
z
" style="fill:#1f77b4;"/>
   </g>
   <g id="patch_53">
    <path clip-path="url(#p09a5fc2729)" d="M 657.866667 265.367026 
L 666.133333 265.367026 
L 666.133333 251.606378 
L 657.866667 251.606378 
z
" style="fill:#1f77b4;"/>
   </g>
   <g id="patch_54">
    <path clip-path="url(#p09a5fc2729)" d="M 668.2 265.367026 
L 676.466667 265.367026 
L 676.466667 251.143577 
L 668.2 251.143577 
z
" style="fill:#1f77b4;"/>
   </g>
   <g id="patch_55">
    <path clip-path="url(#p09a5fc2729)" d="M 678.533333 265.367026 
L 686.8 265.367026 
L 686.8 250.800369 
L 678.533333 250.800369 
z
" style="fill:#1f77b4;"/>
   </g>
   <g id="patch_56">
    <path clip-path="url(#p09a5fc2729)" d="M 688.866667 265.367026 
L 697.133333 265.367026 
L 697.133333 250.356474 
L 688.866667 250.356474 
z
" style="fill:#1f77b4;"/>
   </g>
   <g id="patch_57">
    <path clip-path="url(#p09a5fc2729)" d="M 699.2 265.367026 
L 707.466667 265.367026 
L 707.466667 247.916978 
L 699.2 247.916978 
z
" style="fill:#1f77b4;"/>
   </g>
   <g id="patch_58">
    <path clip-path="url(#p09a5fc2729)" d="M 709.533333 265.367026 
L 717.8 265.367026 
L 717.8 246.703625 
L 709.533333 246.703625 
z
" style="fill:#1f77b4;"/>
   </g>
   <g id="patch_59">
    <path clip-path="url(#p09a5fc2729)" d="M 719.866667 265.367026 
L 728.133333 265.367026 
L 728.133333 245.546806 
L 719.866667 245.546806 
z
" style="fill:#1f77b4;"/>
   </g>
   <g id="patch_60">
    <path clip-path="url(#p09a5fc2729)" d="M 730.2 265.367026 
L 738.466667 265.367026 
L 738.466667 244.167251 
L 730.2 244.167251 
z
" style="fill:#1f77b4;"/>
   </g>
   <g id="patch_61">
    <path clip-path="url(#p09a5fc2729)" d="M 740.533333 265.367026 
L 748.8 265.367026 
L 748.8 243.608329 
L 740.533333 243.608329 
z
" style="fill:#1f77b4;"/>
   </g>
   <g id="patch_62">
    <path clip-path="url(#p09a5fc2729)" d="M 750.866667 265.367026 
L 759.133333 265.367026 
L 759.133333 241.769418 
L 750.866667 241.769418 
z
" style="fill:#1f77b4;"/>
   </g>
   <g id="patch_63">
    <path clip-path="url(#p09a5fc2729)" d="M 761.2 265.367026 
L 769.466667 265.367026 
L 769.466667 239.792109 
L 761.2 239.792109 
z
" style="fill:#1f77b4;"/>
   </g>
   <g id="patch_64">
    <path clip-path="url(#p09a5fc2729)" d="M 771.533333 265.367026 
L 779.8 265.367026 
L 779.8 238.681672 
L 771.533333 238.681672 
z
" style="fill:#1f77b4;"/>
   </g>
   <g id="patch_65">
    <path clip-path="url(#p09a5fc2729)" d="M 781.866667 265.367026 
L 790.133333 265.367026 
L 790.133333 236.629609 
L 781.866667 236.629609 
z
" style="fill:#1f77b4;"/>
   </g>
   <g id="patch_66">
    <path clip-path="url(#p09a5fc2729)" d="M 792.2 265.367026 
L 800.466667 265.367026 
L 800.466667 234.021582 
L 792.2 234.021582 
z
" style="fill:#1f77b4;"/>
   </g>
   <g id="patch_67">
    <path clip-path="url(#p09a5fc2729)" d="M 802.533333 265.367026 
L 810.8 265.367026 
L 810.8 232.948234 
L 802.533333 232.948234 
z
" style="fill:#1f77b4;"/>
   </g>
   <g id="patch_68">
    <path clip-path="url(#p09a5fc2729)" d="M 812.866667 265.367026 
L 821.133333 265.367026 
L 821.133333 232.868439 
L 812.866667 232.868439 
z
" style="fill:#1f77b4;"/>
   </g>
   <g id="patch_69">
    <path clip-path="url(#p09a5fc2729)" d="M 823.2 265.367026 
L 831.466667 265.367026 
L 831.466667 232.669868 
L 823.2 232.669868 
z
" style="fill:#1f77b4;"/>
   </g>
   <g id="patch_70">
    <path clip-path="url(#p09a5fc2729)" d="M 833.533333 265.367026 
L 841.8 265.367026 
L 841.8 218.51308 
L 833.533333 218.51308 
z
" style="fill:#1f77b4;"/>
   </g>
   <g id="patch_71">
    <path clip-path="url(#p09a5fc2729)" d="M 843.866667 265.367026 
L 852.133333 265.367026 
L 852.133333 208.738188 
L 843.866667 208.738188 
z
" style="fill:#1f77b4;"/>
   </g>
   <g id="patch_72">
    <path clip-path="url(#p09a5fc2729)" d="M 854.2 265.367026 
L 862.466667 265.367026 
L 862.466667 200.621559 
L 854.2 200.621559 
z
" style="fill:#1f77b4;"/>
   </g>
   <g id="patch_73">
    <path clip-path="url(#p09a5fc2729)" d="M 864.533333 265.367026 
L 872.8 265.367026 
L 872.8 196.417026 
L 864.533333 196.417026 
z
" style="fill:#1f77b4;"/>
   </g>
   <g id="patch_74">
    <path clip-path="url(#p09a5fc2729)" d="M 874.866667 265.367026 
L 883.133333 265.367026 
L 883.133333 190.162447 
L 874.866667 190.162447 
z
" style="fill:#1f77b4;"/>
   </g>
   <g id="patch_75">
    <path clip-path="url(#p09a5fc2729)" d="M 885.2 265.367026 
L 893.466667 265.367026 
L 893.466667 169.182515 
L 885.2 169.182515 
z
" style="fill:#1f77b4;"/>
   </g>
   <g id="patch_76">
    <path clip-path="url(#p09a5fc2729)" d="M 895.533333 265.367026 
L 903.8 265.367026 
L 903.8 162.810419 
L 895.533333 162.810419 
z
" style="fill:#1f77b4;"/>
   </g>
   <g id="patch_77">
    <path clip-path="url(#p09a5fc2729)" d="M 905.866667 265.367026 
L 914.133333 265.367026 
L 914.133333 161.966868 
L 905.866667 161.966868 
z
" style="fill:#1f77b4;"/>
   </g>
   <g id="patch_78">
    <path clip-path="url(#p09a5fc2729)" d="M 916.2 265.367026 
L 924.466667 265.367026 
L 924.466667 152.016405 
L 916.2 152.016405 
z
" style="fill:#1f77b4;"/>
   </g>
   <g id="patch_79">
    <path clip-path="url(#p09a5fc2729)" d="M 926.533333 265.367026 
L 934.8 265.367026 
L 934.8 130.712148 
L 926.533333 130.712148 
z
" style="fill:#1f77b4;"/>
   </g>
   <g id="patch_80">
    <path clip-path="url(#p09a5fc2729)" d="M 936.866667 265.367026 
L 945.133333 265.367026 
L 945.133333 125.512553 
L 936.866667 125.512553 
z
" style="fill:#1f77b4;"/>
   </g>
   <g id="patch_81">
    <path clip-path="url(#p09a5fc2729)" d="M 947.2 265.367026 
L 955.466667 265.367026 
L 955.466667 78.974962 
L 947.2 78.974962 
z
" style="fill:#1f77b4;"/>
   </g>
   <g id="patch_82">
    <path clip-path="url(#p09a5fc2729)" d="M 957.533333 265.367026 
L 965.8 265.367026 
L 965.8 77.776364 
L 957.533333 77.776364 
z
" style="fill:#1f77b4;"/>
   </g>
   <g id="patch_83">
    <path clip-path="url(#p09a5fc2729)" d="M 141.2 265.367026 
L 149.466667 265.367026 
L 149.466667 423.703636 
L 141.2 423.703636 
z
" style="fill:#1f77b4;"/>
   </g>
   <g id="patch_84">
    <path clip-path="url(#p09a5fc2729)" d="M 151.533333 265.367026 
L 159.8 265.367026 
L 159.8 409.09265 
L 151.533333 409.09265 
z
" style="fill:#1f77b4;"/>
   </g>
   <g id="patch_85">
    <path clip-path="url(#p09a5fc2729)" d="M 161.866667 265.367026 
L 170.133333 265.367026 
L 170.133333 396.360911 
L 161.866667 396.360911 
z
" style="fill:#7f7f7f;"/>
   </g>
   <g id="patch_86">
    <path clip-path="url(#p09a5fc2729)" d="M 172.2 265.367026 
L 180.466667 265.367026 
L 180.466667 383.536422 
L 172.2 383.536422 
z
" style="fill:#7f7f7f;"/>
   </g>
   <g id="patch_87">
    <path clip-path="url(#p09a5fc2729)" d="M 182.533333 265.367026 
L 190.8 265.367026 
L 190.8 372.84708 
L 182.533333 372.84708 
z
" style="fill:#7f7f7f;"/>
   </g>
   <g id="patch_88">
    <path clip-path="url(#p09a5fc2729)" d="M 192.866667 265.367026 
L 201.133333 265.367026 
L 201.133333 364.484749 
L 192.866667 364.484749 
z
" style="fill:#7f7f7f;"/>
   </g>
   <g id="patch_89">
    <path clip-path="url(#p09a5fc2729)" d="M 203.2 265.367026 
L 211.466667 265.367026 
L 211.466667 354.104353 
L 203.2 354.104353 
z
" style="fill:#1f77b4;"/>
   </g>
   <g id="patch_90">
    <path clip-path="url(#p09a5fc2729)" d="M 213.533333 265.367026 
L 221.8 265.367026 
L 221.8 341.515979 
L 213.533333 341.515979 
z
" style="fill:#7f7f7f;"/>
   </g>
   <g id="patch_91">
    <path clip-path="url(#p09a5fc2729)" d="M 223.866667 265.367026 
L 232.133333 265.367026 
L 232.133333 341.248481 
L 223.866667 341.248481 
z
" style="fill:#7f7f7f;"/>
   </g>
   <g id="patch_92">
    <path clip-path="url(#p09a5fc2729)" d="M 234.2 265.367026 
L 242.466667 265.367026 
L 242.466667 341.112707 
L 234.2 341.112707 
z
" style="fill:#7f7f7f;"/>
   </g>
   <g id="patch_93">
    <path clip-path="url(#p09a5fc2729)" d="M 244.533333 265.367026 
L 252.8 265.367026 
L 252.8 338.433773 
L 244.533333 338.433773 
z
" style="fill:#7f7f7f;"/>
   </g>
   <g id="patch_94">
    <path clip-path="url(#p09a5fc2729)" d="M 254.866667 265.367026 
L 263.133333 265.367026 
L 263.133333 333.567496 
L 254.866667 333.567496 
z
" style="fill:#7f7f7f;"/>
   </g>
   <g id="patch_95">
    <path clip-path="url(#p09a5fc2729)" d="M 265.2 265.367026 
L 273.466667 265.367026 
L 273.466667 320.900233 
L 265.2 320.900233 
z
" style="fill:#7f7f7f;"/>
   </g>
   <g id="patch_96">
    <path clip-path="url(#p09a5fc2729)" d="M 275.533333 265.367026 
L 283.8 265.367026 
L 283.8 319.604708 
L 275.533333 319.604708 
z
" style="fill:#7f7f7f;"/>
   </g>
   <g id="patch_97">
    <path clip-path="url(#p09a5fc2729)" d="M 285.866667 265.367026 
L 294.133333 265.367026 
L 294.133333 317.228341 
L 285.866667 317.228341 
z
" style="fill:#7f7f7f;"/>
   </g>
   <g id="patch_98">
    <path clip-path="url(#p09a5fc2729)" d="M 296.2 265.367026 
L 304.466667 265.367026 
L 304.466667 317.060719 
L 296.2 317.060719 
z
" style="fill:#7f7f7f;"/>
   </g>
   <g id="patch_99">
    <path clip-path="url(#p09a5fc2729)" d="M 306.533333 265.367026 
L 314.8 265.367026 
L 314.8 316.987425 
L 306.533333 316.987425 
z
" style="fill:#7f7f7f;"/>
   </g>
   <g id="patch_100">
    <path clip-path="url(#p09a5fc2729)" d="M 316.866667 265.367026 
L 325.133333 265.367026 
L 325.133333 315.587717 
L 316.866667 315.587717 
z
" style="fill:#7f7f7f;"/>
   </g>
   <g id="patch_101">
    <path clip-path="url(#p09a5fc2729)" d="M 327.2 265.367026 
L 335.466667 265.367026 
L 335.466667 313.629262 
L 327.2 313.629262 
z
" style="fill:#7f7f7f;"/>
   </g>
   <g id="patch_102">
    <path clip-path="url(#p09a5fc2729)" d="M 337.533333 265.367026 
L 345.8 265.367026 
L 345.8 312.35876 
L 337.533333 312.35876 
z
" style="fill:#7f7f7f;"/>
   </g>
   <g id="patch_103">
    <path clip-path="url(#p09a5fc2729)" d="M 347.866667 265.367026 
L 356.133333 265.367026 
L 356.133333 310.563683 
L 347.866667 310.563683 
z
" style="fill:#7f7f7f;"/>
   </g>
   <g id="patch_104">
    <path clip-path="url(#p09a5fc2729)" d="M 358.2 265.367026 
L 366.466667 265.367026 
L 366.466667 308.24663 
L 358.2 308.24663 
z
" style="fill:#7f7f7f;"/>
   </g>
   <g id="patch_105">
    <path clip-path="url(#p09a5fc2729)" d="M 368.533333 265.367026 
L 376.8 265.367026 
L 376.8 302.49606 
L 368.533333 302.49606 
z
" style="fill:#7f7f7f;"/>
   </g>
   <g id="patch_106">
    <path clip-path="url(#p09a5fc2729)" d="M 378.866667 265.367026 
L 387.133333 265.367026 
L 387.133333 299.968195 
L 378.866667 299.968195 
z
" style="fill:#7f7f7f;"/>
   </g>
   <g id="patch_107">
    <path clip-path="url(#p09a5fc2729)" d="M 389.2 265.367026 
L 397.466667 265.367026 
L 397.466667 298.706318 
L 389.2 298.706318 
z
" style="fill:#7f7f7f;"/>
   </g>
   <g id="patch_108">
    <path clip-path="url(#p09a5fc2729)" d="M 399.533333 265.367026 
L 407.8 265.367026 
L 407.8 298.700727 
L 399.533333 298.700727 
z
" style="fill:#7f7f7f;"/>
   </g>
   <g id="patch_109">
    <path clip-path="url(#p09a5fc2729)" d="M 409.866667 265.367026 
L 418.133333 265.367026 
L 418.133333 298.227768 
L 409.866667 298.227768 
z
" style="fill:#7f7f7f;"/>
   </g>
   <g id="patch_110">
    <path clip-path="url(#p09a5fc2729)" d="M 420.2 265.367026 
L 428.466667 265.367026 
L 428.466667 297.347052 
L 420.2 297.347052 
z
" style="fill:#7f7f7f;"/>
   </g>
   <g id="patch_111">
    <path clip-path="url(#p09a5fc2729)" d="M 430.533333 265.367026 
L 438.8 265.367026 
L 438.8 295.564368 
L 430.533333 295.564368 
z
" style="fill:#7f7f7f;"/>
   </g>
   <g id="patch_112">
    <path clip-path="url(#p09a5fc2729)" d="M 440.866667 265.367026 
L 449.133333 265.367026 
L 449.133333 293.142686 
L 440.866667 293.142686 
z
" style="fill:#7f7f7f;"/>
   </g>
   <g id="patch_113">
    <path clip-path="url(#p09a5fc2729)" d="M 451.2 265.367026 
L 459.466667 265.367026 
L 459.466667 286.052816 
L 451.2 286.052816 
z
" style="fill:#7f7f7f;"/>
   </g>
   <g id="patch_114">
    <path clip-path="url(#p09a5fc2729)" d="M 461.533333 265.367026 
L 469.8 265.367026 
L 469.8 283.623231 
L 461.533333 283.623231 
z
" style="fill:#7f7f7f;"/>
   </g>
   <g id="patch_115">
    <path clip-path="url(#p09a5fc2729)" d="M 471.866667 265.367026 
L 480.133333 265.367026 
L 480.133333 283.334713 
L 471.866667 283.334713 
z
" style="fill:#7f7f7f;"/>
   </g>
   <g id="patch_116">
    <path clip-path="url(#p09a5fc2729)" d="M 482.2 265.367026 
L 490.466667 265.367026 
L 490.466667 282.269334 
L 482.2 282.269334 
z
" style="fill:#7f7f7f;"/>
   </g>
   <g id="patch_117">
    <path clip-path="url(#p09a5fc2729)" d="M 492.533333 265.367026 
L 500.8 265.367026 
L 500.8 279.490417 
L 492.533333 279.490417 
z
" style="fill:#7f7f7f;"/>
   </g>
   <g id="patch_118">
    <path clip-path="url(#p09a5fc2729)" d="M 502.866667 265.367026 
L 511.133333 265.367026 
L 511.133333 278.670638 
L 502.866667 278.670638 
z
" style="fill:#7f7f7f;"/>
   </g>
   <g id="patch_119">
    <path clip-path="url(#p09a5fc2729)" d="M 513.2 265.367026 
L 521.466667 265.367026 
L 521.466667 278.441484 
L 513.2 278.441484 
z
" style="fill:#7f7f7f;"/>
   </g>
   <g id="patch_120">
    <path clip-path="url(#p09a5fc2729)" d="M 523.533333 265.367026 
L 531.8 265.367026 
L 531.8 278.13324 
L 523.533333 278.13324 
z
" style="fill:#7f7f7f;"/>
   </g>
   <g id="patch_121">
    <path clip-path="url(#p09a5fc2729)" d="M 533.866667 265.367026 
L 542.133333 265.367026 
L 542.133333 274.840111 
L 533.866667 274.840111 
z
" style="fill:#7f7f7f;"/>
   </g>
   <g id="patch_122">
    <path clip-path="url(#p09a5fc2729)" d="M 544.2 265.367026 
L 552.466667 265.367026 
L 552.466667 273.887246 
L 544.2 273.887246 
z
" style="fill:#7f7f7f;"/>
   </g>
   <g id="patch_123">
    <path clip-path="url(#p09a5fc2729)" d="M 554.533333 265.367026 
L 562.8 265.367026 
L 562.8 267.559563 
L 554.533333 267.559563 
z
" style="fill:#7f7f7f;"/>
   </g>
   <g id="patch_124">
    <path clip-path="url(#p09a5fc2729)" d="M 564.866667 265.367026 
L 573.133333 265.367026 
L 573.133333 266.29692 
L 564.866667 266.29692 
z
" style="fill:#7f7f7f;"/>
   </g>
   <g id="patch_125">
    <path clip-path="url(#p09a5fc2729)" d="M 575.2 265.367026 
L 583.466667 265.367026 
L 583.466667 265.161314 
L 575.2 265.161314 
z
" style="fill:#7f7f7f;"/>
   </g>
   <g id="patch_126">
    <path clip-path="url(#p09a5fc2729)" d="M 585.533333 265.367026 
L 593.8 265.367026 
L 593.8 263.512403 
L 585.533333 263.512403 
z
" style="fill:#7f7f7f;"/>
   </g>
   <g id="patch_127">
    <path clip-path="url(#p09a5fc2729)" d="M 595.866667 265.367026 
L 604.133333 265.367026 
L 604.133333 262.386586 
L 595.866667 262.386586 
z
" style="fill:#7f7f7f;"/>
   </g>
   <g id="patch_128">
    <path clip-path="url(#p09a5fc2729)" d="M 606.2 265.367026 
L 614.466667 265.367026 
L 614.466667 262.202363 
L 606.2 262.202363 
z
" style="fill:#7f7f7f;"/>
   </g>
   <g id="patch_129">
    <path clip-path="url(#p09a5fc2729)" d="M 616.533333 265.367026 
L 624.8 265.367026 
L 624.8 260.817316 
L 616.533333 260.817316 
z
" style="fill:#7f7f7f;"/>
   </g>
   <g id="patch_130">
    <path clip-path="url(#p09a5fc2729)" d="M 626.866667 265.367026 
L 635.133333 265.367026 
L 635.133333 260.087879 
L 626.866667 260.087879 
z
" style="fill:#7f7f7f;"/>
   </g>
   <g id="patch_131">
    <path clip-path="url(#p09a5fc2729)" d="M 637.2 265.367026 
L 645.466667 265.367026 
L 645.466667 257.658279 
L 637.2 257.658279 
z
" style="fill:#7f7f7f;"/>
   </g>
   <g id="patch_132">
    <path clip-path="url(#p09a5fc2729)" d="M 647.533333 265.367026 
L 655.8 265.367026 
L 655.8 253.214239 
L 647.533333 253.214239 
z
" style="fill:#7f7f7f;"/>
   </g>
   <g id="patch_133">
    <path clip-path="url(#p09a5fc2729)" d="M 657.866667 265.367026 
L 666.133333 265.367026 
L 666.133333 251.606378 
L 657.866667 251.606378 
z
" style="fill:#7f7f7f;"/>
   </g>
   <g id="patch_134">
    <path clip-path="url(#p09a5fc2729)" d="M 668.2 265.367026 
L 676.466667 265.367026 
L 676.466667 251.143577 
L 668.2 251.143577 
z
" style="fill:#7f7f7f;"/>
   </g>
   <g id="patch_135">
    <path clip-path="url(#p09a5fc2729)" d="M 678.533333 265.367026 
L 686.8 265.367026 
L 686.8 250.800369 
L 678.533333 250.800369 
z
" style="fill:#7f7f7f;"/>
   </g>
   <g id="patch_136">
    <path clip-path="url(#p09a5fc2729)" d="M 688.866667 265.367026 
L 697.133333 265.367026 
L 697.133333 250.356474 
L 688.866667 250.356474 
z
" style="fill:#7f7f7f;"/>
   </g>
   <g id="patch_137">
    <path clip-path="url(#p09a5fc2729)" d="M 699.2 265.367026 
L 707.466667 265.367026 
L 707.466667 247.916978 
L 699.2 247.916978 
z
" style="fill:#7f7f7f;"/>
   </g>
   <g id="patch_138">
    <path clip-path="url(#p09a5fc2729)" d="M 709.533333 265.367026 
L 717.8 265.367026 
L 717.8 246.703625 
L 709.533333 246.703625 
z
" style="fill:#7f7f7f;"/>
   </g>
   <g id="patch_139">
    <path clip-path="url(#p09a5fc2729)" d="M 719.866667 265.367026 
L 728.133333 265.367026 
L 728.133333 245.546806 
L 719.866667 245.546806 
z
" style="fill:#7f7f7f;"/>
   </g>
   <g id="patch_140">
    <path clip-path="url(#p09a5fc2729)" d="M 730.2 265.367026 
L 738.466667 265.367026 
L 738.466667 244.167251 
L 730.2 244.167251 
z
" style="fill:#7f7f7f;"/>
   </g>
   <g id="patch_141">
    <path clip-path="url(#p09a5fc2729)" d="M 740.533333 265.367026 
L 748.8 265.367026 
L 748.8 243.608329 
L 740.533333 243.608329 
z
" style="fill:#7f7f7f;"/>
   </g>
   <g id="patch_142">
    <path clip-path="url(#p09a5fc2729)" d="M 750.866667 265.367026 
L 759.133333 265.367026 
L 759.133333 241.769418 
L 750.866667 241.769418 
z
" style="fill:#7f7f7f;"/>
   </g>
   <g id="patch_143">
    <path clip-path="url(#p09a5fc2729)" d="M 761.2 265.367026 
L 769.466667 265.367026 
L 769.466667 239.792109 
L 761.2 239.792109 
z
" style="fill:#7f7f7f;"/>
   </g>
   <g id="patch_144">
    <path clip-path="url(#p09a5fc2729)" d="M 771.533333 265.367026 
L 779.8 265.367026 
L 779.8 238.681672 
L 771.533333 238.681672 
z
" style="fill:#7f7f7f;"/>
   </g>
   <g id="patch_145">
    <path clip-path="url(#p09a5fc2729)" d="M 781.866667 265.367026 
L 790.133333 265.367026 
L 790.133333 236.629609 
L 781.866667 236.629609 
z
" style="fill:#7f7f7f;"/>
   </g>
   <g id="patch_146">
    <path clip-path="url(#p09a5fc2729)" d="M 792.2 265.367026 
L 800.466667 265.367026 
L 800.466667 234.021582 
L 792.2 234.021582 
z
" style="fill:#7f7f7f;"/>
   </g>
   <g id="patch_147">
    <path clip-path="url(#p09a5fc2729)" d="M 802.533333 265.367026 
L 810.8 265.367026 
L 810.8 232.948234 
L 802.533333 232.948234 
z
" style="fill:#7f7f7f;"/>
   </g>
   <g id="patch_148">
    <path clip-path="url(#p09a5fc2729)" d="M 812.866667 265.367026 
L 821.133333 265.367026 
L 821.133333 232.868439 
L 812.866667 232.868439 
z
" style="fill:#7f7f7f;"/>
   </g>
   <g id="patch_149">
    <path clip-path="url(#p09a5fc2729)" d="M 823.2 265.367026 
L 831.466667 265.367026 
L 831.466667 232.669868 
L 823.2 232.669868 
z
" style="fill:#7f7f7f;"/>
   </g>
   <g id="patch_150">
    <path clip-path="url(#p09a5fc2729)" d="M 833.533333 265.367026 
L 841.8 265.367026 
L 841.8 218.51308 
L 833.533333 218.51308 
z
" style="fill:#7f7f7f;"/>
   </g>
   <g id="patch_151">
    <path clip-path="url(#p09a5fc2729)" d="M 843.866667 265.367026 
L 852.133333 265.367026 
L 852.133333 208.738188 
L 843.866667 208.738188 
z
" style="fill:#7f7f7f;"/>
   </g>
   <g id="patch_152">
    <path clip-path="url(#p09a5fc2729)" d="M 854.2 265.367026 
L 862.466667 265.367026 
L 862.466667 200.621559 
L 854.2 200.621559 
z
" style="fill:#7f7f7f;"/>
   </g>
   <g id="patch_153">
    <path clip-path="url(#p09a5fc2729)" d="M 864.533333 265.367026 
L 872.8 265.367026 
L 872.8 196.417026 
L 864.533333 196.417026 
z
" style="fill:#7f7f7f;"/>
   </g>
   <g id="patch_154">
    <path clip-path="url(#p09a5fc2729)" d="M 874.866667 265.367026 
L 883.133333 265.367026 
L 883.133333 190.162447 
L 874.866667 190.162447 
z
" style="fill:#7f7f7f;"/>
   </g>
   <g id="patch_155">
    <path clip-path="url(#p09a5fc2729)" d="M 885.2 265.367026 
L 893.466667 265.367026 
L 893.466667 169.182515 
L 885.2 169.182515 
z
" style="fill:#7f7f7f;"/>
   </g>
   <g id="patch_156">
    <path clip-path="url(#p09a5fc2729)" d="M 895.533333 265.367026 
L 903.8 265.367026 
L 903.8 162.810419 
L 895.533333 162.810419 
z
" style="fill:#1f77b4;"/>
   </g>
   <g id="patch_157">
    <path clip-path="url(#p09a5fc2729)" d="M 905.866667 265.367026 
L 914.133333 265.367026 
L 914.133333 161.966868 
L 905.866667 161.966868 
z
" style="fill:#1f77b4;"/>
   </g>
   <g id="patch_158">
    <path clip-path="url(#p09a5fc2729)" d="M 916.2 265.367026 
L 924.466667 265.367026 
L 924.466667 152.016405 
L 916.2 152.016405 
z
" style="fill:#1f77b4;"/>
   </g>
   <g id="patch_159">
    <path clip-path="url(#p09a5fc2729)" d="M 926.533333 265.367026 
L 934.8 265.367026 
L 934.8 130.712148 
L 926.533333 130.712148 
z
" style="fill:#1f77b4;"/>
   </g>
   <g id="patch_160">
    <path clip-path="url(#p09a5fc2729)" d="M 936.866667 265.367026 
L 945.133333 265.367026 
L 945.133333 125.512553 
L 936.866667 125.512553 
z
" style="fill:#1f77b4;"/>
   </g>
   <g id="patch_161">
    <path clip-path="url(#p09a5fc2729)" d="M 947.2 265.367026 
L 955.466667 265.367026 
L 955.466667 78.974962 
L 947.2 78.974962 
z
" style="fill:#1f77b4;"/>
   </g>
   <g id="patch_162">
    <path clip-path="url(#p09a5fc2729)" d="M 957.533333 265.367026 
L 965.8 265.367026 
L 965.8 77.776364 
L 957.533333 77.776364 
z
" style="fill:#1f77b4;"/>
   </g>
   <g id="matplotlib.axis_1">
    <g id="text_1">
     <!-- iModulons -->
     <g transform="translate(515.508984 456.397656)scale(0.15 -0.15)">
      <defs>
       <path d="M 9.421875 54.6875 
L 18.40625 54.6875 
L 18.40625 0 
L 9.421875 0 
z
M 9.421875 75.984375 
L 18.40625 75.984375 
L 18.40625 64.59375 
L 9.421875 64.59375 
z
" id="DejaVuSans-105"/>
       <path d="M 9.8125 72.90625 
L 24.515625 72.90625 
L 43.109375 23.296875 
L 61.8125 72.90625 
L 76.515625 72.90625 
L 76.515625 0 
L 66.890625 0 
L 66.890625 64.015625 
L 48.09375 14.015625 
L 38.1875 14.015625 
L 19.390625 64.015625 
L 19.390625 0 
L 9.8125 0 
z
" id="DejaVuSans-77"/>
       <path d="M 30.609375 48.390625 
Q 23.390625 48.390625 19.1875 42.75 
Q 14.984375 37.109375 14.984375 27.296875 
Q 14.984375 17.484375 19.15625 11.84375 
Q 23.34375 6.203125 30.609375 6.203125 
Q 37.796875 6.203125 41.984375 11.859375 
Q 46.1875 17.53125 46.1875 27.296875 
Q 46.1875 37.015625 41.984375 42.703125 
Q 37.796875 48.390625 30.609375 48.390625 
z
M 30.609375 56 
Q 42.328125 56 49.015625 48.375 
Q 55.71875 40.765625 55.71875 27.296875 
Q 55.71875 13.875 49.015625 6.21875 
Q 42.328125 -1.421875 30.609375 -1.421875 
Q 18.84375 -1.421875 12.171875 6.21875 
Q 5.515625 13.875 5.515625 27.296875 
Q 5.515625 40.765625 12.171875 48.375 
Q 18.84375 56 30.609375 56 
z
" id="DejaVuSans-111"/>
       <path d="M 45.40625 46.390625 
L 45.40625 75.984375 
L 54.390625 75.984375 
L 54.390625 0 
L 45.40625 0 
L 45.40625 8.203125 
Q 42.578125 3.328125 38.25 0.953125 
Q 33.9375 -1.421875 27.875 -1.421875 
Q 17.96875 -1.421875 11.734375 6.484375 
Q 5.515625 14.40625 5.515625 27.296875 
Q 5.515625 40.1875 11.734375 48.09375 
Q 17.96875 56 27.875 56 
Q 33.9375 56 38.25 53.625 
Q 42.578125 51.265625 45.40625 46.390625 
z
M 14.796875 27.296875 
Q 14.796875 17.390625 18.875 11.75 
Q 22.953125 6.109375 30.078125 6.109375 
Q 37.203125 6.109375 41.296875 11.75 
Q 45.40625 17.390625 45.40625 27.296875 
Q 45.40625 37.203125 41.296875 42.84375 
Q 37.203125 48.484375 30.078125 48.484375 
Q 22.953125 48.484375 18.875 42.84375 
Q 14.796875 37.203125 14.796875 27.296875 
z
" id="DejaVuSans-100"/>
       <path d="M 8.5 21.578125 
L 8.5 54.6875 
L 17.484375 54.6875 
L 17.484375 21.921875 
Q 17.484375 14.15625 20.5 10.265625 
Q 23.53125 6.390625 29.59375 6.390625 
Q 36.859375 6.390625 41.078125 11.03125 
Q 45.3125 15.671875 45.3125 23.6875 
L 45.3125 54.6875 
L 54.296875 54.6875 
L 54.296875 0 
L 45.3125 0 
L 45.3125 8.40625 
Q 42.046875 3.421875 37.71875 1 
Q 33.40625 -1.421875 27.6875 -1.421875 
Q 18.265625 -1.421875 13.375 4.4375 
Q 8.5 10.296875 8.5 21.578125 
z
M 31.109375 56 
z
" id="DejaVuSans-117"/>
       <path d="M 9.421875 75.984375 
L 18.40625 75.984375 
L 18.40625 0 
L 9.421875 0 
z
" id="DejaVuSans-108"/>
       <path d="M 54.890625 33.015625 
L 54.890625 0 
L 45.90625 0 
L 45.90625 32.71875 
Q 45.90625 40.484375 42.875 44.328125 
Q 39.84375 48.1875 33.796875 48.1875 
Q 26.515625 48.1875 22.3125 43.546875 
Q 18.109375 38.921875 18.109375 30.90625 
L 18.109375 0 
L 9.078125 0 
L 9.078125 54.6875 
L 18.109375 54.6875 
L 18.109375 46.1875 
Q 21.34375 51.125 25.703125 53.5625 
Q 30.078125 56 35.796875 56 
Q 45.21875 56 50.046875 50.171875 
Q 54.890625 44.34375 54.890625 33.015625 
z
" id="DejaVuSans-110"/>
       <path d="M 44.28125 53.078125 
L 44.28125 44.578125 
Q 40.484375 46.53125 36.375 47.5 
Q 32.28125 48.484375 27.875 48.484375 
Q 21.1875 48.484375 17.84375 46.4375 
Q 14.5 44.390625 14.5 40.28125 
Q 14.5 37.15625 16.890625 35.375 
Q 19.28125 33.59375 26.515625 31.984375 
L 29.59375 31.296875 
Q 39.15625 29.25 43.1875 25.515625 
Q 47.21875 21.78125 47.21875 15.09375 
Q 47.21875 7.46875 41.1875 3.015625 
Q 35.15625 -1.421875 24.609375 -1.421875 
Q 20.21875 -1.421875 15.453125 -0.5625 
Q 10.6875 0.296875 5.421875 2 
L 5.421875 11.28125 
Q 10.40625 8.6875 15.234375 7.390625 
Q 20.0625 6.109375 24.8125 6.109375 
Q 31.15625 6.109375 34.5625 8.28125 
Q 37.984375 10.453125 37.984375 14.40625 
Q 37.984375 18.0625 35.515625 20.015625 
Q 33.0625 21.96875 24.703125 23.78125 
L 21.578125 24.515625 
Q 13.234375 26.265625 9.515625 29.90625 
Q 5.8125 33.546875 5.8125 39.890625 
Q 5.8125 47.609375 11.28125 51.796875 
Q 16.75 56 26.8125 56 
Q 31.78125 56 36.171875 55.265625 
Q 40.578125 54.546875 44.28125 53.078125 
z
" id="DejaVuSans-115"/>
      </defs>
      <use xlink:href="#DejaVuSans-105"/>
      <use x="27.783203" xlink:href="#DejaVuSans-77"/>
      <use x="114.0625" xlink:href="#DejaVuSans-111"/>
      <use x="175.244141" xlink:href="#DejaVuSans-100"/>
      <use x="238.720703" xlink:href="#DejaVuSans-117"/>
      <use x="302.099609" xlink:href="#DejaVuSans-108"/>
      <use x="329.882812" xlink:href="#DejaVuSans-111"/>
      <use x="391.064453" xlink:href="#DejaVuSans-110"/>
      <use x="454.443359" xlink:href="#DejaVuSans-115"/>
     </g>
    </g>
   </g>
   <g id="matplotlib.axis_2">
    <g id="ytick_1">
     <g id="line2d_1">
      <defs>
       <path d="M 0 0 
L -3.5 0 
" id="m92c14d7f97" style="stroke:#000000;stroke-width:0.8;"/>
      </defs>
      <g>
       <use style="stroke:#000000;stroke-width:0.8;" x="135" xlink:href="#m92c14d7f97" y="426.139795"/>
      </g>
     </g>
     <g id="text_2">
      <!-- −10 -->
      <g transform="translate(106.895313 429.939014)scale(0.1 -0.1)">
       <defs>
        <path d="M 10.59375 35.5 
L 73.1875 35.5 
L 73.1875 27.203125 
L 10.59375 27.203125 
z
" id="DejaVuSans-8722"/>
        <path d="M 12.40625 8.296875 
L 28.515625 8.296875 
L 28.515625 63.921875 
L 10.984375 60.40625 
L 10.984375 69.390625 
L 28.421875 72.90625 
L 38.28125 72.90625 
L 38.28125 8.296875 
L 54.390625 8.296875 
L 54.390625 0 
L 12.40625 0 
z
" id="DejaVuSans-49"/>
        <path d="M 31.78125 66.40625 
Q 24.171875 66.40625 20.328125 58.90625 
Q 16.5 51.421875 16.5 36.375 
Q 16.5 21.390625 20.328125 13.890625 
Q 24.171875 6.390625 31.78125 6.390625 
Q 39.453125 6.390625 43.28125 13.890625 
Q 47.125 21.390625 47.125 36.375 
Q 47.125 51.421875 43.28125 58.90625 
Q 39.453125 66.40625 31.78125 66.40625 
z
M 31.78125 74.21875 
Q 44.046875 74.21875 50.515625 64.515625 
Q 56.984375 54.828125 56.984375 36.375 
Q 56.984375 17.96875 50.515625 8.265625 
Q 44.046875 -1.421875 31.78125 -1.421875 
Q 19.53125 -1.421875 13.0625 8.265625 
Q 6.59375 17.96875 6.59375 36.375 
Q 6.59375 54.828125 13.0625 64.515625 
Q 19.53125 74.21875 31.78125 74.21875 
z
" id="DejaVuSans-48"/>
       </defs>
       <use xlink:href="#DejaVuSans-8722"/>
       <use x="83.789062" xlink:href="#DejaVuSans-49"/>
       <use x="147.412109" xlink:href="#DejaVuSans-48"/>
      </g>
     </g>
    </g>
    <g id="ytick_2">
     <g id="line2d_2">
      <g>
       <use style="stroke:#000000;stroke-width:0.8;" x="135" xlink:href="#m92c14d7f97" y="345.75341"/>
      </g>
     </g>
     <g id="text_3">
      <!-- −5 -->
      <g transform="translate(113.257812 349.552629)scale(0.1 -0.1)">
       <defs>
        <path d="M 10.796875 72.90625 
L 49.515625 72.90625 
L 49.515625 64.59375 
L 19.828125 64.59375 
L 19.828125 46.734375 
Q 21.96875 47.46875 24.109375 47.828125 
Q 26.265625 48.1875 28.421875 48.1875 
Q 40.625 48.1875 47.75 41.5 
Q 54.890625 34.8125 54.890625 23.390625 
Q 54.890625 11.625 47.5625 5.09375 
Q 40.234375 -1.421875 26.90625 -1.421875 
Q 22.3125 -1.421875 17.546875 -0.640625 
Q 12.796875 0.140625 7.71875 1.703125 
L 7.71875 11.625 
Q 12.109375 9.234375 16.796875 8.0625 
Q 21.484375 6.890625 26.703125 6.890625 
Q 35.15625 6.890625 40.078125 11.328125 
Q 45.015625 15.765625 45.015625 23.390625 
Q 45.015625 31 40.078125 35.4375 
Q 35.15625 39.890625 26.703125 39.890625 
Q 22.75 39.890625 18.8125 39.015625 
Q 14.890625 38.140625 10.796875 36.28125 
z
" id="DejaVuSans-53"/>
       </defs>
       <use xlink:href="#DejaVuSans-8722"/>
       <use x="83.789062" xlink:href="#DejaVuSans-53"/>
      </g>
     </g>
    </g>
    <g id="ytick_3">
     <g id="line2d_3">
      <g>
       <use style="stroke:#000000;stroke-width:0.8;" x="135" xlink:href="#m92c14d7f97" y="265.367026"/>
      </g>
     </g>
     <g id="text_4">
      <!-- 0 -->
      <g transform="translate(121.6375 269.166245)scale(0.1 -0.1)">
       <use xlink:href="#DejaVuSans-48"/>
      </g>
     </g>
    </g>
    <g id="ytick_4">
     <g id="line2d_4">
      <g>
       <use style="stroke:#000000;stroke-width:0.8;" x="135" xlink:href="#m92c14d7f97" y="184.980641"/>
      </g>
     </g>
     <g id="text_5">
      <!-- 5 -->
      <g transform="translate(121.6375 188.77986)scale(0.1 -0.1)">
       <use xlink:href="#DejaVuSans-53"/>
      </g>
     </g>
    </g>
    <g id="ytick_5">
     <g id="line2d_5">
      <g>
       <use style="stroke:#000000;stroke-width:0.8;" x="135" xlink:href="#m92c14d7f97" y="104.594256"/>
      </g>
     </g>
     <g id="text_6">
      <!-- 10 -->
      <g transform="translate(115.275 108.393475)scale(0.1 -0.1)">
       <use xlink:href="#DejaVuSans-49"/>
       <use x="63.623047" xlink:href="#DejaVuSans-48"/>
      </g>
     </g>
    </g>
    <g id="text_7">
     <!-- hypoxia:040h_.11_DO -->
     <g transform="translate(99.358594 332.868516)rotate(-90)scale(0.15 -0.15)">
      <defs>
       <path d="M 54.890625 33.015625 
L 54.890625 0 
L 45.90625 0 
L 45.90625 32.71875 
Q 45.90625 40.484375 42.875 44.328125 
Q 39.84375 48.1875 33.796875 48.1875 
Q 26.515625 48.1875 22.3125 43.546875 
Q 18.109375 38.921875 18.109375 30.90625 
L 18.109375 0 
L 9.078125 0 
L 9.078125 75.984375 
L 18.109375 75.984375 
L 18.109375 46.1875 
Q 21.34375 51.125 25.703125 53.5625 
Q 30.078125 56 35.796875 56 
Q 45.21875 56 50.046875 50.171875 
Q 54.890625 44.34375 54.890625 33.015625 
z
" id="DejaVuSans-104"/>
       <path d="M 32.171875 -5.078125 
Q 28.375 -14.84375 24.75 -17.8125 
Q 21.140625 -20.796875 15.09375 -20.796875 
L 7.90625 -20.796875 
L 7.90625 -13.28125 
L 13.1875 -13.28125 
Q 16.890625 -13.28125 18.9375 -11.515625 
Q 21 -9.765625 23.484375 -3.21875 
L 25.09375 0.875 
L 2.984375 54.6875 
L 12.5 54.6875 
L 29.59375 11.921875 
L 46.6875 54.6875 
L 56.203125 54.6875 
z
" id="DejaVuSans-121"/>
       <path d="M 18.109375 8.203125 
L 18.109375 -20.796875 
L 9.078125 -20.796875 
L 9.078125 54.6875 
L 18.109375 54.6875 
L 18.109375 46.390625 
Q 20.953125 51.265625 25.265625 53.625 
Q 29.59375 56 35.59375 56 
Q 45.5625 56 51.78125 48.09375 
Q 58.015625 40.1875 58.015625 27.296875 
Q 58.015625 14.40625 51.78125 6.484375 
Q 45.5625 -1.421875 35.59375 -1.421875 
Q 29.59375 -1.421875 25.265625 0.953125 
Q 20.953125 3.328125 18.109375 8.203125 
z
M 48.6875 27.296875 
Q 48.6875 37.203125 44.609375 42.84375 
Q 40.53125 48.484375 33.40625 48.484375 
Q 26.265625 48.484375 22.1875 42.84375 
Q 18.109375 37.203125 18.109375 27.296875 
Q 18.109375 17.390625 22.1875 11.75 
Q 26.265625 6.109375 33.40625 6.109375 
Q 40.53125 6.109375 44.609375 11.75 
Q 48.6875 17.390625 48.6875 27.296875 
z
" id="DejaVuSans-112"/>
       <path d="M 54.890625 54.6875 
L 35.109375 28.078125 
L 55.90625 0 
L 45.3125 0 
L 29.390625 21.484375 
L 13.484375 0 
L 2.875 0 
L 24.125 28.609375 
L 4.6875 54.6875 
L 15.28125 54.6875 
L 29.78125 35.203125 
L 44.28125 54.6875 
z
" id="DejaVuSans-120"/>
       <path d="M 34.28125 27.484375 
Q 23.390625 27.484375 19.1875 25 
Q 14.984375 22.515625 14.984375 16.5 
Q 14.984375 11.71875 18.140625 8.90625 
Q 21.296875 6.109375 26.703125 6.109375 
Q 34.1875 6.109375 38.703125 11.40625 
Q 43.21875 16.703125 43.21875 25.484375 
L 43.21875 27.484375 
z
M 52.203125 31.203125 
L 52.203125 0 
L 43.21875 0 
L 43.21875 8.296875 
Q 40.140625 3.328125 35.546875 0.953125 
Q 30.953125 -1.421875 24.3125 -1.421875 
Q 15.921875 -1.421875 10.953125 3.296875 
Q 6 8.015625 6 15.921875 
Q 6 25.140625 12.171875 29.828125 
Q 18.359375 34.515625 30.609375 34.515625 
L 43.21875 34.515625 
L 43.21875 35.40625 
Q 43.21875 41.609375 39.140625 45 
Q 35.0625 48.390625 27.6875 48.390625 
Q 23 48.390625 18.546875 47.265625 
Q 14.109375 46.140625 10.015625 43.890625 
L 10.015625 52.203125 
Q 14.9375 54.109375 19.578125 55.046875 
Q 24.21875 56 28.609375 56 
Q 40.484375 56 46.34375 49.84375 
Q 52.203125 43.703125 52.203125 31.203125 
z
" id="DejaVuSans-97"/>
       <path d="M 11.71875 12.40625 
L 22.015625 12.40625 
L 22.015625 0 
L 11.71875 0 
z
M 11.71875 51.703125 
L 22.015625 51.703125 
L 22.015625 39.3125 
L 11.71875 39.3125 
z
" id="DejaVuSans-58"/>
       <path d="M 37.796875 64.3125 
L 12.890625 25.390625 
L 37.796875 25.390625 
z
M 35.203125 72.90625 
L 47.609375 72.90625 
L 47.609375 25.390625 
L 58.015625 25.390625 
L 58.015625 17.1875 
L 47.609375 17.1875 
L 47.609375 0 
L 37.796875 0 
L 37.796875 17.1875 
L 4.890625 17.1875 
L 4.890625 26.703125 
z
" id="DejaVuSans-52"/>
       <path d="M 50.984375 -16.609375 
L 50.984375 -23.578125 
L -0.984375 -23.578125 
L -0.984375 -16.609375 
z
" id="DejaVuSans-95"/>
       <path d="M 10.6875 12.40625 
L 21 12.40625 
L 21 0 
L 10.6875 0 
z
" id="DejaVuSans-46"/>
       <path d="M 19.671875 64.796875 
L 19.671875 8.109375 
L 31.59375 8.109375 
Q 46.6875 8.109375 53.6875 14.9375 
Q 60.6875 21.78125 60.6875 36.53125 
Q 60.6875 51.171875 53.6875 57.984375 
Q 46.6875 64.796875 31.59375 64.796875 
z
M 9.8125 72.90625 
L 30.078125 72.90625 
Q 51.265625 72.90625 61.171875 64.09375 
Q 71.09375 55.28125 71.09375 36.53125 
Q 71.09375 17.671875 61.125 8.828125 
Q 51.171875 0 30.078125 0 
L 9.8125 0 
z
" id="DejaVuSans-68"/>
       <path d="M 39.40625 66.21875 
Q 28.65625 66.21875 22.328125 58.203125 
Q 16.015625 50.203125 16.015625 36.375 
Q 16.015625 22.609375 22.328125 14.59375 
Q 28.65625 6.59375 39.40625 6.59375 
Q 50.140625 6.59375 56.421875 14.59375 
Q 62.703125 22.609375 62.703125 36.375 
Q 62.703125 50.203125 56.421875 58.203125 
Q 50.140625 66.21875 39.40625 66.21875 
z
M 39.40625 74.21875 
Q 54.734375 74.21875 63.90625 63.9375 
Q 73.09375 53.65625 73.09375 36.375 
Q 73.09375 19.140625 63.90625 8.859375 
Q 54.734375 -1.421875 39.40625 -1.421875 
Q 24.03125 -1.421875 14.8125 8.828125 
Q 5.609375 19.09375 5.609375 36.375 
Q 5.609375 53.65625 14.8125 63.9375 
Q 24.03125 74.21875 39.40625 74.21875 
z
" id="DejaVuSans-79"/>
      </defs>
      <use xlink:href="#DejaVuSans-104"/>
      <use x="63.378906" xlink:href="#DejaVuSans-121"/>
      <use x="122.558594" xlink:href="#DejaVuSans-112"/>
      <use x="186.035156" xlink:href="#DejaVuSans-111"/>
      <use x="244.091797" xlink:href="#DejaVuSans-120"/>
      <use x="303.271484" xlink:href="#DejaVuSans-105"/>
      <use x="331.054688" xlink:href="#DejaVuSans-97"/>
      <use x="392.333984" xlink:href="#DejaVuSans-58"/>
      <use x="426.025391" xlink:href="#DejaVuSans-48"/>
      <use x="489.648438" xlink:href="#DejaVuSans-52"/>
      <use x="553.271484" xlink:href="#DejaVuSans-48"/>
      <use x="616.894531" xlink:href="#DejaVuSans-104"/>
      <use x="680.273438" xlink:href="#DejaVuSans-95"/>
      <use x="730.273438" xlink:href="#DejaVuSans-46"/>
      <use x="762.060547" xlink:href="#DejaVuSans-49"/>
      <use x="825.683594" xlink:href="#DejaVuSans-49"/>
      <use x="889.306641" xlink:href="#DejaVuSans-95"/>
      <use x="939.306641" xlink:href="#DejaVuSans-68"/>
      <use x="1016.308594" xlink:href="#DejaVuSans-79"/>
     </g>
    </g>
   </g>
   <g id="line2d_6">
    <path clip-path="url(#p09a5fc2729)" d="M 135 265.367026 
L 972 265.367026 
" style="fill:none;stroke:#000000;stroke-linecap:square;stroke-width:1.5;"/>
   </g>
   <g id="patch_163">
    <path d="M 135 441 
L 135 60.48 
" style="fill:none;stroke:#000000;stroke-linecap:square;stroke-linejoin:miter;stroke-width:0.8;"/>
   </g>
   <g id="patch_164">
    <path d="M 972 441 
L 972 60.48 
" style="fill:none;stroke:#000000;stroke-linecap:square;stroke-linejoin:miter;stroke-width:0.8;"/>
   </g>
   <g id="patch_165">
    <path d="M 135 441 
L 972 441 
" style="fill:none;stroke:#000000;stroke-linecap:square;stroke-linejoin:miter;stroke-width:0.8;"/>
   </g>
   <g id="patch_166">
    <path d="M 135 60.48 
L 972 60.48 
" style="fill:none;stroke:#000000;stroke-linecap:square;stroke-linejoin:miter;stroke-width:0.8;"/>
   </g>
   <g id="text_8">
    <!-- Mce3R -->
    <g transform="translate(119.846912 437.055822)scale(0.14 -0.14)">
     <defs>
      <path d="M 48.78125 52.59375 
L 48.78125 44.1875 
Q 44.96875 46.296875 41.140625 47.34375 
Q 37.3125 48.390625 33.40625 48.390625 
Q 24.65625 48.390625 19.8125 42.84375 
Q 14.984375 37.3125 14.984375 27.296875 
Q 14.984375 17.28125 19.8125 11.734375 
Q 24.65625 6.203125 33.40625 6.203125 
Q 37.3125 6.203125 41.140625 7.25 
Q 44.96875 8.296875 48.78125 10.40625 
L 48.78125 2.09375 
Q 45.015625 0.34375 40.984375 -0.53125 
Q 36.96875 -1.421875 32.421875 -1.421875 
Q 20.0625 -1.421875 12.78125 6.34375 
Q 5.515625 14.109375 5.515625 27.296875 
Q 5.515625 40.671875 12.859375 48.328125 
Q 20.21875 56 33.015625 56 
Q 37.15625 56 41.109375 55.140625 
Q 45.0625 54.296875 48.78125 52.59375 
z
" id="DejaVuSans-99"/>
      <path d="M 56.203125 29.59375 
L 56.203125 25.203125 
L 14.890625 25.203125 
Q 15.484375 15.921875 20.484375 11.0625 
Q 25.484375 6.203125 34.421875 6.203125 
Q 39.59375 6.203125 44.453125 7.46875 
Q 49.3125 8.734375 54.109375 11.28125 
L 54.109375 2.78125 
Q 49.265625 0.734375 44.1875 -0.34375 
Q 39.109375 -1.421875 33.890625 -1.421875 
Q 20.796875 -1.421875 13.15625 6.1875 
Q 5.515625 13.8125 5.515625 26.8125 
Q 5.515625 40.234375 12.765625 48.109375 
Q 20.015625 56 32.328125 56 
Q 43.359375 56 49.78125 48.890625 
Q 56.203125 41.796875 56.203125 29.59375 
z
M 47.21875 32.234375 
Q 47.125 39.59375 43.09375 43.984375 
Q 39.0625 48.390625 32.421875 48.390625 
Q 24.90625 48.390625 20.390625 44.140625 
Q 15.875 39.890625 15.1875 32.171875 
z
" id="DejaVuSans-101"/>
      <path d="M 40.578125 39.3125 
Q 47.65625 37.796875 51.625 33 
Q 55.609375 28.21875 55.609375 21.1875 
Q 55.609375 10.40625 48.1875 4.484375 
Q 40.765625 -1.421875 27.09375 -1.421875 
Q 22.515625 -1.421875 17.65625 -0.515625 
Q 12.796875 0.390625 7.625 2.203125 
L 7.625 11.71875 
Q 11.71875 9.328125 16.59375 8.109375 
Q 21.484375 6.890625 26.8125 6.890625 
Q 36.078125 6.890625 40.9375 10.546875 
Q 45.796875 14.203125 45.796875 21.1875 
Q 45.796875 27.640625 41.28125 31.265625 
Q 36.765625 34.90625 28.71875 34.90625 
L 20.21875 34.90625 
L 20.21875 43.015625 
L 29.109375 43.015625 
Q 36.375 43.015625 40.234375 45.921875 
Q 44.09375 48.828125 44.09375 54.296875 
Q 44.09375 59.90625 40.109375 62.90625 
Q 36.140625 65.921875 28.71875 65.921875 
Q 24.65625 65.921875 20.015625 65.03125 
Q 15.375 64.15625 9.8125 62.3125 
L 9.8125 71.09375 
Q 15.4375 72.65625 20.34375 73.4375 
Q 25.25 74.21875 29.59375 74.21875 
Q 40.828125 74.21875 47.359375 69.109375 
Q 53.90625 64.015625 53.90625 55.328125 
Q 53.90625 49.265625 50.4375 45.09375 
Q 46.96875 40.921875 40.578125 39.3125 
z
" id="DejaVuSans-51"/>
      <path d="M 44.390625 34.1875 
Q 47.5625 33.109375 50.5625 29.59375 
Q 53.5625 26.078125 56.59375 19.921875 
L 66.609375 0 
L 56 0 
L 46.6875 18.703125 
Q 43.0625 26.03125 39.671875 28.421875 
Q 36.28125 30.8125 30.421875 30.8125 
L 19.671875 30.8125 
L 19.671875 0 
L 9.8125 0 
L 9.8125 72.90625 
L 32.078125 72.90625 
Q 44.578125 72.90625 50.734375 67.671875 
Q 56.890625 62.453125 56.890625 51.90625 
Q 56.890625 45.015625 53.6875 40.46875 
Q 50.484375 35.9375 44.390625 34.1875 
z
M 19.671875 64.796875 
L 19.671875 38.921875 
L 32.078125 38.921875 
Q 39.203125 38.921875 42.84375 42.21875 
Q 46.484375 45.515625 46.484375 51.90625 
Q 46.484375 58.296875 42.84375 61.546875 
Q 39.203125 64.796875 32.078125 64.796875 
z
" id="DejaVuSans-82"/>
     </defs>
     <use xlink:href="#DejaVuSans-77"/>
     <use x="86.279297" xlink:href="#DejaVuSans-99"/>
     <use x="141.259766" xlink:href="#DejaVuSans-101"/>
     <use x="202.783203" xlink:href="#DejaVuSans-51"/>
     <use x="266.40625" xlink:href="#DejaVuSans-82"/>
    </g>
   </g>
   <g id="text_9">
    <!-- VirS -->
    <g transform="translate(172.81293 420.481134)scale(0.14 -0.14)">
     <defs>
      <path d="M 28.609375 0 
L 0.78125 72.90625 
L 11.078125 72.90625 
L 34.1875 11.53125 
L 57.328125 72.90625 
L 67.578125 72.90625 
L 39.796875 0 
z
" id="DejaVuSans-86"/>
      <path d="M 41.109375 46.296875 
Q 39.59375 47.171875 37.8125 47.578125 
Q 36.03125 48 33.890625 48 
Q 26.265625 48 22.1875 43.046875 
Q 18.109375 38.09375 18.109375 28.8125 
L 18.109375 0 
L 9.078125 0 
L 9.078125 54.6875 
L 18.109375 54.6875 
L 18.109375 46.1875 
Q 20.953125 51.171875 25.484375 53.578125 
Q 30.03125 56 36.53125 56 
Q 37.453125 56 38.578125 55.875 
Q 39.703125 55.765625 41.0625 55.515625 
z
" id="DejaVuSans-114"/>
      <path d="M 53.515625 70.515625 
L 53.515625 60.890625 
Q 47.90625 63.578125 42.921875 64.890625 
Q 37.9375 66.21875 33.296875 66.21875 
Q 25.25 66.21875 20.875 63.09375 
Q 16.5 59.96875 16.5 54.203125 
Q 16.5 49.359375 19.40625 46.890625 
Q 22.3125 44.4375 30.421875 42.921875 
L 36.375 41.703125 
Q 47.40625 39.59375 52.65625 34.296875 
Q 57.90625 29 57.90625 20.125 
Q 57.90625 9.515625 50.796875 4.046875 
Q 43.703125 -1.421875 29.984375 -1.421875 
Q 24.8125 -1.421875 18.96875 -0.25 
Q 13.140625 0.921875 6.890625 3.21875 
L 6.890625 13.375 
Q 12.890625 10.015625 18.65625 8.296875 
Q 24.421875 6.59375 29.984375 6.59375 
Q 38.421875 6.59375 43.015625 9.90625 
Q 47.609375 13.234375 47.609375 19.390625 
Q 47.609375 24.75 44.3125 27.78125 
Q 41.015625 30.8125 33.5 32.328125 
L 27.484375 33.5 
Q 16.453125 35.6875 11.515625 40.375 
Q 6.59375 45.0625 6.59375 53.421875 
Q 6.59375 63.09375 13.40625 68.65625 
Q 20.21875 74.21875 32.171875 74.21875 
Q 37.3125 74.21875 42.625 73.28125 
Q 47.953125 72.359375 53.515625 70.515625 
z
" id="DejaVuSans-83"/>
     </defs>
     <use xlink:href="#DejaVuSans-86"/>
     <use x="66.158203" xlink:href="#DejaVuSans-105"/>
     <use x="93.941406" xlink:href="#DejaVuSans-114"/>
     <use x="135.054688" xlink:href="#DejaVuSans-83"/>
    </g>
   </g>
   <g id="text_10">
    <!-- IdeR -->
    <g transform="translate(212.316697 366.142166)scale(0.14 -0.14)">
     <defs>
      <path d="M 9.8125 72.90625 
L 19.671875 72.90625 
L 19.671875 0 
L 9.8125 0 
z
" id="DejaVuSans-73"/>
     </defs>
     <use xlink:href="#DejaVuSans-73"/>
     <use x="29.492188" xlink:href="#DejaVuSans-100"/>
     <use x="92.96875" xlink:href="#DejaVuSans-101"/>
     <use x="154.492188" xlink:href="#DejaVuSans-82"/>
    </g>
   </g>
   <g id="text_11">
    <!-- Mce1R -->
    <g transform="translate(847.233106 158.048232)scale(0.14 -0.14)">
     <use xlink:href="#DejaVuSans-77"/>
     <use x="86.279297" xlink:href="#DejaVuSans-99"/>
     <use x="141.259766" xlink:href="#DejaVuSans-101"/>
     <use x="202.783203" xlink:href="#DejaVuSans-49"/>
     <use x="266.40625" xlink:href="#DejaVuSans-82"/>
    </g>
   </g>
   <g id="text_12">
    <!-- Fumarate Reductase -->
    <g transform="translate(693.724264 141.698857)scale(0.14 -0.14)">
     <defs>
      <path d="M 9.8125 72.90625 
L 51.703125 72.90625 
L 51.703125 64.59375 
L 19.671875 64.59375 
L 19.671875 43.109375 
L 48.578125 43.109375 
L 48.578125 34.8125 
L 19.671875 34.8125 
L 19.671875 0 
L 9.8125 0 
z
" id="DejaVuSans-70"/>
      <path d="M 52 44.1875 
Q 55.375 50.25 60.0625 53.125 
Q 64.75 56 71.09375 56 
Q 79.640625 56 84.28125 50.015625 
Q 88.921875 44.046875 88.921875 33.015625 
L 88.921875 0 
L 79.890625 0 
L 79.890625 32.71875 
Q 79.890625 40.578125 77.09375 44.375 
Q 74.3125 48.1875 68.609375 48.1875 
Q 61.625 48.1875 57.5625 43.546875 
Q 53.515625 38.921875 53.515625 30.90625 
L 53.515625 0 
L 44.484375 0 
L 44.484375 32.71875 
Q 44.484375 40.625 41.703125 44.40625 
Q 38.921875 48.1875 33.109375 48.1875 
Q 26.21875 48.1875 22.15625 43.53125 
Q 18.109375 38.875 18.109375 30.90625 
L 18.109375 0 
L 9.078125 0 
L 9.078125 54.6875 
L 18.109375 54.6875 
L 18.109375 46.1875 
Q 21.1875 51.21875 25.484375 53.609375 
Q 29.78125 56 35.6875 56 
Q 41.65625 56 45.828125 52.96875 
Q 50 49.953125 52 44.1875 
z
" id="DejaVuSans-109"/>
      <path d="M 18.3125 70.21875 
L 18.3125 54.6875 
L 36.8125 54.6875 
L 36.8125 47.703125 
L 18.3125 47.703125 
L 18.3125 18.015625 
Q 18.3125 11.328125 20.140625 9.421875 
Q 21.96875 7.515625 27.59375 7.515625 
L 36.8125 7.515625 
L 36.8125 0 
L 27.59375 0 
Q 17.1875 0 13.234375 3.875 
Q 9.28125 7.765625 9.28125 18.015625 
L 9.28125 47.703125 
L 2.6875 47.703125 
L 2.6875 54.6875 
L 9.28125 54.6875 
L 9.28125 70.21875 
z
" id="DejaVuSans-116"/>
      <path id="DejaVuSans-32"/>
     </defs>
     <use xlink:href="#DejaVuSans-70"/>
     <use x="52.019531" xlink:href="#DejaVuSans-117"/>
     <use x="115.398438" xlink:href="#DejaVuSans-109"/>
     <use x="212.810547" xlink:href="#DejaVuSans-97"/>
     <use x="274.089844" xlink:href="#DejaVuSans-114"/>
     <use x="315.203125" xlink:href="#DejaVuSans-97"/>
     <use x="376.482422" xlink:href="#DejaVuSans-116"/>
     <use x="415.691406" xlink:href="#DejaVuSans-101"/>
     <use x="477.214844" xlink:href="#DejaVuSans-32"/>
     <use x="509.001953" xlink:href="#DejaVuSans-82"/>
     <use x="573.984375" xlink:href="#DejaVuSans-101"/>
     <use x="635.507812" xlink:href="#DejaVuSans-100"/>
     <use x="698.984375" xlink:href="#DejaVuSans-117"/>
     <use x="762.363281" xlink:href="#DejaVuSans-99"/>
     <use x="817.34375" xlink:href="#DejaVuSans-116"/>
     <use x="856.552734" xlink:href="#DejaVuSans-97"/>
     <use x="917.832031" xlink:href="#DejaVuSans-115"/>
     <use x="969.931641" xlink:href="#DejaVuSans-101"/>
    </g>
   </g>
   <g id="text_13">
    <!-- WhiB1 -->
    <g transform="translate(890.523539 121.200991)scale(0.14 -0.14)">
     <defs>
      <path d="M 3.328125 72.90625 
L 13.28125 72.90625 
L 28.609375 11.28125 
L 43.890625 72.90625 
L 54.984375 72.90625 
L 70.3125 11.28125 
L 85.59375 72.90625 
L 95.609375 72.90625 
L 77.296875 0 
L 64.890625 0 
L 49.515625 63.28125 
L 33.984375 0 
L 21.578125 0 
z
" id="DejaVuSans-87"/>
      <path d="M 19.671875 34.8125 
L 19.671875 8.109375 
L 35.5 8.109375 
Q 43.453125 8.109375 47.28125 11.40625 
Q 51.125 14.703125 51.125 21.484375 
Q 51.125 28.328125 47.28125 31.5625 
Q 43.453125 34.8125 35.5 34.8125 
z
M 19.671875 64.796875 
L 19.671875 42.828125 
L 34.28125 42.828125 
Q 41.5 42.828125 45.03125 45.53125 
Q 48.578125 48.25 48.578125 53.8125 
Q 48.578125 59.328125 45.03125 62.0625 
Q 41.5 64.796875 34.28125 64.796875 
z
M 9.8125 72.90625 
L 35.015625 72.90625 
Q 46.296875 72.90625 52.390625 68.21875 
Q 58.5 63.53125 58.5 54.890625 
Q 58.5 48.1875 55.375 44.234375 
Q 52.25 40.28125 46.1875 39.3125 
Q 53.46875 37.75 57.5 32.78125 
Q 61.53125 27.828125 61.53125 20.40625 
Q 61.53125 10.640625 54.890625 5.3125 
Q 48.25 0 35.984375 0 
L 9.8125 0 
z
" id="DejaVuSans-66"/>
     </defs>
     <use xlink:href="#DejaVuSans-87"/>
     <use x="98.876953" xlink:href="#DejaVuSans-104"/>
     <use x="162.255859" xlink:href="#DejaVuSans-105"/>
     <use x="190.039062" xlink:href="#DejaVuSans-66"/>
     <use x="258.642578" xlink:href="#DejaVuSans-49"/>
    </g>
   </g>
   <g id="text_14">
    <!-- Central Carbon Metabolism -->
    <g transform="translate(688.946565 104.400991)scale(0.14 -0.14)">
     <defs>
      <path d="M 64.40625 67.28125 
L 64.40625 56.890625 
Q 59.421875 61.53125 53.78125 63.8125 
Q 48.140625 66.109375 41.796875 66.109375 
Q 29.296875 66.109375 22.65625 58.46875 
Q 16.015625 50.828125 16.015625 36.375 
Q 16.015625 21.96875 22.65625 14.328125 
Q 29.296875 6.6875 41.796875 6.6875 
Q 48.140625 6.6875 53.78125 8.984375 
Q 59.421875 11.28125 64.40625 15.921875 
L 64.40625 5.609375 
Q 59.234375 2.09375 53.4375 0.328125 
Q 47.65625 -1.421875 41.21875 -1.421875 
Q 24.65625 -1.421875 15.125 8.703125 
Q 5.609375 18.84375 5.609375 36.375 
Q 5.609375 53.953125 15.125 64.078125 
Q 24.65625 74.21875 41.21875 74.21875 
Q 47.75 74.21875 53.53125 72.484375 
Q 59.328125 70.75 64.40625 67.28125 
z
" id="DejaVuSans-67"/>
      <path d="M 48.6875 27.296875 
Q 48.6875 37.203125 44.609375 42.84375 
Q 40.53125 48.484375 33.40625 48.484375 
Q 26.265625 48.484375 22.1875 42.84375 
Q 18.109375 37.203125 18.109375 27.296875 
Q 18.109375 17.390625 22.1875 11.75 
Q 26.265625 6.109375 33.40625 6.109375 
Q 40.53125 6.109375 44.609375 11.75 
Q 48.6875 17.390625 48.6875 27.296875 
z
M 18.109375 46.390625 
Q 20.953125 51.265625 25.265625 53.625 
Q 29.59375 56 35.59375 56 
Q 45.5625 56 51.78125 48.09375 
Q 58.015625 40.1875 58.015625 27.296875 
Q 58.015625 14.40625 51.78125 6.484375 
Q 45.5625 -1.421875 35.59375 -1.421875 
Q 29.59375 -1.421875 25.265625 0.953125 
Q 20.953125 3.328125 18.109375 8.203125 
L 18.109375 0 
L 9.078125 0 
L 9.078125 75.984375 
L 18.109375 75.984375 
z
" id="DejaVuSans-98"/>
     </defs>
     <use xlink:href="#DejaVuSans-67"/>
     <use x="69.824219" xlink:href="#DejaVuSans-101"/>
     <use x="131.347656" xlink:href="#DejaVuSans-110"/>
     <use x="194.726562" xlink:href="#DejaVuSans-116"/>
     <use x="233.935547" xlink:href="#DejaVuSans-114"/>
     <use x="275.048828" xlink:href="#DejaVuSans-97"/>
     <use x="336.328125" xlink:href="#DejaVuSans-108"/>
     <use x="364.111328" xlink:href="#DejaVuSans-32"/>
     <use x="395.898438" xlink:href="#DejaVuSans-67"/>
     <use x="465.722656" xlink:href="#DejaVuSans-97"/>
     <use x="527.001953" xlink:href="#DejaVuSans-114"/>
     <use x="568.115234" xlink:href="#DejaVuSans-98"/>
     <use x="631.591797" xlink:href="#DejaVuSans-111"/>
     <use x="692.773438" xlink:href="#DejaVuSans-110"/>
     <use x="756.152344" xlink:href="#DejaVuSans-32"/>
     <use x="787.939453" xlink:href="#DejaVuSans-77"/>
     <use x="874.21875" xlink:href="#DejaVuSans-101"/>
     <use x="935.742188" xlink:href="#DejaVuSans-116"/>
     <use x="974.951172" xlink:href="#DejaVuSans-97"/>
     <use x="1036.230469" xlink:href="#DejaVuSans-98"/>
     <use x="1099.707031" xlink:href="#DejaVuSans-111"/>
     <use x="1160.888672" xlink:href="#DejaVuSans-108"/>
     <use x="1188.671875" xlink:href="#DejaVuSans-105"/>
     <use x="1216.455078" xlink:href="#DejaVuSans-115"/>
     <use x="1268.554688" xlink:href="#DejaVuSans-109"/>
    </g>
   </g>
   <g id="text_15">
    <!-- Unc_4 -->
    <g transform="translate(929.337964 86.4302)scale(0.14 -0.14)">
     <defs>
      <path d="M 8.6875 72.90625 
L 18.609375 72.90625 
L 18.609375 28.609375 
Q 18.609375 16.890625 22.84375 11.734375 
Q 27.09375 6.59375 36.625 6.59375 
Q 46.09375 6.59375 50.34375 11.734375 
Q 54.59375 16.890625 54.59375 28.609375 
L 54.59375 72.90625 
L 64.5 72.90625 
L 64.5 27.390625 
Q 64.5 13.140625 57.4375 5.859375 
Q 50.390625 -1.421875 36.625 -1.421875 
Q 22.796875 -1.421875 15.734375 5.859375 
Q 8.6875 13.140625 8.6875 27.390625 
z
" id="DejaVuSans-85"/>
     </defs>
     <use xlink:href="#DejaVuSans-85"/>
     <use x="73.193359" xlink:href="#DejaVuSans-110"/>
     <use x="136.572266" xlink:href="#DejaVuSans-99"/>
     <use x="191.552734" xlink:href="#DejaVuSans-95"/>
     <use x="241.552734" xlink:href="#DejaVuSans-52"/>
    </g>
   </g>
   <g id="text_16">
    <!-- Rv1828/SigH -->
    <g transform="translate(835.180903 78.9018)scale(0.14 -0.14)">
     <defs>
      <path d="M 2.984375 54.6875 
L 12.5 54.6875 
L 29.59375 8.796875 
L 46.6875 54.6875 
L 56.203125 54.6875 
L 35.6875 0 
L 23.484375 0 
z
" id="DejaVuSans-118"/>
      <path d="M 31.78125 34.625 
Q 24.75 34.625 20.71875 30.859375 
Q 16.703125 27.09375 16.703125 20.515625 
Q 16.703125 13.921875 20.71875 10.15625 
Q 24.75 6.390625 31.78125 6.390625 
Q 38.8125 6.390625 42.859375 10.171875 
Q 46.921875 13.96875 46.921875 20.515625 
Q 46.921875 27.09375 42.890625 30.859375 
Q 38.875 34.625 31.78125 34.625 
z
M 21.921875 38.8125 
Q 15.578125 40.375 12.03125 44.71875 
Q 8.5 49.078125 8.5 55.328125 
Q 8.5 64.0625 14.71875 69.140625 
Q 20.953125 74.21875 31.78125 74.21875 
Q 42.671875 74.21875 48.875 69.140625 
Q 55.078125 64.0625 55.078125 55.328125 
Q 55.078125 49.078125 51.53125 44.71875 
Q 48 40.375 41.703125 38.8125 
Q 48.828125 37.15625 52.796875 32.3125 
Q 56.78125 27.484375 56.78125 20.515625 
Q 56.78125 9.90625 50.3125 4.234375 
Q 43.84375 -1.421875 31.78125 -1.421875 
Q 19.734375 -1.421875 13.25 4.234375 
Q 6.78125 9.90625 6.78125 20.515625 
Q 6.78125 27.484375 10.78125 32.3125 
Q 14.796875 37.15625 21.921875 38.8125 
z
M 18.3125 54.390625 
Q 18.3125 48.734375 21.84375 45.5625 
Q 25.390625 42.390625 31.78125 42.390625 
Q 38.140625 42.390625 41.71875 45.5625 
Q 45.3125 48.734375 45.3125 54.390625 
Q 45.3125 60.0625 41.71875 63.234375 
Q 38.140625 66.40625 31.78125 66.40625 
Q 25.390625 66.40625 21.84375 63.234375 
Q 18.3125 60.0625 18.3125 54.390625 
z
" id="DejaVuSans-56"/>
      <path d="M 19.1875 8.296875 
L 53.609375 8.296875 
L 53.609375 0 
L 7.328125 0 
L 7.328125 8.296875 
Q 12.9375 14.109375 22.625 23.890625 
Q 32.328125 33.6875 34.8125 36.53125 
Q 39.546875 41.84375 41.421875 45.53125 
Q 43.3125 49.21875 43.3125 52.78125 
Q 43.3125 58.59375 39.234375 62.25 
Q 35.15625 65.921875 28.609375 65.921875 
Q 23.96875 65.921875 18.8125 64.3125 
Q 13.671875 62.703125 7.8125 59.421875 
L 7.8125 69.390625 
Q 13.765625 71.78125 18.9375 73 
Q 24.125 74.21875 28.421875 74.21875 
Q 39.75 74.21875 46.484375 68.546875 
Q 53.21875 62.890625 53.21875 53.421875 
Q 53.21875 48.921875 51.53125 44.890625 
Q 49.859375 40.875 45.40625 35.40625 
Q 44.1875 33.984375 37.640625 27.21875 
Q 31.109375 20.453125 19.1875 8.296875 
z
" id="DejaVuSans-50"/>
      <path d="M 25.390625 72.90625 
L 33.6875 72.90625 
L 8.296875 -9.28125 
L 0 -9.28125 
z
" id="DejaVuSans-47"/>
      <path d="M 45.40625 27.984375 
Q 45.40625 37.75 41.375 43.109375 
Q 37.359375 48.484375 30.078125 48.484375 
Q 22.859375 48.484375 18.828125 43.109375 
Q 14.796875 37.75 14.796875 27.984375 
Q 14.796875 18.265625 18.828125 12.890625 
Q 22.859375 7.515625 30.078125 7.515625 
Q 37.359375 7.515625 41.375 12.890625 
Q 45.40625 18.265625 45.40625 27.984375 
z
M 54.390625 6.78125 
Q 54.390625 -7.171875 48.1875 -13.984375 
Q 42 -20.796875 29.203125 -20.796875 
Q 24.46875 -20.796875 20.265625 -20.09375 
Q 16.0625 -19.390625 12.109375 -17.921875 
L 12.109375 -9.1875 
Q 16.0625 -11.328125 19.921875 -12.34375 
Q 23.78125 -13.375 27.78125 -13.375 
Q 36.625 -13.375 41.015625 -8.765625 
Q 45.40625 -4.15625 45.40625 5.171875 
L 45.40625 9.625 
Q 42.625 4.78125 38.28125 2.390625 
Q 33.9375 0 27.875 0 
Q 17.828125 0 11.671875 7.65625 
Q 5.515625 15.328125 5.515625 27.984375 
Q 5.515625 40.671875 11.671875 48.328125 
Q 17.828125 56 27.875 56 
Q 33.9375 56 38.28125 53.609375 
Q 42.625 51.21875 45.40625 46.390625 
L 45.40625 54.6875 
L 54.390625 54.6875 
z
" id="DejaVuSans-103"/>
      <path d="M 9.8125 72.90625 
L 19.671875 72.90625 
L 19.671875 43.015625 
L 55.515625 43.015625 
L 55.515625 72.90625 
L 65.375 72.90625 
L 65.375 0 
L 55.515625 0 
L 55.515625 34.71875 
L 19.671875 34.71875 
L 19.671875 0 
L 9.8125 0 
z
" id="DejaVuSans-72"/>
     </defs>
     <use xlink:href="#DejaVuSans-82"/>
     <use x="69.482422" xlink:href="#DejaVuSans-118"/>
     <use x="128.662109" xlink:href="#DejaVuSans-49"/>
     <use x="192.285156" xlink:href="#DejaVuSans-56"/>
     <use x="255.908203" xlink:href="#DejaVuSans-50"/>
     <use x="319.53125" xlink:href="#DejaVuSans-56"/>
     <use x="383.154297" xlink:href="#DejaVuSans-47"/>
     <use x="416.845703" xlink:href="#DejaVuSans-83"/>
     <use x="480.322266" xlink:href="#DejaVuSans-105"/>
     <use x="508.105469" xlink:href="#DejaVuSans-103"/>
     <use x="571.582031" xlink:href="#DejaVuSans-72"/>
    </g>
   </g>
   <g id="text_17">
    <!-- GroEL-GroES Complex -->
    <g transform="translate(665.754023 71.885274)scale(0.14 -0.14)">
     <defs>
      <path d="M 59.515625 10.40625 
L 59.515625 29.984375 
L 43.40625 29.984375 
L 43.40625 38.09375 
L 69.28125 38.09375 
L 69.28125 6.78125 
Q 63.578125 2.734375 56.6875 0.65625 
Q 49.8125 -1.421875 42 -1.421875 
Q 24.90625 -1.421875 15.25 8.5625 
Q 5.609375 18.5625 5.609375 36.375 
Q 5.609375 54.25 15.25 64.234375 
Q 24.90625 74.21875 42 74.21875 
Q 49.125 74.21875 55.546875 72.453125 
Q 61.96875 70.703125 67.390625 67.28125 
L 67.390625 56.78125 
Q 61.921875 61.421875 55.765625 63.765625 
Q 49.609375 66.109375 42.828125 66.109375 
Q 29.4375 66.109375 22.71875 58.640625 
Q 16.015625 51.171875 16.015625 36.375 
Q 16.015625 21.625 22.71875 14.15625 
Q 29.4375 6.6875 42.828125 6.6875 
Q 48.046875 6.6875 52.140625 7.59375 
Q 56.25 8.5 59.515625 10.40625 
z
" id="DejaVuSans-71"/>
      <path d="M 9.8125 72.90625 
L 55.90625 72.90625 
L 55.90625 64.59375 
L 19.671875 64.59375 
L 19.671875 43.015625 
L 54.390625 43.015625 
L 54.390625 34.71875 
L 19.671875 34.71875 
L 19.671875 8.296875 
L 56.78125 8.296875 
L 56.78125 0 
L 9.8125 0 
z
" id="DejaVuSans-69"/>
      <path d="M 9.8125 72.90625 
L 19.671875 72.90625 
L 19.671875 8.296875 
L 55.171875 8.296875 
L 55.171875 0 
L 9.8125 0 
z
" id="DejaVuSans-76"/>
      <path d="M 4.890625 31.390625 
L 31.203125 31.390625 
L 31.203125 23.390625 
L 4.890625 23.390625 
z
" id="DejaVuSans-45"/>
     </defs>
     <use xlink:href="#DejaVuSans-71"/>
     <use x="77.490234" xlink:href="#DejaVuSans-114"/>
     <use x="116.353516" xlink:href="#DejaVuSans-111"/>
     <use x="177.535156" xlink:href="#DejaVuSans-69"/>
     <use x="240.71875" xlink:href="#DejaVuSans-76"/>
     <use x="294.681641" xlink:href="#DejaVuSans-45"/>
     <use x="334.390625" xlink:href="#DejaVuSans-71"/>
     <use x="411.880859" xlink:href="#DejaVuSans-114"/>
     <use x="450.744141" xlink:href="#DejaVuSans-111"/>
     <use x="511.925781" xlink:href="#DejaVuSans-69"/>
     <use x="575.109375" xlink:href="#DejaVuSans-83"/>
     <use x="638.585938" xlink:href="#DejaVuSans-32"/>
     <use x="670.373047" xlink:href="#DejaVuSans-67"/>
     <use x="740.197266" xlink:href="#DejaVuSans-111"/>
     <use x="801.378906" xlink:href="#DejaVuSans-109"/>
     <use x="898.791016" xlink:href="#DejaVuSans-112"/>
     <use x="962.267578" xlink:href="#DejaVuSans-108"/>
     <use x="990.050781" xlink:href="#DejaVuSans-101"/>
     <use x="1049.824219" xlink:href="#DejaVuSans-120"/>
    </g>
   </g>
   <g id="patch_167">
    <path d="M 145.331898 424.422934 
Q 145.332616 424.063285 145.333333 423.703636 
" style="fill:none;opacity:0.8;stroke:#808080;stroke-linecap:round;"/>
   </g>
   <g id="patch_168">
    <path d="M 170.869062 412.632568 
Q 164.242139 411.089472 157.615216 409.546375 
" style="fill:none;opacity:0.8;stroke:#808080;stroke-linecap:round;"/>
   </g>
   <g id="patch_169">
    <path d="M 210.450408 355.295377 
Q 209.824862 355.056358 209.199316 354.817339 
" style="fill:none;opacity:0.8;stroke:#808080;stroke-linecap:round;"/>
   </g>
   <g id="patch_170">
    <path d="M 894.793891 161.484654 
Q 896.266668 161.885361 897.739446 162.286069 
" style="fill:none;opacity:0.8;stroke:#808080;stroke-linecap:round;"/>
   </g>
   <g id="patch_171">
    <path d="M 804.813676 144.929475 
Q 856.419753 153.28829 908.02583 161.647104 
" style="fill:none;opacity:0.8;stroke:#808080;stroke-linecap:round;"/>
   </g>
   <g id="patch_172">
    <path d="M 913.479071 126.044231 
Q 916.651426 138.064922 919.823782 150.085612 
" style="fill:none;opacity:0.8;stroke:#808080;stroke-linecap:round;"/>
   </g>
   <g id="patch_173">
    <path d="M 813.791931 107.698549 
Q 871.246664 119.01186 928.701396 130.32517 
" style="fill:none;opacity:0.8;stroke:#808080;stroke-linecap:round;"/>
   </g>
   <g id="patch_174">
    <path d="M 949.992586 91.666613 
Q 945.752612 107.624858 941.512639 123.583103 
" style="fill:none;opacity:0.8;stroke:#808080;stroke-linecap:round;"/>
   </g>
   <g id="patch_175">
    <path d="M 927.732976 77.801533 
Q 938.534922 78.338614 949.336868 78.875696 
" style="fill:none;opacity:0.8;stroke:#808080;stroke-linecap:round;"/>
   </g>
   <g id="patch_176">
    <path d="M 823.012392 71.611007 
Q 891.338805 74.649187 959.665218 77.687368 
" style="fill:none;opacity:0.8;stroke:#808080;stroke-linecap:round;"/>
   </g>
   <g id="text_18">
    <!-- Decreasing Oxygen DIMA Plot -->
    <g transform="translate(441.569531 54.48)scale(0.15 -0.15)">
     <defs>
      <path d="M 34.1875 63.1875 
L 20.796875 26.90625 
L 47.609375 26.90625 
z
M 28.609375 72.90625 
L 39.796875 72.90625 
L 67.578125 0 
L 57.328125 0 
L 50.6875 18.703125 
L 17.828125 18.703125 
L 11.1875 0 
L 0.78125 0 
z
" id="DejaVuSans-65"/>
      <path d="M 19.671875 64.796875 
L 19.671875 37.40625 
L 32.078125 37.40625 
Q 38.96875 37.40625 42.71875 40.96875 
Q 46.484375 44.53125 46.484375 51.125 
Q 46.484375 57.671875 42.71875 61.234375 
Q 38.96875 64.796875 32.078125 64.796875 
z
M 9.8125 72.90625 
L 32.078125 72.90625 
Q 44.34375 72.90625 50.609375 67.359375 
Q 56.890625 61.8125 56.890625 51.125 
Q 56.890625 40.328125 50.609375 34.8125 
Q 44.34375 29.296875 32.078125 29.296875 
L 19.671875 29.296875 
L 19.671875 0 
L 9.8125 0 
z
" id="DejaVuSans-80"/>
     </defs>
     <use xlink:href="#DejaVuSans-68"/>
     <use x="77.001953" xlink:href="#DejaVuSans-101"/>
     <use x="138.525391" xlink:href="#DejaVuSans-99"/>
     <use x="193.505859" xlink:href="#DejaVuSans-114"/>
     <use x="232.369141" xlink:href="#DejaVuSans-101"/>
     <use x="293.892578" xlink:href="#DejaVuSans-97"/>
     <use x="355.171875" xlink:href="#DejaVuSans-115"/>
     <use x="407.271484" xlink:href="#DejaVuSans-105"/>
     <use x="435.054688" xlink:href="#DejaVuSans-110"/>
     <use x="498.433594" xlink:href="#DejaVuSans-103"/>
     <use x="561.910156" xlink:href="#DejaVuSans-32"/>
     <use x="593.697266" xlink:href="#DejaVuSans-79"/>
     <use x="672.408203" xlink:href="#DejaVuSans-120"/>
     <use x="731.587891" xlink:href="#DejaVuSans-121"/>
     <use x="790.767578" xlink:href="#DejaVuSans-103"/>
     <use x="854.244141" xlink:href="#DejaVuSans-101"/>
     <use x="915.767578" xlink:href="#DejaVuSans-110"/>
     <use x="979.146484" xlink:href="#DejaVuSans-32"/>
     <use x="1010.933594" xlink:href="#DejaVuSans-68"/>
     <use x="1087.935547" xlink:href="#DejaVuSans-73"/>
     <use x="1117.427734" xlink:href="#DejaVuSans-77"/>
     <use x="1203.707031" xlink:href="#DejaVuSans-65"/>
     <use x="1272.115234" xlink:href="#DejaVuSans-32"/>
     <use x="1303.902344" xlink:href="#DejaVuSans-80"/>
     <use x="1364.205078" xlink:href="#DejaVuSans-108"/>
     <use x="1391.988281" xlink:href="#DejaVuSans-111"/>
     <use x="1453.169922" xlink:href="#DejaVuSans-116"/>
    </g>
   </g>
  </g>
 </g>
 <defs>
  <clipPath id="p09a5fc2729">
   <rect height="380.52" width="837" x="135" y="60.48"/>
  </clipPath>
 </defs>
</svg>
