<?xml version="1.0" encoding="utf-8" standalone="no"?>
<!DOCTYPE svg PUBLIC "-//W3C//DTD SVG 1.1//EN"
  "http://www.w3.org/Graphics/SVG/1.1/DTD/svg11.dtd">
<!-- Created with matplotlib (https://matplotlib.org/) -->
<svg height="360pt" version="1.1" viewBox="0 0 504 360" width="504pt" xmlns="http://www.w3.org/2000/svg" xmlns:xlink="http://www.w3.org/1999/xlink">
 <metadata>
  <rdf:RDF xmlns:cc="http://creativecommons.org/ns#" xmlns:dc="http://purl.org/dc/elements/1.1/" xmlns:rdf="http://www.w3.org/1999/02/22-rdf-syntax-ns#">
   <cc:Work>
    <dc:type rdf:resource="http://purl.org/dc/dcmitype/StillImage"/>
    <dc:date>2021-05-26T11:23:23.680525</dc:date>
    <dc:format>image/svg+xml</dc:format>
    <dc:creator>
     <cc:Agent>
      <dc:title>Matplotlib v3.3.1, https://matplotlib.org/</dc:title>
     </cc:Agent>
    </dc:creator>
   </cc:Work>
  </rdf:RDF>
 </metadata>
 <defs>
  <style type="text/css">*{stroke-linecap:butt;stroke-linejoin:round;}</style>
 </defs>
 <g id="figure_1">
  <g id="patch_1">
   <path d="M 0 360 
L 504 360 
L 504 0 
L 0 0 
z
" style="fill:none;"/>
  </g>
  <g id="axes_1">
   <g id="patch_2">
    <path d="M 63 315 
L 453.6 315 
L 453.6 43.2 
L 63 43.2 
z
" style="fill:none;"/>
   </g>
   <g id="patch_3">
    <path clip-path="url(#p001614a202)" d="M 80.754545 315 
L 84.314354 315 
L 84.314354 56.142857 
L 80.754545 56.142857 
z
" style="fill:#1f77b4;"/>
   </g>
   <g id="patch_4">
    <path clip-path="url(#p001614a202)" d="M 85.204306 315 
L 88.764115 315 
L 88.764115 160.139488 
L 85.204306 160.139488 
z
" style="fill:#ff7f0e;"/>
   </g>
   <g id="patch_5">
    <path clip-path="url(#p001614a202)" d="M 89.654067 315 
L 93.213876 315 
L 93.213876 168.26214 
L 89.654067 168.26214 
z
" style="fill:#2ca02c;"/>
   </g>
   <g id="patch_6">
    <path clip-path="url(#p001614a202)" d="M 94.103828 315 
L 97.663636 315 
L 97.663636 188.37829 
L 94.103828 188.37829 
z
" style="fill:#d62728;"/>
   </g>
   <g id="patch_7">
    <path clip-path="url(#p001614a202)" d="M 98.553589 315 
L 102.113397 315 
L 102.113397 208.993641 
L 98.553589 208.993641 
z
" style="fill:#9467bd;"/>
   </g>
   <g id="patch_8">
    <path clip-path="url(#p001614a202)" d="M 103.003349 315 
L 106.563158 315 
L 106.563158 219.608655 
L 103.003349 219.608655 
z
" style="fill:#8c564b;"/>
   </g>
   <g id="patch_9">
    <path clip-path="url(#p001614a202)" d="M 107.45311 315 
L 111.012919 315 
L 111.012919 219.772098 
L 107.45311 219.772098 
z
" style="fill:#e377c2;"/>
   </g>
   <g id="patch_10">
    <path clip-path="url(#p001614a202)" d="M 111.902871 315 
L 115.462679 315 
L 115.462679 223.032197 
L 111.902871 223.032197 
z
" style="fill:#7f7f7f;"/>
   </g>
   <g id="patch_11">
    <path clip-path="url(#p001614a202)" d="M 116.352632 315 
L 119.91244 315 
L 119.91244 229.724057 
L 116.352632 229.724057 
z
" style="fill:#bcbd22;"/>
   </g>
   <g id="patch_12">
    <path clip-path="url(#p001614a202)" d="M 120.802392 315 
L 124.362201 315 
L 124.362201 244.398731 
L 120.802392 244.398731 
z
" style="fill:#17becf;"/>
   </g>
   <g id="patch_13">
    <path clip-path="url(#p001614a202)" d="M 125.252153 315 
L 128.811962 315 
L 128.811962 249.899501 
L 125.252153 249.899501 
z
" style="fill:#1f77b4;"/>
   </g>
   <g id="patch_14">
    <path clip-path="url(#p001614a202)" d="M 129.701914 315 
L 133.261722 315 
L 133.261722 251.245215 
L 129.701914 251.245215 
z
" style="fill:#ff7f0e;"/>
   </g>
   <g id="patch_15">
    <path clip-path="url(#p001614a202)" d="M 134.151675 315 
L 137.711483 315 
L 137.711483 252.914437 
L 134.151675 252.914437 
z
" style="fill:#2ca02c;"/>
   </g>
   <g id="patch_16">
    <path clip-path="url(#p001614a202)" d="M 138.601435 315 
L 142.161244 315 
L 142.161244 256.487369 
L 138.601435 256.487369 
z
" style="fill:#d62728;"/>
   </g>
   <g id="patch_17">
    <path clip-path="url(#p001614a202)" d="M 143.051196 315 
L 146.611005 315 
L 146.611005 258.032298 
L 143.051196 258.032298 
z
" style="fill:#9467bd;"/>
   </g>
   <g id="patch_18">
    <path clip-path="url(#p001614a202)" d="M 147.500957 315 
L 151.060766 315 
L 151.060766 258.089122 
L 147.500957 258.089122 
z
" style="fill:#8c564b;"/>
   </g>
   <g id="patch_19">
    <path clip-path="url(#p001614a202)" d="M 151.950718 315 
L 155.510526 315 
L 155.510526 260.539752 
L 151.950718 260.539752 
z
" style="fill:#e377c2;"/>
   </g>
   <g id="patch_20">
    <path clip-path="url(#p001614a202)" d="M 156.400478 315 
L 159.960287 315 
L 159.960287 262.281819 
L 156.400478 262.281819 
z
" style="fill:#7f7f7f;"/>
   </g>
   <g id="patch_21">
    <path clip-path="url(#p001614a202)" d="M 160.850239 315 
L 164.410048 315 
L 164.410048 262.801626 
L 160.850239 262.801626 
z
" style="fill:#bcbd22;"/>
   </g>
   <g id="patch_22">
    <path clip-path="url(#p001614a202)" d="M 165.3 315 
L 168.859809 315 
L 168.859809 266.499038 
L 165.3 266.499038 
z
" style="fill:#17becf;"/>
   </g>
   <g id="patch_23">
    <path clip-path="url(#p001614a202)" d="M 169.749761 315 
L 173.309569 315 
L 173.309569 267.711542 
L 169.749761 267.711542 
z
" style="fill:#1f77b4;"/>
   </g>
   <g id="patch_24">
    <path clip-path="url(#p001614a202)" d="M 174.199522 315 
L 177.75933 315 
L 177.75933 268.003523 
L 174.199522 268.003523 
z
" style="fill:#ff7f0e;"/>
   </g>
   <g id="patch_25">
    <path clip-path="url(#p001614a202)" d="M 178.649282 315 
L 182.209091 315 
L 182.209091 269.350404 
L 178.649282 269.350404 
z
" style="fill:#2ca02c;"/>
   </g>
   <g id="patch_26">
    <path clip-path="url(#p001614a202)" d="M 183.099043 315 
L 186.658852 315 
L 186.658852 269.877893 
L 183.099043 269.877893 
z
" style="fill:#d62728;"/>
   </g>
   <g id="patch_27">
    <path clip-path="url(#p001614a202)" d="M 187.548804 315 
L 191.108612 315 
L 191.108612 272.769711 
L 187.548804 272.769711 
z
" style="fill:#9467bd;"/>
   </g>
   <g id="patch_28">
    <path clip-path="url(#p001614a202)" d="M 191.998565 315 
L 195.558373 315 
L 195.558373 274.576058 
L 191.998565 274.576058 
z
" style="fill:#8c564b;"/>
   </g>
   <g id="patch_29">
    <path clip-path="url(#p001614a202)" d="M 196.448325 315 
L 200.008134 315 
L 200.008134 280.207343 
L 196.448325 280.207343 
z
" style="fill:#e377c2;"/>
   </g>
   <g id="patch_30">
    <path clip-path="url(#p001614a202)" d="M 200.898086 315 
L 204.457895 315 
L 204.457895 280.375362 
L 200.898086 280.375362 
z
" style="fill:#7f7f7f;"/>
   </g>
   <g id="patch_31">
    <path clip-path="url(#p001614a202)" d="M 205.347847 315 
L 208.907656 315 
L 208.907656 280.37834 
L 205.347847 280.37834 
z
" style="fill:#bcbd22;"/>
   </g>
   <g id="patch_32">
    <path clip-path="url(#p001614a202)" d="M 209.797608 315 
L 213.357416 315 
L 213.357416 280.511588 
L 209.797608 280.511588 
z
" style="fill:#17becf;"/>
   </g>
   <g id="patch_33">
    <path clip-path="url(#p001614a202)" d="M 214.247368 315 
L 217.807177 315 
L 217.807177 281.144724 
L 214.247368 281.144724 
z
" style="fill:#1f77b4;"/>
   </g>
   <g id="patch_34">
    <path clip-path="url(#p001614a202)" d="M 218.697129 315 
L 222.256938 315 
L 222.256938 281.261431 
L 218.697129 281.261431 
z
" style="fill:#ff7f0e;"/>
   </g>
   <g id="patch_35">
    <path clip-path="url(#p001614a202)" d="M 223.14689 315 
L 226.706699 315 
L 226.706699 281.551942 
L 223.14689 281.551942 
z
" style="fill:#2ca02c;"/>
   </g>
   <g id="patch_36">
    <path clip-path="url(#p001614a202)" d="M 227.596651 315 
L 231.156459 315 
L 231.156459 282.647939 
L 227.596651 282.647939 
z
" style="fill:#d62728;"/>
   </g>
   <g id="patch_37">
    <path clip-path="url(#p001614a202)" d="M 232.046411 315 
L 235.60622 315 
L 235.60622 282.96574 
L 232.046411 282.96574 
z
" style="fill:#9467bd;"/>
   </g>
   <g id="patch_38">
    <path clip-path="url(#p001614a202)" d="M 236.496172 315 
L 240.055981 315 
L 240.055981 284.146478 
L 236.496172 284.146478 
z
" style="fill:#8c564b;"/>
   </g>
   <g id="patch_39">
    <path clip-path="url(#p001614a202)" d="M 240.945933 315 
L 244.505742 315 
L 244.505742 285.269241 
L 240.945933 285.269241 
z
" style="fill:#e377c2;"/>
   </g>
   <g id="patch_40">
    <path clip-path="url(#p001614a202)" d="M 245.395694 315 
L 248.955502 315 
L 248.955502 285.332839 
L 245.395694 285.332839 
z
" style="fill:#7f7f7f;"/>
   </g>
   <g id="patch_41">
    <path clip-path="url(#p001614a202)" d="M 249.845455 315 
L 253.405263 315 
L 253.405263 287.37917 
L 249.845455 287.37917 
z
" style="fill:#bcbd22;"/>
   </g>
   <g id="patch_42">
    <path clip-path="url(#p001614a202)" d="M 254.295215 315 
L 257.855024 315 
L 257.855024 287.958036 
L 254.295215 287.958036 
z
" style="fill:#17becf;"/>
   </g>
   <g id="patch_43">
    <path clip-path="url(#p001614a202)" d="M 258.744976 315 
L 262.304785 315 
L 262.304785 288.46861 
L 258.744976 288.46861 
z
" style="fill:#1f77b4;"/>
   </g>
   <g id="patch_44">
    <path clip-path="url(#p001614a202)" d="M 263.194737 315 
L 266.754545 315 
L 266.754545 289.454756 
L 263.194737 289.454756 
z
" style="fill:#ff7f0e;"/>
   </g>
   <g id="patch_45">
    <path clip-path="url(#p001614a202)" d="M 267.644498 315 
L 271.204306 315 
L 271.204306 290.136887 
L 267.644498 290.136887 
z
" style="fill:#2ca02c;"/>
   </g>
   <g id="patch_46">
    <path clip-path="url(#p001614a202)" d="M 272.094258 315 
L 275.654067 315 
L 275.654067 290.66067 
L 272.094258 290.66067 
z
" style="fill:#d62728;"/>
   </g>
   <g id="patch_47">
    <path clip-path="url(#p001614a202)" d="M 276.544019 315 
L 280.103828 315 
L 280.103828 291.659932 
L 276.544019 291.659932 
z
" style="fill:#9467bd;"/>
   </g>
   <g id="patch_48">
    <path clip-path="url(#p001614a202)" d="M 280.99378 315 
L 284.553589 315 
L 284.553589 291.926614 
L 280.99378 291.926614 
z
" style="fill:#8c564b;"/>
   </g>
   <g id="patch_49">
    <path clip-path="url(#p001614a202)" d="M 285.443541 315 
L 289.003349 315 
L 289.003349 292.077307 
L 285.443541 292.077307 
z
" style="fill:#e377c2;"/>
   </g>
   <g id="patch_50">
    <path clip-path="url(#p001614a202)" d="M 289.893301 315 
L 293.45311 315 
L 293.45311 292.917487 
L 289.893301 292.917487 
z
" style="fill:#7f7f7f;"/>
   </g>
   <g id="patch_51">
    <path clip-path="url(#p001614a202)" d="M 294.343062 315 
L 297.902871 315 
L 297.902871 294.506555 
L 294.343062 294.506555 
z
" style="fill:#bcbd22;"/>
   </g>
   <g id="patch_52">
    <path clip-path="url(#p001614a202)" d="M 298.792823 315 
L 302.352632 315 
L 302.352632 294.771338 
L 298.792823 294.771338 
z
" style="fill:#17becf;"/>
   </g>
   <g id="patch_53">
    <path clip-path="url(#p001614a202)" d="M 303.242584 315 
L 306.802392 315 
L 306.802392 295.877712 
L 303.242584 295.877712 
z
" style="fill:#1f77b4;"/>
   </g>
   <g id="patch_54">
    <path clip-path="url(#p001614a202)" d="M 307.692344 315 
L 311.252153 315 
L 311.252153 296.14049 
L 307.692344 296.14049 
z
" style="fill:#ff7f0e;"/>
   </g>
   <g id="patch_55">
    <path clip-path="url(#p001614a202)" d="M 312.142105 315 
L 315.701914 315 
L 315.701914 297.035849 
L 312.142105 297.035849 
z
" style="fill:#2ca02c;"/>
   </g>
   <g id="patch_56">
    <path clip-path="url(#p001614a202)" d="M 316.591866 315 
L 320.151675 315 
L 320.151675 298.202749 
L 316.591866 298.202749 
z
" style="fill:#d62728;"/>
   </g>
   <g id="patch_57">
    <path clip-path="url(#p001614a202)" d="M 321.041627 315 
L 324.601435 315 
L 324.601435 298.698406 
L 321.041627 298.698406 
z
" style="fill:#9467bd;"/>
   </g>
   <g id="patch_58">
    <path clip-path="url(#p001614a202)" d="M 325.491388 315 
L 329.051196 315 
L 329.051196 299.612395 
L 325.491388 299.612395 
z
" style="fill:#8c564b;"/>
   </g>
   <g id="patch_59">
    <path clip-path="url(#p001614a202)" d="M 329.941148 315 
L 333.500957 315 
L 333.500957 299.612842 
L 329.941148 299.612842 
z
" style="fill:#e377c2;"/>
   </g>
   <g id="patch_60">
    <path clip-path="url(#p001614a202)" d="M 334.390909 315 
L 337.950718 315 
L 337.950718 300.5647 
L 334.390909 300.5647 
z
" style="fill:#7f7f7f;"/>
   </g>
   <g id="patch_61">
    <path clip-path="url(#p001614a202)" d="M 338.84067 315 
L 342.400478 315 
L 342.400478 301.58366 
L 338.84067 301.58366 
z
" style="fill:#bcbd22;"/>
   </g>
   <g id="patch_62">
    <path clip-path="url(#p001614a202)" d="M 343.290431 315 
L 346.850239 315 
L 346.850239 301.928254 
L 343.290431 301.928254 
z
" style="fill:#17becf;"/>
   </g>
   <g id="patch_63">
    <path clip-path="url(#p001614a202)" d="M 347.740191 315 
L 351.3 315 
L 351.3 302.398208 
L 347.740191 302.398208 
z
" style="fill:#1f77b4;"/>
   </g>
   <g id="patch_64">
    <path clip-path="url(#p001614a202)" d="M 352.189952 315 
L 355.749761 315 
L 355.749761 302.696041 
L 352.189952 302.696041 
z
" style="fill:#ff7f0e;"/>
   </g>
   <g id="patch_65">
    <path clip-path="url(#p001614a202)" d="M 356.639713 315 
L 360.199522 315 
L 360.199522 303.096755 
L 356.639713 303.096755 
z
" style="fill:#2ca02c;"/>
   </g>
   <g id="patch_66">
    <path clip-path="url(#p001614a202)" d="M 361.089474 315 
L 364.649282 315 
L 364.649282 303.89093 
L 361.089474 303.89093 
z
" style="fill:#d62728;"/>
   </g>
   <g id="patch_67">
    <path clip-path="url(#p001614a202)" d="M 365.539234 315 
L 369.099043 315 
L 369.099043 303.993204 
L 365.539234 303.993204 
z
" style="fill:#9467bd;"/>
   </g>
   <g id="patch_68">
    <path clip-path="url(#p001614a202)" d="M 369.988995 315 
L 373.548804 315 
L 373.548804 304.178154 
L 369.988995 304.178154 
z
" style="fill:#8c564b;"/>
   </g>
   <g id="patch_69">
    <path clip-path="url(#p001614a202)" d="M 374.438756 315 
L 377.998565 315 
L 377.998565 305.819734 
L 374.438756 305.819734 
z
" style="fill:#e377c2;"/>
   </g>
   <g id="patch_70">
    <path clip-path="url(#p001614a202)" d="M 378.888517 315 
L 382.448325 315 
L 382.448325 306.816794 
L 378.888517 306.816794 
z
" style="fill:#7f7f7f;"/>
   </g>
   <g id="patch_71">
    <path clip-path="url(#p001614a202)" d="M 383.338278 315 
L 386.898086 315 
L 386.898086 307.806038 
L 383.338278 307.806038 
z
" style="fill:#bcbd22;"/>
   </g>
   <g id="patch_72">
    <path clip-path="url(#p001614a202)" d="M 387.788038 315 
L 391.347847 315 
L 391.347847 307.944422 
L 387.788038 307.944422 
z
" style="fill:#17becf;"/>
   </g>
   <g id="patch_73">
    <path clip-path="url(#p001614a202)" d="M 392.237799 315 
L 395.797608 315 
L 395.797608 308.51082 
L 392.237799 308.51082 
z
" style="fill:#1f77b4;"/>
   </g>
   <g id="patch_74">
    <path clip-path="url(#p001614a202)" d="M 396.68756 315 
L 400.247368 315 
L 400.247368 308.729009 
L 396.68756 308.729009 
z
" style="fill:#ff7f0e;"/>
   </g>
   <g id="patch_75">
    <path clip-path="url(#p001614a202)" d="M 401.137321 315 
L 404.697129 315 
L 404.697129 308.985447 
L 401.137321 308.985447 
z
" style="fill:#2ca02c;"/>
   </g>
   <g id="patch_76">
    <path clip-path="url(#p001614a202)" d="M 405.587081 315 
L 409.14689 315 
L 409.14689 309.076506 
L 405.587081 309.076506 
z
" style="fill:#d62728;"/>
   </g>
   <g id="patch_77">
    <path clip-path="url(#p001614a202)" d="M 410.036842 315 
L 413.596651 315 
L 413.596651 309.189831 
L 410.036842 309.189831 
z
" style="fill:#9467bd;"/>
   </g>
   <g id="patch_78">
    <path clip-path="url(#p001614a202)" d="M 414.486603 315 
L 418.046411 315 
L 418.046411 309.868229 
L 414.486603 309.868229 
z
" style="fill:#8c564b;"/>
   </g>
   <g id="patch_79">
    <path clip-path="url(#p001614a202)" d="M 418.936364 315 
L 422.496172 315 
L 422.496172 310.767715 
L 418.936364 310.767715 
z
" style="fill:#e377c2;"/>
   </g>
   <g id="patch_80">
    <path clip-path="url(#p001614a202)" d="M 423.386124 315 
L 426.945933 315 
L 426.945933 311.341612 
L 423.386124 311.341612 
z
" style="fill:#7f7f7f;"/>
   </g>
   <g id="patch_81">
    <path clip-path="url(#p001614a202)" d="M 427.835885 315 
L 431.395694 315 
L 431.395694 311.464813 
L 427.835885 311.464813 
z
" style="fill:#bcbd22;"/>
   </g>
   <g id="patch_82">
    <path clip-path="url(#p001614a202)" d="M 432.285646 315 
L 435.845455 315 
L 435.845455 312.090456 
L 432.285646 312.090456 
z
" style="fill:#17becf;"/>
   </g>
   <g id="matplotlib.axis_1"/>
   <g id="matplotlib.axis_2">
    <g id="ytick_1">
     <g id="line2d_1">
      <defs>
       <path d="M 0 0 
L -3.5 0 
" id="md0d24b5bd2" style="stroke:#000000;stroke-width:0.8;"/>
      </defs>
      <g>
       <use style="stroke:#000000;stroke-width:0.8;" x="63" xlink:href="#md0d24b5bd2" y="315"/>
      </g>
     </g>
     <g id="text_1">
      <!-- 0.00 -->
      <g transform="translate(20.375 321.07875)scale(0.16 -0.16)">
       <defs>
        <path d="M 31.78125 66.40625 
Q 24.171875 66.40625 20.328125 58.90625 
Q 16.5 51.421875 16.5 36.375 
Q 16.5 21.390625 20.328125 13.890625 
Q 24.171875 6.390625 31.78125 6.390625 
Q 39.453125 6.390625 43.28125 13.890625 
Q 47.125 21.390625 47.125 36.375 
Q 47.125 51.421875 43.28125 58.90625 
Q 39.453125 66.40625 31.78125 66.40625 
z
M 31.78125 74.21875 
Q 44.046875 74.21875 50.515625 64.515625 
Q 56.984375 54.828125 56.984375 36.375 
Q 56.984375 17.96875 50.515625 8.265625 
Q 44.046875 -1.421875 31.78125 -1.421875 
Q 19.53125 -1.421875 13.0625 8.265625 
Q 6.59375 17.96875 6.59375 36.375 
Q 6.59375 54.828125 13.0625 64.515625 
Q 19.53125 74.21875 31.78125 74.21875 
z
" id="DejaVuSans-48"/>
        <path d="M 10.6875 12.40625 
L 21 12.40625 
L 21 0 
L 10.6875 0 
z
" id="DejaVuSans-46"/>
       </defs>
       <use xlink:href="#DejaVuSans-48"/>
       <use x="63.623047" xlink:href="#DejaVuSans-46"/>
       <use x="95.410156" xlink:href="#DejaVuSans-48"/>
       <use x="159.033203" xlink:href="#DejaVuSans-48"/>
      </g>
     </g>
    </g>
    <g id="ytick_2">
     <g id="line2d_2">
      <g>
       <use style="stroke:#000000;stroke-width:0.8;" x="63" xlink:href="#md0d24b5bd2" y="264.434434"/>
      </g>
     </g>
     <g id="text_2">
      <!-- 0.01 -->
      <g transform="translate(20.375 270.513184)scale(0.16 -0.16)">
       <defs>
        <path d="M 12.40625 8.296875 
L 28.515625 8.296875 
L 28.515625 63.921875 
L 10.984375 60.40625 
L 10.984375 69.390625 
L 28.421875 72.90625 
L 38.28125 72.90625 
L 38.28125 8.296875 
L 54.390625 8.296875 
L 54.390625 0 
L 12.40625 0 
z
" id="DejaVuSans-49"/>
       </defs>
       <use xlink:href="#DejaVuSans-48"/>
       <use x="63.623047" xlink:href="#DejaVuSans-46"/>
       <use x="95.410156" xlink:href="#DejaVuSans-48"/>
       <use x="159.033203" xlink:href="#DejaVuSans-49"/>
      </g>
     </g>
    </g>
    <g id="ytick_3">
     <g id="line2d_3">
      <g>
       <use style="stroke:#000000;stroke-width:0.8;" x="63" xlink:href="#md0d24b5bd2" y="213.868868"/>
      </g>
     </g>
     <g id="text_3">
      <!-- 0.02 -->
      <g transform="translate(20.375 219.947618)scale(0.16 -0.16)">
       <defs>
        <path d="M 19.1875 8.296875 
L 53.609375 8.296875 
L 53.609375 0 
L 7.328125 0 
L 7.328125 8.296875 
Q 12.9375 14.109375 22.625 23.890625 
Q 32.328125 33.6875 34.8125 36.53125 
Q 39.546875 41.84375 41.421875 45.53125 
Q 43.3125 49.21875 43.3125 52.78125 
Q 43.3125 58.59375 39.234375 62.25 
Q 35.15625 65.921875 28.609375 65.921875 
Q 23.96875 65.921875 18.8125 64.3125 
Q 13.671875 62.703125 7.8125 59.421875 
L 7.8125 69.390625 
Q 13.765625 71.78125 18.9375 73 
Q 24.125 74.21875 28.421875 74.21875 
Q 39.75 74.21875 46.484375 68.546875 
Q 53.21875 62.890625 53.21875 53.421875 
Q 53.21875 48.921875 51.53125 44.890625 
Q 49.859375 40.875 45.40625 35.40625 
Q 44.1875 33.984375 37.640625 27.21875 
Q 31.109375 20.453125 19.1875 8.296875 
z
" id="DejaVuSans-50"/>
       </defs>
       <use xlink:href="#DejaVuSans-48"/>
       <use x="63.623047" xlink:href="#DejaVuSans-46"/>
       <use x="95.410156" xlink:href="#DejaVuSans-48"/>
       <use x="159.033203" xlink:href="#DejaVuSans-50"/>
      </g>
     </g>
    </g>
    <g id="ytick_4">
     <g id="line2d_4">
      <g>
       <use style="stroke:#000000;stroke-width:0.8;" x="63" xlink:href="#md0d24b5bd2" y="163.303302"/>
      </g>
     </g>
     <g id="text_4">
      <!-- 0.03 -->
      <g transform="translate(20.375 169.382052)scale(0.16 -0.16)">
       <defs>
        <path d="M 40.578125 39.3125 
Q 47.65625 37.796875 51.625 33 
Q 55.609375 28.21875 55.609375 21.1875 
Q 55.609375 10.40625 48.1875 4.484375 
Q 40.765625 -1.421875 27.09375 -1.421875 
Q 22.515625 -1.421875 17.65625 -0.515625 
Q 12.796875 0.390625 7.625 2.203125 
L 7.625 11.71875 
Q 11.71875 9.328125 16.59375 8.109375 
Q 21.484375 6.890625 26.8125 6.890625 
Q 36.078125 6.890625 40.9375 10.546875 
Q 45.796875 14.203125 45.796875 21.1875 
Q 45.796875 27.640625 41.28125 31.265625 
Q 36.765625 34.90625 28.71875 34.90625 
L 20.21875 34.90625 
L 20.21875 43.015625 
L 29.109375 43.015625 
Q 36.375 43.015625 40.234375 45.921875 
Q 44.09375 48.828125 44.09375 54.296875 
Q 44.09375 59.90625 40.109375 62.90625 
Q 36.140625 65.921875 28.71875 65.921875 
Q 24.65625 65.921875 20.015625 65.03125 
Q 15.375 64.15625 9.8125 62.3125 
L 9.8125 71.09375 
Q 15.4375 72.65625 20.34375 73.4375 
Q 25.25 74.21875 29.59375 74.21875 
Q 40.828125 74.21875 47.359375 69.109375 
Q 53.90625 64.015625 53.90625 55.328125 
Q 53.90625 49.265625 50.4375 45.09375 
Q 46.96875 40.921875 40.578125 39.3125 
z
" id="DejaVuSans-51"/>
       </defs>
       <use xlink:href="#DejaVuSans-48"/>
       <use x="63.623047" xlink:href="#DejaVuSans-46"/>
       <use x="95.410156" xlink:href="#DejaVuSans-48"/>
       <use x="159.033203" xlink:href="#DejaVuSans-51"/>
      </g>
     </g>
    </g>
    <g id="ytick_5">
     <g id="line2d_5">
      <g>
       <use style="stroke:#000000;stroke-width:0.8;" x="63" xlink:href="#md0d24b5bd2" y="112.737737"/>
      </g>
     </g>
     <g id="text_5">
      <!-- 0.04 -->
      <g transform="translate(20.375 118.816487)scale(0.16 -0.16)">
       <defs>
        <path d="M 37.796875 64.3125 
L 12.890625 25.390625 
L 37.796875 25.390625 
z
M 35.203125 72.90625 
L 47.609375 72.90625 
L 47.609375 25.390625 
L 58.015625 25.390625 
L 58.015625 17.1875 
L 47.609375 17.1875 
L 47.609375 0 
L 37.796875 0 
L 37.796875 17.1875 
L 4.890625 17.1875 
L 4.890625 26.703125 
z
" id="DejaVuSans-52"/>
       </defs>
       <use xlink:href="#DejaVuSans-48"/>
       <use x="63.623047" xlink:href="#DejaVuSans-46"/>
       <use x="95.410156" xlink:href="#DejaVuSans-48"/>
       <use x="159.033203" xlink:href="#DejaVuSans-52"/>
      </g>
     </g>
    </g>
    <g id="ytick_6">
     <g id="line2d_6">
      <g>
       <use style="stroke:#000000;stroke-width:0.8;" x="63" xlink:href="#md0d24b5bd2" y="62.172171"/>
      </g>
     </g>
     <g id="text_6">
      <!-- 0.05 -->
      <g transform="translate(20.375 68.250921)scale(0.16 -0.16)">
       <defs>
        <path d="M 10.796875 72.90625 
L 49.515625 72.90625 
L 49.515625 64.59375 
L 19.828125 64.59375 
L 19.828125 46.734375 
Q 21.96875 47.46875 24.109375 47.828125 
Q 26.265625 48.1875 28.421875 48.1875 
Q 40.625 48.1875 47.75 41.5 
Q 54.890625 34.8125 54.890625 23.390625 
Q 54.890625 11.625 47.5625 5.09375 
Q 40.234375 -1.421875 26.90625 -1.421875 
Q 22.3125 -1.421875 17.546875 -0.640625 
Q 12.796875 0.140625 7.71875 1.703125 
L 7.71875 11.625 
Q 12.109375 9.234375 16.796875 8.0625 
Q 21.484375 6.890625 26.703125 6.890625 
Q 35.15625 6.890625 40.078125 11.328125 
Q 45.015625 15.765625 45.015625 23.390625 
Q 45.015625 31 40.078125 35.4375 
Q 35.15625 39.890625 26.703125 39.890625 
Q 22.75 39.890625 18.8125 39.015625 
Q 14.890625 38.140625 10.796875 36.28125 
z
" id="DejaVuSans-53"/>
       </defs>
       <use xlink:href="#DejaVuSans-48"/>
       <use x="63.623047" xlink:href="#DejaVuSans-46"/>
       <use x="95.410156" xlink:href="#DejaVuSans-48"/>
       <use x="159.033203" xlink:href="#DejaVuSans-53"/>
      </g>
     </g>
    </g>
    <g id="text_7">
     <!-- Explained Variance -->
     <g transform="translate(13.0475 255.49)rotate(-90)scale(0.16 -0.16)">
      <defs>
       <path d="M 9.8125 72.90625 
L 55.90625 72.90625 
L 55.90625 64.59375 
L 19.671875 64.59375 
L 19.671875 43.015625 
L 54.390625 43.015625 
L 54.390625 34.71875 
L 19.671875 34.71875 
L 19.671875 8.296875 
L 56.78125 8.296875 
L 56.78125 0 
L 9.8125 0 
z
" id="DejaVuSans-69"/>
       <path d="M 54.890625 54.6875 
L 35.109375 28.078125 
L 55.90625 0 
L 45.3125 0 
L 29.390625 21.484375 
L 13.484375 0 
L 2.875 0 
L 24.125 28.609375 
L 4.6875 54.6875 
L 15.28125 54.6875 
L 29.78125 35.203125 
L 44.28125 54.6875 
z
" id="DejaVuSans-120"/>
       <path d="M 18.109375 8.203125 
L 18.109375 -20.796875 
L 9.078125 -20.796875 
L 9.078125 54.6875 
L 18.109375 54.6875 
L 18.109375 46.390625 
Q 20.953125 51.265625 25.265625 53.625 
Q 29.59375 56 35.59375 56 
Q 45.5625 56 51.78125 48.09375 
Q 58.015625 40.1875 58.015625 27.296875 
Q 58.015625 14.40625 51.78125 6.484375 
Q 45.5625 -1.421875 35.59375 -1.421875 
Q 29.59375 -1.421875 25.265625 0.953125 
Q 20.953125 3.328125 18.109375 8.203125 
z
M 48.6875 27.296875 
Q 48.6875 37.203125 44.609375 42.84375 
Q 40.53125 48.484375 33.40625 48.484375 
Q 26.265625 48.484375 22.1875 42.84375 
Q 18.109375 37.203125 18.109375 27.296875 
Q 18.109375 17.390625 22.1875 11.75 
Q 26.265625 6.109375 33.40625 6.109375 
Q 40.53125 6.109375 44.609375 11.75 
Q 48.6875 17.390625 48.6875 27.296875 
z
" id="DejaVuSans-112"/>
       <path d="M 9.421875 75.984375 
L 18.40625 75.984375 
L 18.40625 0 
L 9.421875 0 
z
" id="DejaVuSans-108"/>
       <path d="M 34.28125 27.484375 
Q 23.390625 27.484375 19.1875 25 
Q 14.984375 22.515625 14.984375 16.5 
Q 14.984375 11.71875 18.140625 8.90625 
Q 21.296875 6.109375 26.703125 6.109375 
Q 34.1875 6.109375 38.703125 11.40625 
Q 43.21875 16.703125 43.21875 25.484375 
L 43.21875 27.484375 
z
M 52.203125 31.203125 
L 52.203125 0 
L 43.21875 0 
L 43.21875 8.296875 
Q 40.140625 3.328125 35.546875 0.953125 
Q 30.953125 -1.421875 24.3125 -1.421875 
Q 15.921875 -1.421875 10.953125 3.296875 
Q 6 8.015625 6 15.921875 
Q 6 25.140625 12.171875 29.828125 
Q 18.359375 34.515625 30.609375 34.515625 
L 43.21875 34.515625 
L 43.21875 35.40625 
Q 43.21875 41.609375 39.140625 45 
Q 35.0625 48.390625 27.6875 48.390625 
Q 23 48.390625 18.546875 47.265625 
Q 14.109375 46.140625 10.015625 43.890625 
L 10.015625 52.203125 
Q 14.9375 54.109375 19.578125 55.046875 
Q 24.21875 56 28.609375 56 
Q 40.484375 56 46.34375 49.84375 
Q 52.203125 43.703125 52.203125 31.203125 
z
" id="DejaVuSans-97"/>
       <path d="M 9.421875 54.6875 
L 18.40625 54.6875 
L 18.40625 0 
L 9.421875 0 
z
M 9.421875 75.984375 
L 18.40625 75.984375 
L 18.40625 64.59375 
L 9.421875 64.59375 
z
" id="DejaVuSans-105"/>
       <path d="M 54.890625 33.015625 
L 54.890625 0 
L 45.90625 0 
L 45.90625 32.71875 
Q 45.90625 40.484375 42.875 44.328125 
Q 39.84375 48.1875 33.796875 48.1875 
Q 26.515625 48.1875 22.3125 43.546875 
Q 18.109375 38.921875 18.109375 30.90625 
L 18.109375 0 
L 9.078125 0 
L 9.078125 54.6875 
L 18.109375 54.6875 
L 18.109375 46.1875 
Q 21.34375 51.125 25.703125 53.5625 
Q 30.078125 56 35.796875 56 
Q 45.21875 56 50.046875 50.171875 
Q 54.890625 44.34375 54.890625 33.015625 
z
" id="DejaVuSans-110"/>
       <path d="M 56.203125 29.59375 
L 56.203125 25.203125 
L 14.890625 25.203125 
Q 15.484375 15.921875 20.484375 11.0625 
Q 25.484375 6.203125 34.421875 6.203125 
Q 39.59375 6.203125 44.453125 7.46875 
Q 49.3125 8.734375 54.109375 11.28125 
L 54.109375 2.78125 
Q 49.265625 0.734375 44.1875 -0.34375 
Q 39.109375 -1.421875 33.890625 -1.421875 
Q 20.796875 -1.421875 13.15625 6.1875 
Q 5.515625 13.8125 5.515625 26.8125 
Q 5.515625 40.234375 12.765625 48.109375 
Q 20.015625 56 32.328125 56 
Q 43.359375 56 49.78125 48.890625 
Q 56.203125 41.796875 56.203125 29.59375 
z
M 47.21875 32.234375 
Q 47.125 39.59375 43.09375 43.984375 
Q 39.0625 48.390625 32.421875 48.390625 
Q 24.90625 48.390625 20.390625 44.140625 
Q 15.875 39.890625 15.1875 32.171875 
z
" id="DejaVuSans-101"/>
       <path d="M 45.40625 46.390625 
L 45.40625 75.984375 
L 54.390625 75.984375 
L 54.390625 0 
L 45.40625 0 
L 45.40625 8.203125 
Q 42.578125 3.328125 38.25 0.953125 
Q 33.9375 -1.421875 27.875 -1.421875 
Q 17.96875 -1.421875 11.734375 6.484375 
Q 5.515625 14.40625 5.515625 27.296875 
Q 5.515625 40.1875 11.734375 48.09375 
Q 17.96875 56 27.875 56 
Q 33.9375 56 38.25 53.625 
Q 42.578125 51.265625 45.40625 46.390625 
z
M 14.796875 27.296875 
Q 14.796875 17.390625 18.875 11.75 
Q 22.953125 6.109375 30.078125 6.109375 
Q 37.203125 6.109375 41.296875 11.75 
Q 45.40625 17.390625 45.40625 27.296875 
Q 45.40625 37.203125 41.296875 42.84375 
Q 37.203125 48.484375 30.078125 48.484375 
Q 22.953125 48.484375 18.875 42.84375 
Q 14.796875 37.203125 14.796875 27.296875 
z
" id="DejaVuSans-100"/>
       <path id="DejaVuSans-32"/>
       <path d="M 28.609375 0 
L 0.78125 72.90625 
L 11.078125 72.90625 
L 34.1875 11.53125 
L 57.328125 72.90625 
L 67.578125 72.90625 
L 39.796875 0 
z
" id="DejaVuSans-86"/>
       <path d="M 41.109375 46.296875 
Q 39.59375 47.171875 37.8125 47.578125 
Q 36.03125 48 33.890625 48 
Q 26.265625 48 22.1875 43.046875 
Q 18.109375 38.09375 18.109375 28.8125 
L 18.109375 0 
L 9.078125 0 
L 9.078125 54.6875 
L 18.109375 54.6875 
L 18.109375 46.1875 
Q 20.953125 51.171875 25.484375 53.578125 
Q 30.03125 56 36.53125 56 
Q 37.453125 56 38.578125 55.875 
Q 39.703125 55.765625 41.0625 55.515625 
z
" id="DejaVuSans-114"/>
       <path d="M 48.78125 52.59375 
L 48.78125 44.1875 
Q 44.96875 46.296875 41.140625 47.34375 
Q 37.3125 48.390625 33.40625 48.390625 
Q 24.65625 48.390625 19.8125 42.84375 
Q 14.984375 37.3125 14.984375 27.296875 
Q 14.984375 17.28125 19.8125 11.734375 
Q 24.65625 6.203125 33.40625 6.203125 
Q 37.3125 6.203125 41.140625 7.25 
Q 44.96875 8.296875 48.78125 10.40625 
L 48.78125 2.09375 
Q 45.015625 0.34375 40.984375 -0.53125 
Q 36.96875 -1.421875 32.421875 -1.421875 
Q 20.0625 -1.421875 12.78125 6.34375 
Q 5.515625 14.109375 5.515625 27.296875 
Q 5.515625 40.671875 12.859375 48.328125 
Q 20.21875 56 33.015625 56 
Q 37.15625 56 41.109375 55.140625 
Q 45.0625 54.296875 48.78125 52.59375 
z
" id="DejaVuSans-99"/>
      </defs>
      <use xlink:href="#DejaVuSans-69"/>
      <use x="63.183594" xlink:href="#DejaVuSans-120"/>
      <use x="122.363281" xlink:href="#DejaVuSans-112"/>
      <use x="185.839844" xlink:href="#DejaVuSans-108"/>
      <use x="213.623047" xlink:href="#DejaVuSans-97"/>
      <use x="274.902344" xlink:href="#DejaVuSans-105"/>
      <use x="302.685547" xlink:href="#DejaVuSans-110"/>
      <use x="366.064453" xlink:href="#DejaVuSans-101"/>
      <use x="427.587891" xlink:href="#DejaVuSans-100"/>
      <use x="491.064453" xlink:href="#DejaVuSans-32"/>
      <use x="522.851562" xlink:href="#DejaVuSans-86"/>
      <use x="583.509766" xlink:href="#DejaVuSans-97"/>
      <use x="644.789062" xlink:href="#DejaVuSans-114"/>
      <use x="685.902344" xlink:href="#DejaVuSans-105"/>
      <use x="713.685547" xlink:href="#DejaVuSans-97"/>
      <use x="774.964844" xlink:href="#DejaVuSans-110"/>
      <use x="838.34375" xlink:href="#DejaVuSans-99"/>
      <use x="893.324219" xlink:href="#DejaVuSans-101"/>
     </g>
    </g>
   </g>
   <g id="patch_83">
    <path d="M 63 315 
L 63 43.2 
" style="fill:none;stroke:#000000;stroke-linecap:square;stroke-linejoin:miter;stroke-width:0.8;"/>
   </g>
   <g id="patch_84">
    <path d="M 453.6 315 
L 453.6 43.2 
" style="fill:none;stroke:#000000;stroke-linecap:square;stroke-linejoin:miter;stroke-width:0.8;"/>
   </g>
   <g id="patch_85">
    <path d="M 63 315 
L 453.6 315 
" style="fill:none;stroke:#000000;stroke-linecap:square;stroke-linejoin:miter;stroke-width:0.8;"/>
   </g>
   <g id="patch_86">
    <path d="M 63 43.2 
L 453.6 43.2 
" style="fill:none;stroke:#000000;stroke-linecap:square;stroke-linejoin:miter;stroke-width:0.8;"/>
   </g>
   <g id="text_8">
    <!-- Explained Variance Plot -->
    <g transform="translate(176.04125 37.2)scale(0.14 -0.14)">
     <defs>
      <path d="M 19.671875 64.796875 
L 19.671875 37.40625 
L 32.078125 37.40625 
Q 38.96875 37.40625 42.71875 40.96875 
Q 46.484375 44.53125 46.484375 51.125 
Q 46.484375 57.671875 42.71875 61.234375 
Q 38.96875 64.796875 32.078125 64.796875 
z
M 9.8125 72.90625 
L 32.078125 72.90625 
Q 44.34375 72.90625 50.609375 67.359375 
Q 56.890625 61.8125 56.890625 51.125 
Q 56.890625 40.328125 50.609375 34.8125 
Q 44.34375 29.296875 32.078125 29.296875 
L 19.671875 29.296875 
L 19.671875 0 
L 9.8125 0 
z
" id="DejaVuSans-80"/>
      <path d="M 30.609375 48.390625 
Q 23.390625 48.390625 19.1875 42.75 
Q 14.984375 37.109375 14.984375 27.296875 
Q 14.984375 17.484375 19.15625 11.84375 
Q 23.34375 6.203125 30.609375 6.203125 
Q 37.796875 6.203125 41.984375 11.859375 
Q 46.1875 17.53125 46.1875 27.296875 
Q 46.1875 37.015625 41.984375 42.703125 
Q 37.796875 48.390625 30.609375 48.390625 
z
M 30.609375 56 
Q 42.328125 56 49.015625 48.375 
Q 55.71875 40.765625 55.71875 27.296875 
Q 55.71875 13.875 49.015625 6.21875 
Q 42.328125 -1.421875 30.609375 -1.421875 
Q 18.84375 -1.421875 12.171875 6.21875 
Q 5.515625 13.875 5.515625 27.296875 
Q 5.515625 40.765625 12.171875 48.375 
Q 18.84375 56 30.609375 56 
z
" id="DejaVuSans-111"/>
      <path d="M 18.3125 70.21875 
L 18.3125 54.6875 
L 36.8125 54.6875 
L 36.8125 47.703125 
L 18.3125 47.703125 
L 18.3125 18.015625 
Q 18.3125 11.328125 20.140625 9.421875 
Q 21.96875 7.515625 27.59375 7.515625 
L 36.8125 7.515625 
L 36.8125 0 
L 27.59375 0 
Q 17.1875 0 13.234375 3.875 
Q 9.28125 7.765625 9.28125 18.015625 
L 9.28125 47.703125 
L 2.6875 47.703125 
L 2.6875 54.6875 
L 9.28125 54.6875 
L 9.28125 70.21875 
z
" id="DejaVuSans-116"/>
     </defs>
     <use xlink:href="#DejaVuSans-69"/>
     <use x="63.183594" xlink:href="#DejaVuSans-120"/>
     <use x="122.363281" xlink:href="#DejaVuSans-112"/>
     <use x="185.839844" xlink:href="#DejaVuSans-108"/>
     <use x="213.623047" xlink:href="#DejaVuSans-97"/>
     <use x="274.902344" xlink:href="#DejaVuSans-105"/>
     <use x="302.685547" xlink:href="#DejaVuSans-110"/>
     <use x="366.064453" xlink:href="#DejaVuSans-101"/>
     <use x="427.587891" xlink:href="#DejaVuSans-100"/>
     <use x="491.064453" xlink:href="#DejaVuSans-32"/>
     <use x="522.851562" xlink:href="#DejaVuSans-86"/>
     <use x="583.509766" xlink:href="#DejaVuSans-97"/>
     <use x="644.789062" xlink:href="#DejaVuSans-114"/>
     <use x="685.902344" xlink:href="#DejaVuSans-105"/>
     <use x="713.685547" xlink:href="#DejaVuSans-97"/>
     <use x="774.964844" xlink:href="#DejaVuSans-110"/>
     <use x="838.34375" xlink:href="#DejaVuSans-99"/>
     <use x="893.324219" xlink:href="#DejaVuSans-101"/>
     <use x="954.847656" xlink:href="#DejaVuSans-32"/>
     <use x="986.634766" xlink:href="#DejaVuSans-80"/>
     <use x="1046.9375" xlink:href="#DejaVuSans-108"/>
     <use x="1074.720703" xlink:href="#DejaVuSans-111"/>
     <use x="1135.902344" xlink:href="#DejaVuSans-116"/>
    </g>
   </g>
  </g>
 </g>
 <defs>
  <clipPath id="p001614a202">
   <rect height="271.8" width="390.6" x="63" y="43.2"/>
  </clipPath>
 </defs>
</svg>
