<?xml version="1.0" encoding="utf-8" standalone="no"?>
<!DOCTYPE svg PUBLIC "-//W3C//DTD SVG 1.1//EN"
  "http://www.w3.org/Graphics/SVG/1.1/DTD/svg11.dtd">
<!-- Created with matplotlib (https://matplotlib.org/) -->
<svg height="1440pt" version="1.1" viewBox="0 0 1440 1440" width="1440pt" xmlns="http://www.w3.org/2000/svg" xmlns:xlink="http://www.w3.org/1999/xlink">
 <metadata>
  <rdf:RDF xmlns:cc="http://creativecommons.org/ns#" xmlns:dc="http://purl.org/dc/elements/1.1/" xmlns:rdf="http://www.w3.org/1999/02/22-rdf-syntax-ns#">
   <cc:Work>
    <dc:type rdf:resource="http://purl.org/dc/dcmitype/StillImage"/>
    <dc:date>2021-04-21T15:48:50.260307</dc:date>
    <dc:format>image/svg+xml</dc:format>
    <dc:creator>
     <cc:Agent>
      <dc:title>Matplotlib v3.3.1, https://matplotlib.org/</dc:title>
     </cc:Agent>
    </dc:creator>
   </cc:Work>
  </rdf:RDF>
 </metadata>
 <defs>
  <style type="text/css">*{stroke-linecap:butt;stroke-linejoin:round;}</style>
 </defs>
 <g id="figure_1">
  <g id="patch_1">
   <path d="M 0 1440 
L 1440 1440 
L 1440 0 
L 0 0 
z
" style="fill:none;"/>
  </g>
  <g id="axes_1">
   <g id="patch_2">
    <path d="M 1184.4 716.4 
C 1184.4 709.99058 1184.26196 703.581904 1183.985976 697.178429 
C 1183.709993 690.774953 1183.296129 684.378165 1182.744674 677.992512 
L 1049.321272 689.514758 
C 1049.70729 693.984715 1049.996995 698.462467 1050.190184 702.9449 
C 1050.383372 707.427333 1050.48 711.913406 1050.48 716.4 
L 1184.4 716.4 
z
" style="fill:#3182bd;stroke:#ffffff;stroke-linejoin:miter;"/>
   </g>
   <g id="patch_3">
    <path d="M 1182.744674 677.992512 
C 1181.917451 668.413571 1180.780976 658.863854 1179.337027 649.358307 
C 1177.893078 639.852759 1176.14241 630.396342 1174.087761 621.003854 
L 1043.261433 649.622698 
C 1044.699687 656.19744 1045.925155 662.816931 1046.935919 669.470815 
C 1047.946683 676.124698 1048.742215 682.809499 1049.321272 689.514758 
L 1182.744674 677.992512 
z
" style="fill:#6baed6;stroke:#ffffff;stroke-linejoin:miter;"/>
   </g>
   <g id="patch_4">
    <path d="M 1174.087761 621.003854 
C 1170.405808 604.172413 1165.75249 587.568244 1160.151168 571.274706 
C 1154.549847 554.981168 1148.00991 539.025572 1140.564192 523.488022 
L 1019.794935 581.361616 
C 1025.006937 592.237901 1029.584893 603.406817 1033.505818 614.812294 
C 1037.426743 626.217771 1040.684066 637.840689 1043.261433 649.622698 
L 1174.087761 621.003854 
z
" style="fill:#9ecae1;stroke:#ffffff;stroke-linejoin:miter;"/>
   </g>
   <g id="patch_5">
    <path d="M 1140.564192 523.488022 
C 1130.172074 501.801994 1118.044596 480.991111 1104.300196 461.258615 
C 1090.555796 441.526119 1075.239365 422.936458 1058.500485 405.67118 
L 962.350339 498.889826 
C 974.067555 510.97552 984.789058 523.988283 994.410137 537.801031 
C 1004.031217 551.613778 1012.520452 566.181396 1019.794935 581.361616 
L 1140.564192 523.488022 
z
" style="fill:#c6dbef;stroke:#ffffff;stroke-linejoin:miter;"/>
   </g>
   <g id="patch_6">
    <path d="M 1058.500485 405.67118 
C 1043.157841 389.846048 1026.664165 375.17897 1009.154847 361.790343 
C 991.645529 348.401716 973.16861 336.328275 953.87576 325.669125 
L 889.113032 442.888388 
C 902.618027 450.349792 915.55187 458.801201 927.808393 468.17324 
C 940.064915 477.545279 951.610489 487.812233 962.350339 498.889826 
L 1058.500485 405.67118 
z
" style="fill:#e6550d;stroke:#ffffff;stroke-linejoin:miter;"/>
   </g>
   <g id="patch_7">
    <path d="M 953.87576 325.669125 
C 944.758734 320.63204 935.468204 315.915592 926.021231 311.528444 
C 916.574258 307.141296 906.976628 303.086134 897.245968 299.370407 
L 849.472178 424.479285 
C 856.28364 427.080294 863.001981 429.918907 869.614862 432.989911 
C 876.227743 436.060915 882.731114 439.362428 889.113032 442.888388 
L 953.87576 325.669125 
z
" style="fill:#fd8d3c;stroke:#ffffff;stroke-linejoin:miter;"/>
   </g>
   <g id="patch_8">
    <path d="M 897.245968 299.370407 
C 895.749093 298.798813 894.249151 298.235283 892.746207 297.679841 
C 891.243264 297.124399 889.737341 296.577053 888.228503 296.037827 
L 843.159952 422.146479 
C 844.216138 422.523937 845.270285 422.907079 846.322345 423.295889 
C 847.374406 423.684698 848.424365 424.079169 849.472178 424.479285 
L 897.245968 299.370407 
z
" style="fill:#fdae6b;stroke:#ffffff;stroke-linejoin:miter;"/>
   </g>
   <g id="patch_9">
    <path d="M 888.228503 296.037827 
C 867.472568 288.620097 846.195718 282.74982 824.572604 278.475184 
C 802.949491 274.200548 781.039443 271.533281 759.022311 270.495277 
L 752.715618 404.266694 
C 768.12761 404.993297 783.464644 406.860384 798.600823 409.852629 
C 813.737002 412.844874 828.630798 416.954068 843.159952 422.146479 
L 888.228503 296.037827 
z
" style="fill:#fdd0a2;stroke:#ffffff;stroke-linejoin:miter;"/>
   </g>
   <g id="patch_10">
    <path d="M 759.022311 270.495277 
C 736.203787 269.41949 713.33631 270.096847 690.621469 272.521374 
C 667.906627 274.945901 645.411365 279.110454 623.33399 284.97832 
L 657.733793 414.404824 
C 673.187956 410.297318 688.934639 407.382131 704.835028 405.684962 
C 720.735417 403.987793 736.742651 403.513643 752.715618 404.266694 
L 759.022311 270.495277 
z
" style="fill:#31a354;stroke:#ffffff;stroke-linejoin:miter;"/>
   </g>
   <g id="patch_11">
    <path d="M 623.33399 284.97832 
C 554.489067 303.276363 491.013749 337.790447 438.229997 385.626807 
C 385.446245 433.463166 344.871657 493.246448 319.908128 559.964242 
C 294.944599 626.682035 286.309861 698.416123 294.727876 769.152102 
C 303.145892 839.888081 328.374632 907.592207 368.298845 966.587961 
L 479.209191 891.531573 
C 451.262243 850.234545 433.602124 802.841657 427.709513 753.326471 
C 421.816903 703.811286 427.861219 653.597424 445.33569 606.894969 
C 462.81016 560.192514 491.212372 518.344216 528.160998 484.858765 
C 565.109624 451.373313 609.542347 427.213454 657.733793 414.404824 
L 623.33399 284.97832 
z
" style="fill:#74c476;stroke:#ffffff;stroke-linejoin:miter;"/>
   </g>
   <g id="patch_12">
    <path d="M 368.298845 966.587961 
C 380.652204 984.842441 394.340625 1002.156934 409.251744 1018.389311 
C 424.162863 1034.621689 440.255769 1049.727413 457.39836 1063.582488 
L 541.578852 959.427741 
C 529.579038 949.729189 518.314004 939.155182 507.876221 927.792518 
C 497.438437 916.429854 487.856543 904.309709 479.209191 891.531573 
L 368.298845 966.587961 
z
" style="fill:#a1d99b;stroke:#ffffff;stroke-linejoin:miter;"/>
   </g>
   <g id="patch_13">
    <path d="M 457.39836 1063.582488 
C 460.51382 1066.100481 463.663032 1068.576425 466.84514 1071.009647 
C 470.027247 1073.442869 473.241963 1075.833148 476.488413 1078.179836 
L 554.941889 969.645885 
C 552.669374 968.003204 550.419073 966.330008 548.191598 964.626753 
C 545.964122 962.923497 543.759674 961.190337 541.578852 959.427741 
L 457.39836 1063.582488 
z
" style="fill:#c7e9c0;stroke:#ffffff;stroke-linejoin:miter;"/>
   </g>
   <g id="patch_14">
    <path d="M 476.488413 1078.179836 
C 516.510129 1107.109427 561.056352 1129.198455 608.309107 1143.545446 
C 655.561861 1157.892437 704.869471 1164.299528 754.219643 1162.505238 
L 749.35375 1028.673666 
C 714.80863 1029.929669 680.293303 1025.444706 647.216375 1015.401812 
C 614.139447 1005.358919 582.95709 989.896599 554.941889 969.645885 
L 476.488413 1078.179836 
z
" style="fill:#756bb1;stroke:#ffffff;stroke-linejoin:miter;"/>
   </g>
   <g id="patch_15">
    <path d="M 754.219643 1162.505238 
C 771.838376 1161.86465 789.403696 1160.180858 806.823276 1157.462713 
C 824.242856 1154.744568 841.486121 1150.99684 858.462434 1146.239228 
L 822.323704 1017.28746 
C 810.440284 1020.617788 798.369999 1023.241197 786.176293 1025.143899 
C 773.982587 1027.046601 761.686863 1028.225255 749.35375 1028.673666 
L 754.219643 1162.505238 
z
" style="fill:#9e9ac8;stroke:#ffffff;stroke-linejoin:miter;"/>
   </g>
   <g id="patch_16">
    <path d="M 858.462434 1146.239228 
C 952.226393 1119.961881 1034.865547 1063.712519 1093.701691 986.12072 
C 1152.537835 908.528922 1184.399998 813.776491 1184.4 716.40001 
L 1050.48 716.400007 
C 1050.479998 784.563544 1028.176484 850.890245 986.991184 905.204504 
C 945.805883 959.518763 887.958475 998.893316 822.323704 1017.28746 
L 858.462434 1146.239228 
z
" style="fill:#bcbddc;stroke:#ffffff;stroke-linejoin:miter;"/>
   </g>
   <g id="patch_17">
    <path d="M 1050.48 716.4 
C 1050.48 711.913406 1050.383372 707.427333 1050.190184 702.9449 
C 1049.996995 698.462467 1049.70729 693.984715 1049.321272 689.514758 
L 915.89787 701.037005 
C 916.118452 703.591266 916.283997 706.149981 916.394391 708.711371 
C 916.504784 711.272762 916.56 713.836232 916.56 716.4 
L 1050.48 716.4 
z
" style="fill:#3182bd;stroke:#ffffff;stroke-linejoin:miter;"/>
   </g>
   <g id="patch_18">
    <path d="M 1049.321272 689.514758 
C 1049.128268 687.279845 1048.911204 685.047074 1048.670117 682.816835 
C 1048.42903 680.586596 1048.163934 678.359018 1047.874876 676.134488 
L 915.071358 693.391136 
C 915.236534 694.662296 915.388017 695.935198 915.525781 697.20962 
C 915.663545 698.484042 915.787582 699.759911 915.89787 701.037005 
L 1049.321272 689.514758 
z
" style="fill:#6baed6;stroke:#ffffff;stroke-linejoin:miter;"/>
   </g>
   <g id="patch_19">
    <path d="M 1047.874876 676.134488 
C 1047.549685 673.631885 1047.194189 671.133313 1046.808465 668.639322 
C 1046.422742 666.145332 1046.006819 663.656106 1045.56079 661.172192 
L 913.749023 684.841252 
C 914.003897 686.260632 914.241567 687.683047 914.46198 689.108184 
C 914.682393 690.533322 914.885534 691.961077 915.071358 693.391136 
L 1047.874876 676.134488 
z
" style="fill:#6baed6;stroke:#ffffff;stroke-linejoin:miter;"/>
   </g>
   <g id="patch_20">
    <path d="M 1045.56079 661.172192 
C 1045.21388 659.240268 1044.848775 657.311656 1044.465523 655.386612 
C 1044.082271 653.461568 1043.68089 651.540177 1043.261433 649.622697 
L 912.435104 678.241541 
C 912.674794 679.337244 912.904155 680.435181 913.123156 681.535207 
C 913.342157 682.635232 913.550789 683.737296 913.749023 684.841252 
L 1045.56079 661.172192 
z
" style="fill:#6baed6;stroke:#ffffff;stroke-linejoin:miter;"/>
   </g>
   <g id="patch_21">
    <path d="M 1043.261433 649.622697 
C 1043.081666 648.800924 1042.898582 647.979881 1042.712185 647.159587 
C 1042.525788 646.339294 1042.336079 645.519756 1042.143063 644.700994 
L 911.796036 675.42914 
C 911.906331 675.897003 912.014736 676.365311 912.121249 676.83405 
C 912.227761 677.302789 912.332381 677.771957 912.435104 678.241541 
L 1043.261433 649.622697 
z
" style="fill:#9ecae1;stroke:#ffffff;stroke-linejoin:miter;"/>
   </g>
   <g id="patch_22">
    <path d="M 1042.143063 644.700994 
C 1041.950048 643.882233 1041.753726 643.064254 1041.554105 642.247077 
C 1041.354483 641.429901 1041.151562 640.613534 1040.945347 639.797997 
L 911.111627 672.627427 
C 911.229464 673.093448 911.345419 673.559944 911.459488 674.026901 
C 911.573558 674.493859 911.685741 674.961276 911.796036 675.42914 
L 1042.143063 644.700994 
z
" style="fill:#9ecae1;stroke:#ffffff;stroke-linejoin:miter;"/>
   </g>
   <g id="patch_23">
    <path d="M 1040.945347 639.797997 
C 1040.189214 636.807642 1039.388845 633.828647 1038.544505 630.861991 
C 1037.700165 627.895336 1036.811945 624.941344 1035.880138 622.000988 
L 908.217222 662.457707 
C 908.749683 664.137911 909.257237 665.825906 909.739717 667.521138 
C 910.222197 669.21637 910.679551 670.918653 911.111627 672.627427 
L 1040.945347 639.797997 
z
" style="fill:#9ecae1;stroke:#ffffff;stroke-linejoin:miter;"/>
   </g>
   <g id="patch_24">
    <path d="M 1035.880138 622.000988 
C 1035.202467 619.862565 1034.501788 617.731502 1033.778223 615.608169 
C 1033.054658 613.484836 1032.30825 611.369356 1031.539129 609.262097 
L 905.736645 655.178341 
C 906.176143 656.382489 906.602662 657.591335 907.016127 658.804668 
C 907.429593 660.018001 907.829981 661.235752 908.217222 662.457707 
L 1035.880138 622.000988 
z
" style="fill:#9ecae1;stroke:#ffffff;stroke-linejoin:miter;"/>
   </g>
   <g id="patch_25">
    <path d="M 1031.539129 609.262097 
C 1029.808537 604.520577 1027.963315 599.821685 1026.005087 595.169557 
C 1024.046859 590.517429 1021.9762 585.91343 1019.794934 581.361614 
L 899.025676 639.235208 
C 900.272115 641.836246 901.455348 644.467102 902.574335 647.125461 
C 903.693323 649.78382 904.747735 652.468901 905.736645 655.178341 
L 1031.539129 609.262097 
z
" style="fill:#9ecae1;stroke:#ffffff;stroke-linejoin:miter;"/>
   </g>
   <g id="patch_26">
    <path d="M 1019.794934 581.361614 
C 1018.82552 579.338664 1017.834351 577.326212 1016.821599 575.324607 
C 1015.808846 573.323002 1014.77457 571.33236 1013.718949 569.353029 
L 895.553685 632.373159 
C 896.156897 633.504206 896.747912 634.641715 897.326628 635.78549 
C 897.905343 636.929264 898.471726 638.079237 899.025676 639.235208 
L 1019.794934 581.361614 
z
" style="fill:#c6dbef;stroke:#ffffff;stroke-linejoin:miter;"/>
   </g>
   <g id="patch_27">
    <path d="M 1013.718949 569.353029 
C 1013.059189 568.115954 1012.391112 566.883333 1011.714762 565.65525 
C 1011.038412 564.427167 1010.353804 563.20365 1009.660985 561.984782 
L 893.234849 628.162733 
C 893.630745 628.859229 894.021949 629.558381 894.408435 630.260143 
C 894.794921 630.961905 895.17668 631.666259 895.553685 632.373159 
L 1013.718949 569.353029 
z
" style="fill:#c6dbef;stroke:#ffffff;stroke-linejoin:miter;"/>
   </g>
   <g id="patch_28">
    <path d="M 1009.660985 561.984782 
C 1005.087648 553.938961 1000.159127 546.100284 994.889999 538.491938 
C 989.620872 530.883591 984.016338 523.513083 978.092976 516.402216 
L 875.195986 602.115552 
C 878.580764 606.178905 881.783355 610.390623 884.794285 614.73825 
C 887.805215 619.085877 890.621513 623.565121 893.234849 628.162733 
L 1009.660985 561.984782 
z
" style="fill:#c6dbef;stroke:#ffffff;stroke-linejoin:miter;"/>
   </g>
   <g id="patch_29">
    <path d="M 978.092976 516.402216 
C 976.298285 514.24773 974.474676 512.117498 972.622644 510.0121 
C 970.770611 507.906701 968.890324 505.826327 966.982291 503.771543 
L 868.847024 594.898025 
C 869.937328 596.072187 871.011778 597.260972 872.070082 598.464057 
C 873.128386 599.667142 874.170449 600.884417 875.195986 602.115552 
L 978.092976 516.402216 
z
" style="fill:#c6dbef;stroke:#ffffff;stroke-linejoin:miter;"/>
   </g>
   <g id="patch_30">
    <path d="M 966.982291 503.771543 
C 966.219088 502.94964 965.451465 502.131852 964.679456 501.318214 
C 963.907447 500.504577 963.131063 499.695102 962.350337 498.889824 
L 866.200193 592.108471 
C 866.646322 592.56863 867.08997 593.031187 867.531118 593.496122 
C 867.972266 593.961058 868.410907 594.428366 868.847024 594.898025 
L 966.982291 503.771543 
z
" style="fill:#c6dbef;stroke:#ffffff;stroke-linejoin:miter;"/>
   </g>
   <g id="patch_31">
    <path d="M 962.350337 498.889824 
C 962.350337 498.889824 962.350337 498.889824 962.350337 498.889824 
L 866.200193 592.108471 
C 866.200193 592.108471 866.200193 592.108471 866.200193 592.108471 
L 962.350337 498.889824 
z
" style="fill:#c6dbef;stroke:#ffffff;stroke-linejoin:miter;"/>
   </g>
   <g id="patch_32">
    <path d="M 962.350337 498.889824 
C 962.350337 498.889824 962.350337 498.889824 962.350337 498.889824 
L 866.200193 592.108471 
C 866.200193 592.108471 866.200193 592.108471 866.200193 592.108471 
L 962.350337 498.889824 
z
" style="fill:#c6dbef;stroke:#ffffff;stroke-linejoin:miter;"/>
   </g>
   <g id="patch_33">
    <path d="M 962.350337 498.889824 
C 961.959975 498.487186 961.56853 498.0856 961.176006 497.685069 
C 960.783482 497.284539 960.38988 496.885066 959.995205 496.486655 
L 864.854403 590.735231 
C 865.079931 590.962895 865.304847 591.191165 865.529146 591.42004 
C 865.753446 591.648914 865.977129 591.878392 866.200193 592.108471 
L 962.350337 498.889824 
z
" style="fill:#e6550d;stroke:#ffffff;stroke-linejoin:miter;"/>
   </g>
   <g id="patch_34">
    <path d="M 959.995205 496.486655 
C 958.811174 495.291415 957.61751 494.105757 956.414329 492.929798 
C 955.211148 491.753838 953.998489 490.587614 952.776471 489.431241 
L 860.729412 586.703566 
C 861.427708 587.364351 862.120656 588.030764 862.808188 588.702741 
C 863.49572 589.374719 864.177814 590.052237 864.854403 590.735231 
L 959.995205 496.486655 
z
" style="fill:#e6550d;stroke:#ffffff;stroke-linejoin:miter;"/>
   </g>
   <g id="patch_35">
    <path d="M 952.776471 489.431241 
C 950.332396 487.118456 947.851124 484.845301 945.333624 482.612663 
C 942.816124 480.380026 940.262726 478.188198 937.674428 476.038038 
L 852.099673 579.050307 
C 853.578701 580.27897 855.037785 581.531443 856.476356 582.807236 
C 857.914928 584.083029 859.332798 585.381975 860.729412 586.703566 
L 952.776471 489.431241 
z
" style="fill:#e6550d;stroke:#ffffff;stroke-linejoin:miter;"/>
   </g>
   <g id="patch_36">
    <path d="M 937.674428 476.038038 
C 934.654724 473.529497 931.588015 471.078085 928.475935 468.685106 
C 925.363855 466.292128 922.206956 463.958008 919.00692 461.683991 
L 841.432526 570.847995 
C 843.261118 572.147433 845.06506 573.481216 846.843392 574.848632 
C 848.621723 576.216048 850.374128 577.616855 852.099673 579.050307 
L 937.674428 476.038038 
z
" style="fill:#e6550d;stroke:#ffffff;stroke-linejoin:miter;"/>
   </g>
   <g id="patch_37">
    <path d="M 919.00692 461.683991 
C 914.206688 458.272838 909.310988 454.998061 904.325687 451.863582 
C 899.340385 448.729104 894.267474 445.736177 889.113031 442.888387 
L 824.350303 560.10765 
C 827.295699 561.734958 830.194506 563.445202 833.04325 565.236333 
C 835.891993 567.027463 838.689536 568.898765 841.432526 570.847995 
L 919.00692 461.683991 
z
" style="fill:#e6550d;stroke:#ffffff;stroke-linejoin:miter;"/>
   </g>
   <g id="patch_38">
    <path d="M 889.113031 442.888387 
C 882.731113 439.362428 876.227742 436.060914 869.614861 432.989911 
C 863.00198 429.918907 856.283639 427.080294 849.472177 424.479284 
L 801.698387 549.588163 
C 805.590651 551.074454 809.429703 552.696518 813.208492 554.451377 
C 816.987281 556.206237 820.703493 558.092816 824.350303 560.10765 
L 889.113031 442.888387 
z
" style="fill:#fd8d3c;stroke:#ffffff;stroke-linejoin:miter;"/>
   </g>
   <g id="patch_39">
    <path d="M 849.472177 424.479284 
C 848.948272 424.279227 848.423829 424.080581 847.898854 423.883347 
C 847.373879 423.686113 846.848374 423.490293 846.322344 423.295889 
L 799.898482 548.911936 
C 800.199071 549.023025 800.499359 549.134922 800.799345 549.247627 
C 801.099331 549.360332 801.399012 549.473844 801.698387 549.588163 
L 849.472177 424.479284 
z
" style="fill:#fdae6b;stroke:#ffffff;stroke-linejoin:miter;"/>
   </g>
   <g id="patch_40">
    <path d="M 846.322344 423.295889 
C 845.796315 423.101484 845.269763 422.908496 844.742695 422.716927 
C 844.215627 422.525357 843.688043 422.335207 843.159951 422.146478 
L 798.091401 548.25513 
C 798.393168 548.362976 798.694644 548.471633 798.995826 548.581101 
C 799.297008 548.690569 799.597894 548.800848 799.898482 548.911936 
L 846.322344 423.295889 
z
" style="fill:#fdae6b;stroke:#ffffff;stroke-linejoin:miter;"/>
   </g>
   <g id="patch_41">
    <path d="M 843.159951 422.146478 
C 839.463199 420.825338 835.741879 419.573979 831.997972 418.393068 
C 828.254065 417.212157 824.488237 416.101904 820.702492 415.0629 
L 785.258567 544.207371 
C 787.42185 544.801088 789.573751 545.435518 791.713127 546.110324 
C 793.852502 546.785131 795.978971 547.500193 798.091401 548.25513 
L 843.159951 422.146478 
z
" style="fill:#fdd0a2;stroke:#ffffff;stroke-linejoin:miter;"/>
   </g>
   <g id="patch_42">
    <path d="M 820.702492 415.0629 
C 820.161688 414.914475 819.620484 414.767506 819.078888 414.621995 
C 818.537292 414.476484 817.995305 414.332431 817.452933 414.189838 
L 783.401676 543.708479 
C 783.711603 543.789961 784.02131 543.872277 784.330793 543.955426 
C 784.640277 544.038575 784.949536 544.122557 785.258567 544.207371 
L 820.702492 415.0629 
z
" style="fill:#fdd0a2;stroke:#ffffff;stroke-linejoin:miter;"/>
   </g>
   <g id="patch_43">
    <path d="M 817.452933 414.189838 
C 813.927429 413.262961 810.385975 412.397847 806.830199 411.594892 
C 803.274423 410.791937 799.704868 410.051264 796.123174 409.373215 
L 771.213242 540.956123 
C 773.259925 541.34358 775.29967 541.766821 777.331542 542.225652 
C 779.363414 542.684484 781.387102 543.178835 783.401676 543.708479 
L 817.452933 414.189838 
z
" style="fill:#fdd0a2;stroke:#ffffff;stroke-linejoin:miter;"/>
   </g>
   <g id="patch_44">
    <path d="M 796.123174 409.373215 
C 790.612684 408.330025 785.075107 407.435377 779.516462 406.690243 
C 773.957818 405.945109 768.380121 405.349759 762.789432 404.90484 
L 752.16539 538.402766 
C 755.360069 538.657005 758.547325 538.997205 761.723693 539.422996 
C 764.900061 539.848787 768.064391 540.360014 771.213242 540.956123 
L 796.123174 409.373215 
z
" style="fill:#fdd0a2;stroke:#ffffff;stroke-linejoin:miter;"/>
   </g>
   <g id="patch_45">
    <path d="M 762.789432 404.90484 
C 761.112318 404.771372 759.434153 404.651451 757.755101 404.545088 
C 756.07605 404.438725 754.396167 404.345924 752.715617 404.266694 
L 746.408924 538.038111 
C 747.369238 538.083385 748.329171 538.136414 749.288629 538.197193 
C 750.248087 538.257972 751.207039 538.326498 752.16539 538.402766 
L 762.789432 404.90484 
z
" style="fill:#fdd0a2;stroke:#ffffff;stroke-linejoin:miter;"/>
   </g>
   <g id="patch_46">
    <path d="M 752.715617 404.266694 
C 740.388048 403.685507 728.036867 403.835138 715.726995 404.7148 
C 703.417124 405.594463 691.170169 407.202613 679.050503 409.530798 
L 704.314573 541.04617 
C 711.240096 539.715779 718.238357 538.796836 725.272569 538.294172 
C 732.306781 537.791507 739.364599 537.706004 746.408924 538.038111 
L 752.715617 404.266694 
z
" style="fill:#31a354;stroke:#ffffff;stroke-linejoin:miter;"/>
   </g>
   <g id="patch_47">
    <path d="M 679.050503 409.530798 
C 676.021416 410.112685 673.001112 410.739389 669.990581 411.410706 
C 666.980051 412.082023 663.979626 412.797878 660.990292 413.558036 
L 693.994452 543.347449 
C 695.702643 542.913073 697.417172 542.504013 699.137475 542.120404 
C 700.857778 541.736794 702.583667 541.378677 704.314573 541.04617 
L 679.050503 409.530798 
z
" style="fill:#31a354;stroke:#ffffff;stroke-linejoin:miter;"/>
   </g>
   <g id="patch_48">
    <path d="M 660.990292 413.558036 
C 660.446786 413.696244 659.903653 413.835915 659.3609 413.977047 
C 658.818146 414.11818 658.275773 414.260773 657.733787 414.404825 
L 692.133593 543.831329 
C 692.443299 543.749013 692.753226 543.667531 693.063371 543.586884 
C 693.373516 543.506237 693.683878 543.426425 693.994452 543.347449 
L 660.990292 413.558036 
z
" style="fill:#31a354;stroke:#ffffff;stroke-linejoin:miter;"/>
   </g>
   <g id="patch_49">
    <path d="M 657.733787 414.404825 
C 645.535383 417.646995 633.544617 421.625279 621.827411 426.317805 
C 610.110204 431.010331 598.68807 436.408484 587.623803 442.482586 
L 652.070744 559.875763 
C 658.393183 556.404848 664.920117 553.320189 671.615663 550.638746 
C 678.31121 547.957302 685.163076 545.683997 692.133593 543.831329 
L 657.733787 414.404825 
z
" style="fill:#74c476;stroke:#ffffff;stroke-linejoin:miter;"/>
   </g>
   <g id="patch_50">
    <path d="M 587.623803 442.482586 
C 564.241272 455.319214 542.59835 471.097192 523.223519 489.43125 
C 503.848687 507.765308 486.900939 528.504992 472.79411 551.143877 
L 586.453777 621.96793 
C 594.514823 609.031424 604.19925 597.180176 615.270582 586.703571 
C 626.341914 576.226967 638.709298 567.21098 652.070744 559.875763 
L 587.623803 442.482586 
z
" style="fill:#74c476;stroke:#ffffff;stroke-linejoin:miter;"/>
   </g>
   <g id="patch_51">
    <path d="M 472.79411 551.143877 
C 469.531465 556.379826 466.424596 561.711247 463.477587 567.131131 
C 460.530578 572.551015 457.744722 578.056985 455.123683 583.6418 
L 576.35639 640.538171 
C 577.854127 637.346849 579.446045 634.20058 581.13005 631.103504 
C 582.814055 628.006427 584.589409 624.9599 586.453777 621.96793 
L 472.79411 551.143877 
z
" style="fill:#74c476;stroke:#ffffff;stroke-linejoin:miter;"/>
   </g>
   <g id="patch_52">
    <path d="M 455.123683 583.6418 
C 454.289771 585.41867 453.472619 587.203357 452.672336 588.995625 
C 451.872054 590.787893 451.088676 592.587661 450.322307 594.394691 
L 573.612747 646.68268 
C 574.050672 645.650092 574.498316 644.621653 574.955621 643.5975 
C 575.412925 642.573347 575.879869 641.553525 576.35639 640.538171 
L 455.123683 583.6418 
z
" style="fill:#74c476;stroke:#ffffff;stroke-linejoin:miter;"/>
   </g>
   <g id="patch_53">
    <path d="M 450.322307 594.394691 
C 448.570553 598.525173 446.90796 602.692903 445.335684 606.894983 
C 443.763409 611.097063 442.281817 615.332517 440.891938 619.598401 
L 568.223964 661.0848 
C 569.018181 658.647153 569.864805 656.226893 570.763248 653.825704 
C 571.661691 651.424516 572.611744 649.042956 573.612747 646.68268 
L 450.322307 594.394691 
z
" style="fill:#74c476;stroke:#ffffff;stroke-linejoin:miter;"/>
   </g>
   <g id="patch_54">
    <path d="M 440.891938 619.598401 
C 438.111857 628.131156 435.700649 636.779716 433.665021 645.520024 
C 431.629393 654.260332 429.971234 663.084277 428.695155 671.967316 
L 561.254374 691.009895 
C 561.983562 685.933873 562.931082 680.891618 564.094298 675.897156 
C 565.257514 670.902695 566.635347 665.960661 568.223964 661.0848 
L 440.891938 619.598401 
z
" style="fill:#74c476;stroke:#ffffff;stroke-linejoin:miter;"/>
   </g>
   <g id="patch_55">
    <path d="M 428.695155 671.967316 
C 426.18176 689.463569 425.157439 707.141576 425.63322 724.811031 
C 426.109002 742.480486 428.083172 760.077754 431.534478 777.413396 
L 562.876845 751.264798 
C 560.90467 741.358716 559.776573 731.303135 559.504697 721.206303 
C 559.232822 711.109472 559.818148 701.007753 561.254374 691.009895 
L 428.695155 671.967316 
z
" style="fill:#74c476;stroke:#ffffff;stroke-linejoin:miter;"/>
   </g>
   <g id="patch_56">
    <path d="M 431.534478 777.413396 
C 433.560642 787.590655 436.092505 797.660671 439.120655 807.586005 
C 442.148805 817.511339 445.669485 827.279674 449.669604 836.854693 
L 573.239774 785.231253 
C 570.953991 779.759814 568.942174 774.177908 567.211803 768.506289 
C 565.481431 762.834669 564.034652 757.080374 562.876845 751.264798 
L 431.534478 777.413396 
z
" style="fill:#74c476;stroke:#ffffff;stroke-linejoin:miter;"/>
   </g>
   <g id="patch_57">
    <path d="M 449.669604 836.854693 
C 451.939624 842.288402 454.362791 847.656857 456.936203 852.953624 
C 459.509614 858.250391 462.232241 863.473354 465.100821 868.616255 
L 582.057612 803.380717 
C 580.418423 800.441917 578.862636 797.457366 577.392116 794.430642 
C 575.921595 791.403918 574.536928 788.33623 573.239774 785.231253 
L 449.669604 836.854693 
z
" style="fill:#74c476;stroke:#ffffff;stroke-linejoin:miter;"/>
   </g>
   <g id="patch_58">
    <path d="M 465.100821 868.616255 
C 467.286345 872.534547 469.556004 876.405315 471.908219 880.225866 
C 474.260433 884.046416 476.694659 887.815865 479.209202 891.531588 
L 590.119544 816.475193 
C 588.682662 814.351923 587.291676 812.197952 585.947553 810.01478 
C 584.603431 807.831608 583.306483 805.619741 582.057612 803.380717 
L 465.100821 868.616255 
z
" style="fill:#74c476;stroke:#ffffff;stroke-linejoin:miter;"/>
   </g>
   <g id="patch_59">
    <path d="M 479.209202 891.531588 
C 479.680661 892.22826 480.154931 892.923025 480.632001 893.615867 
C 481.109071 894.308709 481.588937 894.999622 482.071587 895.688588 
L 591.755193 818.850622 
C 591.479393 818.456927 591.205184 818.06212 590.932572 817.66621 
C 590.659961 817.2703 590.388949 816.873291 590.119544 816.475193 
L 479.209202 891.531588 
z
" style="fill:#a1d99b;stroke:#ffffff;stroke-linejoin:miter;"/>
   </g>
   <g id="patch_60">
    <path d="M 482.071587 895.688588 
C 482.393354 896.147899 482.716356 896.606343 483.040591 897.063914 
C 483.364825 897.521486 483.690291 897.978184 484.016985 898.434003 
L 592.866848 820.41943 
C 592.680166 820.158962 592.494186 819.897992 592.308909 819.636522 
C 592.123632 819.375053 591.939059 819.113085 591.755193 818.850622 
L 482.071587 895.688588 
z
" style="fill:#a1d99b;stroke:#ffffff;stroke-linejoin:miter;"/>
   </g>
   <g id="patch_61">
    <path d="M 484.016985 898.434003 
C 485.487123 900.485214 486.982056 902.51854 488.501455 904.533533 
C 490.020853 906.548526 491.564607 908.545039 493.132375 910.522633 
L 598.075643 827.327219 
C 597.179775 826.197165 596.297631 825.056301 595.429403 823.904876 
C 594.561175 822.753451 593.706927 821.591551 592.866848 820.41943 
L 484.016985 898.434003 
z
" style="fill:#a1d99b;stroke:#ffffff;stroke-linejoin:miter;"/>
   </g>
   <g id="patch_62">
    <path d="M 493.132375 910.522633 
C 494.003349 911.621286 494.881708 912.714066 495.767392 913.800897 
C 496.653075 914.887728 497.546063 915.968586 498.446295 917.043397 
L 601.112169 831.05337 
C 600.59775 830.439192 600.087472 829.821559 599.581367 829.200512 
C 599.075262 828.579466 598.573343 827.955021 598.075643 827.327219 
L 493.132375 910.522633 
z
" style="fill:#a1d99b;stroke:#ffffff;stroke-linejoin:miter;"/>
   </g>
   <g id="patch_63">
    <path d="M 498.446295 917.043397 
C 499.166479 917.903245 499.891288 918.75921 500.620689 919.611253 
C 501.350091 920.463296 502.084074 921.311406 502.822608 922.155546 
L 603.612919 833.974598 
C 603.1909 833.492232 602.77148 833.007598 602.35468 832.520716 
C 601.937879 832.033834 601.523703 831.544712 601.112169 831.05337 
L 498.446295 917.043397 
z
" style="fill:#a1d99b;stroke:#ffffff;stroke-linejoin:miter;"/>
   </g>
   <g id="patch_64">
    <path d="M 502.822608 922.155546 
C 503.007241 922.36658 503.192158 922.577366 503.377358 922.787903 
C 503.562559 922.99844 503.748043 923.208727 503.933809 923.418764 
L 604.247891 834.696437 
C 604.141739 834.576415 604.035748 834.456251 603.929919 834.335944 
C 603.82409 834.215638 603.718423 834.095189 603.612919 833.974598 
L 502.822608 922.155546 
z
" style="fill:#a1d99b;stroke:#ffffff;stroke-linejoin:miter;"/>
   </g>
   <g id="patch_65">
    <path d="M 503.933809 923.418764 
C 504.119576 923.628802 504.305625 923.838589 504.491956 924.048125 
C 504.678288 924.257662 504.864901 924.466947 505.051796 924.675981 
L 604.88674 835.414847 
C 604.779943 835.295398 604.673307 835.175807 604.566832 835.056072 
C 604.460357 834.936336 604.354043 834.816458 604.247891 834.696437 
L 503.933809 923.418764 
z
" style="fill:#a1d99b;stroke:#ffffff;stroke-linejoin:miter;"/>
   </g>
   <g id="patch_66">
    <path d="M 505.051796 924.675981 
C 505.61248 925.303085 506.175695 925.927921 506.741426 926.550476 
C 507.307157 927.17303 507.8754 927.793298 508.44614 928.411263 
L 606.826366 837.549293 
C 606.500228 837.19617 606.175518 836.841732 605.852244 836.485986 
C 605.528969 836.130241 605.207132 835.773191 604.88674 835.414847 
L 505.051796 924.675981 
z
" style="fill:#a1d99b;stroke:#ffffff;stroke-linejoin:miter;"/>
   </g>
   <g id="patch_67">
    <path d="M 508.44614 928.411263 
C 510.15838 930.26518 511.893015 932.098286 513.649665 933.910178 
C 515.406315 935.72207 517.18485 937.512615 518.984879 939.281419 
L 612.848502 843.760811 
C 611.819914 842.750066 610.803608 841.726897 609.799809 840.69153 
C 608.796009 839.656163 607.804788 838.608674 606.826366 837.549293 
L 508.44614 928.411263 
z
" style="fill:#a1d99b;stroke:#ffffff;stroke-linejoin:miter;"/>
   </g>
   <g id="patch_68">
    <path d="M 518.984879 939.281419 
C 519.184879 939.47795 519.385145 939.674213 519.585674 939.870205 
C 519.786203 940.066197 519.986996 940.261919 520.188052 940.457371 
L 613.53603 844.432784 
C 613.42114 844.321097 613.306402 844.209256 613.191814 844.09726 
C 613.077225 843.985264 612.962788 843.873115 612.848502 843.760811 
L 518.984879 939.281419 
z
" style="fill:#a1d99b;stroke:#ffffff;stroke-linejoin:miter;"/>
   </g>
   <g id="patch_69">
    <path d="M 520.188052 940.457371 
C 521.997578 942.216458 523.828347 943.953559 525.679958 945.668293 
C 527.531568 947.383026 529.403883 949.075265 531.296491 950.744639 
L 619.883709 850.311222 
C 618.802219 849.357295 617.732325 848.390301 616.674262 847.410453 
C 615.616198 846.430605 614.570044 845.437976 613.53603 844.432784 
L 520.188052 940.457371 
z
" style="fill:#a1d99b;stroke:#ffffff;stroke-linejoin:miter;"/>
   </g>
   <g id="patch_70">
    <path d="M 531.296491 950.744639 
C 531.927353 951.30109 532.56046 951.854992 533.195796 952.406331 
C 533.831131 952.95767 534.468691 953.506441 535.108458 954.05263 
L 622.061976 852.201503 
C 621.696395 851.889395 621.332075 851.575811 620.969026 851.260761 
C 620.605977 850.94571 620.244202 850.629194 619.883709 850.311222 
L 531.296491 950.744639 
z
" style="fill:#a1d99b;stroke:#ffffff;stroke-linejoin:miter;"/>
   </g>
   <g id="patch_71">
    <path d="M 535.108458 954.05263 
C 536.17474 954.962949 537.247137 955.866081 538.325575 956.761965 
C 539.404013 957.657849 540.488468 958.546465 541.578866 959.427753 
L 625.759352 855.273002 
C 625.136267 854.769409 624.516579 854.261628 623.900328 853.749694 
C 623.284078 853.237761 622.67128 852.721685 622.061976 852.201503 
L 535.108458 954.05263 
z
" style="fill:#a1d99b;stroke:#ffffff;stroke-linejoin:miter;"/>
   </g>
   <g id="patch_72">
    <path d="M 541.578866 959.427753 
C 543.759688 961.190348 545.964137 962.923509 548.191612 964.626764 
C 550.419088 966.330019 552.669389 968.003215 554.941904 969.645896 
L 633.395374 861.111941 
C 632.096794 860.173266 630.810907 859.217154 629.538064 858.243865 
C 628.265221 857.270576 627.005536 856.280199 625.759352 855.273002 
L 541.578866 959.427753 
z
" style="fill:#c7e9c0;stroke:#ffffff;stroke-linejoin:miter;"/>
   </g>
   <g id="patch_73">
    <path d="M 554.941904 969.645896 
C 555.623649 970.138694 556.307381 970.628736 556.993084 971.116012 
C 557.678787 971.603288 558.366454 972.087792 559.05607 972.569515 
L 635.746326 862.78258 
C 635.352259 862.50731 634.959307 862.23045 634.567476 861.952007 
C 634.175646 861.673564 633.784942 861.393539 633.395374 861.111941 
L 554.941904 969.645896 
z
" style="fill:#756bb1;stroke:#ffffff;stroke-linejoin:miter;"/>
   </g>
   <g id="patch_74">
    <path d="M 559.05607 972.569515 
C 561.584703 974.335859 564.139351 976.064666 566.719173 977.755369 
C 569.298996 979.446071 571.90371 981.098483 574.532459 982.712061 
L 644.589977 868.57832 
C 643.087834 867.656276 641.599426 866.712041 640.125242 865.745925 
C 638.651058 864.779809 637.191259 863.791919 635.746326 862.78258 
L 559.05607 972.569515 
z
" style="fill:#756bb1;stroke:#ffffff;stroke-linejoin:miter;"/>
   </g>
   <g id="patch_75">
    <path d="M 574.532459 982.712061 
C 578.356173 985.059131 582.229992 987.323577 586.151222 989.503825 
C 590.072452 991.684072 594.040183 993.779616 598.051656 995.788997 
L 658.029518 876.050855 
C 655.737248 874.902637 653.469973 873.705184 651.22927 872.459328 
C 648.988567 871.213473 646.774956 869.919503 644.589977 868.57832 
L 574.532459 982.712061 
z
" style="fill:#756bb1;stroke:#ffffff;stroke-linejoin:miter;"/>
   </g>
   <g id="patch_76">
    <path d="M 598.051656 995.788997 
C 603.567621 998.551991 609.164201 1001.151027 614.834036 1003.582687 
C 620.503871 1006.014347 626.244475 1008.277565 632.0483 1010.369365 
L 677.456171 884.382494 
C 674.1397 883.18718 670.859355 881.893913 667.619449 880.504393 
C 664.379543 879.114872 661.181498 877.629709 658.029518 876.050855 
L 598.051656 995.788997 
z
" style="fill:#756bb1;stroke:#ffffff;stroke-linejoin:miter;"/>
   </g>
   <g id="patch_77">
    <path d="M 632.0483 1010.369365 
C 634.686249 1011.320128 637.336876 1012.23534 639.999461 1013.114753 
C 642.662046 1013.994166 645.336348 1014.8377 648.021639 1015.645125 
L 686.583794 887.397214 
C 685.049341 886.935828 683.521169 886.453809 681.999692 885.951288 
C 680.478215 885.448766 678.963571 884.925787 677.456171 884.382494 
L 632.0483 1010.369365 
z
" style="fill:#756bb1;stroke:#ffffff;stroke-linejoin:miter;"/>
   </g>
   <g id="patch_78">
    <path d="M 648.021639 1015.645125 
C 650.975469 1016.533296 653.942287 1017.377682 656.921119 1018.178007 
C 659.899951 1018.978331 662.890469 1019.734506 665.891691 1020.446283 
L 696.795252 890.140733 
C 695.080268 889.734004 693.371401 889.301904 691.669211 888.844575 
C 689.967021 888.387247 688.271696 887.904741 686.583794 887.397214 
L 648.021639 1015.645125 
z
" style="fill:#756bb1;stroke:#ffffff;stroke-linejoin:miter;"/>
   </g>
   <g id="patch_79">
    <path d="M 665.891691 1020.446283 
C 669.984331 1021.416903 674.09615 1022.304789 678.224637 1023.109401 
C 682.353123 1023.914012 686.497435 1024.635183 690.655038 1025.272474 
L 710.945736 892.898556 
C 708.569963 892.53439 706.201785 892.122292 703.84265 891.662515 
C 701.483515 891.202737 699.133903 890.695373 696.795252 890.140733 
L 665.891691 1020.446283 
z
" style="fill:#756bb1;stroke:#ffffff;stroke-linejoin:miter;"/>
   </g>
   <g id="patch_80">
    <path d="M 690.655038 1025.272474 
C 693.703898 1025.739813 696.759512 1026.161984 699.820873 1026.538847 
C 702.882234 1026.915711 705.949007 1027.247226 709.020184 1027.533284 
L 721.440105 894.190448 
C 719.685147 894.026987 717.932705 893.837549 716.183356 893.622198 
C 714.434007 893.406848 712.687942 893.165607 710.945736 892.898556 
L 690.655038 1025.272474 
z
" style="fill:#756bb1;stroke:#ffffff;stroke-linejoin:miter;"/>
   </g>
   <g id="patch_81">
    <path d="M 709.020184 1027.533284 
C 715.721394 1028.157454 722.441021 1028.564963 729.168548 1028.755176 
C 735.896076 1028.945388 742.627993 1028.918204 749.353764 1028.673666 
L 744.487865 894.842095 
C 740.644567 894.981831 736.797758 894.997365 732.953456 894.888672 
C 729.109155 894.779979 725.269368 894.547116 721.440105 894.190448 
L 709.020184 1027.533284 
z
" style="fill:#756bb1;stroke:#ffffff;stroke-linejoin:miter;"/>
   </g>
   <g id="patch_82">
    <path d="M 749.353764 1028.673666 
C 751.595515 1028.59216 753.836323 1028.486516 756.075799 1028.356753 
C 758.315274 1028.226991 760.553288 1028.073117 762.78945 1027.895158 
L 752.1654 894.397233 
C 750.887593 894.498924 749.608728 894.586852 748.329028 894.661002 
C 747.049328 894.735152 745.768866 894.79552 744.487865 894.842095 
L 749.353764 1028.673666 
z
" style="fill:#9e9ac8;stroke:#ffffff;stroke-linejoin:miter;"/>
   </g>
   <g id="patch_83">
    <path d="M 762.78945 1027.895158 
C 763.628003 1027.828424 764.466284 1027.758305 765.304272 1027.684801 
C 766.142259 1027.611297 766.979946 1027.534409 767.817313 1027.45414 
L 755.038465 894.145223 
C 754.559969 894.191091 754.081291 894.235027 753.602441 894.277029 
C 753.123591 894.319031 752.644573 894.3591 752.1654 894.397233 
L 762.78945 1027.895158 
z
" style="fill:#9e9ac8;stroke:#ffffff;stroke-linejoin:miter;"/>
   </g>
   <g id="patch_84">
    <path d="M 767.817313 1027.45414 
C 769.492053 1027.293602 771.165469 1027.11954 772.837397 1026.931973 
C 774.509326 1026.744406 776.179712 1026.543339 777.848393 1026.328792 
L 760.77051 893.502167 
C 759.816978 893.624765 758.862472 893.73966 757.907084 893.846842 
C 756.951696 893.954023 755.995459 894.053487 755.038465 894.145223 
L 767.817313 1027.45414 
z
" style="fill:#9e9ac8;stroke:#ffffff;stroke-linejoin:miter;"/>
   </g>
   <g id="patch_85">
    <path d="M 777.848393 1026.328792 
C 785.358243 1025.36323 792.830517 1024.125031 800.250418 1022.616648 
C 807.67032 1021.108266 815.032946 1019.330695 822.323716 1017.287456 
L 786.184981 888.335689 
C 782.018826 889.503254 777.811611 890.519009 773.571668 891.380942 
C 769.331724 892.242875 765.061853 892.950417 760.77051 893.502167 
L 777.848393 1026.328792 
z
" style="fill:#9e9ac8;stroke:#ffffff;stroke-linejoin:miter;"/>
   </g>
   <g id="patch_86">
    <path d="M 822.323716 1017.287456 
C 834.207135 1013.957128 845.882831 1009.925726 857.289431 1005.214442 
C 868.696032 1000.503158 879.813517 995.12026 890.58345 989.094043 
L 825.190543 872.225168 
C 819.036296 875.66872 812.683447 878.744662 806.165389 881.436824 
C 799.647332 884.128986 792.975506 886.432644 786.184981 888.335689 
L 822.323716 1017.287456 
z
" style="fill:#bcbddc;stroke:#ffffff;stroke-linejoin:miter;"/>
   </g>
   <g id="patch_87">
    <path d="M 890.58345 989.094043 
C 894.25407 987.040182 897.882847 984.912416 901.467561 982.712048 
C 905.052276 980.51168 908.592198 978.239157 912.085163 975.89587 
L 837.477236 864.683354 
C 835.481256 866.022376 833.458443 867.32096 831.410035 868.578313 
C 829.361627 869.835666 827.28804 871.051532 825.190543 872.225168 
L 890.58345 989.094043 
z
" style="fill:#bcbddc;stroke:#ffffff;stroke-linejoin:miter;"/>
   </g>
   <g id="patch_88">
    <path d="M 912.085163 975.89587 
C 913.71517 974.802365 915.334838 973.693526 916.94395 972.569501 
C 918.553063 971.445475 920.151549 970.306314 921.739196 969.152168 
L 842.993826 860.82981 
C 842.086599 861.489322 841.173179 862.140272 840.253686 862.782572 
C 839.334193 863.424872 838.408668 864.058494 837.477236 864.683354 
L 912.085163 975.89587 
z
" style="fill:#bcbddc;stroke:#ffffff;stroke-linejoin:miter;"/>
   </g>
   <g id="patch_89">
    <path d="M 921.739196 969.152168 
C 922.419612 968.657537 923.098028 968.16016 923.774427 967.66005 
C 924.450826 967.15994 925.125203 966.657101 925.797541 966.151544 
L 845.312881 859.115168 
C 844.928687 859.404058 844.543329 859.691394 844.156815 859.977171 
C 843.770302 860.262949 843.382635 860.547164 842.993826 860.82981 
L 921.739196 969.152168 
z
" style="fill:#bcbddc;stroke:#ffffff;stroke-linejoin:miter;"/>
   </g>
   <g id="patch_90">
    <path d="M 925.797541 966.151544 
C 926.918108 965.308949 928.032991 964.458821 929.142114 963.601219 
C 930.251238 962.743617 931.354578 961.87856 932.452058 961.006107 
L 849.115462 856.174918 
C 848.48833 856.673463 847.85785 857.167781 847.224065 857.657839 
C 846.59028 858.147898 845.953204 858.633685 845.312881 859.115168 
L 925.797541 966.151544 
z
" style="fill:#bcbddc;stroke:#ffffff;stroke-linejoin:miter;"/>
   </g>
   <g id="patch_91">
    <path d="M 932.452058 961.006107 
C 944.529806 951.404781 955.879868 940.922095 966.409075 929.644096 
C 976.938283 918.366098 986.617747 906.323731 995.368012 893.615848 
L 885.067436 817.666199 
C 880.067284 824.927847 874.536162 831.809199 868.519472 838.253769 
C 862.502782 844.69834 856.017032 850.688446 849.115462 856.174918 
L 932.452058 961.006107 
z
" style="fill:#bcbddc;stroke:#ffffff;stroke-linejoin:miter;"/>
   </g>
   <g id="patch_92">
    <path d="M 995.368012 893.615848 
C 999.025836 888.303643 1002.518314 882.879462 1005.840426 877.351101 
C 1009.162537 871.82274 1012.31269 866.192849 1015.286358 860.469519 
L 896.449347 798.725439 
C 894.750109 801.995914 892.950021 805.212994 891.051672 808.372058 
C 889.153322 811.531121 887.157621 814.630653 885.067436 817.666199 
L 995.368012 893.615848 
z
" style="fill:#bcbddc;stroke:#ffffff;stroke-linejoin:miter;"/>
   </g>
   <g id="patch_93">
    <path d="M 1015.286358 860.469519 
C 1022.011638 847.52557 1027.822321 834.12658 1032.675765 820.37088 
C 1037.529209 806.61518 1041.413511 792.536502 1044.300166 778.238165 
L 913.028666 751.736094 
C 911.379149 759.906572 909.159548 767.951531 906.386152 775.811931 
C 903.612755 783.672331 900.292365 791.328897 896.449347 798.725439 
L 1015.286358 860.469519 
z
" style="fill:#bcbddc;stroke:#ffffff;stroke-linejoin:miter;"/>
   </g>
   <g id="patch_94">
    <path d="M 1044.300166 778.238165 
C 1044.96606 774.939823 1045.578634 771.63094 1046.137648 768.312812 
C 1046.696663 764.994683 1047.202045 761.667742 1047.653596 758.333289 
L 914.944912 740.361879 
C 914.686883 742.267281 914.398093 744.16839 914.078656 746.064464 
C 913.759219 747.960537 913.409177 749.851327 913.028666 751.736094 
L 1044.300166 778.238165 
z
" style="fill:#bcbddc;stroke:#ffffff;stroke-linejoin:miter;"/>
   </g>
   <g id="patch_95">
    <path d="M 1047.653596 758.333289 
C 1048.218043 754.165172 1048.698274 749.986083 1049.093996 745.798577 
C 1049.489717 741.611071 1049.80085 737.416003 1050.027202 733.215935 
L 916.301258 726.009106 
C 916.171914 728.409144 915.994124 730.806327 915.767997 733.199187 
C 915.541871 735.592047 915.267453 737.980098 914.944912 740.361879 
L 1047.653596 758.333289 
z
" style="fill:#bcbddc;stroke:#ffffff;stroke-linejoin:miter;"/>
   </g>
   <g id="patch_96">
    <path d="M 1050.027202 733.215935 
C 1050.178101 730.415943 1050.291304 727.614047 1050.36678 724.811008 
C 1050.442257 722.007968 1050.48 719.20404 1050.48 716.399985 
L 916.56 716.399991 
C 916.56 718.002309 916.538432 719.604553 916.495303 721.20629 
C 916.452173 722.808027 916.387486 724.40911 916.301258 726.009106 
L 1050.027202 733.215935 
z
" style="fill:#bcbddc;stroke:#ffffff;stroke-linejoin:miter;"/>
   </g>
   <g id="matplotlib.axis_1"/>
   <g id="matplotlib.axis_2"/>
   <g id="text_1">
    <!-- 1 -->
    <g transform="translate(1085.245031 709.300868)scale(0.3 -0.3)">
     <defs>
      <path d="M 12.40625 8.296875 
L 28.515625 8.296875 
L 28.515625 63.921875 
L 10.984375 60.40625 
L 10.984375 69.390625 
L 28.421875 72.90625 
L 38.28125 72.90625 
L 38.28125 8.296875 
L 54.390625 8.296875 
L 54.390625 0 
L 12.40625 0 
z
" id="DejaVuSans-49"/>
     </defs>
     <use xlink:href="#DejaVuSans-49"/>
    </g>
   </g>
   <g id="text_2">
    <!-- 3 -->
    <g transform="translate(1081.525872 671.04477)scale(0.3 -0.3)">
     <defs>
      <path d="M 40.578125 39.3125 
Q 47.65625 37.796875 51.625 33 
Q 55.609375 28.21875 55.609375 21.1875 
Q 55.609375 10.40625 48.1875 4.484375 
Q 40.765625 -1.421875 27.09375 -1.421875 
Q 22.515625 -1.421875 17.65625 -0.515625 
Q 12.796875 0.390625 7.625 2.203125 
L 7.625 11.71875 
Q 11.71875 9.328125 16.59375 8.109375 
Q 21.484375 6.890625 26.8125 6.890625 
Q 36.078125 6.890625 40.9375 10.546875 
Q 45.796875 14.203125 45.796875 21.1875 
Q 45.796875 27.640625 41.28125 31.265625 
Q 36.765625 34.90625 28.71875 34.90625 
L 20.21875 34.90625 
L 20.21875 43.015625 
L 29.109375 43.015625 
Q 36.375 43.015625 40.234375 45.921875 
Q 44.09375 48.828125 44.09375 54.296875 
Q 44.09375 59.90625 40.109375 62.90625 
Q 36.140625 65.921875 28.71875 65.921875 
Q 24.65625 65.921875 20.015625 65.03125 
Q 15.375 64.15625 9.8125 62.3125 
L 9.8125 71.09375 
Q 15.4375 72.65625 20.34375 73.4375 
Q 25.25 74.21875 29.59375 74.21875 
Q 40.828125 74.21875 47.359375 69.109375 
Q 53.90625 64.015625 53.90625 55.328125 
Q 53.90625 49.265625 50.4375 45.09375 
Q 46.96875 40.921875 40.578125 39.3125 
z
" id="DejaVuSans-51"/>
     </defs>
     <use xlink:href="#DejaVuSans-51"/>
    </g>
   </g>
   <g id="text_3">
    <!-- 5 -->
    <g transform="translate(1066.177185 608.57789)scale(0.3 -0.3)">
     <defs>
      <path d="M 10.796875 72.90625 
L 49.515625 72.90625 
L 49.515625 64.59375 
L 19.828125 64.59375 
L 19.828125 46.734375 
Q 21.96875 47.46875 24.109375 47.828125 
Q 26.265625 48.1875 28.421875 48.1875 
Q 40.625 48.1875 47.75 41.5 
Q 54.890625 34.8125 54.890625 23.390625 
Q 54.890625 11.625 47.5625 5.09375 
Q 40.234375 -1.421875 26.90625 -1.421875 
Q 22.3125 -1.421875 17.546875 -0.640625 
Q 12.796875 0.140625 7.71875 1.703125 
L 7.71875 11.625 
Q 12.109375 9.234375 16.796875 8.0625 
Q 21.484375 6.890625 26.703125 6.890625 
Q 35.15625 6.890625 40.078125 11.328125 
Q 45.015625 15.765625 45.015625 23.390625 
Q 45.015625 31 40.078125 35.4375 
Q 35.15625 39.890625 26.703125 39.890625 
Q 22.75 39.890625 18.8125 39.015625 
Q 14.890625 38.140625 10.796875 36.28125 
z
" id="DejaVuSans-53"/>
     </defs>
     <use xlink:href="#DejaVuSans-53"/>
    </g>
   </g>
   <g id="text_4">
    <!-- 7 -->
    <g transform="translate(1021.496407 520.565017)scale(0.3 -0.3)">
     <defs>
      <path d="M 8.203125 72.90625 
L 55.078125 72.90625 
L 55.078125 68.703125 
L 28.609375 0 
L 18.3125 0 
L 43.21875 64.59375 
L 8.203125 64.59375 
z
" id="DejaVuSans-55"/>
     </defs>
     <use xlink:href="#DejaVuSans-55"/>
    </g>
   </g>
   <g id="text_5">
    <!-- 5 -->
    <g transform="translate(945.380128 440.990399)scale(0.3 -0.3)">
     <use xlink:href="#DejaVuSans-53"/>
    </g>
   </g>
   <g id="text_6">
    <!-- 1 -->
    <g transform="translate(878.873235 400.78088)scale(0.3 -0.3)">
     <use xlink:href="#DejaVuSans-49"/>
    </g>
   </g>
   <g id="text_7">
    <!-- 5 -->
    <g transform="translate(797.714333 374.338272)scale(0.3 -0.3)">
     <use xlink:href="#DejaVuSans-53"/>
    </g>
   </g>
   <g id="text_8">
    <!-- 3 -->
    <g transform="translate(690.553425 369.575224)scale(0.3 -0.3)">
     <use xlink:href="#DejaVuSans-51"/>
    </g>
   </g>
   <g id="text_9">
    <!-- 10 -->
    <g transform="translate(384.439002 599.529518)scale(0.3 -0.3)">
     <defs>
      <path d="M 31.78125 66.40625 
Q 24.171875 66.40625 20.328125 58.90625 
Q 16.5 51.421875 16.5 36.375 
Q 16.5 21.390625 20.328125 13.890625 
Q 24.171875 6.390625 31.78125 6.390625 
Q 39.453125 6.390625 43.28125 13.890625 
Q 47.125 21.390625 47.125 36.375 
Q 47.125 51.421875 43.28125 58.90625 
Q 39.453125 66.40625 31.78125 66.40625 
z
M 31.78125 74.21875 
Q 44.046875 74.21875 50.515625 64.515625 
Q 56.984375 54.828125 56.984375 36.375 
Q 56.984375 17.96875 50.515625 8.265625 
Q 44.046875 -1.421875 31.78125 -1.421875 
Q 19.53125 -1.421875 13.0625 8.265625 
Q 6.59375 17.96875 6.59375 36.375 
Q 6.59375 54.828125 13.0625 64.515625 
Q 19.53125 74.21875 31.78125 74.21875 
z
" id="DejaVuSans-48"/>
     </defs>
     <use xlink:href="#DejaVuSans-49"/>
     <use x="63.623047" xlink:href="#DejaVuSans-48"/>
    </g>
   </g>
   <g id="text_10">
    <!-- 13 -->
    <g transform="translate(455.913895 966.269574)scale(0.3 -0.3)">
     <use xlink:href="#DejaVuSans-49"/>
     <use x="63.623047" xlink:href="#DejaVuSans-51"/>
    </g>
   </g>
   <g id="text_11">
    <!-- 1 -->
    <g transform="translate(511.532362 1008.365843)scale(0.3 -0.3)">
     <use xlink:href="#DejaVuSans-49"/>
    </g>
   </g>
   <g id="text_12">
    <!-- 9 -->
    <g transform="translate(624.703535 1066.394482)scale(0.3 -0.3)">
     <defs>
      <path d="M 10.984375 1.515625 
L 10.984375 10.5 
Q 14.703125 8.734375 18.5 7.8125 
Q 22.3125 6.890625 25.984375 6.890625 
Q 35.75 6.890625 40.890625 13.453125 
Q 46.046875 20.015625 46.78125 33.40625 
Q 43.953125 29.203125 39.59375 26.953125 
Q 35.25 24.703125 29.984375 24.703125 
Q 19.046875 24.703125 12.671875 31.3125 
Q 6.296875 37.9375 6.296875 49.421875 
Q 6.296875 60.640625 12.9375 67.421875 
Q 19.578125 74.21875 30.609375 74.21875 
Q 43.265625 74.21875 49.921875 64.515625 
Q 56.59375 54.828125 56.59375 36.375 
Q 56.59375 19.140625 48.40625 8.859375 
Q 40.234375 -1.421875 26.421875 -1.421875 
Q 22.703125 -1.421875 18.890625 -0.6875 
Q 15.09375 0.046875 10.984375 1.515625 
z
M 30.609375 32.421875 
Q 37.25 32.421875 41.125 36.953125 
Q 45.015625 41.5 45.015625 49.421875 
Q 45.015625 57.28125 41.125 61.84375 
Q 37.25 66.40625 30.609375 66.40625 
Q 23.96875 66.40625 20.09375 61.84375 
Q 16.21875 57.28125 16.21875 49.421875 
Q 16.21875 41.5 20.09375 36.953125 
Q 23.96875 32.421875 30.609375 32.421875 
z
" id="DejaVuSans-57"/>
     </defs>
     <use xlink:href="#DejaVuSans-57"/>
    </g>
   </g>
   <g id="text_13">
    <!-- 4 -->
    <g transform="translate(783.514871 1077.528295)scale(0.3 -0.3)">
     <defs>
      <path d="M 37.796875 64.3125 
L 12.890625 25.390625 
L 37.796875 25.390625 
z
M 35.203125 72.90625 
L 47.609375 72.90625 
L 47.609375 25.390625 
L 58.015625 25.390625 
L 58.015625 17.1875 
L 47.609375 17.1875 
L 47.609375 0 
L 37.796875 0 
L 37.796875 17.1875 
L 4.890625 17.1875 
L 4.890625 26.703125 
z
" id="DejaVuSans-52"/>
     </defs>
     <use xlink:href="#DejaVuSans-52"/>
    </g>
   </g>
   <g id="text_14">
    <!-- 11 -->
    <g transform="translate(1003.473853 940.454701)scale(0.3 -0.3)">
     <use xlink:href="#DejaVuSans-49"/>
     <use x="63.623047" xlink:href="#DejaVuSans-49"/>
    </g>
   </g>
  </g>
 </g>
</svg>
