<?xml version="1.0" encoding="utf-8" standalone="no"?>
<!DOCTYPE svg PUBLIC "-//W3C//DTD SVG 1.1//EN"
  "http://www.w3.org/Graphics/SVG/1.1/DTD/svg11.dtd">
<!-- Created with matplotlib (https://matplotlib.org/) -->
<svg height="504pt" version="1.1" viewBox="0 0 1080 504" width="1080pt" xmlns="http://www.w3.org/2000/svg" xmlns:xlink="http://www.w3.org/1999/xlink">
 <metadata>
  <rdf:RDF xmlns:cc="http://creativecommons.org/ns#" xmlns:dc="http://purl.org/dc/elements/1.1/" xmlns:rdf="http://www.w3.org/1999/02/22-rdf-syntax-ns#">
   <cc:Work>
    <dc:type rdf:resource="http://purl.org/dc/dcmitype/StillImage"/>
    <dc:date>2021-04-27T15:43:10.718535</dc:date>
    <dc:format>image/svg+xml</dc:format>
    <dc:creator>
     <cc:Agent>
      <dc:title>Matplotlib v3.3.1, https://matplotlib.org/</dc:title>
     </cc:Agent>
    </dc:creator>
   </cc:Work>
  </rdf:RDF>
 </metadata>
 <defs>
  <style type="text/css">*{stroke-linecap:butt;stroke-linejoin:round;}</style>
 </defs>
 <g id="figure_1">
  <g id="patch_1">
   <path d="M 0 504 
L 1080 504 
L 1080 0 
L 0 0 
z
" style="fill:none;"/>
  </g>
  <g id="axes_1">
   <g id="patch_2">
    <path d="M 135 441 
L 972 441 
L 972 60.48 
L 135 60.48 
z
" style="fill:none;"/>
   </g>
   <g id="patch_3">
    <path clip-path="url(#p78a9d5bdfd)" d="M 141.2 298.457209 
L 149.466667 298.457209 
L 149.466667 423.703636 
L 141.2 423.703636 
z
" style="fill:#1f77b4;"/>
   </g>
   <g id="patch_4">
    <path clip-path="url(#p78a9d5bdfd)" d="M 151.533333 298.457209 
L 159.8 298.457209 
L 159.8 417.477604 
L 151.533333 417.477604 
z
" style="fill:#1f77b4;"/>
   </g>
   <g id="patch_5">
    <path clip-path="url(#p78a9d5bdfd)" d="M 161.866667 298.457209 
L 170.133333 298.457209 
L 170.133333 408.311686 
L 161.866667 408.311686 
z
" style="fill:#1f77b4;"/>
   </g>
   <g id="patch_6">
    <path clip-path="url(#p78a9d5bdfd)" d="M 172.2 298.457209 
L 180.466667 298.457209 
L 180.466667 401.070891 
L 172.2 401.070891 
z
" style="fill:#1f77b4;"/>
   </g>
   <g id="patch_7">
    <path clip-path="url(#p78a9d5bdfd)" d="M 182.533333 298.457209 
L 190.8 298.457209 
L 190.8 396.722497 
L 182.533333 396.722497 
z
" style="fill:#1f77b4;"/>
   </g>
   <g id="patch_8">
    <path clip-path="url(#p78a9d5bdfd)" d="M 192.866667 298.457209 
L 201.133333 298.457209 
L 201.133333 376.401091 
L 192.866667 376.401091 
z
" style="fill:#1f77b4;"/>
   </g>
   <g id="patch_9">
    <path clip-path="url(#p78a9d5bdfd)" d="M 203.2 298.457209 
L 211.466667 298.457209 
L 211.466667 367.068449 
L 203.2 367.068449 
z
" style="fill:#1f77b4;"/>
   </g>
   <g id="patch_10">
    <path clip-path="url(#p78a9d5bdfd)" d="M 213.533333 298.457209 
L 221.8 298.457209 
L 221.8 364.806264 
L 213.533333 364.806264 
z
" style="fill:#1f77b4;"/>
   </g>
   <g id="patch_11">
    <path clip-path="url(#p78a9d5bdfd)" d="M 223.866667 298.457209 
L 232.133333 298.457209 
L 232.133333 362.231675 
L 223.866667 362.231675 
z
" style="fill:#1f77b4;"/>
   </g>
   <g id="patch_12">
    <path clip-path="url(#p78a9d5bdfd)" d="M 234.2 298.457209 
L 242.466667 298.457209 
L 242.466667 358.337068 
L 234.2 358.337068 
z
" style="fill:#1f77b4;"/>
   </g>
   <g id="patch_13">
    <path clip-path="url(#p78a9d5bdfd)" d="M 244.533333 298.457209 
L 252.8 298.457209 
L 252.8 335.635187 
L 244.533333 335.635187 
z
" style="fill:#1f77b4;"/>
   </g>
   <g id="patch_14">
    <path clip-path="url(#p78a9d5bdfd)" d="M 254.866667 298.457209 
L 263.133333 298.457209 
L 263.133333 333.023262 
L 254.866667 333.023262 
z
" style="fill:#1f77b4;"/>
   </g>
   <g id="patch_15">
    <path clip-path="url(#p78a9d5bdfd)" d="M 265.2 298.457209 
L 273.466667 298.457209 
L 273.466667 329.773045 
L 265.2 329.773045 
z
" style="fill:#1f77b4;"/>
   </g>
   <g id="patch_16">
    <path clip-path="url(#p78a9d5bdfd)" d="M 275.533333 298.457209 
L 283.8 298.457209 
L 283.8 329.029817 
L 275.533333 329.029817 
z
" style="fill:#1f77b4;"/>
   </g>
   <g id="patch_17">
    <path clip-path="url(#p78a9d5bdfd)" d="M 285.866667 298.457209 
L 294.133333 298.457209 
L 294.133333 327.445053 
L 285.866667 327.445053 
z
" style="fill:#1f77b4;"/>
   </g>
   <g id="patch_18">
    <path clip-path="url(#p78a9d5bdfd)" d="M 296.2 298.457209 
L 304.466667 298.457209 
L 304.466667 323.417662 
L 296.2 323.417662 
z
" style="fill:#1f77b4;"/>
   </g>
   <g id="patch_19">
    <path clip-path="url(#p78a9d5bdfd)" d="M 306.533333 298.457209 
L 314.8 298.457209 
L 314.8 323.158771 
L 306.533333 323.158771 
z
" style="fill:#1f77b4;"/>
   </g>
   <g id="patch_20">
    <path clip-path="url(#p78a9d5bdfd)" d="M 316.866667 298.457209 
L 325.133333 298.457209 
L 325.133333 321.172401 
L 316.866667 321.172401 
z
" style="fill:#1f77b4;"/>
   </g>
   <g id="patch_21">
    <path clip-path="url(#p78a9d5bdfd)" d="M 327.2 298.457209 
L 335.466667 298.457209 
L 335.466667 318.211596 
L 327.2 318.211596 
z
" style="fill:#1f77b4;"/>
   </g>
   <g id="patch_22">
    <path clip-path="url(#p78a9d5bdfd)" d="M 337.533333 298.457209 
L 345.8 298.457209 
L 345.8 316.827883 
L 337.533333 316.827883 
z
" style="fill:#1f77b4;"/>
   </g>
   <g id="patch_23">
    <path clip-path="url(#p78a9d5bdfd)" d="M 347.866667 298.457209 
L 356.133333 298.457209 
L 356.133333 314.353988 
L 347.866667 314.353988 
z
" style="fill:#1f77b4;"/>
   </g>
   <g id="patch_24">
    <path clip-path="url(#p78a9d5bdfd)" d="M 358.2 298.457209 
L 366.466667 298.457209 
L 366.466667 311.023933 
L 358.2 311.023933 
z
" style="fill:#1f77b4;"/>
   </g>
   <g id="patch_25">
    <path clip-path="url(#p78a9d5bdfd)" d="M 368.533333 298.457209 
L 376.8 298.457209 
L 376.8 309.280762 
L 368.533333 309.280762 
z
" style="fill:#1f77b4;"/>
   </g>
   <g id="patch_26">
    <path clip-path="url(#p78a9d5bdfd)" d="M 378.866667 298.457209 
L 387.133333 298.457209 
L 387.133333 307.846495 
L 378.866667 307.846495 
z
" style="fill:#1f77b4;"/>
   </g>
   <g id="patch_27">
    <path clip-path="url(#p78a9d5bdfd)" d="M 389.2 298.457209 
L 397.466667 298.457209 
L 397.466667 306.429183 
L 389.2 306.429183 
z
" style="fill:#1f77b4;"/>
   </g>
   <g id="patch_28">
    <path clip-path="url(#p78a9d5bdfd)" d="M 399.533333 298.457209 
L 407.8 298.457209 
L 407.8 303.644487 
L 399.533333 303.644487 
z
" style="fill:#1f77b4;"/>
   </g>
   <g id="patch_29">
    <path clip-path="url(#p78a9d5bdfd)" d="M 409.866667 298.457209 
L 418.133333 298.457209 
L 418.133333 303.380742 
L 409.866667 303.380742 
z
" style="fill:#1f77b4;"/>
   </g>
   <g id="patch_30">
    <path clip-path="url(#p78a9d5bdfd)" d="M 420.2 298.457209 
L 428.466667 298.457209 
L 428.466667 300.279315 
L 420.2 300.279315 
z
" style="fill:#1f77b4;"/>
   </g>
   <g id="patch_31">
    <path clip-path="url(#p78a9d5bdfd)" d="M 430.533333 298.457209 
L 438.8 298.457209 
L 438.8 298.86945 
L 430.533333 298.86945 
z
" style="fill:#1f77b4;"/>
   </g>
   <g id="patch_32">
    <path clip-path="url(#p78a9d5bdfd)" d="M 440.866667 298.457209 
L 449.133333 298.457209 
L 449.133333 297.947819 
L 440.866667 297.947819 
z
" style="fill:#1f77b4;"/>
   </g>
   <g id="patch_33">
    <path clip-path="url(#p78a9d5bdfd)" d="M 451.2 298.457209 
L 459.466667 298.457209 
L 459.466667 297.044852 
L 451.2 297.044852 
z
" style="fill:#1f77b4;"/>
   </g>
   <g id="patch_34">
    <path clip-path="url(#p78a9d5bdfd)" d="M 461.533333 298.457209 
L 469.8 298.457209 
L 469.8 295.858182 
L 461.533333 295.858182 
z
" style="fill:#1f77b4;"/>
   </g>
   <g id="patch_35">
    <path clip-path="url(#p78a9d5bdfd)" d="M 471.866667 298.457209 
L 480.133333 298.457209 
L 480.133333 293.247027 
L 471.866667 293.247027 
z
" style="fill:#1f77b4;"/>
   </g>
   <g id="patch_36">
    <path clip-path="url(#p78a9d5bdfd)" d="M 482.2 298.457209 
L 490.466667 298.457209 
L 490.466667 291.954377 
L 482.2 291.954377 
z
" style="fill:#1f77b4;"/>
   </g>
   <g id="patch_37">
    <path clip-path="url(#p78a9d5bdfd)" d="M 492.533333 298.457209 
L 500.8 298.457209 
L 500.8 291.865158 
L 492.533333 291.865158 
z
" style="fill:#1f77b4;"/>
   </g>
   <g id="patch_38">
    <path clip-path="url(#p78a9d5bdfd)" d="M 502.866667 298.457209 
L 511.133333 298.457209 
L 511.133333 287.828898 
L 502.866667 287.828898 
z
" style="fill:#1f77b4;"/>
   </g>
   <g id="patch_39">
    <path clip-path="url(#p78a9d5bdfd)" d="M 513.2 298.457209 
L 521.466667 298.457209 
L 521.466667 287.400924 
L 513.2 287.400924 
z
" style="fill:#1f77b4;"/>
   </g>
   <g id="patch_40">
    <path clip-path="url(#p78a9d5bdfd)" d="M 523.533333 298.457209 
L 531.8 298.457209 
L 531.8 286.976171 
L 523.533333 286.976171 
z
" style="fill:#1f77b4;"/>
   </g>
   <g id="patch_41">
    <path clip-path="url(#p78a9d5bdfd)" d="M 533.866667 298.457209 
L 542.133333 298.457209 
L 542.133333 285.429164 
L 533.866667 285.429164 
z
" style="fill:#1f77b4;"/>
   </g>
   <g id="patch_42">
    <path clip-path="url(#p78a9d5bdfd)" d="M 544.2 298.457209 
L 552.466667 298.457209 
L 552.466667 285.409764 
L 544.2 285.409764 
z
" style="fill:#1f77b4;"/>
   </g>
   <g id="patch_43">
    <path clip-path="url(#p78a9d5bdfd)" d="M 554.533333 298.457209 
L 562.8 298.457209 
L 562.8 284.787431 
L 554.533333 284.787431 
z
" style="fill:#1f77b4;"/>
   </g>
   <g id="patch_44">
    <path clip-path="url(#p78a9d5bdfd)" d="M 564.866667 298.457209 
L 573.133333 298.457209 
L 573.133333 284.758584 
L 564.866667 284.758584 
z
" style="fill:#1f77b4;"/>
   </g>
   <g id="patch_45">
    <path clip-path="url(#p78a9d5bdfd)" d="M 575.2 298.457209 
L 583.466667 298.457209 
L 583.466667 281.670228 
L 575.2 281.670228 
z
" style="fill:#1f77b4;"/>
   </g>
   <g id="patch_46">
    <path clip-path="url(#p78a9d5bdfd)" d="M 585.533333 298.457209 
L 593.8 298.457209 
L 593.8 281.549406 
L 585.533333 281.549406 
z
" style="fill:#1f77b4;"/>
   </g>
   <g id="patch_47">
    <path clip-path="url(#p78a9d5bdfd)" d="M 595.866667 298.457209 
L 604.133333 298.457209 
L 604.133333 281.381846 
L 595.866667 281.381846 
z
" style="fill:#1f77b4;"/>
   </g>
   <g id="patch_48">
    <path clip-path="url(#p78a9d5bdfd)" d="M 606.2 298.457209 
L 614.466667 298.457209 
L 614.466667 281.116158 
L 606.2 281.116158 
z
" style="fill:#1f77b4;"/>
   </g>
   <g id="patch_49">
    <path clip-path="url(#p78a9d5bdfd)" d="M 616.533333 298.457209 
L 624.8 298.457209 
L 624.8 272.371306 
L 616.533333 272.371306 
z
" style="fill:#1f77b4;"/>
   </g>
   <g id="patch_50">
    <path clip-path="url(#p78a9d5bdfd)" d="M 626.866667 298.457209 
L 635.133333 298.457209 
L 635.133333 264.509913 
L 626.866667 264.509913 
z
" style="fill:#1f77b4;"/>
   </g>
   <g id="patch_51">
    <path clip-path="url(#p78a9d5bdfd)" d="M 637.2 298.457209 
L 645.466667 298.457209 
L 645.466667 263.648507 
L 637.2 263.648507 
z
" style="fill:#1f77b4;"/>
   </g>
   <g id="patch_52">
    <path clip-path="url(#p78a9d5bdfd)" d="M 647.533333 298.457209 
L 655.8 298.457209 
L 655.8 263.313205 
L 647.533333 263.313205 
z
" style="fill:#1f77b4;"/>
   </g>
   <g id="patch_53">
    <path clip-path="url(#p78a9d5bdfd)" d="M 657.866667 298.457209 
L 666.133333 298.457209 
L 666.133333 262.786912 
L 657.866667 262.786912 
z
" style="fill:#1f77b4;"/>
   </g>
   <g id="patch_54">
    <path clip-path="url(#p78a9d5bdfd)" d="M 668.2 298.457209 
L 676.466667 298.457209 
L 676.466667 261.768464 
L 668.2 261.768464 
z
" style="fill:#1f77b4;"/>
   </g>
   <g id="patch_55">
    <path clip-path="url(#p78a9d5bdfd)" d="M 678.533333 298.457209 
L 686.8 298.457209 
L 686.8 257.923469 
L 678.533333 257.923469 
z
" style="fill:#1f77b4;"/>
   </g>
   <g id="patch_56">
    <path clip-path="url(#p78a9d5bdfd)" d="M 688.866667 298.457209 
L 697.133333 298.457209 
L 697.133333 257.707396 
L 688.866667 257.707396 
z
" style="fill:#1f77b4;"/>
   </g>
   <g id="patch_57">
    <path clip-path="url(#p78a9d5bdfd)" d="M 699.2 298.457209 
L 707.466667 298.457209 
L 707.466667 248.848863 
L 699.2 248.848863 
z
" style="fill:#1f77b4;"/>
   </g>
   <g id="patch_58">
    <path clip-path="url(#p78a9d5bdfd)" d="M 709.533333 298.457209 
L 717.8 298.457209 
L 717.8 243.580196 
L 709.533333 243.580196 
z
" style="fill:#1f77b4;"/>
   </g>
   <g id="patch_59">
    <path clip-path="url(#p78a9d5bdfd)" d="M 719.866667 298.457209 
L 728.133333 298.457209 
L 728.133333 243.330483 
L 719.866667 243.330483 
z
" style="fill:#1f77b4;"/>
   </g>
   <g id="patch_60">
    <path clip-path="url(#p78a9d5bdfd)" d="M 730.2 298.457209 
L 738.466667 298.457209 
L 738.466667 241.928586 
L 730.2 241.928586 
z
" style="fill:#1f77b4;"/>
   </g>
   <g id="patch_61">
    <path clip-path="url(#p78a9d5bdfd)" d="M 740.533333 298.457209 
L 748.8 298.457209 
L 748.8 240.897305 
L 740.533333 240.897305 
z
" style="fill:#1f77b4;"/>
   </g>
   <g id="patch_62">
    <path clip-path="url(#p78a9d5bdfd)" d="M 750.866667 298.457209 
L 759.133333 298.457209 
L 759.133333 240.028768 
L 750.866667 240.028768 
z
" style="fill:#1f77b4;"/>
   </g>
   <g id="patch_63">
    <path clip-path="url(#p78a9d5bdfd)" d="M 761.2 298.457209 
L 769.466667 298.457209 
L 769.466667 238.511155 
L 761.2 238.511155 
z
" style="fill:#1f77b4;"/>
   </g>
   <g id="patch_64">
    <path clip-path="url(#p78a9d5bdfd)" d="M 771.533333 298.457209 
L 779.8 298.457209 
L 779.8 237.527662 
L 771.533333 237.527662 
z
" style="fill:#1f77b4;"/>
   </g>
   <g id="patch_65">
    <path clip-path="url(#p78a9d5bdfd)" d="M 781.866667 298.457209 
L 790.133333 298.457209 
L 790.133333 237.482371 
L 781.866667 237.482371 
z
" style="fill:#1f77b4;"/>
   </g>
   <g id="patch_66">
    <path clip-path="url(#p78a9d5bdfd)" d="M 792.2 298.457209 
L 800.466667 298.457209 
L 800.466667 225.201859 
L 792.2 225.201859 
z
" style="fill:#1f77b4;"/>
   </g>
   <g id="patch_67">
    <path clip-path="url(#p78a9d5bdfd)" d="M 802.533333 298.457209 
L 810.8 298.457209 
L 810.8 219.782912 
L 802.533333 219.782912 
z
" style="fill:#1f77b4;"/>
   </g>
   <g id="patch_68">
    <path clip-path="url(#p78a9d5bdfd)" d="M 812.866667 298.457209 
L 821.133333 298.457209 
L 821.133333 214.442743 
L 812.866667 214.442743 
z
" style="fill:#1f77b4;"/>
   </g>
   <g id="patch_69">
    <path clip-path="url(#p78a9d5bdfd)" d="M 823.2 298.457209 
L 831.466667 298.457209 
L 831.466667 208.673939 
L 823.2 208.673939 
z
" style="fill:#1f77b4;"/>
   </g>
   <g id="patch_70">
    <path clip-path="url(#p78a9d5bdfd)" d="M 833.533333 298.457209 
L 841.8 298.457209 
L 841.8 202.359064 
L 833.533333 202.359064 
z
" style="fill:#1f77b4;"/>
   </g>
   <g id="patch_71">
    <path clip-path="url(#p78a9d5bdfd)" d="M 843.866667 298.457209 
L 852.133333 298.457209 
L 852.133333 201.404475 
L 843.866667 201.404475 
z
" style="fill:#1f77b4;"/>
   </g>
   <g id="patch_72">
    <path clip-path="url(#p78a9d5bdfd)" d="M 854.2 298.457209 
L 862.466667 298.457209 
L 862.466667 200.069796 
L 854.2 200.069796 
z
" style="fill:#1f77b4;"/>
   </g>
   <g id="patch_73">
    <path clip-path="url(#p78a9d5bdfd)" d="M 864.533333 298.457209 
L 872.8 298.457209 
L 872.8 199.330405 
L 864.533333 199.330405 
z
" style="fill:#1f77b4;"/>
   </g>
   <g id="patch_74">
    <path clip-path="url(#p78a9d5bdfd)" d="M 874.866667 298.457209 
L 883.133333 298.457209 
L 883.133333 186.26192 
L 874.866667 186.26192 
z
" style="fill:#1f77b4;"/>
   </g>
   <g id="patch_75">
    <path clip-path="url(#p78a9d5bdfd)" d="M 885.2 298.457209 
L 893.466667 298.457209 
L 893.466667 172.353314 
L 885.2 172.353314 
z
" style="fill:#1f77b4;"/>
   </g>
   <g id="patch_76">
    <path clip-path="url(#p78a9d5bdfd)" d="M 895.533333 298.457209 
L 903.8 298.457209 
L 903.8 169.901103 
L 895.533333 169.901103 
z
" style="fill:#1f77b4;"/>
   </g>
   <g id="patch_77">
    <path clip-path="url(#p78a9d5bdfd)" d="M 905.866667 298.457209 
L 914.133333 298.457209 
L 914.133333 161.081771 
L 905.866667 161.081771 
z
" style="fill:#1f77b4;"/>
   </g>
   <g id="patch_78">
    <path clip-path="url(#p78a9d5bdfd)" d="M 916.2 298.457209 
L 924.466667 298.457209 
L 924.466667 151.112351 
L 916.2 151.112351 
z
" style="fill:#1f77b4;"/>
   </g>
   <g id="patch_79">
    <path clip-path="url(#p78a9d5bdfd)" d="M 926.533333 298.457209 
L 934.8 298.457209 
L 934.8 142.075327 
L 926.533333 142.075327 
z
" style="fill:#1f77b4;"/>
   </g>
   <g id="patch_80">
    <path clip-path="url(#p78a9d5bdfd)" d="M 936.866667 298.457209 
L 945.133333 298.457209 
L 945.133333 125.177277 
L 936.866667 125.177277 
z
" style="fill:#1f77b4;"/>
   </g>
   <g id="patch_81">
    <path clip-path="url(#p78a9d5bdfd)" d="M 947.2 298.457209 
L 955.466667 298.457209 
L 955.466667 119.98859 
L 947.2 119.98859 
z
" style="fill:#1f77b4;"/>
   </g>
   <g id="patch_82">
    <path clip-path="url(#p78a9d5bdfd)" d="M 957.533333 298.457209 
L 965.8 298.457209 
L 965.8 77.776364 
L 957.533333 77.776364 
z
" style="fill:#1f77b4;"/>
   </g>
   <g id="patch_83">
    <path clip-path="url(#p78a9d5bdfd)" d="M 141.2 298.457209 
L 149.466667 298.457209 
L 149.466667 423.703636 
L 141.2 423.703636 
z
" style="fill:#add8e6;"/>
   </g>
   <g id="patch_84">
    <path clip-path="url(#p78a9d5bdfd)" d="M 151.533333 298.457209 
L 159.8 298.457209 
L 159.8 417.477604 
L 151.533333 417.477604 
z
" style="fill:#add8e6;"/>
   </g>
   <g id="patch_85">
    <path clip-path="url(#p78a9d5bdfd)" d="M 161.866667 298.457209 
L 170.133333 298.457209 
L 170.133333 408.311686 
L 161.866667 408.311686 
z
" style="fill:#add8e6;"/>
   </g>
   <g id="patch_86">
    <path clip-path="url(#p78a9d5bdfd)" d="M 172.2 298.457209 
L 180.466667 298.457209 
L 180.466667 401.070891 
L 172.2 401.070891 
z
" style="fill:#add8e6;"/>
   </g>
   <g id="patch_87">
    <path clip-path="url(#p78a9d5bdfd)" d="M 182.533333 298.457209 
L 190.8 298.457209 
L 190.8 396.722497 
L 182.533333 396.722497 
z
" style="fill:#add8e6;"/>
   </g>
   <g id="patch_88">
    <path clip-path="url(#p78a9d5bdfd)" d="M 192.866667 298.457209 
L 201.133333 298.457209 
L 201.133333 376.401091 
L 192.866667 376.401091 
z
" style="fill:#add8e6;"/>
   </g>
   <g id="patch_89">
    <path clip-path="url(#p78a9d5bdfd)" d="M 203.2 298.457209 
L 211.466667 298.457209 
L 211.466667 367.068449 
L 203.2 367.068449 
z
" style="fill:#add8e6;"/>
   </g>
   <g id="patch_90">
    <path clip-path="url(#p78a9d5bdfd)" d="M 213.533333 298.457209 
L 221.8 298.457209 
L 221.8 364.806264 
L 213.533333 364.806264 
z
" style="fill:#add8e6;"/>
   </g>
   <g id="patch_91">
    <path clip-path="url(#p78a9d5bdfd)" d="M 223.866667 298.457209 
L 232.133333 298.457209 
L 232.133333 362.231675 
L 223.866667 362.231675 
z
" style="fill:#add8e6;"/>
   </g>
   <g id="patch_92">
    <path clip-path="url(#p78a9d5bdfd)" d="M 234.2 298.457209 
L 242.466667 298.457209 
L 242.466667 358.337068 
L 234.2 358.337068 
z
" style="fill:#add8e6;"/>
   </g>
   <g id="patch_93">
    <path clip-path="url(#p78a9d5bdfd)" d="M 244.533333 298.457209 
L 252.8 298.457209 
L 252.8 335.635187 
L 244.533333 335.635187 
z
" style="fill:#7f7f7f;"/>
   </g>
   <g id="patch_94">
    <path clip-path="url(#p78a9d5bdfd)" d="M 254.866667 298.457209 
L 263.133333 298.457209 
L 263.133333 333.023262 
L 254.866667 333.023262 
z
" style="fill:#7f7f7f;"/>
   </g>
   <g id="patch_95">
    <path clip-path="url(#p78a9d5bdfd)" d="M 265.2 298.457209 
L 273.466667 298.457209 
L 273.466667 329.773045 
L 265.2 329.773045 
z
" style="fill:#7f7f7f;"/>
   </g>
   <g id="patch_96">
    <path clip-path="url(#p78a9d5bdfd)" d="M 275.533333 298.457209 
L 283.8 298.457209 
L 283.8 329.029817 
L 275.533333 329.029817 
z
" style="fill:#7f7f7f;"/>
   </g>
   <g id="patch_97">
    <path clip-path="url(#p78a9d5bdfd)" d="M 285.866667 298.457209 
L 294.133333 298.457209 
L 294.133333 327.445053 
L 285.866667 327.445053 
z
" style="fill:#7f7f7f;"/>
   </g>
   <g id="patch_98">
    <path clip-path="url(#p78a9d5bdfd)" d="M 296.2 298.457209 
L 304.466667 298.457209 
L 304.466667 323.417662 
L 296.2 323.417662 
z
" style="fill:#7f7f7f;"/>
   </g>
   <g id="patch_99">
    <path clip-path="url(#p78a9d5bdfd)" d="M 306.533333 298.457209 
L 314.8 298.457209 
L 314.8 323.158771 
L 306.533333 323.158771 
z
" style="fill:#7f7f7f;"/>
   </g>
   <g id="patch_100">
    <path clip-path="url(#p78a9d5bdfd)" d="M 316.866667 298.457209 
L 325.133333 298.457209 
L 325.133333 321.172401 
L 316.866667 321.172401 
z
" style="fill:#7f7f7f;"/>
   </g>
   <g id="patch_101">
    <path clip-path="url(#p78a9d5bdfd)" d="M 327.2 298.457209 
L 335.466667 298.457209 
L 335.466667 318.211596 
L 327.2 318.211596 
z
" style="fill:#7f7f7f;"/>
   </g>
   <g id="patch_102">
    <path clip-path="url(#p78a9d5bdfd)" d="M 337.533333 298.457209 
L 345.8 298.457209 
L 345.8 316.827883 
L 337.533333 316.827883 
z
" style="fill:#7f7f7f;"/>
   </g>
   <g id="patch_103">
    <path clip-path="url(#p78a9d5bdfd)" d="M 347.866667 298.457209 
L 356.133333 298.457209 
L 356.133333 314.353988 
L 347.866667 314.353988 
z
" style="fill:#7f7f7f;"/>
   </g>
   <g id="patch_104">
    <path clip-path="url(#p78a9d5bdfd)" d="M 358.2 298.457209 
L 366.466667 298.457209 
L 366.466667 311.023933 
L 358.2 311.023933 
z
" style="fill:#7f7f7f;"/>
   </g>
   <g id="patch_105">
    <path clip-path="url(#p78a9d5bdfd)" d="M 368.533333 298.457209 
L 376.8 298.457209 
L 376.8 309.280762 
L 368.533333 309.280762 
z
" style="fill:#7f7f7f;"/>
   </g>
   <g id="patch_106">
    <path clip-path="url(#p78a9d5bdfd)" d="M 378.866667 298.457209 
L 387.133333 298.457209 
L 387.133333 307.846495 
L 378.866667 307.846495 
z
" style="fill:#7f7f7f;"/>
   </g>
   <g id="patch_107">
    <path clip-path="url(#p78a9d5bdfd)" d="M 389.2 298.457209 
L 397.466667 298.457209 
L 397.466667 306.429183 
L 389.2 306.429183 
z
" style="fill:#7f7f7f;"/>
   </g>
   <g id="patch_108">
    <path clip-path="url(#p78a9d5bdfd)" d="M 399.533333 298.457209 
L 407.8 298.457209 
L 407.8 303.644487 
L 399.533333 303.644487 
z
" style="fill:#7f7f7f;"/>
   </g>
   <g id="patch_109">
    <path clip-path="url(#p78a9d5bdfd)" d="M 409.866667 298.457209 
L 418.133333 298.457209 
L 418.133333 303.380742 
L 409.866667 303.380742 
z
" style="fill:#7f7f7f;"/>
   </g>
   <g id="patch_110">
    <path clip-path="url(#p78a9d5bdfd)" d="M 420.2 298.457209 
L 428.466667 298.457209 
L 428.466667 300.279315 
L 420.2 300.279315 
z
" style="fill:#7f7f7f;"/>
   </g>
   <g id="patch_111">
    <path clip-path="url(#p78a9d5bdfd)" d="M 430.533333 298.457209 
L 438.8 298.457209 
L 438.8 298.86945 
L 430.533333 298.86945 
z
" style="fill:#7f7f7f;"/>
   </g>
   <g id="patch_112">
    <path clip-path="url(#p78a9d5bdfd)" d="M 440.866667 298.457209 
L 449.133333 298.457209 
L 449.133333 297.947819 
L 440.866667 297.947819 
z
" style="fill:#7f7f7f;"/>
   </g>
   <g id="patch_113">
    <path clip-path="url(#p78a9d5bdfd)" d="M 451.2 298.457209 
L 459.466667 298.457209 
L 459.466667 297.044852 
L 451.2 297.044852 
z
" style="fill:#7f7f7f;"/>
   </g>
   <g id="patch_114">
    <path clip-path="url(#p78a9d5bdfd)" d="M 461.533333 298.457209 
L 469.8 298.457209 
L 469.8 295.858182 
L 461.533333 295.858182 
z
" style="fill:#7f7f7f;"/>
   </g>
   <g id="patch_115">
    <path clip-path="url(#p78a9d5bdfd)" d="M 471.866667 298.457209 
L 480.133333 298.457209 
L 480.133333 293.247027 
L 471.866667 293.247027 
z
" style="fill:#7f7f7f;"/>
   </g>
   <g id="patch_116">
    <path clip-path="url(#p78a9d5bdfd)" d="M 482.2 298.457209 
L 490.466667 298.457209 
L 490.466667 291.954377 
L 482.2 291.954377 
z
" style="fill:#7f7f7f;"/>
   </g>
   <g id="patch_117">
    <path clip-path="url(#p78a9d5bdfd)" d="M 492.533333 298.457209 
L 500.8 298.457209 
L 500.8 291.865158 
L 492.533333 291.865158 
z
" style="fill:#7f7f7f;"/>
   </g>
   <g id="patch_118">
    <path clip-path="url(#p78a9d5bdfd)" d="M 502.866667 298.457209 
L 511.133333 298.457209 
L 511.133333 287.828898 
L 502.866667 287.828898 
z
" style="fill:#7f7f7f;"/>
   </g>
   <g id="patch_119">
    <path clip-path="url(#p78a9d5bdfd)" d="M 513.2 298.457209 
L 521.466667 298.457209 
L 521.466667 287.400924 
L 513.2 287.400924 
z
" style="fill:#7f7f7f;"/>
   </g>
   <g id="patch_120">
    <path clip-path="url(#p78a9d5bdfd)" d="M 523.533333 298.457209 
L 531.8 298.457209 
L 531.8 286.976171 
L 523.533333 286.976171 
z
" style="fill:#7f7f7f;"/>
   </g>
   <g id="patch_121">
    <path clip-path="url(#p78a9d5bdfd)" d="M 533.866667 298.457209 
L 542.133333 298.457209 
L 542.133333 285.429164 
L 533.866667 285.429164 
z
" style="fill:#7f7f7f;"/>
   </g>
   <g id="patch_122">
    <path clip-path="url(#p78a9d5bdfd)" d="M 544.2 298.457209 
L 552.466667 298.457209 
L 552.466667 285.409764 
L 544.2 285.409764 
z
" style="fill:#7f7f7f;"/>
   </g>
   <g id="patch_123">
    <path clip-path="url(#p78a9d5bdfd)" d="M 554.533333 298.457209 
L 562.8 298.457209 
L 562.8 284.787431 
L 554.533333 284.787431 
z
" style="fill:#7f7f7f;"/>
   </g>
   <g id="patch_124">
    <path clip-path="url(#p78a9d5bdfd)" d="M 564.866667 298.457209 
L 573.133333 298.457209 
L 573.133333 284.758584 
L 564.866667 284.758584 
z
" style="fill:#7f7f7f;"/>
   </g>
   <g id="patch_125">
    <path clip-path="url(#p78a9d5bdfd)" d="M 575.2 298.457209 
L 583.466667 298.457209 
L 583.466667 281.670228 
L 575.2 281.670228 
z
" style="fill:#7f7f7f;"/>
   </g>
   <g id="patch_126">
    <path clip-path="url(#p78a9d5bdfd)" d="M 585.533333 298.457209 
L 593.8 298.457209 
L 593.8 281.549406 
L 585.533333 281.549406 
z
" style="fill:#7f7f7f;"/>
   </g>
   <g id="patch_127">
    <path clip-path="url(#p78a9d5bdfd)" d="M 595.866667 298.457209 
L 604.133333 298.457209 
L 604.133333 281.381846 
L 595.866667 281.381846 
z
" style="fill:#7f7f7f;"/>
   </g>
   <g id="patch_128">
    <path clip-path="url(#p78a9d5bdfd)" d="M 606.2 298.457209 
L 614.466667 298.457209 
L 614.466667 281.116158 
L 606.2 281.116158 
z
" style="fill:#7f7f7f;"/>
   </g>
   <g id="patch_129">
    <path clip-path="url(#p78a9d5bdfd)" d="M 616.533333 298.457209 
L 624.8 298.457209 
L 624.8 272.371306 
L 616.533333 272.371306 
z
" style="fill:#7f7f7f;"/>
   </g>
   <g id="patch_130">
    <path clip-path="url(#p78a9d5bdfd)" d="M 626.866667 298.457209 
L 635.133333 298.457209 
L 635.133333 264.509913 
L 626.866667 264.509913 
z
" style="fill:#7f7f7f;"/>
   </g>
   <g id="patch_131">
    <path clip-path="url(#p78a9d5bdfd)" d="M 637.2 298.457209 
L 645.466667 298.457209 
L 645.466667 263.648507 
L 637.2 263.648507 
z
" style="fill:#7f7f7f;"/>
   </g>
   <g id="patch_132">
    <path clip-path="url(#p78a9d5bdfd)" d="M 647.533333 298.457209 
L 655.8 298.457209 
L 655.8 263.313205 
L 647.533333 263.313205 
z
" style="fill:#7f7f7f;"/>
   </g>
   <g id="patch_133">
    <path clip-path="url(#p78a9d5bdfd)" d="M 657.866667 298.457209 
L 666.133333 298.457209 
L 666.133333 262.786912 
L 657.866667 262.786912 
z
" style="fill:#7f7f7f;"/>
   </g>
   <g id="patch_134">
    <path clip-path="url(#p78a9d5bdfd)" d="M 668.2 298.457209 
L 676.466667 298.457209 
L 676.466667 261.768464 
L 668.2 261.768464 
z
" style="fill:#7f7f7f;"/>
   </g>
   <g id="patch_135">
    <path clip-path="url(#p78a9d5bdfd)" d="M 678.533333 298.457209 
L 686.8 298.457209 
L 686.8 257.923469 
L 678.533333 257.923469 
z
" style="fill:#7f7f7f;"/>
   </g>
   <g id="patch_136">
    <path clip-path="url(#p78a9d5bdfd)" d="M 688.866667 298.457209 
L 697.133333 298.457209 
L 697.133333 257.707396 
L 688.866667 257.707396 
z
" style="fill:#7f7f7f;"/>
   </g>
   <g id="patch_137">
    <path clip-path="url(#p78a9d5bdfd)" d="M 699.2 298.457209 
L 707.466667 298.457209 
L 707.466667 248.848863 
L 699.2 248.848863 
z
" style="fill:#add8e6;"/>
   </g>
   <g id="patch_138">
    <path clip-path="url(#p78a9d5bdfd)" d="M 709.533333 298.457209 
L 717.8 298.457209 
L 717.8 243.580196 
L 709.533333 243.580196 
z
" style="fill:#add8e6;"/>
   </g>
   <g id="patch_139">
    <path clip-path="url(#p78a9d5bdfd)" d="M 719.866667 298.457209 
L 728.133333 298.457209 
L 728.133333 243.330483 
L 719.866667 243.330483 
z
" style="fill:#add8e6;"/>
   </g>
   <g id="patch_140">
    <path clip-path="url(#p78a9d5bdfd)" d="M 730.2 298.457209 
L 738.466667 298.457209 
L 738.466667 241.928586 
L 730.2 241.928586 
z
" style="fill:#7f7f7f;"/>
   </g>
   <g id="patch_141">
    <path clip-path="url(#p78a9d5bdfd)" d="M 740.533333 298.457209 
L 748.8 298.457209 
L 748.8 240.897305 
L 740.533333 240.897305 
z
" style="fill:#add8e6;"/>
   </g>
   <g id="patch_142">
    <path clip-path="url(#p78a9d5bdfd)" d="M 750.866667 298.457209 
L 759.133333 298.457209 
L 759.133333 240.028768 
L 750.866667 240.028768 
z
" style="fill:#add8e6;"/>
   </g>
   <g id="patch_143">
    <path clip-path="url(#p78a9d5bdfd)" d="M 761.2 298.457209 
L 769.466667 298.457209 
L 769.466667 238.511155 
L 761.2 238.511155 
z
" style="fill:#add8e6;"/>
   </g>
   <g id="patch_144">
    <path clip-path="url(#p78a9d5bdfd)" d="M 771.533333 298.457209 
L 779.8 298.457209 
L 779.8 237.527662 
L 771.533333 237.527662 
z
" style="fill:#add8e6;"/>
   </g>
   <g id="patch_145">
    <path clip-path="url(#p78a9d5bdfd)" d="M 781.866667 298.457209 
L 790.133333 298.457209 
L 790.133333 237.482371 
L 781.866667 237.482371 
z
" style="fill:#7f7f7f;"/>
   </g>
   <g id="patch_146">
    <path clip-path="url(#p78a9d5bdfd)" d="M 792.2 298.457209 
L 800.466667 298.457209 
L 800.466667 225.201859 
L 792.2 225.201859 
z
" style="fill:#add8e6;"/>
   </g>
   <g id="patch_147">
    <path clip-path="url(#p78a9d5bdfd)" d="M 802.533333 298.457209 
L 810.8 298.457209 
L 810.8 219.782912 
L 802.533333 219.782912 
z
" style="fill:#add8e6;"/>
   </g>
   <g id="patch_148">
    <path clip-path="url(#p78a9d5bdfd)" d="M 812.866667 298.457209 
L 821.133333 298.457209 
L 821.133333 214.442743 
L 812.866667 214.442743 
z
" style="fill:#add8e6;"/>
   </g>
   <g id="patch_149">
    <path clip-path="url(#p78a9d5bdfd)" d="M 823.2 298.457209 
L 831.466667 298.457209 
L 831.466667 208.673939 
L 823.2 208.673939 
z
" style="fill:#add8e6;"/>
   </g>
   <g id="patch_150">
    <path clip-path="url(#p78a9d5bdfd)" d="M 833.533333 298.457209 
L 841.8 298.457209 
L 841.8 202.359064 
L 833.533333 202.359064 
z
" style="fill:#add8e6;"/>
   </g>
   <g id="patch_151">
    <path clip-path="url(#p78a9d5bdfd)" d="M 843.866667 298.457209 
L 852.133333 298.457209 
L 852.133333 201.404475 
L 843.866667 201.404475 
z
" style="fill:#add8e6;"/>
   </g>
   <g id="patch_152">
    <path clip-path="url(#p78a9d5bdfd)" d="M 854.2 298.457209 
L 862.466667 298.457209 
L 862.466667 200.069796 
L 854.2 200.069796 
z
" style="fill:#add8e6;"/>
   </g>
   <g id="patch_153">
    <path clip-path="url(#p78a9d5bdfd)" d="M 864.533333 298.457209 
L 872.8 298.457209 
L 872.8 199.330405 
L 864.533333 199.330405 
z
" style="fill:#add8e6;"/>
   </g>
   <g id="patch_154">
    <path clip-path="url(#p78a9d5bdfd)" d="M 874.866667 298.457209 
L 883.133333 298.457209 
L 883.133333 186.26192 
L 874.866667 186.26192 
z
" style="fill:#add8e6;"/>
   </g>
   <g id="patch_155">
    <path clip-path="url(#p78a9d5bdfd)" d="M 885.2 298.457209 
L 893.466667 298.457209 
L 893.466667 172.353314 
L 885.2 172.353314 
z
" style="fill:#add8e6;"/>
   </g>
   <g id="patch_156">
    <path clip-path="url(#p78a9d5bdfd)" d="M 895.533333 298.457209 
L 903.8 298.457209 
L 903.8 169.901103 
L 895.533333 169.901103 
z
" style="fill:#add8e6;"/>
   </g>
   <g id="patch_157">
    <path clip-path="url(#p78a9d5bdfd)" d="M 905.866667 298.457209 
L 914.133333 298.457209 
L 914.133333 161.081771 
L 905.866667 161.081771 
z
" style="fill:#add8e6;"/>
   </g>
   <g id="patch_158">
    <path clip-path="url(#p78a9d5bdfd)" d="M 916.2 298.457209 
L 924.466667 298.457209 
L 924.466667 151.112351 
L 916.2 151.112351 
z
" style="fill:#add8e6;"/>
   </g>
   <g id="patch_159">
    <path clip-path="url(#p78a9d5bdfd)" d="M 926.533333 298.457209 
L 934.8 298.457209 
L 934.8 142.075327 
L 926.533333 142.075327 
z
" style="fill:#add8e6;"/>
   </g>
   <g id="patch_160">
    <path clip-path="url(#p78a9d5bdfd)" d="M 936.866667 298.457209 
L 945.133333 298.457209 
L 945.133333 125.177277 
L 936.866667 125.177277 
z
" style="fill:#add8e6;"/>
   </g>
   <g id="patch_161">
    <path clip-path="url(#p78a9d5bdfd)" d="M 947.2 298.457209 
L 955.466667 298.457209 
L 955.466667 119.98859 
L 947.2 119.98859 
z
" style="fill:#add8e6;"/>
   </g>
   <g id="patch_162">
    <path clip-path="url(#p78a9d5bdfd)" d="M 957.533333 298.457209 
L 965.8 298.457209 
L 965.8 77.776364 
L 957.533333 77.776364 
z
" style="fill:#add8e6;"/>
   </g>
   <g id="matplotlib.axis_1">
    <g id="text_1">
     <!-- iModulons -->
     <g transform="translate(515.508984 456.397656)scale(0.15 -0.15)">
      <defs>
       <path d="M 9.421875 54.6875 
L 18.40625 54.6875 
L 18.40625 0 
L 9.421875 0 
z
M 9.421875 75.984375 
L 18.40625 75.984375 
L 18.40625 64.59375 
L 9.421875 64.59375 
z
" id="DejaVuSans-105"/>
       <path d="M 9.8125 72.90625 
L 24.515625 72.90625 
L 43.109375 23.296875 
L 61.8125 72.90625 
L 76.515625 72.90625 
L 76.515625 0 
L 66.890625 0 
L 66.890625 64.015625 
L 48.09375 14.015625 
L 38.1875 14.015625 
L 19.390625 64.015625 
L 19.390625 0 
L 9.8125 0 
z
" id="DejaVuSans-77"/>
       <path d="M 30.609375 48.390625 
Q 23.390625 48.390625 19.1875 42.75 
Q 14.984375 37.109375 14.984375 27.296875 
Q 14.984375 17.484375 19.15625 11.84375 
Q 23.34375 6.203125 30.609375 6.203125 
Q 37.796875 6.203125 41.984375 11.859375 
Q 46.1875 17.53125 46.1875 27.296875 
Q 46.1875 37.015625 41.984375 42.703125 
Q 37.796875 48.390625 30.609375 48.390625 
z
M 30.609375 56 
Q 42.328125 56 49.015625 48.375 
Q 55.71875 40.765625 55.71875 27.296875 
Q 55.71875 13.875 49.015625 6.21875 
Q 42.328125 -1.421875 30.609375 -1.421875 
Q 18.84375 -1.421875 12.171875 6.21875 
Q 5.515625 13.875 5.515625 27.296875 
Q 5.515625 40.765625 12.171875 48.375 
Q 18.84375 56 30.609375 56 
z
" id="DejaVuSans-111"/>
       <path d="M 45.40625 46.390625 
L 45.40625 75.984375 
L 54.390625 75.984375 
L 54.390625 0 
L 45.40625 0 
L 45.40625 8.203125 
Q 42.578125 3.328125 38.25 0.953125 
Q 33.9375 -1.421875 27.875 -1.421875 
Q 17.96875 -1.421875 11.734375 6.484375 
Q 5.515625 14.40625 5.515625 27.296875 
Q 5.515625 40.1875 11.734375 48.09375 
Q 17.96875 56 27.875 56 
Q 33.9375 56 38.25 53.625 
Q 42.578125 51.265625 45.40625 46.390625 
z
M 14.796875 27.296875 
Q 14.796875 17.390625 18.875 11.75 
Q 22.953125 6.109375 30.078125 6.109375 
Q 37.203125 6.109375 41.296875 11.75 
Q 45.40625 17.390625 45.40625 27.296875 
Q 45.40625 37.203125 41.296875 42.84375 
Q 37.203125 48.484375 30.078125 48.484375 
Q 22.953125 48.484375 18.875 42.84375 
Q 14.796875 37.203125 14.796875 27.296875 
z
" id="DejaVuSans-100"/>
       <path d="M 8.5 21.578125 
L 8.5 54.6875 
L 17.484375 54.6875 
L 17.484375 21.921875 
Q 17.484375 14.15625 20.5 10.265625 
Q 23.53125 6.390625 29.59375 6.390625 
Q 36.859375 6.390625 41.078125 11.03125 
Q 45.3125 15.671875 45.3125 23.6875 
L 45.3125 54.6875 
L 54.296875 54.6875 
L 54.296875 0 
L 45.3125 0 
L 45.3125 8.40625 
Q 42.046875 3.421875 37.71875 1 
Q 33.40625 -1.421875 27.6875 -1.421875 
Q 18.265625 -1.421875 13.375 4.4375 
Q 8.5 10.296875 8.5 21.578125 
z
M 31.109375 56 
z
" id="DejaVuSans-117"/>
       <path d="M 9.421875 75.984375 
L 18.40625 75.984375 
L 18.40625 0 
L 9.421875 0 
z
" id="DejaVuSans-108"/>
       <path d="M 54.890625 33.015625 
L 54.890625 0 
L 45.90625 0 
L 45.90625 32.71875 
Q 45.90625 40.484375 42.875 44.328125 
Q 39.84375 48.1875 33.796875 48.1875 
Q 26.515625 48.1875 22.3125 43.546875 
Q 18.109375 38.921875 18.109375 30.90625 
L 18.109375 0 
L 9.078125 0 
L 9.078125 54.6875 
L 18.109375 54.6875 
L 18.109375 46.1875 
Q 21.34375 51.125 25.703125 53.5625 
Q 30.078125 56 35.796875 56 
Q 45.21875 56 50.046875 50.171875 
Q 54.890625 44.34375 54.890625 33.015625 
z
" id="DejaVuSans-110"/>
       <path d="M 44.28125 53.078125 
L 44.28125 44.578125 
Q 40.484375 46.53125 36.375 47.5 
Q 32.28125 48.484375 27.875 48.484375 
Q 21.1875 48.484375 17.84375 46.4375 
Q 14.5 44.390625 14.5 40.28125 
Q 14.5 37.15625 16.890625 35.375 
Q 19.28125 33.59375 26.515625 31.984375 
L 29.59375 31.296875 
Q 39.15625 29.25 43.1875 25.515625 
Q 47.21875 21.78125 47.21875 15.09375 
Q 47.21875 7.46875 41.1875 3.015625 
Q 35.15625 -1.421875 24.609375 -1.421875 
Q 20.21875 -1.421875 15.453125 -0.5625 
Q 10.6875 0.296875 5.421875 2 
L 5.421875 11.28125 
Q 10.40625 8.6875 15.234375 7.390625 
Q 20.0625 6.109375 24.8125 6.109375 
Q 31.15625 6.109375 34.5625 8.28125 
Q 37.984375 10.453125 37.984375 14.40625 
Q 37.984375 18.0625 35.515625 20.015625 
Q 33.0625 21.96875 24.703125 23.78125 
L 21.578125 24.515625 
Q 13.234375 26.265625 9.515625 29.90625 
Q 5.8125 33.546875 5.8125 39.890625 
Q 5.8125 47.609375 11.28125 51.796875 
Q 16.75 56 26.8125 56 
Q 31.78125 56 36.171875 55.265625 
Q 40.578125 54.546875 44.28125 53.078125 
z
" id="DejaVuSans-115"/>
      </defs>
      <use xlink:href="#DejaVuSans-105"/>
      <use x="27.783203" xlink:href="#DejaVuSans-77"/>
      <use x="114.0625" xlink:href="#DejaVuSans-111"/>
      <use x="175.244141" xlink:href="#DejaVuSans-100"/>
      <use x="238.720703" xlink:href="#DejaVuSans-117"/>
      <use x="302.099609" xlink:href="#DejaVuSans-108"/>
      <use x="329.882812" xlink:href="#DejaVuSans-111"/>
      <use x="391.064453" xlink:href="#DejaVuSans-110"/>
      <use x="454.443359" xlink:href="#DejaVuSans-115"/>
     </g>
    </g>
   </g>
   <g id="matplotlib.axis_2">
    <g id="ytick_1">
     <g id="line2d_1">
      <defs>
       <path d="M 0 0 
L -3.5 0 
" id="m2968ee6f2c" style="stroke:#000000;stroke-width:0.8;"/>
      </defs>
      <g>
       <use style="stroke:#000000;stroke-width:0.8;" x="135" xlink:href="#m2968ee6f2c" y="437.562476"/>
      </g>
     </g>
     <g id="text_2">
      <!-- −15 -->
      <g transform="translate(106.895313 441.361695)scale(0.1 -0.1)">
       <defs>
        <path d="M 10.59375 35.5 
L 73.1875 35.5 
L 73.1875 27.203125 
L 10.59375 27.203125 
z
" id="DejaVuSans-8722"/>
        <path d="M 12.40625 8.296875 
L 28.515625 8.296875 
L 28.515625 63.921875 
L 10.984375 60.40625 
L 10.984375 69.390625 
L 28.421875 72.90625 
L 38.28125 72.90625 
L 38.28125 8.296875 
L 54.390625 8.296875 
L 54.390625 0 
L 12.40625 0 
z
" id="DejaVuSans-49"/>
        <path d="M 10.796875 72.90625 
L 49.515625 72.90625 
L 49.515625 64.59375 
L 19.828125 64.59375 
L 19.828125 46.734375 
Q 21.96875 47.46875 24.109375 47.828125 
Q 26.265625 48.1875 28.421875 48.1875 
Q 40.625 48.1875 47.75 41.5 
Q 54.890625 34.8125 54.890625 23.390625 
Q 54.890625 11.625 47.5625 5.09375 
Q 40.234375 -1.421875 26.90625 -1.421875 
Q 22.3125 -1.421875 17.546875 -0.640625 
Q 12.796875 0.140625 7.71875 1.703125 
L 7.71875 11.625 
Q 12.109375 9.234375 16.796875 8.0625 
Q 21.484375 6.890625 26.703125 6.890625 
Q 35.15625 6.890625 40.078125 11.328125 
Q 45.015625 15.765625 45.015625 23.390625 
Q 45.015625 31 40.078125 35.4375 
Q 35.15625 39.890625 26.703125 39.890625 
Q 22.75 39.890625 18.8125 39.015625 
Q 14.890625 38.140625 10.796875 36.28125 
z
" id="DejaVuSans-53"/>
       </defs>
       <use xlink:href="#DejaVuSans-8722"/>
       <use x="83.789062" xlink:href="#DejaVuSans-49"/>
       <use x="147.412109" xlink:href="#DejaVuSans-53"/>
      </g>
     </g>
    </g>
    <g id="ytick_2">
     <g id="line2d_2">
      <g>
       <use style="stroke:#000000;stroke-width:0.8;" x="135" xlink:href="#m2968ee6f2c" y="391.194054"/>
      </g>
     </g>
     <g id="text_3">
      <!-- −10 -->
      <g transform="translate(106.895313 394.993273)scale(0.1 -0.1)">
       <defs>
        <path d="M 31.78125 66.40625 
Q 24.171875 66.40625 20.328125 58.90625 
Q 16.5 51.421875 16.5 36.375 
Q 16.5 21.390625 20.328125 13.890625 
Q 24.171875 6.390625 31.78125 6.390625 
Q 39.453125 6.390625 43.28125 13.890625 
Q 47.125 21.390625 47.125 36.375 
Q 47.125 51.421875 43.28125 58.90625 
Q 39.453125 66.40625 31.78125 66.40625 
z
M 31.78125 74.21875 
Q 44.046875 74.21875 50.515625 64.515625 
Q 56.984375 54.828125 56.984375 36.375 
Q 56.984375 17.96875 50.515625 8.265625 
Q 44.046875 -1.421875 31.78125 -1.421875 
Q 19.53125 -1.421875 13.0625 8.265625 
Q 6.59375 17.96875 6.59375 36.375 
Q 6.59375 54.828125 13.0625 64.515625 
Q 19.53125 74.21875 31.78125 74.21875 
z
" id="DejaVuSans-48"/>
       </defs>
       <use xlink:href="#DejaVuSans-8722"/>
       <use x="83.789062" xlink:href="#DejaVuSans-49"/>
       <use x="147.412109" xlink:href="#DejaVuSans-48"/>
      </g>
     </g>
    </g>
    <g id="ytick_3">
     <g id="line2d_3">
      <g>
       <use style="stroke:#000000;stroke-width:0.8;" x="135" xlink:href="#m2968ee6f2c" y="344.825631"/>
      </g>
     </g>
     <g id="text_4">
      <!-- −5 -->
      <g transform="translate(113.257812 348.62485)scale(0.1 -0.1)">
       <use xlink:href="#DejaVuSans-8722"/>
       <use x="83.789062" xlink:href="#DejaVuSans-53"/>
      </g>
     </g>
    </g>
    <g id="ytick_4">
     <g id="line2d_4">
      <g>
       <use style="stroke:#000000;stroke-width:0.8;" x="135" xlink:href="#m2968ee6f2c" y="298.457209"/>
      </g>
     </g>
     <g id="text_5">
      <!-- 0 -->
      <g transform="translate(121.6375 302.256428)scale(0.1 -0.1)">
       <use xlink:href="#DejaVuSans-48"/>
      </g>
     </g>
    </g>
    <g id="ytick_5">
     <g id="line2d_5">
      <g>
       <use style="stroke:#000000;stroke-width:0.8;" x="135" xlink:href="#m2968ee6f2c" y="252.088787"/>
      </g>
     </g>
     <g id="text_6">
      <!-- 5 -->
      <g transform="translate(121.6375 255.888005)scale(0.1 -0.1)">
       <use xlink:href="#DejaVuSans-53"/>
      </g>
     </g>
    </g>
    <g id="ytick_6">
     <g id="line2d_6">
      <g>
       <use style="stroke:#000000;stroke-width:0.8;" x="135" xlink:href="#m2968ee6f2c" y="205.720364"/>
      </g>
     </g>
     <g id="text_7">
      <!-- 10 -->
      <g transform="translate(115.275 209.519583)scale(0.1 -0.1)">
       <use xlink:href="#DejaVuSans-49"/>
       <use x="63.623047" xlink:href="#DejaVuSans-48"/>
      </g>
     </g>
    </g>
    <g id="ytick_7">
     <g id="line2d_7">
      <g>
       <use style="stroke:#000000;stroke-width:0.8;" x="135" xlink:href="#m2968ee6f2c" y="159.351942"/>
      </g>
     </g>
     <g id="text_8">
      <!-- 15 -->
      <g transform="translate(115.275 163.151161)scale(0.1 -0.1)">
       <use xlink:href="#DejaVuSans-49"/>
       <use x="63.623047" xlink:href="#DejaVuSans-53"/>
      </g>
     </g>
    </g>
    <g id="ytick_8">
     <g id="line2d_8">
      <g>
       <use style="stroke:#000000;stroke-width:0.8;" x="135" xlink:href="#m2968ee6f2c" y="112.983519"/>
      </g>
     </g>
     <g id="text_9">
      <!-- 20 -->
      <g transform="translate(115.275 116.782738)scale(0.1 -0.1)">
       <defs>
        <path d="M 19.1875 8.296875 
L 53.609375 8.296875 
L 53.609375 0 
L 7.328125 0 
L 7.328125 8.296875 
Q 12.9375 14.109375 22.625 23.890625 
Q 32.328125 33.6875 34.8125 36.53125 
Q 39.546875 41.84375 41.421875 45.53125 
Q 43.3125 49.21875 43.3125 52.78125 
Q 43.3125 58.59375 39.234375 62.25 
Q 35.15625 65.921875 28.609375 65.921875 
Q 23.96875 65.921875 18.8125 64.3125 
Q 13.671875 62.703125 7.8125 59.421875 
L 7.8125 69.390625 
Q 13.765625 71.78125 18.9375 73 
Q 24.125 74.21875 28.421875 74.21875 
Q 39.75 74.21875 46.484375 68.546875 
Q 53.21875 62.890625 53.21875 53.421875 
Q 53.21875 48.921875 51.53125 44.890625 
Q 49.859375 40.875 45.40625 35.40625 
Q 44.1875 33.984375 37.640625 27.21875 
Q 31.109375 20.453125 19.1875 8.296875 
z
" id="DejaVuSans-50"/>
       </defs>
       <use xlink:href="#DejaVuSans-50"/>
       <use x="63.623047" xlink:href="#DejaVuSans-48"/>
      </g>
     </g>
    </g>
    <g id="ytick_9">
     <g id="line2d_9">
      <g>
       <use style="stroke:#000000;stroke-width:0.8;" x="135" xlink:href="#m2968ee6f2c" y="66.615097"/>
      </g>
     </g>
     <g id="text_10">
      <!-- 25 -->
      <g transform="translate(115.275 70.414316)scale(0.1 -0.1)">
       <use xlink:href="#DejaVuSans-50"/>
       <use x="63.623047" xlink:href="#DejaVuSans-53"/>
      </g>
     </g>
    </g>
    <g id="text_11">
     <!-- Mice Neutrophils In-vivo  -->
     <g transform="translate(100.399687 324.724688)rotate(-90)scale(0.12 -0.12)">
      <defs>
       <path d="M 48.78125 52.59375 
L 48.78125 44.1875 
Q 44.96875 46.296875 41.140625 47.34375 
Q 37.3125 48.390625 33.40625 48.390625 
Q 24.65625 48.390625 19.8125 42.84375 
Q 14.984375 37.3125 14.984375 27.296875 
Q 14.984375 17.28125 19.8125 11.734375 
Q 24.65625 6.203125 33.40625 6.203125 
Q 37.3125 6.203125 41.140625 7.25 
Q 44.96875 8.296875 48.78125 10.40625 
L 48.78125 2.09375 
Q 45.015625 0.34375 40.984375 -0.53125 
Q 36.96875 -1.421875 32.421875 -1.421875 
Q 20.0625 -1.421875 12.78125 6.34375 
Q 5.515625 14.109375 5.515625 27.296875 
Q 5.515625 40.671875 12.859375 48.328125 
Q 20.21875 56 33.015625 56 
Q 37.15625 56 41.109375 55.140625 
Q 45.0625 54.296875 48.78125 52.59375 
z
" id="DejaVuSans-99"/>
       <path d="M 56.203125 29.59375 
L 56.203125 25.203125 
L 14.890625 25.203125 
Q 15.484375 15.921875 20.484375 11.0625 
Q 25.484375 6.203125 34.421875 6.203125 
Q 39.59375 6.203125 44.453125 7.46875 
Q 49.3125 8.734375 54.109375 11.28125 
L 54.109375 2.78125 
Q 49.265625 0.734375 44.1875 -0.34375 
Q 39.109375 -1.421875 33.890625 -1.421875 
Q 20.796875 -1.421875 13.15625 6.1875 
Q 5.515625 13.8125 5.515625 26.8125 
Q 5.515625 40.234375 12.765625 48.109375 
Q 20.015625 56 32.328125 56 
Q 43.359375 56 49.78125 48.890625 
Q 56.203125 41.796875 56.203125 29.59375 
z
M 47.21875 32.234375 
Q 47.125 39.59375 43.09375 43.984375 
Q 39.0625 48.390625 32.421875 48.390625 
Q 24.90625 48.390625 20.390625 44.140625 
Q 15.875 39.890625 15.1875 32.171875 
z
" id="DejaVuSans-101"/>
       <path id="DejaVuSans-32"/>
       <path d="M 9.8125 72.90625 
L 23.09375 72.90625 
L 55.421875 11.921875 
L 55.421875 72.90625 
L 64.984375 72.90625 
L 64.984375 0 
L 51.703125 0 
L 19.390625 60.984375 
L 19.390625 0 
L 9.8125 0 
z
" id="DejaVuSans-78"/>
       <path d="M 18.3125 70.21875 
L 18.3125 54.6875 
L 36.8125 54.6875 
L 36.8125 47.703125 
L 18.3125 47.703125 
L 18.3125 18.015625 
Q 18.3125 11.328125 20.140625 9.421875 
Q 21.96875 7.515625 27.59375 7.515625 
L 36.8125 7.515625 
L 36.8125 0 
L 27.59375 0 
Q 17.1875 0 13.234375 3.875 
Q 9.28125 7.765625 9.28125 18.015625 
L 9.28125 47.703125 
L 2.6875 47.703125 
L 2.6875 54.6875 
L 9.28125 54.6875 
L 9.28125 70.21875 
z
" id="DejaVuSans-116"/>
       <path d="M 41.109375 46.296875 
Q 39.59375 47.171875 37.8125 47.578125 
Q 36.03125 48 33.890625 48 
Q 26.265625 48 22.1875 43.046875 
Q 18.109375 38.09375 18.109375 28.8125 
L 18.109375 0 
L 9.078125 0 
L 9.078125 54.6875 
L 18.109375 54.6875 
L 18.109375 46.1875 
Q 20.953125 51.171875 25.484375 53.578125 
Q 30.03125 56 36.53125 56 
Q 37.453125 56 38.578125 55.875 
Q 39.703125 55.765625 41.0625 55.515625 
z
" id="DejaVuSans-114"/>
       <path d="M 18.109375 8.203125 
L 18.109375 -20.796875 
L 9.078125 -20.796875 
L 9.078125 54.6875 
L 18.109375 54.6875 
L 18.109375 46.390625 
Q 20.953125 51.265625 25.265625 53.625 
Q 29.59375 56 35.59375 56 
Q 45.5625 56 51.78125 48.09375 
Q 58.015625 40.1875 58.015625 27.296875 
Q 58.015625 14.40625 51.78125 6.484375 
Q 45.5625 -1.421875 35.59375 -1.421875 
Q 29.59375 -1.421875 25.265625 0.953125 
Q 20.953125 3.328125 18.109375 8.203125 
z
M 48.6875 27.296875 
Q 48.6875 37.203125 44.609375 42.84375 
Q 40.53125 48.484375 33.40625 48.484375 
Q 26.265625 48.484375 22.1875 42.84375 
Q 18.109375 37.203125 18.109375 27.296875 
Q 18.109375 17.390625 22.1875 11.75 
Q 26.265625 6.109375 33.40625 6.109375 
Q 40.53125 6.109375 44.609375 11.75 
Q 48.6875 17.390625 48.6875 27.296875 
z
" id="DejaVuSans-112"/>
       <path d="M 54.890625 33.015625 
L 54.890625 0 
L 45.90625 0 
L 45.90625 32.71875 
Q 45.90625 40.484375 42.875 44.328125 
Q 39.84375 48.1875 33.796875 48.1875 
Q 26.515625 48.1875 22.3125 43.546875 
Q 18.109375 38.921875 18.109375 30.90625 
L 18.109375 0 
L 9.078125 0 
L 9.078125 75.984375 
L 18.109375 75.984375 
L 18.109375 46.1875 
Q 21.34375 51.125 25.703125 53.5625 
Q 30.078125 56 35.796875 56 
Q 45.21875 56 50.046875 50.171875 
Q 54.890625 44.34375 54.890625 33.015625 
z
" id="DejaVuSans-104"/>
       <path d="M 9.8125 72.90625 
L 19.671875 72.90625 
L 19.671875 0 
L 9.8125 0 
z
" id="DejaVuSans-73"/>
       <path d="M 4.890625 31.390625 
L 31.203125 31.390625 
L 31.203125 23.390625 
L 4.890625 23.390625 
z
" id="DejaVuSans-45"/>
       <path d="M 2.984375 54.6875 
L 12.5 54.6875 
L 29.59375 8.796875 
L 46.6875 54.6875 
L 56.203125 54.6875 
L 35.6875 0 
L 23.484375 0 
z
" id="DejaVuSans-118"/>
      </defs>
      <use xlink:href="#DejaVuSans-77"/>
      <use x="86.279297" xlink:href="#DejaVuSans-105"/>
      <use x="114.0625" xlink:href="#DejaVuSans-99"/>
      <use x="169.042969" xlink:href="#DejaVuSans-101"/>
      <use x="230.566406" xlink:href="#DejaVuSans-32"/>
      <use x="262.353516" xlink:href="#DejaVuSans-78"/>
      <use x="337.158203" xlink:href="#DejaVuSans-101"/>
      <use x="398.681641" xlink:href="#DejaVuSans-117"/>
      <use x="462.060547" xlink:href="#DejaVuSans-116"/>
      <use x="501.269531" xlink:href="#DejaVuSans-114"/>
      <use x="540.132812" xlink:href="#DejaVuSans-111"/>
      <use x="601.314453" xlink:href="#DejaVuSans-112"/>
      <use x="664.791016" xlink:href="#DejaVuSans-104"/>
      <use x="728.169922" xlink:href="#DejaVuSans-105"/>
      <use x="755.953125" xlink:href="#DejaVuSans-108"/>
      <use x="783.736328" xlink:href="#DejaVuSans-115"/>
      <use x="835.835938" xlink:href="#DejaVuSans-32"/>
      <use x="867.623047" xlink:href="#DejaVuSans-73"/>
      <use x="897.115234" xlink:href="#DejaVuSans-110"/>
      <use x="960.494141" xlink:href="#DejaVuSans-45"/>
      <use x="993.953125" xlink:href="#DejaVuSans-118"/>
      <use x="1053.132812" xlink:href="#DejaVuSans-105"/>
      <use x="1080.916016" xlink:href="#DejaVuSans-118"/>
      <use x="1140.095703" xlink:href="#DejaVuSans-111"/>
      <use x="1201.277344" xlink:href="#DejaVuSans-32"/>
     </g>
    </g>
   </g>
   <g id="line2d_10">
    <path clip-path="url(#p78a9d5bdfd)" d="M 135 298.457209 
L 972 298.457209 
" style="fill:none;stroke:#000000;stroke-linecap:square;stroke-width:1.5;"/>
   </g>
   <g id="patch_163">
    <path d="M 135 441 
L 135 60.48 
" style="fill:none;stroke:#000000;stroke-linecap:square;stroke-linejoin:miter;stroke-width:0.8;"/>
   </g>
   <g id="patch_164">
    <path d="M 972 441 
L 972 60.48 
" style="fill:none;stroke:#000000;stroke-linecap:square;stroke-linejoin:miter;stroke-width:0.8;"/>
   </g>
   <g id="patch_165">
    <path d="M 135 441 
L 972 441 
" style="fill:none;stroke:#000000;stroke-linecap:square;stroke-linejoin:miter;stroke-width:0.8;"/>
   </g>
   <g id="patch_166">
    <path d="M 135 60.48 
L 972 60.48 
" style="fill:none;stroke:#000000;stroke-linecap:square;stroke-linejoin:miter;stroke-width:0.8;"/>
   </g>
   <g id="text_12">
    <!-- Central Carbon Metabolism -->
    <g transform="translate(101.8961 438.120891)scale(0.1 -0.1)">
     <defs>
      <path d="M 64.40625 67.28125 
L 64.40625 56.890625 
Q 59.421875 61.53125 53.78125 63.8125 
Q 48.140625 66.109375 41.796875 66.109375 
Q 29.296875 66.109375 22.65625 58.46875 
Q 16.015625 50.828125 16.015625 36.375 
Q 16.015625 21.96875 22.65625 14.328125 
Q 29.296875 6.6875 41.796875 6.6875 
Q 48.140625 6.6875 53.78125 8.984375 
Q 59.421875 11.28125 64.40625 15.921875 
L 64.40625 5.609375 
Q 59.234375 2.09375 53.4375 0.328125 
Q 47.65625 -1.421875 41.21875 -1.421875 
Q 24.65625 -1.421875 15.125 8.703125 
Q 5.609375 18.84375 5.609375 36.375 
Q 5.609375 53.953125 15.125 64.078125 
Q 24.65625 74.21875 41.21875 74.21875 
Q 47.75 74.21875 53.53125 72.484375 
Q 59.328125 70.75 64.40625 67.28125 
z
" id="DejaVuSans-67"/>
      <path d="M 34.28125 27.484375 
Q 23.390625 27.484375 19.1875 25 
Q 14.984375 22.515625 14.984375 16.5 
Q 14.984375 11.71875 18.140625 8.90625 
Q 21.296875 6.109375 26.703125 6.109375 
Q 34.1875 6.109375 38.703125 11.40625 
Q 43.21875 16.703125 43.21875 25.484375 
L 43.21875 27.484375 
z
M 52.203125 31.203125 
L 52.203125 0 
L 43.21875 0 
L 43.21875 8.296875 
Q 40.140625 3.328125 35.546875 0.953125 
Q 30.953125 -1.421875 24.3125 -1.421875 
Q 15.921875 -1.421875 10.953125 3.296875 
Q 6 8.015625 6 15.921875 
Q 6 25.140625 12.171875 29.828125 
Q 18.359375 34.515625 30.609375 34.515625 
L 43.21875 34.515625 
L 43.21875 35.40625 
Q 43.21875 41.609375 39.140625 45 
Q 35.0625 48.390625 27.6875 48.390625 
Q 23 48.390625 18.546875 47.265625 
Q 14.109375 46.140625 10.015625 43.890625 
L 10.015625 52.203125 
Q 14.9375 54.109375 19.578125 55.046875 
Q 24.21875 56 28.609375 56 
Q 40.484375 56 46.34375 49.84375 
Q 52.203125 43.703125 52.203125 31.203125 
z
" id="DejaVuSans-97"/>
      <path d="M 48.6875 27.296875 
Q 48.6875 37.203125 44.609375 42.84375 
Q 40.53125 48.484375 33.40625 48.484375 
Q 26.265625 48.484375 22.1875 42.84375 
Q 18.109375 37.203125 18.109375 27.296875 
Q 18.109375 17.390625 22.1875 11.75 
Q 26.265625 6.109375 33.40625 6.109375 
Q 40.53125 6.109375 44.609375 11.75 
Q 48.6875 17.390625 48.6875 27.296875 
z
M 18.109375 46.390625 
Q 20.953125 51.265625 25.265625 53.625 
Q 29.59375 56 35.59375 56 
Q 45.5625 56 51.78125 48.09375 
Q 58.015625 40.1875 58.015625 27.296875 
Q 58.015625 14.40625 51.78125 6.484375 
Q 45.5625 -1.421875 35.59375 -1.421875 
Q 29.59375 -1.421875 25.265625 0.953125 
Q 20.953125 3.328125 18.109375 8.203125 
L 18.109375 0 
L 9.078125 0 
L 9.078125 75.984375 
L 18.109375 75.984375 
z
" id="DejaVuSans-98"/>
      <path d="M 52 44.1875 
Q 55.375 50.25 60.0625 53.125 
Q 64.75 56 71.09375 56 
Q 79.640625 56 84.28125 50.015625 
Q 88.921875 44.046875 88.921875 33.015625 
L 88.921875 0 
L 79.890625 0 
L 79.890625 32.71875 
Q 79.890625 40.578125 77.09375 44.375 
Q 74.3125 48.1875 68.609375 48.1875 
Q 61.625 48.1875 57.5625 43.546875 
Q 53.515625 38.921875 53.515625 30.90625 
L 53.515625 0 
L 44.484375 0 
L 44.484375 32.71875 
Q 44.484375 40.625 41.703125 44.40625 
Q 38.921875 48.1875 33.109375 48.1875 
Q 26.21875 48.1875 22.15625 43.53125 
Q 18.109375 38.875 18.109375 30.90625 
L 18.109375 0 
L 9.078125 0 
L 9.078125 54.6875 
L 18.109375 54.6875 
L 18.109375 46.1875 
Q 21.1875 51.21875 25.484375 53.609375 
Q 29.78125 56 35.6875 56 
Q 41.65625 56 45.828125 52.96875 
Q 50 49.953125 52 44.1875 
z
" id="DejaVuSans-109"/>
     </defs>
     <use xlink:href="#DejaVuSans-67"/>
     <use x="69.824219" xlink:href="#DejaVuSans-101"/>
     <use x="131.347656" xlink:href="#DejaVuSans-110"/>
     <use x="194.726562" xlink:href="#DejaVuSans-116"/>
     <use x="233.935547" xlink:href="#DejaVuSans-114"/>
     <use x="275.048828" xlink:href="#DejaVuSans-97"/>
     <use x="336.328125" xlink:href="#DejaVuSans-108"/>
     <use x="364.111328" xlink:href="#DejaVuSans-32"/>
     <use x="395.898438" xlink:href="#DejaVuSans-67"/>
     <use x="465.722656" xlink:href="#DejaVuSans-97"/>
     <use x="527.001953" xlink:href="#DejaVuSans-114"/>
     <use x="568.115234" xlink:href="#DejaVuSans-98"/>
     <use x="631.591797" xlink:href="#DejaVuSans-111"/>
     <use x="692.773438" xlink:href="#DejaVuSans-110"/>
     <use x="756.152344" xlink:href="#DejaVuSans-32"/>
     <use x="787.939453" xlink:href="#DejaVuSans-77"/>
     <use x="874.21875" xlink:href="#DejaVuSans-101"/>
     <use x="935.742188" xlink:href="#DejaVuSans-116"/>
     <use x="974.951172" xlink:href="#DejaVuSans-97"/>
     <use x="1036.230469" xlink:href="#DejaVuSans-98"/>
     <use x="1099.707031" xlink:href="#DejaVuSans-111"/>
     <use x="1160.888672" xlink:href="#DejaVuSans-108"/>
     <use x="1188.671875" xlink:href="#DejaVuSans-105"/>
     <use x="1216.455078" xlink:href="#DejaVuSans-115"/>
     <use x="1268.554688" xlink:href="#DejaVuSans-109"/>
    </g>
   </g>
   <g id="text_13">
    <!-- Unc_4 -->
    <g transform="translate(109.853102 295.008772)scale(0.1 -0.1)">
     <defs>
      <path d="M 8.6875 72.90625 
L 18.609375 72.90625 
L 18.609375 28.609375 
Q 18.609375 16.890625 22.84375 11.734375 
Q 27.09375 6.59375 36.625 6.59375 
Q 46.09375 6.59375 50.34375 11.734375 
Q 54.59375 16.890625 54.59375 28.609375 
L 54.59375 72.90625 
L 64.5 72.90625 
L 64.5 27.390625 
Q 64.5 13.140625 57.4375 5.859375 
Q 50.390625 -1.421875 36.625 -1.421875 
Q 22.796875 -1.421875 15.734375 5.859375 
Q 8.6875 13.140625 8.6875 27.390625 
z
" id="DejaVuSans-85"/>
      <path d="M 50.984375 -16.609375 
L 50.984375 -23.578125 
L -0.984375 -23.578125 
L -0.984375 -16.609375 
z
" id="DejaVuSans-95"/>
      <path d="M 37.796875 64.3125 
L 12.890625 25.390625 
L 37.796875 25.390625 
z
M 35.203125 72.90625 
L 47.609375 72.90625 
L 47.609375 25.390625 
L 58.015625 25.390625 
L 58.015625 17.1875 
L 47.609375 17.1875 
L 47.609375 0 
L 37.796875 0 
L 37.796875 17.1875 
L 4.890625 17.1875 
L 4.890625 26.703125 
z
" id="DejaVuSans-52"/>
     </defs>
     <use xlink:href="#DejaVuSans-85"/>
     <use x="73.193359" xlink:href="#DejaVuSans-110"/>
     <use x="136.572266" xlink:href="#DejaVuSans-99"/>
     <use x="191.552734" xlink:href="#DejaVuSans-95"/>
     <use x="241.552734" xlink:href="#DejaVuSans-52"/>
    </g>
   </g>
   <g id="text_14">
    <!-- Lsr2 -->
    <g transform="translate(141.877527 432.522119)scale(0.1 -0.1)">
     <defs>
      <path d="M 9.8125 72.90625 
L 19.671875 72.90625 
L 19.671875 8.296875 
L 55.171875 8.296875 
L 55.171875 0 
L 9.8125 0 
z
" id="DejaVuSans-76"/>
     </defs>
     <use xlink:href="#DejaVuSans-76"/>
     <use x="55.712891" xlink:href="#DejaVuSans-115"/>
     <use x="107.8125" xlink:href="#DejaVuSans-114"/>
     <use x="148.925781" xlink:href="#DejaVuSans-50"/>
    </g>
   </g>
   <g id="text_15">
    <!-- Rv1828/SigH -->
    <g transform="translate(167.232338 420.522119)scale(0.1 -0.1)">
     <defs>
      <path d="M 44.390625 34.1875 
Q 47.5625 33.109375 50.5625 29.59375 
Q 53.5625 26.078125 56.59375 19.921875 
L 66.609375 0 
L 56 0 
L 46.6875 18.703125 
Q 43.0625 26.03125 39.671875 28.421875 
Q 36.28125 30.8125 30.421875 30.8125 
L 19.671875 30.8125 
L 19.671875 0 
L 9.8125 0 
L 9.8125 72.90625 
L 32.078125 72.90625 
Q 44.578125 72.90625 50.734375 67.671875 
Q 56.890625 62.453125 56.890625 51.90625 
Q 56.890625 45.015625 53.6875 40.46875 
Q 50.484375 35.9375 44.390625 34.1875 
z
M 19.671875 64.796875 
L 19.671875 38.921875 
L 32.078125 38.921875 
Q 39.203125 38.921875 42.84375 42.21875 
Q 46.484375 45.515625 46.484375 51.90625 
Q 46.484375 58.296875 42.84375 61.546875 
Q 39.203125 64.796875 32.078125 64.796875 
z
" id="DejaVuSans-82"/>
      <path d="M 31.78125 34.625 
Q 24.75 34.625 20.71875 30.859375 
Q 16.703125 27.09375 16.703125 20.515625 
Q 16.703125 13.921875 20.71875 10.15625 
Q 24.75 6.390625 31.78125 6.390625 
Q 38.8125 6.390625 42.859375 10.171875 
Q 46.921875 13.96875 46.921875 20.515625 
Q 46.921875 27.09375 42.890625 30.859375 
Q 38.875 34.625 31.78125 34.625 
z
M 21.921875 38.8125 
Q 15.578125 40.375 12.03125 44.71875 
Q 8.5 49.078125 8.5 55.328125 
Q 8.5 64.0625 14.71875 69.140625 
Q 20.953125 74.21875 31.78125 74.21875 
Q 42.671875 74.21875 48.875 69.140625 
Q 55.078125 64.0625 55.078125 55.328125 
Q 55.078125 49.078125 51.53125 44.71875 
Q 48 40.375 41.703125 38.8125 
Q 48.828125 37.15625 52.796875 32.3125 
Q 56.78125 27.484375 56.78125 20.515625 
Q 56.78125 9.90625 50.3125 4.234375 
Q 43.84375 -1.421875 31.78125 -1.421875 
Q 19.734375 -1.421875 13.25 4.234375 
Q 6.78125 9.90625 6.78125 20.515625 
Q 6.78125 27.484375 10.78125 32.3125 
Q 14.796875 37.15625 21.921875 38.8125 
z
M 18.3125 54.390625 
Q 18.3125 48.734375 21.84375 45.5625 
Q 25.390625 42.390625 31.78125 42.390625 
Q 38.140625 42.390625 41.71875 45.5625 
Q 45.3125 48.734375 45.3125 54.390625 
Q 45.3125 60.0625 41.71875 63.234375 
Q 38.140625 66.40625 31.78125 66.40625 
Q 25.390625 66.40625 21.84375 63.234375 
Q 18.3125 60.0625 18.3125 54.390625 
z
" id="DejaVuSans-56"/>
      <path d="M 25.390625 72.90625 
L 33.6875 72.90625 
L 8.296875 -9.28125 
L 0 -9.28125 
z
" id="DejaVuSans-47"/>
      <path d="M 53.515625 70.515625 
L 53.515625 60.890625 
Q 47.90625 63.578125 42.921875 64.890625 
Q 37.9375 66.21875 33.296875 66.21875 
Q 25.25 66.21875 20.875 63.09375 
Q 16.5 59.96875 16.5 54.203125 
Q 16.5 49.359375 19.40625 46.890625 
Q 22.3125 44.4375 30.421875 42.921875 
L 36.375 41.703125 
Q 47.40625 39.59375 52.65625 34.296875 
Q 57.90625 29 57.90625 20.125 
Q 57.90625 9.515625 50.796875 4.046875 
Q 43.703125 -1.421875 29.984375 -1.421875 
Q 24.8125 -1.421875 18.96875 -0.25 
Q 13.140625 0.921875 6.890625 3.21875 
L 6.890625 13.375 
Q 12.890625 10.015625 18.65625 8.296875 
Q 24.421875 6.59375 29.984375 6.59375 
Q 38.421875 6.59375 43.015625 9.90625 
Q 47.609375 13.234375 47.609375 19.390625 
Q 47.609375 24.75 44.3125 27.78125 
Q 41.015625 30.8125 33.5 32.328125 
L 27.484375 33.5 
Q 16.453125 35.6875 11.515625 40.375 
Q 6.59375 45.0625 6.59375 53.421875 
Q 6.59375 63.09375 13.40625 68.65625 
Q 20.21875 74.21875 32.171875 74.21875 
Q 37.3125 74.21875 42.625 73.28125 
Q 47.953125 72.359375 53.515625 70.515625 
z
" id="DejaVuSans-83"/>
      <path d="M 45.40625 27.984375 
Q 45.40625 37.75 41.375 43.109375 
Q 37.359375 48.484375 30.078125 48.484375 
Q 22.859375 48.484375 18.828125 43.109375 
Q 14.796875 37.75 14.796875 27.984375 
Q 14.796875 18.265625 18.828125 12.890625 
Q 22.859375 7.515625 30.078125 7.515625 
Q 37.359375 7.515625 41.375 12.890625 
Q 45.40625 18.265625 45.40625 27.984375 
z
M 54.390625 6.78125 
Q 54.390625 -7.171875 48.1875 -13.984375 
Q 42 -20.796875 29.203125 -20.796875 
Q 24.46875 -20.796875 20.265625 -20.09375 
Q 16.0625 -19.390625 12.109375 -17.921875 
L 12.109375 -9.1875 
Q 16.0625 -11.328125 19.921875 -12.34375 
Q 23.78125 -13.375 27.78125 -13.375 
Q 36.625 -13.375 41.015625 -8.765625 
Q 45.40625 -4.15625 45.40625 5.171875 
L 45.40625 9.625 
Q 42.625 4.78125 38.28125 2.390625 
Q 33.9375 0 27.875 0 
Q 17.828125 0 11.671875 7.65625 
Q 5.515625 15.328125 5.515625 27.984375 
Q 5.515625 40.671875 11.671875 48.328125 
Q 17.828125 56 27.875 56 
Q 33.9375 56 38.28125 53.609375 
Q 42.625 51.21875 45.40625 46.390625 
L 45.40625 54.6875 
L 54.390625 54.6875 
z
" id="DejaVuSans-103"/>
      <path d="M 9.8125 72.90625 
L 19.671875 72.90625 
L 19.671875 43.015625 
L 55.515625 43.015625 
L 55.515625 72.90625 
L 65.375 72.90625 
L 65.375 0 
L 55.515625 0 
L 55.515625 34.71875 
L 19.671875 34.71875 
L 19.671875 0 
L 9.8125 0 
z
" id="DejaVuSans-72"/>
     </defs>
     <use xlink:href="#DejaVuSans-82"/>
     <use x="69.482422" xlink:href="#DejaVuSans-118"/>
     <use x="128.662109" xlink:href="#DejaVuSans-49"/>
     <use x="192.285156" xlink:href="#DejaVuSans-56"/>
     <use x="255.908203" xlink:href="#DejaVuSans-50"/>
     <use x="319.53125" xlink:href="#DejaVuSans-56"/>
     <use x="383.154297" xlink:href="#DejaVuSans-47"/>
     <use x="416.845703" xlink:href="#DejaVuSans-83"/>
     <use x="480.322266" xlink:href="#DejaVuSans-105"/>
     <use x="508.105469" xlink:href="#DejaVuSans-103"/>
     <use x="571.582031" xlink:href="#DejaVuSans-72"/>
    </g>
   </g>
   <g id="text_16">
    <!-- Mce1R -->
    <g transform="translate(191.707602 405.64281)scale(0.1 -0.1)">
     <use xlink:href="#DejaVuSans-77"/>
     <use x="86.279297" xlink:href="#DejaVuSans-99"/>
     <use x="141.259766" xlink:href="#DejaVuSans-101"/>
     <use x="202.783203" xlink:href="#DejaVuSans-49"/>
     <use x="266.40625" xlink:href="#DejaVuSans-82"/>
    </g>
   </g>
   <g id="text_17">
    <!-- Rv2621c -->
    <g transform="translate(782.372162 205.078027)scale(0.1 -0.1)">
     <defs>
      <path d="M 33.015625 40.375 
Q 26.375 40.375 22.484375 35.828125 
Q 18.609375 31.296875 18.609375 23.390625 
Q 18.609375 15.53125 22.484375 10.953125 
Q 26.375 6.390625 33.015625 6.390625 
Q 39.65625 6.390625 43.53125 10.953125 
Q 47.40625 15.53125 47.40625 23.390625 
Q 47.40625 31.296875 43.53125 35.828125 
Q 39.65625 40.375 33.015625 40.375 
z
M 52.59375 71.296875 
L 52.59375 62.3125 
Q 48.875 64.0625 45.09375 64.984375 
Q 41.3125 65.921875 37.59375 65.921875 
Q 27.828125 65.921875 22.671875 59.328125 
Q 17.53125 52.734375 16.796875 39.40625 
Q 19.671875 43.65625 24.015625 45.921875 
Q 28.375 48.1875 33.59375 48.1875 
Q 44.578125 48.1875 50.953125 41.515625 
Q 57.328125 34.859375 57.328125 23.390625 
Q 57.328125 12.15625 50.6875 5.359375 
Q 44.046875 -1.421875 33.015625 -1.421875 
Q 20.359375 -1.421875 13.671875 8.265625 
Q 6.984375 17.96875 6.984375 36.375 
Q 6.984375 53.65625 15.1875 63.9375 
Q 23.390625 74.21875 37.203125 74.21875 
Q 40.921875 74.21875 44.703125 73.484375 
Q 48.484375 72.75 52.59375 71.296875 
z
" id="DejaVuSans-54"/>
     </defs>
     <use xlink:href="#DejaVuSans-82"/>
     <use x="69.482422" xlink:href="#DejaVuSans-118"/>
     <use x="128.662109" xlink:href="#DejaVuSans-50"/>
     <use x="192.285156" xlink:href="#DejaVuSans-54"/>
     <use x="255.908203" xlink:href="#DejaVuSans-50"/>
     <use x="319.53125" xlink:href="#DejaVuSans-49"/>
     <use x="383.154297" xlink:href="#DejaVuSans-99"/>
    </g>
   </g>
   <g id="text_18">
    <!-- Leucine Related -->
    <g transform="translate(786.367099 135.710789)scale(0.1 -0.1)">
     <use xlink:href="#DejaVuSans-76"/>
     <use x="53.962891" xlink:href="#DejaVuSans-101"/>
     <use x="115.486328" xlink:href="#DejaVuSans-117"/>
     <use x="178.865234" xlink:href="#DejaVuSans-99"/>
     <use x="233.845703" xlink:href="#DejaVuSans-105"/>
     <use x="261.628906" xlink:href="#DejaVuSans-110"/>
     <use x="325.007812" xlink:href="#DejaVuSans-101"/>
     <use x="386.53125" xlink:href="#DejaVuSans-32"/>
     <use x="418.318359" xlink:href="#DejaVuSans-82"/>
     <use x="483.300781" xlink:href="#DejaVuSans-101"/>
     <use x="544.824219" xlink:href="#DejaVuSans-108"/>
     <use x="572.607422" xlink:href="#DejaVuSans-97"/>
     <use x="633.886719" xlink:href="#DejaVuSans-116"/>
     <use x="673.095703" xlink:href="#DejaVuSans-101"/>
     <use x="734.619141" xlink:href="#DejaVuSans-100"/>
    </g>
   </g>
   <g id="text_19">
    <!-- LysG -->
    <g transform="translate(829.940679 193.399902)scale(0.1 -0.1)">
     <defs>
      <path d="M 32.171875 -5.078125 
Q 28.375 -14.84375 24.75 -17.8125 
Q 21.140625 -20.796875 15.09375 -20.796875 
L 7.90625 -20.796875 
L 7.90625 -13.28125 
L 13.1875 -13.28125 
Q 16.890625 -13.28125 18.9375 -11.515625 
Q 21 -9.765625 23.484375 -3.21875 
L 25.09375 0.875 
L 2.984375 54.6875 
L 12.5 54.6875 
L 29.59375 11.921875 
L 46.6875 54.6875 
L 56.203125 54.6875 
z
" id="DejaVuSans-121"/>
      <path d="M 59.515625 10.40625 
L 59.515625 29.984375 
L 43.40625 29.984375 
L 43.40625 38.09375 
L 69.28125 38.09375 
L 69.28125 6.78125 
Q 63.578125 2.734375 56.6875 0.65625 
Q 49.8125 -1.421875 42 -1.421875 
Q 24.90625 -1.421875 15.25 8.5625 
Q 5.609375 18.5625 5.609375 36.375 
Q 5.609375 54.25 15.25 64.234375 
Q 24.90625 74.21875 42 74.21875 
Q 49.125 74.21875 55.546875 72.453125 
Q 61.96875 70.703125 67.390625 67.28125 
L 67.390625 56.78125 
Q 61.921875 61.421875 55.765625 63.765625 
Q 49.609375 66.109375 42.828125 66.109375 
Q 29.4375 66.109375 22.71875 58.640625 
Q 16.015625 51.171875 16.015625 36.375 
Q 16.015625 21.625 22.71875 14.15625 
Q 29.4375 6.6875 42.828125 6.6875 
Q 48.046875 6.6875 52.140625 7.59375 
Q 56.25 8.5 59.515625 10.40625 
z
" id="DejaVuSans-71"/>
     </defs>
     <use xlink:href="#DejaVuSans-76"/>
     <use x="46.587891" xlink:href="#DejaVuSans-121"/>
     <use x="105.767578" xlink:href="#DejaVuSans-115"/>
     <use x="157.867188" xlink:href="#DejaVuSans-71"/>
    </g>
   </g>
   <g id="text_20">
    <!-- Positive Regulation of Growth -->
    <g transform="translate(673.371303 185.530294)scale(0.1 -0.1)">
     <defs>
      <path d="M 19.671875 64.796875 
L 19.671875 37.40625 
L 32.078125 37.40625 
Q 38.96875 37.40625 42.71875 40.96875 
Q 46.484375 44.53125 46.484375 51.125 
Q 46.484375 57.671875 42.71875 61.234375 
Q 38.96875 64.796875 32.078125 64.796875 
z
M 9.8125 72.90625 
L 32.078125 72.90625 
Q 44.34375 72.90625 50.609375 67.359375 
Q 56.890625 61.8125 56.890625 51.125 
Q 56.890625 40.328125 50.609375 34.8125 
Q 44.34375 29.296875 32.078125 29.296875 
L 19.671875 29.296875 
L 19.671875 0 
L 9.8125 0 
z
" id="DejaVuSans-80"/>
      <path d="M 37.109375 75.984375 
L 37.109375 68.5 
L 28.515625 68.5 
Q 23.6875 68.5 21.796875 66.546875 
Q 19.921875 64.59375 19.921875 59.515625 
L 19.921875 54.6875 
L 34.71875 54.6875 
L 34.71875 47.703125 
L 19.921875 47.703125 
L 19.921875 0 
L 10.890625 0 
L 10.890625 47.703125 
L 2.296875 47.703125 
L 2.296875 54.6875 
L 10.890625 54.6875 
L 10.890625 58.5 
Q 10.890625 67.625 15.140625 71.796875 
Q 19.390625 75.984375 28.609375 75.984375 
z
" id="DejaVuSans-102"/>
      <path d="M 4.203125 54.6875 
L 13.1875 54.6875 
L 24.421875 12.015625 
L 35.59375 54.6875 
L 46.1875 54.6875 
L 57.421875 12.015625 
L 68.609375 54.6875 
L 77.59375 54.6875 
L 63.28125 0 
L 52.6875 0 
L 40.921875 44.828125 
L 29.109375 0 
L 18.5 0 
z
" id="DejaVuSans-119"/>
     </defs>
     <use xlink:href="#DejaVuSans-80"/>
     <use x="56.677734" xlink:href="#DejaVuSans-111"/>
     <use x="117.859375" xlink:href="#DejaVuSans-115"/>
     <use x="169.958984" xlink:href="#DejaVuSans-105"/>
     <use x="197.742188" xlink:href="#DejaVuSans-116"/>
     <use x="236.951172" xlink:href="#DejaVuSans-105"/>
     <use x="264.734375" xlink:href="#DejaVuSans-118"/>
     <use x="323.914062" xlink:href="#DejaVuSans-101"/>
     <use x="385.4375" xlink:href="#DejaVuSans-32"/>
     <use x="417.224609" xlink:href="#DejaVuSans-82"/>
     <use x="482.207031" xlink:href="#DejaVuSans-101"/>
     <use x="543.730469" xlink:href="#DejaVuSans-103"/>
     <use x="607.207031" xlink:href="#DejaVuSans-117"/>
     <use x="670.585938" xlink:href="#DejaVuSans-108"/>
     <use x="698.369141" xlink:href="#DejaVuSans-97"/>
     <use x="759.648438" xlink:href="#DejaVuSans-116"/>
     <use x="798.857422" xlink:href="#DejaVuSans-105"/>
     <use x="826.640625" xlink:href="#DejaVuSans-111"/>
     <use x="887.822266" xlink:href="#DejaVuSans-110"/>
     <use x="951.201172" xlink:href="#DejaVuSans-32"/>
     <use x="982.988281" xlink:href="#DejaVuSans-111"/>
     <use x="1044.169922" xlink:href="#DejaVuSans-102"/>
     <use x="1079.375" xlink:href="#DejaVuSans-32"/>
     <use x="1111.162109" xlink:href="#DejaVuSans-71"/>
     <use x="1188.652344" xlink:href="#DejaVuSans-114"/>
     <use x="1227.515625" xlink:href="#DejaVuSans-111"/>
     <use x="1288.697266" xlink:href="#DejaVuSans-119"/>
     <use x="1370.484375" xlink:href="#DejaVuSans-116"/>
     <use x="1409.693359" xlink:href="#DejaVuSans-104"/>
    </g>
   </g>
   <g id="text_21">
    <!-- PrpR -->
    <g transform="translate(835.830829 181.391705)scale(0.1 -0.1)">
     <use xlink:href="#DejaVuSans-80"/>
     <use x="58.552734" xlink:href="#DejaVuSans-114"/>
     <use x="99.666016" xlink:href="#DejaVuSans-112"/>
     <use x="163.142578" xlink:href="#DejaVuSans-82"/>
    </g>
   </g>
   <g id="text_22">
    <!-- Unc_2 -->
    <g transform="translate(853.853102 168.341596)scale(0.1 -0.1)">
     <use xlink:href="#DejaVuSans-85"/>
     <use x="73.193359" xlink:href="#DejaVuSans-110"/>
     <use x="136.572266" xlink:href="#DejaVuSans-99"/>
     <use x="191.552734" xlink:href="#DejaVuSans-95"/>
     <use x="241.552734" xlink:href="#DejaVuSans-50"/>
    </g>
   </g>
   <g id="text_23">
    <!-- DevR-1 -->
    <g transform="translate(878.928143 148.032664)scale(0.1 -0.1)">
     <defs>
      <path d="M 19.671875 64.796875 
L 19.671875 8.109375 
L 31.59375 8.109375 
Q 46.6875 8.109375 53.6875 14.9375 
Q 60.6875 21.78125 60.6875 36.53125 
Q 60.6875 51.171875 53.6875 57.984375 
Q 46.6875 64.796875 31.59375 64.796875 
z
M 9.8125 72.90625 
L 30.078125 72.90625 
Q 51.265625 72.90625 61.171875 64.09375 
Q 71.09375 55.28125 71.09375 36.53125 
Q 71.09375 17.671875 61.125 8.828125 
Q 51.171875 0 30.078125 0 
L 9.8125 0 
z
" id="DejaVuSans-68"/>
     </defs>
     <use xlink:href="#DejaVuSans-68"/>
     <use x="77.001953" xlink:href="#DejaVuSans-101"/>
     <use x="138.525391" xlink:href="#DejaVuSans-118"/>
     <use x="197.705078" xlink:href="#DejaVuSans-82"/>
     <use x="263.1875" xlink:href="#DejaVuSans-45"/>
     <use x="299.271484" xlink:href="#DejaVuSans-49"/>
    </g>
   </g>
   <g id="text_24">
    <!-- KstR2 -->
    <g transform="translate(886.068631 133.333633)scale(0.1 -0.1)">
     <defs>
      <path d="M 9.8125 72.90625 
L 19.671875 72.90625 
L 19.671875 42.09375 
L 52.390625 72.90625 
L 65.09375 72.90625 
L 28.90625 38.921875 
L 67.671875 0 
L 54.6875 0 
L 19.671875 35.109375 
L 19.671875 0 
L 9.8125 0 
z
" id="DejaVuSans-75"/>
     </defs>
     <use xlink:href="#DejaVuSans-75"/>
     <use x="65.576172" xlink:href="#DejaVuSans-115"/>
     <use x="117.675781" xlink:href="#DejaVuSans-116"/>
     <use x="156.884766" xlink:href="#DejaVuSans-82"/>
     <use x="226.367188" xlink:href="#DejaVuSans-50"/>
    </g>
   </g>
   <g id="text_25">
    <!-- HPT-2b Induced -->
    <g transform="translate(703.878007 124.032664)scale(0.1 -0.1)">
     <defs>
      <path d="M -0.296875 72.90625 
L 61.375 72.90625 
L 61.375 64.59375 
L 35.5 64.59375 
L 35.5 0 
L 25.59375 0 
L 25.59375 64.59375 
L -0.296875 64.59375 
z
" id="DejaVuSans-84"/>
     </defs>
     <use xlink:href="#DejaVuSans-72"/>
     <use x="75.195312" xlink:href="#DejaVuSans-80"/>
     <use x="135.498047" xlink:href="#DejaVuSans-84"/>
     <use x="187.457031" xlink:href="#DejaVuSans-45"/>
     <use x="223.541016" xlink:href="#DejaVuSans-50"/>
     <use x="287.164062" xlink:href="#DejaVuSans-98"/>
     <use x="350.640625" xlink:href="#DejaVuSans-32"/>
     <use x="382.427734" xlink:href="#DejaVuSans-73"/>
     <use x="411.919922" xlink:href="#DejaVuSans-110"/>
     <use x="475.298828" xlink:href="#DejaVuSans-100"/>
     <use x="538.775391" xlink:href="#DejaVuSans-117"/>
     <use x="602.154297" xlink:href="#DejaVuSans-99"/>
     <use x="657.134766" xlink:href="#DejaVuSans-101"/>
     <use x="718.658203" xlink:href="#DejaVuSans-100"/>
    </g>
   </g>
   <g id="text_26">
    <!-- SigK -->
    <g transform="translate(918.254073 121.333633)scale(0.1 -0.1)">
     <use xlink:href="#DejaVuSans-83"/>
     <use x="63.476562" xlink:href="#DejaVuSans-105"/>
     <use x="91.259766" xlink:href="#DejaVuSans-103"/>
     <use x="154.736328" xlink:href="#DejaVuSans-75"/>
    </g>
   </g>
   <g id="text_27">
    <!-- Rv1776c+WhiB4 -->
    <g transform="translate(828.993503 109.886122)scale(0.1 -0.1)">
     <defs>
      <path d="M 8.203125 72.90625 
L 55.078125 72.90625 
L 55.078125 68.703125 
L 28.609375 0 
L 18.3125 0 
L 43.21875 64.59375 
L 8.203125 64.59375 
z
" id="DejaVuSans-55"/>
      <path d="M 46 62.703125 
L 46 35.5 
L 73.1875 35.5 
L 73.1875 27.203125 
L 46 27.203125 
L 46 0 
L 37.796875 0 
L 37.796875 27.203125 
L 10.59375 27.203125 
L 10.59375 35.5 
L 37.796875 35.5 
L 37.796875 62.703125 
z
" id="DejaVuSans-43"/>
      <path d="M 3.328125 72.90625 
L 13.28125 72.90625 
L 28.609375 11.28125 
L 43.890625 72.90625 
L 54.984375 72.90625 
L 70.3125 11.28125 
L 85.59375 72.90625 
L 95.609375 72.90625 
L 77.296875 0 
L 64.890625 0 
L 49.515625 63.28125 
L 33.984375 0 
L 21.578125 0 
z
" id="DejaVuSans-87"/>
      <path d="M 19.671875 34.8125 
L 19.671875 8.109375 
L 35.5 8.109375 
Q 43.453125 8.109375 47.28125 11.40625 
Q 51.125 14.703125 51.125 21.484375 
Q 51.125 28.328125 47.28125 31.5625 
Q 43.453125 34.8125 35.5 34.8125 
z
M 19.671875 64.796875 
L 19.671875 42.828125 
L 34.28125 42.828125 
Q 41.5 42.828125 45.03125 45.53125 
Q 48.578125 48.25 48.578125 53.8125 
Q 48.578125 59.328125 45.03125 62.0625 
Q 41.5 64.796875 34.28125 64.796875 
z
M 9.8125 72.90625 
L 35.015625 72.90625 
Q 46.296875 72.90625 52.390625 68.21875 
Q 58.5 63.53125 58.5 54.890625 
Q 58.5 48.1875 55.375 44.234375 
Q 52.25 40.28125 46.1875 39.3125 
Q 53.46875 37.75 57.5 32.78125 
Q 61.53125 27.828125 61.53125 20.40625 
Q 61.53125 10.640625 54.890625 5.3125 
Q 48.25 0 35.984375 0 
L 9.8125 0 
z
" id="DejaVuSans-66"/>
     </defs>
     <use xlink:href="#DejaVuSans-82"/>
     <use x="69.482422" xlink:href="#DejaVuSans-118"/>
     <use x="128.662109" xlink:href="#DejaVuSans-49"/>
     <use x="192.285156" xlink:href="#DejaVuSans-55"/>
     <use x="255.908203" xlink:href="#DejaVuSans-55"/>
     <use x="319.53125" xlink:href="#DejaVuSans-54"/>
     <use x="383.154297" xlink:href="#DejaVuSans-99"/>
     <use x="438.134766" xlink:href="#DejaVuSans-43"/>
     <use x="521.923828" xlink:href="#DejaVuSans-87"/>
     <use x="620.800781" xlink:href="#DejaVuSans-104"/>
     <use x="684.179688" xlink:href="#DejaVuSans-105"/>
     <use x="711.962891" xlink:href="#DejaVuSans-66"/>
     <use x="780.566406" xlink:href="#DejaVuSans-52"/>
    </g>
   </g>
   <g id="text_28">
    <!-- MarR -->
    <g transform="translate(928.930329 77.829749)scale(0.1 -0.1)">
     <use xlink:href="#DejaVuSans-77"/>
     <use x="86.279297" xlink:href="#DejaVuSans-97"/>
     <use x="147.558594" xlink:href="#DejaVuSans-114"/>
     <use x="188.671875" xlink:href="#DejaVuSans-82"/>
    </g>
   </g>
   <g id="text_29">
    <!-- Fumarate Reductase -->
    <g transform="translate(822.300232 68.962822)scale(0.1 -0.1)">
     <defs>
      <path d="M 9.8125 72.90625 
L 51.703125 72.90625 
L 51.703125 64.59375 
L 19.671875 64.59375 
L 19.671875 43.109375 
L 48.578125 43.109375 
L 48.578125 34.8125 
L 19.671875 34.8125 
L 19.671875 0 
L 9.8125 0 
z
" id="DejaVuSans-70"/>
     </defs>
     <use xlink:href="#DejaVuSans-70"/>
     <use x="52.019531" xlink:href="#DejaVuSans-117"/>
     <use x="115.398438" xlink:href="#DejaVuSans-109"/>
     <use x="212.810547" xlink:href="#DejaVuSans-97"/>
     <use x="274.089844" xlink:href="#DejaVuSans-114"/>
     <use x="315.203125" xlink:href="#DejaVuSans-97"/>
     <use x="376.482422" xlink:href="#DejaVuSans-116"/>
     <use x="415.691406" xlink:href="#DejaVuSans-101"/>
     <use x="477.214844" xlink:href="#DejaVuSans-32"/>
     <use x="509.001953" xlink:href="#DejaVuSans-82"/>
     <use x="573.984375" xlink:href="#DejaVuSans-101"/>
     <use x="635.507812" xlink:href="#DejaVuSans-100"/>
     <use x="698.984375" xlink:href="#DejaVuSans-117"/>
     <use x="762.363281" xlink:href="#DejaVuSans-99"/>
     <use x="817.34375" xlink:href="#DejaVuSans-116"/>
     <use x="856.552734" xlink:href="#DejaVuSans-97"/>
     <use x="917.832031" xlink:href="#DejaVuSans-115"/>
     <use x="969.931641" xlink:href="#DejaVuSans-101"/>
    </g>
   </g>
   <g id="patch_167">
    <path d="M 160.928492 429.795808 
Q 154.061825 427.113378 147.195158 424.430949 
" style="fill:none;opacity:0.8;stroke:#808080;stroke-linecap:round;"/>
   </g>
   <g id="patch_168">
    <path d="M 125.653451 299.305325 
Q 140.414132 357.423165 155.174812 415.541004 
" style="fill:none;opacity:0.8;stroke:#808080;stroke-linecap:round;"/>
   </g>
   <g id="patch_169">
    <path d="M 157.314025 423.200601 
Q 161.15337 416.619454 164.992715 410.038306 
" style="fill:none;opacity:0.8;stroke:#808080;stroke-linecap:round;"/>
   </g>
   <g id="patch_170">
    <path d="M 192.883545 411.833173 
Q 185.446859 406.99724 178.010174 402.161307 
" style="fill:none;opacity:0.8;stroke:#808080;stroke-linecap:round;"/>
   </g>
   <g id="patch_171">
    <path d="M 189.843117 397.544242 
Q 189.224268 397.384146 188.605418 397.22405 
" style="fill:none;opacity:0.8;stroke:#808080;stroke-linecap:round;"/>
   </g>
   <g id="patch_172">
    <path d="M 828.184505 202.391545 
Q 831.927829 202.378722 835.671153 202.3659 
" style="fill:none;opacity:0.8;stroke:#808080;stroke-linecap:round;"/>
   </g>
   <g id="patch_173">
    <path d="M 831.36282 139.722876 
Q 839.420946 169.598018 847.479073 199.47316 
" style="fill:none;opacity:0.8;stroke:#808080;stroke-linecap:round;"/>
   </g>
   <g id="patch_174">
    <path d="M 851.667686 196.435681 
Q 854.123365 197.774518 856.579044 199.113356 
" style="fill:none;opacity:0.8;stroke:#808080;stroke-linecap:round;"/>
   </g>
   <g id="patch_175">
    <path d="M 781.225806 187.870116 
Q 823.954895 193.470332 866.683984 199.070548 
" style="fill:none;opacity:0.8;stroke:#808080;stroke-linecap:round;"/>
   </g>
   <g id="patch_176">
    <path d="M 861.043816 181.949309 
Q 869.050889 183.872401 877.057962 185.795493 
" style="fill:none;opacity:0.8;stroke:#808080;stroke-linecap:round;"/>
   </g>
   <g id="patch_177">
    <path d="M 885.796792 171.27979 
Q 886.606674 171.525631 887.416556 171.771472 
" style="fill:none;opacity:0.8;stroke:#808080;stroke-linecap:round;"/>
   </g>
   <g id="patch_178">
    <path d="M 896.727929 152.090065 
Q 898.034792 160.010672 899.341655 167.931279 
" style="fill:none;opacity:0.8;stroke:#808080;stroke-linecap:round;"/>
   </g>
   <g id="patch_179">
    <path d="M 901.796872 137.300741 
Q 905.572494 148.246344 909.348116 159.191946 
" style="fill:none;opacity:0.8;stroke:#808080;stroke-linecap:round;"/>
   </g>
   <g id="patch_180">
    <path d="M 771.883424 126.439803 
Q 845.123032 138.612311 918.362639 150.78482 
" style="fill:none;opacity:0.8;stroke:#808080;stroke-linecap:round;"/>
   </g>
   <g id="patch_181">
    <path d="M 929.045833 125.404243 
Q 929.759498 132.744648 930.473164 140.085053 
" style="fill:none;opacity:0.8;stroke:#808080;stroke-linecap:round;"/>
   </g>
   <g id="patch_182">
    <path d="M 889.715755 112.447996 
Q 914.385968 118.571399 939.056182 124.694801 
" style="fill:none;opacity:0.8;stroke:#808080;stroke-linecap:round;"/>
   </g>
   <g id="patch_183">
    <path d="M 944.187933 81.87067 
Q 947.576154 99.945507 950.964375 118.020343 
" style="fill:none;opacity:0.8;stroke:#808080;stroke-linecap:round;"/>
   </g>
   <g id="patch_184">
    <path d="M 910.871067 71.29527 
Q 935.278315 74.409431 959.685564 77.523591 
" style="fill:none;opacity:0.8;stroke:#808080;stroke-linecap:round;"/>
   </g>
   <g id="text_30">
    <!-- In-vivo Neutrophil  -->
    <g transform="translate(484.603125 54.48)scale(0.15 -0.15)">
     <use xlink:href="#DejaVuSans-73"/>
     <use x="29.492188" xlink:href="#DejaVuSans-110"/>
     <use x="92.871094" xlink:href="#DejaVuSans-45"/>
     <use x="126.330078" xlink:href="#DejaVuSans-118"/>
     <use x="185.509766" xlink:href="#DejaVuSans-105"/>
     <use x="213.292969" xlink:href="#DejaVuSans-118"/>
     <use x="272.472656" xlink:href="#DejaVuSans-111"/>
     <use x="333.654297" xlink:href="#DejaVuSans-32"/>
     <use x="365.441406" xlink:href="#DejaVuSans-78"/>
     <use x="440.246094" xlink:href="#DejaVuSans-101"/>
     <use x="501.769531" xlink:href="#DejaVuSans-117"/>
     <use x="565.148438" xlink:href="#DejaVuSans-116"/>
     <use x="604.357422" xlink:href="#DejaVuSans-114"/>
     <use x="643.220703" xlink:href="#DejaVuSans-111"/>
     <use x="704.402344" xlink:href="#DejaVuSans-112"/>
     <use x="767.878906" xlink:href="#DejaVuSans-104"/>
     <use x="831.257812" xlink:href="#DejaVuSans-105"/>
     <use x="859.041016" xlink:href="#DejaVuSans-108"/>
     <use x="886.824219" xlink:href="#DejaVuSans-32"/>
    </g>
   </g>
  </g>
 </g>
 <defs>
  <clipPath id="p78a9d5bdfd">
   <rect height="380.52" width="837" x="135" y="60.48"/>
  </clipPath>
 </defs>
</svg>
